G04 #@! TF.GenerationSoftware,KiCad,Pcbnew,5.1.5+dfsg1-2build2*
G04 #@! TF.CreationDate,2022-01-20T09:43:14-08:00*
G04 #@! TF.ProjectId,pcb_v1,7063625f-7631-42e6-9b69-6361645f7063,rev?*
G04 #@! TF.SameCoordinates,Original*
G04 #@! TF.FileFunction,Legend,Bot*
G04 #@! TF.FilePolarity,Positive*
%FSLAX46Y46*%
G04 Gerber Fmt 4.6, Leading zero omitted, Abs format (unit mm)*
G04 Created by KiCad (PCBNEW 5.1.5+dfsg1-2build2) date 2022-01-20 09:43:14*
%MOMM*%
%LPD*%
G04 APERTURE LIST*
%ADD10C,0.080000*%
%ADD11C,0.150000*%
%ADD12C,0.120000*%
G04 APERTURE END LIST*
D10*
X160503333Y-110678571D02*
X160503333Y-110916666D01*
X160646190Y-110630952D02*
X160146190Y-110797619D01*
X160646190Y-110964285D01*
X160455714Y-111511904D02*
X160455714Y-111892857D01*
X160646190Y-112773809D02*
X160646190Y-112488095D01*
X160646190Y-112630952D02*
X160146190Y-112630952D01*
X160217619Y-112583333D01*
X160265238Y-112535714D01*
X160289047Y-112488095D01*
X160598571Y-112988095D02*
X160622380Y-113011904D01*
X160646190Y-112988095D01*
X160622380Y-112964285D01*
X160598571Y-112988095D01*
X160646190Y-112988095D01*
X160146190Y-113464285D02*
X160146190Y-113226190D01*
X160384285Y-113202380D01*
X160360476Y-113226190D01*
X160336666Y-113273809D01*
X160336666Y-113392857D01*
X160360476Y-113440476D01*
X160384285Y-113464285D01*
X160431904Y-113488095D01*
X160550952Y-113488095D01*
X160598571Y-113464285D01*
X160622380Y-113440476D01*
X160646190Y-113392857D01*
X160646190Y-113273809D01*
X160622380Y-113226190D01*
X160598571Y-113202380D01*
X160646190Y-113702380D02*
X160312857Y-113702380D01*
X160360476Y-113702380D02*
X160336666Y-113726190D01*
X160312857Y-113773809D01*
X160312857Y-113845238D01*
X160336666Y-113892857D01*
X160384285Y-113916666D01*
X160646190Y-113916666D01*
X160384285Y-113916666D02*
X160336666Y-113940476D01*
X160312857Y-113988095D01*
X160312857Y-114059523D01*
X160336666Y-114107142D01*
X160384285Y-114130952D01*
X160646190Y-114130952D01*
X160646190Y-114369047D02*
X160312857Y-114369047D01*
X160360476Y-114369047D02*
X160336666Y-114392857D01*
X160312857Y-114440476D01*
X160312857Y-114511904D01*
X160336666Y-114559523D01*
X160384285Y-114583333D01*
X160646190Y-114583333D01*
X160384285Y-114583333D02*
X160336666Y-114607142D01*
X160312857Y-114654761D01*
X160312857Y-114726190D01*
X160336666Y-114773809D01*
X160384285Y-114797619D01*
X160646190Y-114797619D01*
X161214285Y-110833333D02*
X161238095Y-110904761D01*
X161261904Y-110928571D01*
X161309523Y-110952380D01*
X161380952Y-110952380D01*
X161428571Y-110928571D01*
X161452380Y-110904761D01*
X161476190Y-110857142D01*
X161476190Y-110666666D01*
X160976190Y-110666666D01*
X160976190Y-110833333D01*
X161000000Y-110880952D01*
X161023809Y-110904761D01*
X161071428Y-110928571D01*
X161119047Y-110928571D01*
X161166666Y-110904761D01*
X161190476Y-110880952D01*
X161214285Y-110833333D01*
X161214285Y-110666666D01*
X161285714Y-111547619D02*
X161285714Y-111928571D01*
X161476190Y-112809523D02*
X161476190Y-112523809D01*
X161476190Y-112666666D02*
X160976190Y-112666666D01*
X161047619Y-112619047D01*
X161095238Y-112571428D01*
X161119047Y-112523809D01*
X161428571Y-113023809D02*
X161452380Y-113047619D01*
X161476190Y-113023809D01*
X161452380Y-113000000D01*
X161428571Y-113023809D01*
X161476190Y-113023809D01*
X161476190Y-113285714D02*
X161476190Y-113380952D01*
X161452380Y-113428571D01*
X161428571Y-113452380D01*
X161357142Y-113500000D01*
X161261904Y-113523809D01*
X161071428Y-113523809D01*
X161023809Y-113500000D01*
X161000000Y-113476190D01*
X160976190Y-113428571D01*
X160976190Y-113333333D01*
X161000000Y-113285714D01*
X161023809Y-113261904D01*
X161071428Y-113238095D01*
X161190476Y-113238095D01*
X161238095Y-113261904D01*
X161261904Y-113285714D01*
X161285714Y-113333333D01*
X161285714Y-113428571D01*
X161261904Y-113476190D01*
X161238095Y-113500000D01*
X161190476Y-113523809D01*
X161476190Y-113738095D02*
X161142857Y-113738095D01*
X161190476Y-113738095D02*
X161166666Y-113761904D01*
X161142857Y-113809523D01*
X161142857Y-113880952D01*
X161166666Y-113928571D01*
X161214285Y-113952380D01*
X161476190Y-113952380D01*
X161214285Y-113952380D02*
X161166666Y-113976190D01*
X161142857Y-114023809D01*
X161142857Y-114095238D01*
X161166666Y-114142857D01*
X161214285Y-114166666D01*
X161476190Y-114166666D01*
X161476190Y-114404761D02*
X161142857Y-114404761D01*
X161190476Y-114404761D02*
X161166666Y-114428571D01*
X161142857Y-114476190D01*
X161142857Y-114547619D01*
X161166666Y-114595238D01*
X161214285Y-114619047D01*
X161476190Y-114619047D01*
X161214285Y-114619047D02*
X161166666Y-114642857D01*
X161142857Y-114690476D01*
X161142857Y-114761904D01*
X161166666Y-114809523D01*
X161214285Y-114833333D01*
X161476190Y-114833333D01*
X162258571Y-110952380D02*
X162282380Y-110928571D01*
X162306190Y-110857142D01*
X162306190Y-110809523D01*
X162282380Y-110738095D01*
X162234761Y-110690476D01*
X162187142Y-110666666D01*
X162091904Y-110642857D01*
X162020476Y-110642857D01*
X161925238Y-110666666D01*
X161877619Y-110690476D01*
X161830000Y-110738095D01*
X161806190Y-110809523D01*
X161806190Y-110857142D01*
X161830000Y-110928571D01*
X161853809Y-110952380D01*
X162115714Y-111547619D02*
X162115714Y-111928571D01*
X161853809Y-112523809D02*
X161830000Y-112547619D01*
X161806190Y-112595238D01*
X161806190Y-112714285D01*
X161830000Y-112761904D01*
X161853809Y-112785714D01*
X161901428Y-112809523D01*
X161949047Y-112809523D01*
X162020476Y-112785714D01*
X162306190Y-112500000D01*
X162306190Y-112809523D01*
X162258571Y-113023809D02*
X162282380Y-113047619D01*
X162306190Y-113023809D01*
X162282380Y-113000000D01*
X162258571Y-113023809D01*
X162306190Y-113023809D01*
X161806190Y-113476190D02*
X161806190Y-113380952D01*
X161830000Y-113333333D01*
X161853809Y-113309523D01*
X161925238Y-113261904D01*
X162020476Y-113238095D01*
X162210952Y-113238095D01*
X162258571Y-113261904D01*
X162282380Y-113285714D01*
X162306190Y-113333333D01*
X162306190Y-113428571D01*
X162282380Y-113476190D01*
X162258571Y-113500000D01*
X162210952Y-113523809D01*
X162091904Y-113523809D01*
X162044285Y-113500000D01*
X162020476Y-113476190D01*
X161996666Y-113428571D01*
X161996666Y-113333333D01*
X162020476Y-113285714D01*
X162044285Y-113261904D01*
X162091904Y-113238095D01*
X162306190Y-113738095D02*
X161972857Y-113738095D01*
X162020476Y-113738095D02*
X161996666Y-113761904D01*
X161972857Y-113809523D01*
X161972857Y-113880952D01*
X161996666Y-113928571D01*
X162044285Y-113952380D01*
X162306190Y-113952380D01*
X162044285Y-113952380D02*
X161996666Y-113976190D01*
X161972857Y-114023809D01*
X161972857Y-114095238D01*
X161996666Y-114142857D01*
X162044285Y-114166666D01*
X162306190Y-114166666D01*
X162306190Y-114404761D02*
X161972857Y-114404761D01*
X162020476Y-114404761D02*
X161996666Y-114428571D01*
X161972857Y-114476190D01*
X161972857Y-114547619D01*
X161996666Y-114595238D01*
X162044285Y-114619047D01*
X162306190Y-114619047D01*
X162044285Y-114619047D02*
X161996666Y-114642857D01*
X161972857Y-114690476D01*
X161972857Y-114761904D01*
X161996666Y-114809523D01*
X162044285Y-114833333D01*
X162306190Y-114833333D01*
D11*
X171952380Y-92559523D02*
X171952380Y-93130952D01*
X172952380Y-92845238D02*
X171952380Y-92845238D01*
X172904761Y-93845238D02*
X172952380Y-93750000D01*
X172952380Y-93559523D01*
X172904761Y-93464285D01*
X172809523Y-93416666D01*
X172428571Y-93416666D01*
X172333333Y-93464285D01*
X172285714Y-93559523D01*
X172285714Y-93750000D01*
X172333333Y-93845238D01*
X172428571Y-93892857D01*
X172523809Y-93892857D01*
X172619047Y-93416666D01*
X172952380Y-94750000D02*
X172428571Y-94750000D01*
X172333333Y-94702380D01*
X172285714Y-94607142D01*
X172285714Y-94416666D01*
X172333333Y-94321428D01*
X172904761Y-94750000D02*
X172952380Y-94654761D01*
X172952380Y-94416666D01*
X172904761Y-94321428D01*
X172809523Y-94273809D01*
X172714285Y-94273809D01*
X172619047Y-94321428D01*
X172571428Y-94416666D01*
X172571428Y-94654761D01*
X172523809Y-94750000D01*
X172952380Y-95226190D02*
X172285714Y-95226190D01*
X172380952Y-95226190D02*
X172333333Y-95273809D01*
X172285714Y-95369047D01*
X172285714Y-95511904D01*
X172333333Y-95607142D01*
X172428571Y-95654761D01*
X172952380Y-95654761D01*
X172428571Y-95654761D02*
X172333333Y-95702380D01*
X172285714Y-95797619D01*
X172285714Y-95940476D01*
X172333333Y-96035714D01*
X172428571Y-96083333D01*
X172952380Y-96083333D01*
X172857142Y-96559523D02*
X172904761Y-96607142D01*
X172952380Y-96559523D01*
X172904761Y-96511904D01*
X172857142Y-96559523D01*
X172952380Y-96559523D01*
X172333333Y-96559523D02*
X172380952Y-96607142D01*
X172428571Y-96559523D01*
X172380952Y-96511904D01*
X172333333Y-96559523D01*
X172428571Y-96559523D01*
X171952380Y-97654761D02*
X171952380Y-98226190D01*
X172952380Y-97940476D02*
X171952380Y-97940476D01*
X172952380Y-99035714D02*
X172952380Y-98559523D01*
X171952380Y-98559523D01*
X172380952Y-99511904D02*
X172333333Y-99416666D01*
X172285714Y-99369047D01*
X172190476Y-99321428D01*
X172142857Y-99321428D01*
X172047619Y-99369047D01*
X172000000Y-99416666D01*
X171952380Y-99511904D01*
X171952380Y-99702380D01*
X172000000Y-99797619D01*
X172047619Y-99845238D01*
X172142857Y-99892857D01*
X172190476Y-99892857D01*
X172285714Y-99845238D01*
X172333333Y-99797619D01*
X172380952Y-99702380D01*
X172380952Y-99511904D01*
X172428571Y-99416666D01*
X172476190Y-99369047D01*
X172571428Y-99321428D01*
X172761904Y-99321428D01*
X172857142Y-99369047D01*
X172904761Y-99416666D01*
X172952380Y-99511904D01*
X172952380Y-99702380D01*
X172904761Y-99797619D01*
X172857142Y-99845238D01*
X172761904Y-99892857D01*
X172571428Y-99892857D01*
X172476190Y-99845238D01*
X172428571Y-99797619D01*
X172380952Y-99702380D01*
X171952380Y-100797619D02*
X171952380Y-100321428D01*
X172428571Y-100273809D01*
X172380952Y-100321428D01*
X172333333Y-100416666D01*
X172333333Y-100654761D01*
X172380952Y-100750000D01*
X172428571Y-100797619D01*
X172523809Y-100845238D01*
X172761904Y-100845238D01*
X172857142Y-100797619D01*
X172904761Y-100750000D01*
X172952380Y-100654761D01*
X172952380Y-100416666D01*
X172904761Y-100321428D01*
X172857142Y-100273809D01*
D12*
X170000000Y-91000000D02*
X170000000Y-91250000D01*
X171500000Y-91000000D02*
X170000000Y-91000000D01*
X171500000Y-91250000D02*
X171500000Y-91000000D01*
X170000000Y-91250000D02*
X170000000Y-103500000D01*
X171500000Y-103500000D02*
X171500000Y-91250000D01*
X170000000Y-103500000D02*
X171500000Y-103500000D01*
D11*
X170678571Y-91800000D02*
X170678571Y-91466666D01*
X171202380Y-91466666D02*
X170202380Y-91466666D01*
X170202380Y-91942857D01*
X171202380Y-92466666D02*
X171154761Y-92371428D01*
X171059523Y-92323809D01*
X170202380Y-92323809D01*
X171202380Y-92990476D02*
X171154761Y-92895238D01*
X171107142Y-92847619D01*
X171011904Y-92800000D01*
X170726190Y-92800000D01*
X170630952Y-92847619D01*
X170583333Y-92895238D01*
X170535714Y-92990476D01*
X170535714Y-93133333D01*
X170583333Y-93228571D01*
X170630952Y-93276190D01*
X170726190Y-93323809D01*
X171011904Y-93323809D01*
X171107142Y-93276190D01*
X171154761Y-93228571D01*
X171202380Y-93133333D01*
X171202380Y-92990476D01*
X170535714Y-93657142D02*
X171202380Y-93847619D01*
X170726190Y-94038095D01*
X171202380Y-94228571D01*
X170535714Y-94419047D01*
X171154761Y-94752380D02*
X171202380Y-94847619D01*
X171202380Y-95038095D01*
X171154761Y-95133333D01*
X171059523Y-95180952D01*
X171011904Y-95180952D01*
X170916666Y-95133333D01*
X170869047Y-95038095D01*
X170869047Y-94895238D01*
X170821428Y-94800000D01*
X170726190Y-94752380D01*
X170678571Y-94752380D01*
X170583333Y-94800000D01*
X170535714Y-94895238D01*
X170535714Y-95038095D01*
X170583333Y-95133333D01*
X171154761Y-95990476D02*
X171202380Y-95895238D01*
X171202380Y-95704761D01*
X171154761Y-95609523D01*
X171059523Y-95561904D01*
X170678571Y-95561904D01*
X170583333Y-95609523D01*
X170535714Y-95704761D01*
X170535714Y-95895238D01*
X170583333Y-95990476D01*
X170678571Y-96038095D01*
X170773809Y-96038095D01*
X170869047Y-95561904D01*
X170535714Y-96466666D02*
X171202380Y-96466666D01*
X170630952Y-96466666D02*
X170583333Y-96514285D01*
X170535714Y-96609523D01*
X170535714Y-96752380D01*
X170583333Y-96847619D01*
X170678571Y-96895238D01*
X171202380Y-96895238D01*
X171154761Y-97323809D02*
X171202380Y-97419047D01*
X171202380Y-97609523D01*
X171154761Y-97704761D01*
X171059523Y-97752380D01*
X171011904Y-97752380D01*
X170916666Y-97704761D01*
X170869047Y-97609523D01*
X170869047Y-97466666D01*
X170821428Y-97371428D01*
X170726190Y-97323809D01*
X170678571Y-97323809D01*
X170583333Y-97371428D01*
X170535714Y-97466666D01*
X170535714Y-97609523D01*
X170583333Y-97704761D01*
X171202380Y-98323809D02*
X171154761Y-98228571D01*
X171107142Y-98180952D01*
X171011904Y-98133333D01*
X170726190Y-98133333D01*
X170630952Y-98180952D01*
X170583333Y-98228571D01*
X170535714Y-98323809D01*
X170535714Y-98466666D01*
X170583333Y-98561904D01*
X170630952Y-98609523D01*
X170726190Y-98657142D01*
X171011904Y-98657142D01*
X171107142Y-98609523D01*
X171154761Y-98561904D01*
X171202380Y-98466666D01*
X171202380Y-98323809D01*
X171202380Y-99085714D02*
X170535714Y-99085714D01*
X170726190Y-99085714D02*
X170630952Y-99133333D01*
X170583333Y-99180952D01*
X170535714Y-99276190D01*
X170535714Y-99371428D01*
X170535714Y-100371428D02*
X171202380Y-100609523D01*
X170535714Y-100847619D01*
X171202380Y-101752380D02*
X171202380Y-101180952D01*
X171202380Y-101466666D02*
X170202380Y-101466666D01*
X170345238Y-101371428D01*
X170440476Y-101276190D01*
X170488095Y-101180952D01*
X171107142Y-102180952D02*
X171154761Y-102228571D01*
X171202380Y-102180952D01*
X171154761Y-102133333D01*
X171107142Y-102180952D01*
X171202380Y-102180952D01*
X170202380Y-102847619D02*
X170202380Y-102942857D01*
X170250000Y-103038095D01*
X170297619Y-103085714D01*
X170392857Y-103133333D01*
X170583333Y-103180952D01*
X170821428Y-103180952D01*
X171011904Y-103133333D01*
X171107142Y-103085714D01*
X171154761Y-103038095D01*
X171202380Y-102942857D01*
X171202380Y-102847619D01*
X171154761Y-102752380D01*
X171107142Y-102704761D01*
X171011904Y-102657142D01*
X170821428Y-102609523D01*
X170583333Y-102609523D01*
X170392857Y-102657142D01*
X170297619Y-102704761D01*
X170250000Y-102752380D01*
X170202380Y-102847619D01*
X177145238Y-128796428D02*
X176383333Y-128796428D01*
X175907142Y-128796428D02*
X175145238Y-128796428D01*
X174669047Y-128796428D02*
X173907142Y-128796428D01*
X173430952Y-128796428D02*
X172669047Y-128796428D01*
X172192857Y-128796428D02*
X171430952Y-128796428D01*
X170954761Y-128796428D02*
X170192857Y-128796428D01*
X169716666Y-128510714D02*
X168954761Y-128796428D01*
X169716666Y-129082142D01*
X177859523Y-130303571D02*
X178192857Y-130303571D01*
X178192857Y-130827380D02*
X178192857Y-129827380D01*
X177716666Y-129827380D01*
X177192857Y-130827380D02*
X177288095Y-130779761D01*
X177335714Y-130684523D01*
X177335714Y-129827380D01*
X176669047Y-130827380D02*
X176764285Y-130779761D01*
X176811904Y-130732142D01*
X176859523Y-130636904D01*
X176859523Y-130351190D01*
X176811904Y-130255952D01*
X176764285Y-130208333D01*
X176669047Y-130160714D01*
X176526190Y-130160714D01*
X176430952Y-130208333D01*
X176383333Y-130255952D01*
X176335714Y-130351190D01*
X176335714Y-130636904D01*
X176383333Y-130732142D01*
X176430952Y-130779761D01*
X176526190Y-130827380D01*
X176669047Y-130827380D01*
X176002380Y-130160714D02*
X175811904Y-130827380D01*
X175621428Y-130351190D01*
X175430952Y-130827380D01*
X175240476Y-130160714D01*
X174097619Y-130827380D02*
X174097619Y-129827380D01*
X173859523Y-129827380D01*
X173716666Y-129875000D01*
X173621428Y-129970238D01*
X173573809Y-130065476D01*
X173526190Y-130255952D01*
X173526190Y-130398809D01*
X173573809Y-130589285D01*
X173621428Y-130684523D01*
X173716666Y-130779761D01*
X173859523Y-130827380D01*
X174097619Y-130827380D01*
X173097619Y-130827380D02*
X173097619Y-130160714D01*
X173097619Y-129827380D02*
X173145238Y-129875000D01*
X173097619Y-129922619D01*
X173050000Y-129875000D01*
X173097619Y-129827380D01*
X173097619Y-129922619D01*
X172621428Y-130827380D02*
X172621428Y-130160714D01*
X172621428Y-130351190D02*
X172573809Y-130255952D01*
X172526190Y-130208333D01*
X172430952Y-130160714D01*
X172335714Y-130160714D01*
X171621428Y-130779761D02*
X171716666Y-130827380D01*
X171907142Y-130827380D01*
X172002380Y-130779761D01*
X172050000Y-130684523D01*
X172050000Y-130303571D01*
X172002380Y-130208333D01*
X171907142Y-130160714D01*
X171716666Y-130160714D01*
X171621428Y-130208333D01*
X171573809Y-130303571D01*
X171573809Y-130398809D01*
X172050000Y-130494047D01*
X170716666Y-130779761D02*
X170811904Y-130827380D01*
X171002380Y-130827380D01*
X171097619Y-130779761D01*
X171145238Y-130732142D01*
X171192857Y-130636904D01*
X171192857Y-130351190D01*
X171145238Y-130255952D01*
X171097619Y-130208333D01*
X171002380Y-130160714D01*
X170811904Y-130160714D01*
X170716666Y-130208333D01*
X170430952Y-130160714D02*
X170050000Y-130160714D01*
X170288095Y-129827380D02*
X170288095Y-130684523D01*
X170240476Y-130779761D01*
X170145238Y-130827380D01*
X170050000Y-130827380D01*
X169716666Y-130827380D02*
X169716666Y-130160714D01*
X169716666Y-129827380D02*
X169764285Y-129875000D01*
X169716666Y-129922619D01*
X169669047Y-129875000D01*
X169716666Y-129827380D01*
X169716666Y-129922619D01*
X169097619Y-130827380D02*
X169192857Y-130779761D01*
X169240476Y-130732142D01*
X169288095Y-130636904D01*
X169288095Y-130351190D01*
X169240476Y-130255952D01*
X169192857Y-130208333D01*
X169097619Y-130160714D01*
X168954761Y-130160714D01*
X168859523Y-130208333D01*
X168811904Y-130255952D01*
X168764285Y-130351190D01*
X168764285Y-130636904D01*
X168811904Y-130732142D01*
X168859523Y-130779761D01*
X168954761Y-130827380D01*
X169097619Y-130827380D01*
X168335714Y-130160714D02*
X168335714Y-130827380D01*
X168335714Y-130255952D02*
X168288095Y-130208333D01*
X168192857Y-130160714D01*
X168050000Y-130160714D01*
X167954761Y-130208333D01*
X167907142Y-130303571D01*
X167907142Y-130827380D01*
X168707142Y-124309523D02*
X168754761Y-124261904D01*
X168802380Y-124119047D01*
X168802380Y-124023809D01*
X168754761Y-123880952D01*
X168659523Y-123785714D01*
X168564285Y-123738095D01*
X168373809Y-123690476D01*
X168230952Y-123690476D01*
X168040476Y-123738095D01*
X167945238Y-123785714D01*
X167850000Y-123880952D01*
X167802380Y-124023809D01*
X167802380Y-124119047D01*
X167850000Y-124261904D01*
X167897619Y-124309523D01*
D12*
X165050000Y-123500000D02*
X165050000Y-122950000D01*
X167250000Y-123500000D02*
X165050000Y-123500000D01*
D11*
X165978571Y-124071428D02*
X166026190Y-124214285D01*
X166073809Y-124261904D01*
X166169047Y-124309523D01*
X166311904Y-124309523D01*
X166407142Y-124261904D01*
X166454761Y-124214285D01*
X166502380Y-124119047D01*
X166502380Y-123738095D01*
X165502380Y-123738095D01*
X165502380Y-124071428D01*
X165550000Y-124166666D01*
X165597619Y-124214285D01*
X165692857Y-124261904D01*
X165788095Y-124261904D01*
X165883333Y-124214285D01*
X165930952Y-124166666D01*
X165978571Y-124071428D01*
X165978571Y-123738095D01*
D12*
X169550000Y-123500000D02*
X169550000Y-122950000D01*
X167250000Y-123500000D02*
X169550000Y-123500000D01*
X166950000Y-122950000D02*
X166950000Y-123500000D01*
D11*
X166166666Y-118561904D02*
X166166666Y-119038095D01*
X166452380Y-118466666D02*
X165452380Y-118800000D01*
X166452380Y-119133333D01*
D12*
X166750000Y-119350000D02*
X166750000Y-119950000D01*
X165250000Y-119350000D02*
X166750000Y-119350000D01*
X165250000Y-119950000D02*
X165250000Y-119350000D01*
D10*
X176542380Y-93397238D02*
X176566190Y-93468666D01*
X176566190Y-93587714D01*
X176542380Y-93635333D01*
X176518571Y-93659142D01*
X176470952Y-93682952D01*
X176423333Y-93682952D01*
X176375714Y-93659142D01*
X176351904Y-93635333D01*
X176328095Y-93587714D01*
X176304285Y-93492476D01*
X176280476Y-93444857D01*
X176256666Y-93421047D01*
X176209047Y-93397238D01*
X176161428Y-93397238D01*
X176113809Y-93421047D01*
X176090000Y-93444857D01*
X176066190Y-93492476D01*
X176066190Y-93611523D01*
X176090000Y-93682952D01*
X176232857Y-93897238D02*
X176732857Y-93897238D01*
X176256666Y-93897238D02*
X176232857Y-93944857D01*
X176232857Y-94040095D01*
X176256666Y-94087714D01*
X176280476Y-94111523D01*
X176328095Y-94135333D01*
X176470952Y-94135333D01*
X176518571Y-94111523D01*
X176542380Y-94087714D01*
X176566190Y-94040095D01*
X176566190Y-93944857D01*
X176542380Y-93897238D01*
X176542380Y-94540095D02*
X176566190Y-94492476D01*
X176566190Y-94397238D01*
X176542380Y-94349619D01*
X176494761Y-94325809D01*
X176304285Y-94325809D01*
X176256666Y-94349619D01*
X176232857Y-94397238D01*
X176232857Y-94492476D01*
X176256666Y-94540095D01*
X176304285Y-94563904D01*
X176351904Y-94563904D01*
X176399523Y-94325809D01*
X176542380Y-94992476D02*
X176566190Y-94944857D01*
X176566190Y-94849619D01*
X176542380Y-94802000D01*
X176518571Y-94778190D01*
X176470952Y-94754380D01*
X176328095Y-94754380D01*
X176280476Y-94778190D01*
X176256666Y-94802000D01*
X176232857Y-94849619D01*
X176232857Y-94944857D01*
X176256666Y-94992476D01*
X176566190Y-95206761D02*
X176232857Y-95206761D01*
X176066190Y-95206761D02*
X176090000Y-95182952D01*
X176113809Y-95206761D01*
X176090000Y-95230571D01*
X176066190Y-95206761D01*
X176113809Y-95206761D01*
X176566190Y-95659142D02*
X176304285Y-95659142D01*
X176256666Y-95635333D01*
X176232857Y-95587714D01*
X176232857Y-95492476D01*
X176256666Y-95444857D01*
X176542380Y-95659142D02*
X176566190Y-95611523D01*
X176566190Y-95492476D01*
X176542380Y-95444857D01*
X176494761Y-95421047D01*
X176447142Y-95421047D01*
X176399523Y-95444857D01*
X176375714Y-95492476D01*
X176375714Y-95611523D01*
X176351904Y-95659142D01*
X176566190Y-95968666D02*
X176542380Y-95921047D01*
X176494761Y-95897238D01*
X176066190Y-95897238D01*
X176066190Y-96635333D02*
X176066190Y-96730571D01*
X176090000Y-96778190D01*
X176137619Y-96825809D01*
X176232857Y-96849619D01*
X176399523Y-96849619D01*
X176494761Y-96825809D01*
X176542380Y-96778190D01*
X176566190Y-96730571D01*
X176566190Y-96635333D01*
X176542380Y-96587714D01*
X176494761Y-96540095D01*
X176399523Y-96516285D01*
X176232857Y-96516285D01*
X176137619Y-96540095D01*
X176090000Y-96587714D01*
X176066190Y-96635333D01*
X176566190Y-97063904D02*
X176232857Y-97063904D01*
X176328095Y-97063904D02*
X176280476Y-97087714D01*
X176256666Y-97111523D01*
X176232857Y-97159142D01*
X176232857Y-97206761D01*
X176566190Y-97587714D02*
X176066190Y-97587714D01*
X176542380Y-97587714D02*
X176566190Y-97540095D01*
X176566190Y-97444857D01*
X176542380Y-97397238D01*
X176518571Y-97373428D01*
X176470952Y-97349619D01*
X176328095Y-97349619D01*
X176280476Y-97373428D01*
X176256666Y-97397238D01*
X176232857Y-97444857D01*
X176232857Y-97540095D01*
X176256666Y-97587714D01*
X176542380Y-98016285D02*
X176566190Y-97968666D01*
X176566190Y-97873428D01*
X176542380Y-97825809D01*
X176494761Y-97802000D01*
X176304285Y-97802000D01*
X176256666Y-97825809D01*
X176232857Y-97873428D01*
X176232857Y-97968666D01*
X176256666Y-98016285D01*
X176304285Y-98040095D01*
X176351904Y-98040095D01*
X176399523Y-97802000D01*
X176566190Y-98254380D02*
X176232857Y-98254380D01*
X176328095Y-98254380D02*
X176280476Y-98278190D01*
X176256666Y-98302000D01*
X176232857Y-98349619D01*
X176232857Y-98397238D01*
X176518571Y-98563904D02*
X176542380Y-98587714D01*
X176566190Y-98563904D01*
X176542380Y-98540095D01*
X176518571Y-98563904D01*
X176566190Y-98563904D01*
X176256666Y-98563904D02*
X176280476Y-98587714D01*
X176304285Y-98563904D01*
X176280476Y-98540095D01*
X176256666Y-98563904D01*
X176304285Y-98563904D01*
X177396190Y-93682952D02*
X177396190Y-93397238D01*
X177396190Y-93540095D02*
X176896190Y-93540095D01*
X176967619Y-93492476D01*
X177015238Y-93444857D01*
X177039047Y-93397238D01*
X177348571Y-93897238D02*
X177372380Y-93921047D01*
X177396190Y-93897238D01*
X177372380Y-93873428D01*
X177348571Y-93897238D01*
X177396190Y-93897238D01*
X177348571Y-94802000D02*
X177372380Y-94778190D01*
X177396190Y-94706761D01*
X177396190Y-94659142D01*
X177372380Y-94587714D01*
X177324761Y-94540095D01*
X177277142Y-94516285D01*
X177181904Y-94492476D01*
X177110476Y-94492476D01*
X177015238Y-94516285D01*
X176967619Y-94540095D01*
X176920000Y-94587714D01*
X176896190Y-94659142D01*
X176896190Y-94706761D01*
X176920000Y-94778190D01*
X176943809Y-94802000D01*
X177396190Y-95087714D02*
X177372380Y-95040095D01*
X177348571Y-95016285D01*
X177300952Y-94992476D01*
X177158095Y-94992476D01*
X177110476Y-95016285D01*
X177086666Y-95040095D01*
X177062857Y-95087714D01*
X177062857Y-95159142D01*
X177086666Y-95206761D01*
X177110476Y-95230571D01*
X177158095Y-95254380D01*
X177300952Y-95254380D01*
X177348571Y-95230571D01*
X177372380Y-95206761D01*
X177396190Y-95159142D01*
X177396190Y-95087714D01*
X177062857Y-95468666D02*
X177396190Y-95468666D01*
X177110476Y-95468666D02*
X177086666Y-95492476D01*
X177062857Y-95540095D01*
X177062857Y-95611523D01*
X177086666Y-95659142D01*
X177134285Y-95682952D01*
X177396190Y-95682952D01*
X177396190Y-96135333D02*
X176896190Y-96135333D01*
X177372380Y-96135333D02*
X177396190Y-96087714D01*
X177396190Y-95992476D01*
X177372380Y-95944857D01*
X177348571Y-95921047D01*
X177300952Y-95897238D01*
X177158095Y-95897238D01*
X177110476Y-95921047D01*
X177086666Y-95944857D01*
X177062857Y-95992476D01*
X177062857Y-96087714D01*
X177086666Y-96135333D01*
X177062857Y-96587714D02*
X177396190Y-96587714D01*
X177062857Y-96373428D02*
X177324761Y-96373428D01*
X177372380Y-96397238D01*
X177396190Y-96444857D01*
X177396190Y-96516285D01*
X177372380Y-96563904D01*
X177348571Y-96587714D01*
X177372380Y-97040095D02*
X177396190Y-96992476D01*
X177396190Y-96897238D01*
X177372380Y-96849619D01*
X177348571Y-96825809D01*
X177300952Y-96802000D01*
X177158095Y-96802000D01*
X177110476Y-96825809D01*
X177086666Y-96849619D01*
X177062857Y-96897238D01*
X177062857Y-96992476D01*
X177086666Y-97040095D01*
X177062857Y-97182952D02*
X177062857Y-97373428D01*
X176896190Y-97254380D02*
X177324761Y-97254380D01*
X177372380Y-97278190D01*
X177396190Y-97325809D01*
X177396190Y-97373428D01*
X177396190Y-97540095D02*
X177062857Y-97540095D01*
X176896190Y-97540095D02*
X176920000Y-97516285D01*
X176943809Y-97540095D01*
X176920000Y-97563904D01*
X176896190Y-97540095D01*
X176943809Y-97540095D01*
X177062857Y-97730571D02*
X177396190Y-97849619D01*
X177062857Y-97968666D01*
X177372380Y-98349619D02*
X177396190Y-98302000D01*
X177396190Y-98206761D01*
X177372380Y-98159142D01*
X177324761Y-98135333D01*
X177134285Y-98135333D01*
X177086666Y-98159142D01*
X177062857Y-98206761D01*
X177062857Y-98302000D01*
X177086666Y-98349619D01*
X177134285Y-98373428D01*
X177181904Y-98373428D01*
X177229523Y-98135333D01*
X177396190Y-98659142D02*
X177372380Y-98611523D01*
X177324761Y-98587714D01*
X176896190Y-98587714D01*
X177062857Y-98802000D02*
X177396190Y-98921047D01*
X177062857Y-99040095D02*
X177396190Y-98921047D01*
X177515238Y-98873428D01*
X177539047Y-98849619D01*
X177562857Y-98802000D01*
X177205714Y-99230571D02*
X177205714Y-99611523D01*
X177134285Y-100016285D02*
X177134285Y-99849619D01*
X177396190Y-99849619D02*
X176896190Y-99849619D01*
X176896190Y-100087714D01*
X177396190Y-100278190D02*
X177062857Y-100278190D01*
X176896190Y-100278190D02*
X176920000Y-100254380D01*
X176943809Y-100278190D01*
X176920000Y-100302000D01*
X176896190Y-100278190D01*
X176943809Y-100278190D01*
X177396190Y-100587714D02*
X177372380Y-100540095D01*
X177324761Y-100516285D01*
X176896190Y-100516285D01*
X177396190Y-100849619D02*
X177372380Y-100802000D01*
X177324761Y-100778190D01*
X176896190Y-100778190D01*
X177372380Y-101230571D02*
X177396190Y-101182952D01*
X177396190Y-101087714D01*
X177372380Y-101040095D01*
X177324761Y-101016285D01*
X177134285Y-101016285D01*
X177086666Y-101040095D01*
X177062857Y-101087714D01*
X177062857Y-101182952D01*
X177086666Y-101230571D01*
X177134285Y-101254380D01*
X177181904Y-101254380D01*
X177229523Y-101016285D01*
X177396190Y-101682952D02*
X176896190Y-101682952D01*
X177372380Y-101682952D02*
X177396190Y-101635333D01*
X177396190Y-101540095D01*
X177372380Y-101492476D01*
X177348571Y-101468666D01*
X177300952Y-101444857D01*
X177158095Y-101444857D01*
X177110476Y-101468666D01*
X177086666Y-101492476D01*
X177062857Y-101540095D01*
X177062857Y-101635333D01*
X177086666Y-101682952D01*
X176896190Y-102230571D02*
X177396190Y-102397238D01*
X176896190Y-102563904D01*
X177396190Y-102730571D02*
X177062857Y-102730571D01*
X176896190Y-102730571D02*
X176920000Y-102706761D01*
X176943809Y-102730571D01*
X176920000Y-102754380D01*
X176896190Y-102730571D01*
X176943809Y-102730571D01*
X177396190Y-103182952D02*
X177134285Y-103182952D01*
X177086666Y-103159142D01*
X177062857Y-103111523D01*
X177062857Y-103016285D01*
X177086666Y-102968666D01*
X177372380Y-103182952D02*
X177396190Y-103135333D01*
X177396190Y-103016285D01*
X177372380Y-102968666D01*
X177324761Y-102944857D01*
X177277142Y-102944857D01*
X177229523Y-102968666D01*
X177205714Y-103016285D01*
X177205714Y-103135333D01*
X177181904Y-103182952D01*
X177372380Y-103397238D02*
X177396190Y-103444857D01*
X177396190Y-103540095D01*
X177372380Y-103587714D01*
X177324761Y-103611523D01*
X177300952Y-103611523D01*
X177253333Y-103587714D01*
X177229523Y-103540095D01*
X177229523Y-103468666D01*
X177205714Y-103421047D01*
X177158095Y-103397238D01*
X177134285Y-103397238D01*
X177086666Y-103421047D01*
X177062857Y-103468666D01*
X177062857Y-103540095D01*
X177086666Y-103587714D01*
X177773809Y-93397238D02*
X177750000Y-93421047D01*
X177726190Y-93468666D01*
X177726190Y-93587714D01*
X177750000Y-93635333D01*
X177773809Y-93659142D01*
X177821428Y-93682952D01*
X177869047Y-93682952D01*
X177940476Y-93659142D01*
X178226190Y-93373428D01*
X178226190Y-93682952D01*
X178178571Y-93897238D02*
X178202380Y-93921047D01*
X178226190Y-93897238D01*
X178202380Y-93873428D01*
X178178571Y-93897238D01*
X178226190Y-93897238D01*
X177726190Y-94444857D02*
X177726190Y-94730571D01*
X178226190Y-94587714D02*
X177726190Y-94587714D01*
X178226190Y-94897238D02*
X177726190Y-94897238D01*
X178226190Y-95111523D02*
X177964285Y-95111523D01*
X177916666Y-95087714D01*
X177892857Y-95040095D01*
X177892857Y-94968666D01*
X177916666Y-94921047D01*
X177940476Y-94897238D01*
X178226190Y-95349619D02*
X177892857Y-95349619D01*
X177726190Y-95349619D02*
X177750000Y-95325809D01*
X177773809Y-95349619D01*
X177750000Y-95373428D01*
X177726190Y-95349619D01*
X177773809Y-95349619D01*
X177892857Y-95587714D02*
X178226190Y-95587714D01*
X177940476Y-95587714D02*
X177916666Y-95611523D01*
X177892857Y-95659142D01*
X177892857Y-95730571D01*
X177916666Y-95778190D01*
X177964285Y-95802000D01*
X178226190Y-95802000D01*
X178226190Y-96421047D02*
X177726190Y-96421047D01*
X177726190Y-96611523D01*
X177750000Y-96659142D01*
X177773809Y-96682952D01*
X177821428Y-96706761D01*
X177892857Y-96706761D01*
X177940476Y-96682952D01*
X177964285Y-96659142D01*
X177988095Y-96611523D01*
X177988095Y-96421047D01*
X178178571Y-97206761D02*
X178202380Y-97182952D01*
X178226190Y-97111523D01*
X178226190Y-97063904D01*
X178202380Y-96992476D01*
X178154761Y-96944857D01*
X178107142Y-96921047D01*
X178011904Y-96897238D01*
X177940476Y-96897238D01*
X177845238Y-96921047D01*
X177797619Y-96944857D01*
X177750000Y-96992476D01*
X177726190Y-97063904D01*
X177726190Y-97111523D01*
X177750000Y-97182952D01*
X177773809Y-97206761D01*
X177964285Y-97587714D02*
X177988095Y-97659142D01*
X178011904Y-97682952D01*
X178059523Y-97706761D01*
X178130952Y-97706761D01*
X178178571Y-97682952D01*
X178202380Y-97659142D01*
X178226190Y-97611523D01*
X178226190Y-97421047D01*
X177726190Y-97421047D01*
X177726190Y-97587714D01*
X177750000Y-97635333D01*
X177773809Y-97659142D01*
X177821428Y-97682952D01*
X177869047Y-97682952D01*
X177916666Y-97659142D01*
X177940476Y-97635333D01*
X177964285Y-97587714D01*
X177964285Y-97421047D01*
X178416666Y-98444857D02*
X178392857Y-98421047D01*
X178321428Y-98373428D01*
X178273809Y-98349619D01*
X178202380Y-98325809D01*
X178083333Y-98302000D01*
X177988095Y-98302000D01*
X177869047Y-98325809D01*
X177797619Y-98349619D01*
X177750000Y-98373428D01*
X177678571Y-98421047D01*
X177654761Y-98444857D01*
X177726190Y-98730571D02*
X177726190Y-98778190D01*
X177750000Y-98825809D01*
X177773809Y-98849619D01*
X177821428Y-98873428D01*
X177916666Y-98897238D01*
X178035714Y-98897238D01*
X178130952Y-98873428D01*
X178178571Y-98849619D01*
X178202380Y-98825809D01*
X178226190Y-98778190D01*
X178226190Y-98730571D01*
X178202380Y-98682952D01*
X178178571Y-98659142D01*
X178130952Y-98635333D01*
X178035714Y-98611523D01*
X177916666Y-98611523D01*
X177821428Y-98635333D01*
X177773809Y-98659142D01*
X177750000Y-98682952D01*
X177726190Y-98730571D01*
X178178571Y-99111523D02*
X178202380Y-99135333D01*
X178226190Y-99111523D01*
X178202380Y-99087714D01*
X178178571Y-99111523D01*
X178226190Y-99111523D01*
X177726190Y-99302000D02*
X177726190Y-99611523D01*
X177916666Y-99444857D01*
X177916666Y-99516285D01*
X177940476Y-99563904D01*
X177964285Y-99587714D01*
X178011904Y-99611523D01*
X178130952Y-99611523D01*
X178178571Y-99587714D01*
X178202380Y-99563904D01*
X178226190Y-99516285D01*
X178226190Y-99373428D01*
X178202380Y-99325809D01*
X178178571Y-99302000D01*
X178226190Y-100206761D02*
X177892857Y-100206761D01*
X177940476Y-100206761D02*
X177916666Y-100230571D01*
X177892857Y-100278190D01*
X177892857Y-100349619D01*
X177916666Y-100397238D01*
X177964285Y-100421047D01*
X178226190Y-100421047D01*
X177964285Y-100421047D02*
X177916666Y-100444857D01*
X177892857Y-100492476D01*
X177892857Y-100563904D01*
X177916666Y-100611523D01*
X177964285Y-100635333D01*
X178226190Y-100635333D01*
X178226190Y-100873428D02*
X177892857Y-100873428D01*
X177940476Y-100873428D02*
X177916666Y-100897238D01*
X177892857Y-100944857D01*
X177892857Y-101016285D01*
X177916666Y-101063904D01*
X177964285Y-101087714D01*
X178226190Y-101087714D01*
X177964285Y-101087714D02*
X177916666Y-101111523D01*
X177892857Y-101159142D01*
X177892857Y-101230571D01*
X177916666Y-101278190D01*
X177964285Y-101302000D01*
X178226190Y-101302000D01*
X178416666Y-101492476D02*
X178392857Y-101516285D01*
X178321428Y-101563904D01*
X178273809Y-101587714D01*
X178202380Y-101611523D01*
X178083333Y-101635333D01*
X177988095Y-101635333D01*
X177869047Y-101611523D01*
X177797619Y-101587714D01*
X177750000Y-101563904D01*
X177678571Y-101516285D01*
X177654761Y-101492476D01*
X178556190Y-93373428D02*
X178556190Y-93682952D01*
X178746666Y-93516285D01*
X178746666Y-93587714D01*
X178770476Y-93635333D01*
X178794285Y-93659142D01*
X178841904Y-93682952D01*
X178960952Y-93682952D01*
X179008571Y-93659142D01*
X179032380Y-93635333D01*
X179056190Y-93587714D01*
X179056190Y-93444857D01*
X179032380Y-93397238D01*
X179008571Y-93373428D01*
X179008571Y-93897238D02*
X179032380Y-93921047D01*
X179056190Y-93897238D01*
X179032380Y-93873428D01*
X179008571Y-93897238D01*
X179056190Y-93897238D01*
X179056190Y-94516285D02*
X178556190Y-94516285D01*
X178794285Y-94516285D02*
X178794285Y-94802000D01*
X179056190Y-94802000D02*
X178556190Y-94802000D01*
X179056190Y-95254380D02*
X178794285Y-95254380D01*
X178746666Y-95230571D01*
X178722857Y-95182952D01*
X178722857Y-95087714D01*
X178746666Y-95040095D01*
X179032380Y-95254380D02*
X179056190Y-95206761D01*
X179056190Y-95087714D01*
X179032380Y-95040095D01*
X178984761Y-95016285D01*
X178937142Y-95016285D01*
X178889523Y-95040095D01*
X178865714Y-95087714D01*
X178865714Y-95206761D01*
X178841904Y-95254380D01*
X179056190Y-95492476D02*
X178722857Y-95492476D01*
X178818095Y-95492476D02*
X178770476Y-95516285D01*
X178746666Y-95540095D01*
X178722857Y-95587714D01*
X178722857Y-95635333D01*
X179056190Y-96016285D02*
X178556190Y-96016285D01*
X179032380Y-96016285D02*
X179056190Y-95968666D01*
X179056190Y-95873428D01*
X179032380Y-95825809D01*
X179008571Y-95802000D01*
X178960952Y-95778190D01*
X178818095Y-95778190D01*
X178770476Y-95802000D01*
X178746666Y-95825809D01*
X178722857Y-95873428D01*
X178722857Y-95968666D01*
X178746666Y-96016285D01*
X178580000Y-96897238D02*
X178556190Y-96849619D01*
X178556190Y-96778190D01*
X178580000Y-96706761D01*
X178627619Y-96659142D01*
X178675238Y-96635333D01*
X178770476Y-96611523D01*
X178841904Y-96611523D01*
X178937142Y-96635333D01*
X178984761Y-96659142D01*
X179032380Y-96706761D01*
X179056190Y-96778190D01*
X179056190Y-96825809D01*
X179032380Y-96897238D01*
X179008571Y-96921047D01*
X178841904Y-96921047D01*
X178841904Y-96825809D01*
X179056190Y-97206761D02*
X179032380Y-97159142D01*
X179008571Y-97135333D01*
X178960952Y-97111523D01*
X178818095Y-97111523D01*
X178770476Y-97135333D01*
X178746666Y-97159142D01*
X178722857Y-97206761D01*
X178722857Y-97278190D01*
X178746666Y-97325809D01*
X178770476Y-97349619D01*
X178818095Y-97373428D01*
X178960952Y-97373428D01*
X179008571Y-97349619D01*
X179032380Y-97325809D01*
X179056190Y-97278190D01*
X179056190Y-97206761D01*
X179056190Y-97659142D02*
X179032380Y-97611523D01*
X178984761Y-97587714D01*
X178556190Y-97587714D01*
X179056190Y-98063904D02*
X178556190Y-98063904D01*
X179032380Y-98063904D02*
X179056190Y-98016285D01*
X179056190Y-97921047D01*
X179032380Y-97873428D01*
X179008571Y-97849619D01*
X178960952Y-97825809D01*
X178818095Y-97825809D01*
X178770476Y-97849619D01*
X178746666Y-97873428D01*
X178722857Y-97921047D01*
X178722857Y-98016285D01*
X178746666Y-98063904D01*
X178794285Y-98849619D02*
X178794285Y-98682952D01*
X179056190Y-98682952D02*
X178556190Y-98682952D01*
X178556190Y-98921047D01*
X179056190Y-99111523D02*
X178722857Y-99111523D01*
X178556190Y-99111523D02*
X178580000Y-99087714D01*
X178603809Y-99111523D01*
X178580000Y-99135333D01*
X178556190Y-99111523D01*
X178603809Y-99111523D01*
X178722857Y-99349619D02*
X179056190Y-99349619D01*
X178770476Y-99349619D02*
X178746666Y-99373428D01*
X178722857Y-99421047D01*
X178722857Y-99492476D01*
X178746666Y-99540095D01*
X178794285Y-99563904D01*
X179056190Y-99563904D01*
X179056190Y-99802000D02*
X178722857Y-99802000D01*
X178556190Y-99802000D02*
X178580000Y-99778190D01*
X178603809Y-99802000D01*
X178580000Y-99825809D01*
X178556190Y-99802000D01*
X178603809Y-99802000D01*
X179032380Y-100016285D02*
X179056190Y-100063904D01*
X179056190Y-100159142D01*
X179032380Y-100206761D01*
X178984761Y-100230571D01*
X178960952Y-100230571D01*
X178913333Y-100206761D01*
X178889523Y-100159142D01*
X178889523Y-100087714D01*
X178865714Y-100040095D01*
X178818095Y-100016285D01*
X178794285Y-100016285D01*
X178746666Y-100040095D01*
X178722857Y-100087714D01*
X178722857Y-100159142D01*
X178746666Y-100206761D01*
X179056190Y-100444857D02*
X178556190Y-100444857D01*
X179056190Y-100659142D02*
X178794285Y-100659142D01*
X178746666Y-100635333D01*
X178722857Y-100587714D01*
X178722857Y-100516285D01*
X178746666Y-100468666D01*
X178770476Y-100444857D01*
X179552857Y-93635333D02*
X179886190Y-93635333D01*
X179362380Y-93516285D02*
X179719523Y-93397238D01*
X179719523Y-93706761D01*
X179838571Y-93897238D02*
X179862380Y-93921047D01*
X179886190Y-93897238D01*
X179862380Y-93873428D01*
X179838571Y-93897238D01*
X179886190Y-93897238D01*
X179886190Y-94802000D02*
X179648095Y-94635333D01*
X179886190Y-94516285D02*
X179386190Y-94516285D01*
X179386190Y-94706761D01*
X179410000Y-94754380D01*
X179433809Y-94778190D01*
X179481428Y-94802000D01*
X179552857Y-94802000D01*
X179600476Y-94778190D01*
X179624285Y-94754380D01*
X179648095Y-94706761D01*
X179648095Y-94516285D01*
X179886190Y-95087714D02*
X179862380Y-95040095D01*
X179838571Y-95016285D01*
X179790952Y-94992476D01*
X179648095Y-94992476D01*
X179600476Y-95016285D01*
X179576666Y-95040095D01*
X179552857Y-95087714D01*
X179552857Y-95159142D01*
X179576666Y-95206761D01*
X179600476Y-95230571D01*
X179648095Y-95254380D01*
X179790952Y-95254380D01*
X179838571Y-95230571D01*
X179862380Y-95206761D01*
X179886190Y-95159142D01*
X179886190Y-95087714D01*
X179552857Y-95682952D02*
X179886190Y-95682952D01*
X179552857Y-95468666D02*
X179814761Y-95468666D01*
X179862380Y-95492476D01*
X179886190Y-95540095D01*
X179886190Y-95611523D01*
X179862380Y-95659142D01*
X179838571Y-95682952D01*
X179552857Y-95849619D02*
X179552857Y-96040095D01*
X179386190Y-95921047D02*
X179814761Y-95921047D01*
X179862380Y-95944857D01*
X179886190Y-95992476D01*
X179886190Y-96040095D01*
X179862380Y-96397238D02*
X179886190Y-96349619D01*
X179886190Y-96254380D01*
X179862380Y-96206761D01*
X179814761Y-96182952D01*
X179624285Y-96182952D01*
X179576666Y-96206761D01*
X179552857Y-96254380D01*
X179552857Y-96349619D01*
X179576666Y-96397238D01*
X179624285Y-96421047D01*
X179671904Y-96421047D01*
X179719523Y-96182952D01*
X179886190Y-96849619D02*
X179386190Y-96849619D01*
X179862380Y-96849619D02*
X179886190Y-96802000D01*
X179886190Y-96706761D01*
X179862380Y-96659142D01*
X179838571Y-96635333D01*
X179790952Y-96611523D01*
X179648095Y-96611523D01*
X179600476Y-96635333D01*
X179576666Y-96659142D01*
X179552857Y-96706761D01*
X179552857Y-96802000D01*
X179576666Y-96849619D01*
X179624285Y-97468666D02*
X179624285Y-97635333D01*
X179886190Y-97706761D02*
X179886190Y-97468666D01*
X179386190Y-97468666D01*
X179386190Y-97706761D01*
X179886190Y-98135333D02*
X179386190Y-98135333D01*
X179862380Y-98135333D02*
X179886190Y-98087714D01*
X179886190Y-97992476D01*
X179862380Y-97944857D01*
X179838571Y-97921047D01*
X179790952Y-97897238D01*
X179648095Y-97897238D01*
X179600476Y-97921047D01*
X179576666Y-97944857D01*
X179552857Y-97992476D01*
X179552857Y-98087714D01*
X179576666Y-98135333D01*
X179552857Y-98587714D02*
X179957619Y-98587714D01*
X180005238Y-98563904D01*
X180029047Y-98540095D01*
X180052857Y-98492476D01*
X180052857Y-98421047D01*
X180029047Y-98373428D01*
X179862380Y-98587714D02*
X179886190Y-98540095D01*
X179886190Y-98444857D01*
X179862380Y-98397238D01*
X179838571Y-98373428D01*
X179790952Y-98349619D01*
X179648095Y-98349619D01*
X179600476Y-98373428D01*
X179576666Y-98397238D01*
X179552857Y-98444857D01*
X179552857Y-98540095D01*
X179576666Y-98587714D01*
X179862380Y-99016285D02*
X179886190Y-98968666D01*
X179886190Y-98873428D01*
X179862380Y-98825809D01*
X179814761Y-98802000D01*
X179624285Y-98802000D01*
X179576666Y-98825809D01*
X179552857Y-98873428D01*
X179552857Y-98968666D01*
X179576666Y-99016285D01*
X179624285Y-99040095D01*
X179671904Y-99040095D01*
X179719523Y-98802000D01*
X179862380Y-99230571D02*
X179886190Y-99278190D01*
X179886190Y-99373428D01*
X179862380Y-99421047D01*
X179814761Y-99444857D01*
X179790952Y-99444857D01*
X179743333Y-99421047D01*
X179719523Y-99373428D01*
X179719523Y-99302000D01*
X179695714Y-99254380D01*
X179648095Y-99230571D01*
X179624285Y-99230571D01*
X179576666Y-99254380D01*
X179552857Y-99302000D01*
X179552857Y-99373428D01*
X179576666Y-99421047D01*
X180076666Y-100182952D02*
X180052857Y-100159142D01*
X179981428Y-100111523D01*
X179933809Y-100087714D01*
X179862380Y-100063904D01*
X179743333Y-100040095D01*
X179648095Y-100040095D01*
X179529047Y-100063904D01*
X179457619Y-100087714D01*
X179410000Y-100111523D01*
X179338571Y-100159142D01*
X179314761Y-100182952D01*
X179386190Y-100468666D02*
X179386190Y-100516285D01*
X179410000Y-100563904D01*
X179433809Y-100587714D01*
X179481428Y-100611523D01*
X179576666Y-100635333D01*
X179695714Y-100635333D01*
X179790952Y-100611523D01*
X179838571Y-100587714D01*
X179862380Y-100563904D01*
X179886190Y-100516285D01*
X179886190Y-100468666D01*
X179862380Y-100421047D01*
X179838571Y-100397238D01*
X179790952Y-100373428D01*
X179695714Y-100349619D01*
X179576666Y-100349619D01*
X179481428Y-100373428D01*
X179433809Y-100397238D01*
X179410000Y-100421047D01*
X179386190Y-100468666D01*
X179838571Y-100849619D02*
X179862380Y-100873428D01*
X179886190Y-100849619D01*
X179862380Y-100825809D01*
X179838571Y-100849619D01*
X179886190Y-100849619D01*
X179886190Y-101349619D02*
X179886190Y-101063904D01*
X179886190Y-101206761D02*
X179386190Y-101206761D01*
X179457619Y-101159142D01*
X179505238Y-101111523D01*
X179529047Y-101063904D01*
X179386190Y-101802000D02*
X179386190Y-101563904D01*
X179624285Y-101540095D01*
X179600476Y-101563904D01*
X179576666Y-101611523D01*
X179576666Y-101730571D01*
X179600476Y-101778190D01*
X179624285Y-101802000D01*
X179671904Y-101825809D01*
X179790952Y-101825809D01*
X179838571Y-101802000D01*
X179862380Y-101778190D01*
X179886190Y-101730571D01*
X179886190Y-101611523D01*
X179862380Y-101563904D01*
X179838571Y-101540095D01*
X179886190Y-102040095D02*
X179552857Y-102040095D01*
X179600476Y-102040095D02*
X179576666Y-102063904D01*
X179552857Y-102111523D01*
X179552857Y-102182952D01*
X179576666Y-102230571D01*
X179624285Y-102254380D01*
X179886190Y-102254380D01*
X179624285Y-102254380D02*
X179576666Y-102278190D01*
X179552857Y-102325809D01*
X179552857Y-102397238D01*
X179576666Y-102444857D01*
X179624285Y-102468666D01*
X179886190Y-102468666D01*
X179886190Y-102706761D02*
X179552857Y-102706761D01*
X179600476Y-102706761D02*
X179576666Y-102730571D01*
X179552857Y-102778190D01*
X179552857Y-102849619D01*
X179576666Y-102897238D01*
X179624285Y-102921047D01*
X179886190Y-102921047D01*
X179624285Y-102921047D02*
X179576666Y-102944857D01*
X179552857Y-102992476D01*
X179552857Y-103063904D01*
X179576666Y-103111523D01*
X179624285Y-103135333D01*
X179886190Y-103135333D01*
X180076666Y-103325809D02*
X180052857Y-103349619D01*
X179981428Y-103397238D01*
X179933809Y-103421047D01*
X179862380Y-103444857D01*
X179743333Y-103468666D01*
X179648095Y-103468666D01*
X179529047Y-103444857D01*
X179457619Y-103421047D01*
X179410000Y-103397238D01*
X179338571Y-103349619D01*
X179314761Y-103325809D01*
D12*
X182080000Y-83580000D02*
X182080000Y-82250000D01*
X180750000Y-83580000D02*
X182080000Y-83580000D01*
X179480000Y-83580000D02*
X179480000Y-80920000D01*
X179480000Y-80920000D02*
X164180000Y-80920000D01*
X179480000Y-83580000D02*
X164180000Y-83580000D01*
X164180000Y-83580000D02*
X164180000Y-80920000D01*
X163730000Y-85670000D02*
X162400000Y-85670000D01*
X163730000Y-87000000D02*
X163730000Y-85670000D01*
X163730000Y-88270000D02*
X161070000Y-88270000D01*
X161070000Y-88270000D02*
X161070000Y-95950000D01*
X163730000Y-88270000D02*
X163730000Y-95950000D01*
X163730000Y-95950000D02*
X161070000Y-95950000D01*
X181330000Y-87130000D02*
X180695000Y-87130000D01*
X180695000Y-87130000D02*
X180695000Y-87765000D01*
D11*
X175233333Y-115702380D02*
X175233333Y-116416666D01*
X175280952Y-116559523D01*
X175376190Y-116654761D01*
X175519047Y-116702380D01*
X175614285Y-116702380D01*
X174804761Y-115797619D02*
X174757142Y-115750000D01*
X174661904Y-115702380D01*
X174423809Y-115702380D01*
X174328571Y-115750000D01*
X174280952Y-115797619D01*
X174233333Y-115892857D01*
X174233333Y-115988095D01*
X174280952Y-116130952D01*
X174852380Y-116702380D01*
X174233333Y-116702380D01*
X181133333Y-84252380D02*
X181133333Y-84966666D01*
X181180952Y-85109523D01*
X181276190Y-85204761D01*
X181419047Y-85252380D01*
X181514285Y-85252380D01*
X180228571Y-84585714D02*
X180228571Y-85252380D01*
X180466666Y-84204761D02*
X180704761Y-84919047D01*
X180085714Y-84919047D01*
X162702380Y-84216666D02*
X163416666Y-84216666D01*
X163559523Y-84169047D01*
X163654761Y-84073809D01*
X163702380Y-83930952D01*
X163702380Y-83835714D01*
X162702380Y-84597619D02*
X162702380Y-85216666D01*
X163083333Y-84883333D01*
X163083333Y-85026190D01*
X163130952Y-85121428D01*
X163178571Y-85169047D01*
X163273809Y-85216666D01*
X163511904Y-85216666D01*
X163607142Y-85169047D01*
X163654761Y-85121428D01*
X163702380Y-85026190D01*
X163702380Y-84740476D01*
X163654761Y-84645238D01*
X163607142Y-84597619D01*
X182933333Y-85152380D02*
X182933333Y-85866666D01*
X182980952Y-86009523D01*
X183076190Y-86104761D01*
X183219047Y-86152380D01*
X183314285Y-86152380D01*
X181933333Y-86152380D02*
X182504761Y-86152380D01*
X182219047Y-86152380D02*
X182219047Y-85152380D01*
X182314285Y-85295238D01*
X182409523Y-85390476D01*
X182504761Y-85438095D01*
M02*
