G04 #@! TF.GenerationSoftware,KiCad,Pcbnew,5.1.5+dfsg1-2build2*
G04 #@! TF.CreationDate,2022-01-15T14:27:05-08:00*
G04 #@! TF.ProjectId,pcb_v1,7063625f-7631-42e6-9b69-6361645f7063,rev?*
G04 #@! TF.SameCoordinates,Original*
G04 #@! TF.FileFunction,Profile,NP*
%FSLAX46Y46*%
G04 Gerber Fmt 4.6, Leading zero omitted, Abs format (unit mm)*
G04 Created by KiCad (PCBNEW 5.1.5+dfsg1-2build2) date 2022-01-15 14:27:05*
%MOMM*%
%LPD*%
G04 APERTURE LIST*
%ADD10C,0.050000*%
G04 APERTURE END LIST*
D10*
X181350000Y-117350000D02*
X177750000Y-117350000D01*
X181350000Y-118250000D02*
X177750000Y-118250000D01*
X181350000Y-117350000D02*
X181350000Y-118250000D01*
X177750000Y-117350000D02*
X177750000Y-118250000D01*
X181350000Y-125600000D02*
X177750000Y-125600000D01*
X181350000Y-126500000D02*
X177750000Y-126500000D01*
X181350000Y-125600000D02*
X181350000Y-126500000D01*
X177750000Y-125600000D02*
X177750000Y-126500000D01*
X172600000Y-125500000D02*
X169000000Y-125500000D01*
X172600000Y-126400000D02*
X169000000Y-126400000D01*
X172600000Y-125500000D02*
X172600000Y-126400000D01*
X169000000Y-125500000D02*
X169000000Y-126400000D01*
X172700000Y-117350000D02*
X169100000Y-117350000D01*
X172700000Y-118250000D02*
X169100000Y-118250000D01*
X172700000Y-117350000D02*
X172700000Y-118250000D01*
X169100000Y-117350000D02*
X169100000Y-118250000D01*
X167850000Y-117350000D02*
X164250000Y-117350000D01*
X167850000Y-118250000D02*
X164250000Y-118250000D01*
X167850000Y-117350000D02*
X167850000Y-118250000D01*
X164250000Y-117350000D02*
X164250000Y-118250000D01*
X164250000Y-125500000D02*
X164250000Y-126400000D01*
X167850000Y-125500000D02*
X164250000Y-125500000D01*
X167850000Y-125500000D02*
X167850000Y-126400000D01*
X167850000Y-126400000D02*
X164250000Y-126400000D01*
X164750000Y-122250000D02*
X164750000Y-120750000D01*
X164250000Y-120250000D02*
G75*
G02X164750000Y-120750000I0J-500000D01*
G01*
X163250000Y-122750000D02*
X164250000Y-122750000D01*
X164750000Y-122250000D02*
G75*
G02X164250000Y-122750000I-500000J0D01*
G01*
X163250000Y-122750000D02*
G75*
G02X162750000Y-122250000I0J500000D01*
G01*
X162750000Y-120750000D02*
X162750000Y-122250000D01*
X164250000Y-120250000D02*
X163250000Y-120250000D01*
X162750000Y-120750000D02*
G75*
G02X163250000Y-120250000I500000J0D01*
G01*
X182750000Y-122250000D02*
X182750000Y-120750000D01*
X182250000Y-120250000D02*
G75*
G02X182750000Y-120750000I0J-500000D01*
G01*
X181250000Y-122750000D02*
X182250000Y-122750000D01*
X182750000Y-122250000D02*
G75*
G02X182250000Y-122750000I-500000J0D01*
G01*
X181250000Y-122750000D02*
G75*
G02X180750000Y-122250000I0J500000D01*
G01*
X180750000Y-120750000D02*
X180750000Y-122250000D01*
X182250000Y-120250000D02*
X181250000Y-120250000D01*
X180750000Y-120750000D02*
G75*
G02X181250000Y-120250000I500000J0D01*
G01*
X178250000Y-122250000D02*
X178250000Y-120750000D01*
X177750000Y-120250000D02*
G75*
G02X178250000Y-120750000I0J-500000D01*
G01*
X176750000Y-122750000D02*
X177750000Y-122750000D01*
X178250000Y-122250000D02*
G75*
G02X177750000Y-122750000I-500000J0D01*
G01*
X176750000Y-122750000D02*
G75*
G02X176250000Y-122250000I0J500000D01*
G01*
X176250000Y-120750000D02*
X176250000Y-122250000D01*
X177750000Y-120250000D02*
X176750000Y-120250000D01*
X176250000Y-120750000D02*
G75*
G02X176750000Y-120250000I500000J0D01*
G01*
X169250000Y-122250000D02*
X169250000Y-120750000D01*
X168750000Y-120250000D02*
G75*
G02X169250000Y-120750000I0J-500000D01*
G01*
X167750000Y-122750000D02*
X168750000Y-122750000D01*
X169250000Y-122250000D02*
G75*
G02X168750000Y-122750000I-500000J0D01*
G01*
X167750000Y-122750000D02*
G75*
G02X167250000Y-122250000I0J500000D01*
G01*
X167250000Y-120750000D02*
X167250000Y-122250000D01*
X168750000Y-120250000D02*
X167750000Y-120250000D01*
X167250000Y-120750000D02*
G75*
G02X167750000Y-120250000I500000J0D01*
G01*
X173250000Y-120250000D02*
G75*
G02X173750000Y-120750000I0J-500000D01*
G01*
X171750000Y-120750000D02*
G75*
G02X172250000Y-120250000I500000J0D01*
G01*
X173750000Y-122250000D02*
G75*
G02X173250000Y-122750000I-500000J0D01*
G01*
X172250000Y-122750000D02*
G75*
G02X171750000Y-122250000I0J500000D01*
G01*
X173250000Y-120250000D02*
X172250000Y-120250000D01*
X173750000Y-122250000D02*
X173750000Y-120750000D01*
X172250000Y-122750000D02*
X173250000Y-122750000D01*
X171750000Y-120750000D02*
X171750000Y-122250000D01*
X161500000Y-133000000D02*
G75*
G02X159000000Y-130500000I0J2500000D01*
G01*
X187000000Y-130500000D02*
G75*
G02X184500000Y-133000000I-2500000J0D01*
G01*
X184500000Y-80000000D02*
G75*
G02X187000000Y-82500000I0J-2500000D01*
G01*
X159000000Y-82500000D02*
G75*
G02X161500000Y-80000000I2500000J0D01*
G01*
X184500000Y-80000000D02*
X161500000Y-80000000D01*
X187000000Y-130500000D02*
X187000000Y-82500000D01*
X161500000Y-133000000D02*
X184500000Y-133000000D01*
X159000000Y-113000000D02*
X159000000Y-130500000D01*
X159000000Y-82500000D02*
X159000000Y-113000000D01*
M02*
