G04 #@! TF.GenerationSoftware,KiCad,Pcbnew,5.1.5+dfsg1-2build2*
G04 #@! TF.CreationDate,2022-01-20T09:43:14-08:00*
G04 #@! TF.ProjectId,pcb_v1,7063625f-7631-42e6-9b69-6361645f7063,rev?*
G04 #@! TF.SameCoordinates,Original*
G04 #@! TF.FileFunction,Other,ECO2*
%FSLAX46Y46*%
G04 Gerber Fmt 4.6, Leading zero omitted, Abs format (unit mm)*
G04 Created by KiCad (PCBNEW 5.1.5+dfsg1-2build2) date 2022-01-20 09:43:14*
%MOMM*%
%LPD*%
G04 APERTURE LIST*
%ADD10C,0.254000*%
G04 APERTURE END LIST*
D10*
G36*
X166673000Y-121873000D02*
G01*
X165327000Y-121873000D01*
X165327000Y-121127000D01*
X166673000Y-121127000D01*
X166673000Y-121873000D01*
G37*
X166673000Y-121873000D02*
X165327000Y-121873000D01*
X165327000Y-121127000D01*
X166673000Y-121127000D01*
X166673000Y-121873000D01*
G36*
X171173000Y-121873000D02*
G01*
X169827000Y-121873000D01*
X169827000Y-121127000D01*
X171173000Y-121127000D01*
X171173000Y-121873000D01*
G37*
X171173000Y-121873000D02*
X169827000Y-121873000D01*
X169827000Y-121127000D01*
X171173000Y-121127000D01*
X171173000Y-121873000D01*
G36*
X175673000Y-121873000D02*
G01*
X174327000Y-121873000D01*
X174327000Y-121127000D01*
X175673000Y-121127000D01*
X175673000Y-121873000D01*
G37*
X175673000Y-121873000D02*
X174327000Y-121873000D01*
X174327000Y-121127000D01*
X175673000Y-121127000D01*
X175673000Y-121873000D01*
G36*
X184873000Y-121873000D02*
G01*
X183527000Y-121873000D01*
X183527000Y-121127000D01*
X184873000Y-121127000D01*
X184873000Y-121873000D01*
G37*
X184873000Y-121873000D02*
X183527000Y-121873000D01*
X183527000Y-121127000D01*
X184873000Y-121127000D01*
X184873000Y-121873000D01*
G36*
X162173000Y-121873000D02*
G01*
X160827000Y-121873000D01*
X160827000Y-121127000D01*
X162173000Y-121127000D01*
X162173000Y-121873000D01*
G37*
X162173000Y-121873000D02*
X160827000Y-121873000D01*
X160827000Y-121127000D01*
X162173000Y-121127000D01*
X162173000Y-121873000D01*
M02*
