G04 #@! TF.GenerationSoftware,KiCad,Pcbnew,5.1.5+dfsg1-2build2*
G04 #@! TF.CreationDate,2022-01-15T14:27:05-08:00*
G04 #@! TF.ProjectId,pcb_v1,7063625f-7631-42e6-9b69-6361645f7063,rev?*
G04 #@! TF.SameCoordinates,Original*
G04 #@! TF.FileFunction,Other,Comment*
%FSLAX46Y46*%
G04 Gerber Fmt 4.6, Leading zero omitted, Abs format (unit mm)*
G04 Created by KiCad (PCBNEW 5.1.5+dfsg1-2build2) date 2022-01-15 14:27:05*
%MOMM*%
%LPD*%
G04 APERTURE LIST*
%ADD10C,0.150000*%
%ADD11C,0.070000*%
G04 APERTURE END LIST*
D10*
X191585595Y-104027380D02*
X191585595Y-103027380D01*
X191918928Y-103741666D01*
X192252261Y-103027380D01*
X192252261Y-104027380D01*
X193157023Y-104027380D02*
X193157023Y-103503571D01*
X193109404Y-103408333D01*
X193014166Y-103360714D01*
X192823690Y-103360714D01*
X192728452Y-103408333D01*
X193157023Y-103979761D02*
X193061785Y-104027380D01*
X192823690Y-104027380D01*
X192728452Y-103979761D01*
X192680833Y-103884523D01*
X192680833Y-103789285D01*
X192728452Y-103694047D01*
X192823690Y-103646428D01*
X193061785Y-103646428D01*
X193157023Y-103598809D01*
X193633214Y-103360714D02*
X193633214Y-104027380D01*
X193633214Y-103455952D02*
X193680833Y-103408333D01*
X193776071Y-103360714D01*
X193918928Y-103360714D01*
X194014166Y-103408333D01*
X194061785Y-103503571D01*
X194061785Y-104027380D01*
X194966547Y-103360714D02*
X194966547Y-104027380D01*
X194537976Y-103360714D02*
X194537976Y-103884523D01*
X194585595Y-103979761D01*
X194680833Y-104027380D01*
X194823690Y-104027380D01*
X194918928Y-103979761D01*
X194966547Y-103932142D01*
X195299880Y-103360714D02*
X195680833Y-103360714D01*
X195442738Y-104027380D02*
X195442738Y-103170238D01*
X195490357Y-103075000D01*
X195585595Y-103027380D01*
X195680833Y-103027380D01*
X196442738Y-104027380D02*
X196442738Y-103503571D01*
X196395119Y-103408333D01*
X196299880Y-103360714D01*
X196109404Y-103360714D01*
X196014166Y-103408333D01*
X196442738Y-103979761D02*
X196347500Y-104027380D01*
X196109404Y-104027380D01*
X196014166Y-103979761D01*
X195966547Y-103884523D01*
X195966547Y-103789285D01*
X196014166Y-103694047D01*
X196109404Y-103646428D01*
X196347500Y-103646428D01*
X196442738Y-103598809D01*
X197347500Y-103979761D02*
X197252261Y-104027380D01*
X197061785Y-104027380D01*
X196966547Y-103979761D01*
X196918928Y-103932142D01*
X196871309Y-103836904D01*
X196871309Y-103551190D01*
X196918928Y-103455952D01*
X196966547Y-103408333D01*
X197061785Y-103360714D01*
X197252261Y-103360714D01*
X197347500Y-103408333D01*
X197633214Y-103360714D02*
X198014166Y-103360714D01*
X197776071Y-103027380D02*
X197776071Y-103884523D01*
X197823690Y-103979761D01*
X197918928Y-104027380D01*
X198014166Y-104027380D01*
X198776071Y-103360714D02*
X198776071Y-104027380D01*
X198347500Y-103360714D02*
X198347500Y-103884523D01*
X198395119Y-103979761D01*
X198490357Y-104027380D01*
X198633214Y-104027380D01*
X198728452Y-103979761D01*
X198776071Y-103932142D01*
X199252261Y-104027380D02*
X199252261Y-103360714D01*
X199252261Y-103551190D02*
X199299880Y-103455952D01*
X199347500Y-103408333D01*
X199442738Y-103360714D01*
X199537976Y-103360714D01*
X199871309Y-104027380D02*
X199871309Y-103360714D01*
X199871309Y-103027380D02*
X199823690Y-103075000D01*
X199871309Y-103122619D01*
X199918928Y-103075000D01*
X199871309Y-103027380D01*
X199871309Y-103122619D01*
X200347500Y-103360714D02*
X200347500Y-104027380D01*
X200347500Y-103455952D02*
X200395119Y-103408333D01*
X200490357Y-103360714D01*
X200633214Y-103360714D01*
X200728452Y-103408333D01*
X200776071Y-103503571D01*
X200776071Y-104027380D01*
X201680833Y-103360714D02*
X201680833Y-104170238D01*
X201633214Y-104265476D01*
X201585595Y-104313095D01*
X201490357Y-104360714D01*
X201347500Y-104360714D01*
X201252261Y-104313095D01*
X201680833Y-103979761D02*
X201585595Y-104027380D01*
X201395119Y-104027380D01*
X201299880Y-103979761D01*
X201252261Y-103932142D01*
X201204642Y-103836904D01*
X201204642Y-103551190D01*
X201252261Y-103455952D01*
X201299880Y-103408333D01*
X201395119Y-103360714D01*
X201585595Y-103360714D01*
X201680833Y-103408333D01*
X203490357Y-104027380D02*
X203157023Y-103551190D01*
X202918928Y-104027380D02*
X202918928Y-103027380D01*
X203299880Y-103027380D01*
X203395119Y-103075000D01*
X203442738Y-103122619D01*
X203490357Y-103217857D01*
X203490357Y-103360714D01*
X203442738Y-103455952D01*
X203395119Y-103503571D01*
X203299880Y-103551190D01*
X202918928Y-103551190D01*
X204299880Y-103979761D02*
X204204642Y-104027380D01*
X204014166Y-104027380D01*
X203918928Y-103979761D01*
X203871309Y-103884523D01*
X203871309Y-103503571D01*
X203918928Y-103408333D01*
X204014166Y-103360714D01*
X204204642Y-103360714D01*
X204299880Y-103408333D01*
X204347500Y-103503571D01*
X204347500Y-103598809D01*
X203871309Y-103694047D01*
X205204642Y-103360714D02*
X205204642Y-104360714D01*
X205204642Y-103979761D02*
X205109404Y-104027380D01*
X204918928Y-104027380D01*
X204823690Y-103979761D01*
X204776071Y-103932142D01*
X204728452Y-103836904D01*
X204728452Y-103551190D01*
X204776071Y-103455952D01*
X204823690Y-103408333D01*
X204918928Y-103360714D01*
X205109404Y-103360714D01*
X205204642Y-103408333D01*
X206109404Y-103360714D02*
X206109404Y-104027380D01*
X205680833Y-103360714D02*
X205680833Y-103884523D01*
X205728452Y-103979761D01*
X205823690Y-104027380D01*
X205966547Y-104027380D01*
X206061785Y-103979761D01*
X206109404Y-103932142D01*
X206585595Y-104027380D02*
X206585595Y-103360714D01*
X206585595Y-103027380D02*
X206537976Y-103075000D01*
X206585595Y-103122619D01*
X206633214Y-103075000D01*
X206585595Y-103027380D01*
X206585595Y-103122619D01*
X207061785Y-104027380D02*
X207061785Y-103360714D01*
X207061785Y-103551190D02*
X207109404Y-103455952D01*
X207157023Y-103408333D01*
X207252261Y-103360714D01*
X207347500Y-103360714D01*
X208061785Y-103979761D02*
X207966547Y-104027380D01*
X207776071Y-104027380D01*
X207680833Y-103979761D01*
X207633214Y-103884523D01*
X207633214Y-103503571D01*
X207680833Y-103408333D01*
X207776071Y-103360714D01*
X207966547Y-103360714D01*
X208061785Y-103408333D01*
X208109404Y-103503571D01*
X208109404Y-103598809D01*
X207633214Y-103694047D01*
X208537976Y-104027380D02*
X208537976Y-103360714D01*
X208537976Y-103455952D02*
X208585595Y-103408333D01*
X208680833Y-103360714D01*
X208823690Y-103360714D01*
X208918928Y-103408333D01*
X208966547Y-103503571D01*
X208966547Y-104027380D01*
X208966547Y-103503571D02*
X209014166Y-103408333D01*
X209109404Y-103360714D01*
X209252261Y-103360714D01*
X209347500Y-103408333D01*
X209395119Y-103503571D01*
X209395119Y-104027380D01*
X210252261Y-103979761D02*
X210157023Y-104027380D01*
X209966547Y-104027380D01*
X209871309Y-103979761D01*
X209823690Y-103884523D01*
X209823690Y-103503571D01*
X209871309Y-103408333D01*
X209966547Y-103360714D01*
X210157023Y-103360714D01*
X210252261Y-103408333D01*
X210299880Y-103503571D01*
X210299880Y-103598809D01*
X209823690Y-103694047D01*
X210728452Y-103360714D02*
X210728452Y-104027380D01*
X210728452Y-103455952D02*
X210776071Y-103408333D01*
X210871309Y-103360714D01*
X211014166Y-103360714D01*
X211109404Y-103408333D01*
X211157023Y-103503571D01*
X211157023Y-104027380D01*
X211490357Y-103360714D02*
X211871309Y-103360714D01*
X211633214Y-103027380D02*
X211633214Y-103884523D01*
X211680833Y-103979761D01*
X211776071Y-104027380D01*
X211871309Y-104027380D01*
X212157023Y-103979761D02*
X212252261Y-104027380D01*
X212442738Y-104027380D01*
X212537976Y-103979761D01*
X212585595Y-103884523D01*
X212585595Y-103836904D01*
X212537976Y-103741666D01*
X212442738Y-103694047D01*
X212299880Y-103694047D01*
X212204642Y-103646428D01*
X212157023Y-103551190D01*
X212157023Y-103503571D01*
X212204642Y-103408333D01*
X212299880Y-103360714D01*
X212442738Y-103360714D01*
X212537976Y-103408333D01*
X192109404Y-105677380D02*
X191537976Y-105677380D01*
X191823690Y-105677380D02*
X191823690Y-104677380D01*
X191728452Y-104820238D01*
X191633214Y-104915476D01*
X191537976Y-104963095D01*
X192537976Y-105582142D02*
X192585595Y-105629761D01*
X192537976Y-105677380D01*
X192490357Y-105629761D01*
X192537976Y-105582142D01*
X192537976Y-105677380D01*
X193633214Y-104677380D02*
X194204642Y-104677380D01*
X193918928Y-105677380D02*
X193918928Y-104677380D01*
X194537976Y-105677380D02*
X194537976Y-104677380D01*
X194966547Y-105677380D02*
X194966547Y-105153571D01*
X194918928Y-105058333D01*
X194823690Y-105010714D01*
X194680833Y-105010714D01*
X194585595Y-105058333D01*
X194537976Y-105105952D01*
X195442738Y-105677380D02*
X195442738Y-105010714D01*
X195442738Y-104677380D02*
X195395119Y-104725000D01*
X195442738Y-104772619D01*
X195490357Y-104725000D01*
X195442738Y-104677380D01*
X195442738Y-104772619D01*
X195918928Y-105010714D02*
X195918928Y-105677380D01*
X195918928Y-105105952D02*
X195966547Y-105058333D01*
X196061785Y-105010714D01*
X196204642Y-105010714D01*
X196299880Y-105058333D01*
X196347500Y-105153571D01*
X196347500Y-105677380D01*
X197585595Y-105677380D02*
X197585595Y-104677380D01*
X197966547Y-104677380D01*
X198061785Y-104725000D01*
X198109404Y-104772619D01*
X198157023Y-104867857D01*
X198157023Y-105010714D01*
X198109404Y-105105952D01*
X198061785Y-105153571D01*
X197966547Y-105201190D01*
X197585595Y-105201190D01*
X199157023Y-105582142D02*
X199109404Y-105629761D01*
X198966547Y-105677380D01*
X198871309Y-105677380D01*
X198728452Y-105629761D01*
X198633214Y-105534523D01*
X198585595Y-105439285D01*
X198537976Y-105248809D01*
X198537976Y-105105952D01*
X198585595Y-104915476D01*
X198633214Y-104820238D01*
X198728452Y-104725000D01*
X198871309Y-104677380D01*
X198966547Y-104677380D01*
X199109404Y-104725000D01*
X199157023Y-104772619D01*
X199918928Y-105153571D02*
X200061785Y-105201190D01*
X200109404Y-105248809D01*
X200157023Y-105344047D01*
X200157023Y-105486904D01*
X200109404Y-105582142D01*
X200061785Y-105629761D01*
X199966547Y-105677380D01*
X199585595Y-105677380D01*
X199585595Y-104677380D01*
X199918928Y-104677380D01*
X200014166Y-104725000D01*
X200061785Y-104772619D01*
X200109404Y-104867857D01*
X200109404Y-104963095D01*
X200061785Y-105058333D01*
X200014166Y-105105952D01*
X199918928Y-105153571D01*
X199585595Y-105153571D01*
X201204642Y-105010714D02*
X201585595Y-105010714D01*
X201347500Y-104677380D02*
X201347500Y-105534523D01*
X201395119Y-105629761D01*
X201490357Y-105677380D01*
X201585595Y-105677380D01*
X201918928Y-105677380D02*
X201918928Y-104677380D01*
X202347500Y-105677380D02*
X202347500Y-105153571D01*
X202299880Y-105058333D01*
X202204642Y-105010714D01*
X202061785Y-105010714D01*
X201966547Y-105058333D01*
X201918928Y-105105952D01*
X202823690Y-105677380D02*
X202823690Y-105010714D01*
X202823690Y-104677380D02*
X202776071Y-104725000D01*
X202823690Y-104772619D01*
X202871309Y-104725000D01*
X202823690Y-104677380D01*
X202823690Y-104772619D01*
X203728452Y-105629761D02*
X203633214Y-105677380D01*
X203442738Y-105677380D01*
X203347500Y-105629761D01*
X203299880Y-105582142D01*
X203252261Y-105486904D01*
X203252261Y-105201190D01*
X203299880Y-105105952D01*
X203347500Y-105058333D01*
X203442738Y-105010714D01*
X203633214Y-105010714D01*
X203728452Y-105058333D01*
X204157023Y-105677380D02*
X204157023Y-104677380D01*
X204252261Y-105296428D02*
X204537976Y-105677380D01*
X204537976Y-105010714D02*
X204157023Y-105391666D01*
X204966547Y-105010714D02*
X204966547Y-105677380D01*
X204966547Y-105105952D02*
X205014166Y-105058333D01*
X205109404Y-105010714D01*
X205252261Y-105010714D01*
X205347500Y-105058333D01*
X205395119Y-105153571D01*
X205395119Y-105677380D01*
X206252261Y-105629761D02*
X206157023Y-105677380D01*
X205966547Y-105677380D01*
X205871309Y-105629761D01*
X205823690Y-105534523D01*
X205823690Y-105153571D01*
X205871309Y-105058333D01*
X205966547Y-105010714D01*
X206157023Y-105010714D01*
X206252261Y-105058333D01*
X206299880Y-105153571D01*
X206299880Y-105248809D01*
X205823690Y-105344047D01*
X206680833Y-105629761D02*
X206776071Y-105677380D01*
X206966547Y-105677380D01*
X207061785Y-105629761D01*
X207109404Y-105534523D01*
X207109404Y-105486904D01*
X207061785Y-105391666D01*
X206966547Y-105344047D01*
X206823690Y-105344047D01*
X206728452Y-105296428D01*
X206680833Y-105201190D01*
X206680833Y-105153571D01*
X206728452Y-105058333D01*
X206823690Y-105010714D01*
X206966547Y-105010714D01*
X207061785Y-105058333D01*
X207490357Y-105629761D02*
X207585595Y-105677380D01*
X207776071Y-105677380D01*
X207871309Y-105629761D01*
X207918928Y-105534523D01*
X207918928Y-105486904D01*
X207871309Y-105391666D01*
X207776071Y-105344047D01*
X207633214Y-105344047D01*
X207537976Y-105296428D01*
X207490357Y-105201190D01*
X207490357Y-105153571D01*
X207537976Y-105058333D01*
X207633214Y-105010714D01*
X207776071Y-105010714D01*
X207871309Y-105058333D01*
X209395119Y-106058333D02*
X209347500Y-106010714D01*
X209252261Y-105867857D01*
X209204642Y-105772619D01*
X209157023Y-105629761D01*
X209109404Y-105391666D01*
X209109404Y-105201190D01*
X209157023Y-104963095D01*
X209204642Y-104820238D01*
X209252261Y-104725000D01*
X209347500Y-104582142D01*
X209395119Y-104534523D01*
X209966547Y-104677380D02*
X210061785Y-104677380D01*
X210157023Y-104725000D01*
X210204642Y-104772619D01*
X210252261Y-104867857D01*
X210299880Y-105058333D01*
X210299880Y-105296428D01*
X210252261Y-105486904D01*
X210204642Y-105582142D01*
X210157023Y-105629761D01*
X210061785Y-105677380D01*
X209966547Y-105677380D01*
X209871309Y-105629761D01*
X209823690Y-105582142D01*
X209776071Y-105486904D01*
X209728452Y-105296428D01*
X209728452Y-105058333D01*
X209776071Y-104867857D01*
X209823690Y-104772619D01*
X209871309Y-104725000D01*
X209966547Y-104677380D01*
X210728452Y-105582142D02*
X210776071Y-105629761D01*
X210728452Y-105677380D01*
X210680833Y-105629761D01*
X210728452Y-105582142D01*
X210728452Y-105677380D01*
X211109404Y-104677380D02*
X211728452Y-104677380D01*
X211395119Y-105058333D01*
X211537976Y-105058333D01*
X211633214Y-105105952D01*
X211680833Y-105153571D01*
X211728452Y-105248809D01*
X211728452Y-105486904D01*
X211680833Y-105582142D01*
X211633214Y-105629761D01*
X211537976Y-105677380D01*
X211252261Y-105677380D01*
X211157023Y-105629761D01*
X211109404Y-105582142D01*
X212157023Y-105677380D02*
X212157023Y-105010714D01*
X212157023Y-105105952D02*
X212204642Y-105058333D01*
X212299880Y-105010714D01*
X212442738Y-105010714D01*
X212537976Y-105058333D01*
X212585595Y-105153571D01*
X212585595Y-105677380D01*
X212585595Y-105153571D02*
X212633214Y-105058333D01*
X212728452Y-105010714D01*
X212871309Y-105010714D01*
X212966547Y-105058333D01*
X213014166Y-105153571D01*
X213014166Y-105677380D01*
X213490357Y-105677380D02*
X213490357Y-105010714D01*
X213490357Y-105105952D02*
X213537976Y-105058333D01*
X213633214Y-105010714D01*
X213776071Y-105010714D01*
X213871309Y-105058333D01*
X213918928Y-105153571D01*
X213918928Y-105677380D01*
X213918928Y-105153571D02*
X213966547Y-105058333D01*
X214061785Y-105010714D01*
X214204642Y-105010714D01*
X214299880Y-105058333D01*
X214347500Y-105153571D01*
X214347500Y-105677380D01*
X214728452Y-106058333D02*
X214776071Y-106010714D01*
X214871309Y-105867857D01*
X214918928Y-105772619D01*
X214966547Y-105629761D01*
X215014166Y-105391666D01*
X215014166Y-105201190D01*
X214966547Y-104963095D01*
X214918928Y-104820238D01*
X214871309Y-104725000D01*
X214776071Y-104582142D01*
X214728452Y-104534523D01*
X215537976Y-105629761D02*
X215537976Y-105677380D01*
X215490357Y-105772619D01*
X215442738Y-105820238D01*
X217252261Y-105677380D02*
X216680833Y-105677380D01*
X216966547Y-105677380D02*
X216966547Y-104677380D01*
X216871309Y-104820238D01*
X216776071Y-104915476D01*
X216680833Y-104963095D01*
X217871309Y-104677380D02*
X217966547Y-104677380D01*
X218061785Y-104725000D01*
X218109404Y-104772619D01*
X218157023Y-104867857D01*
X218204642Y-105058333D01*
X218204642Y-105296428D01*
X218157023Y-105486904D01*
X218109404Y-105582142D01*
X218061785Y-105629761D01*
X217966547Y-105677380D01*
X217871309Y-105677380D01*
X217776071Y-105629761D01*
X217728452Y-105582142D01*
X217680833Y-105486904D01*
X217633214Y-105296428D01*
X217633214Y-105058333D01*
X217680833Y-104867857D01*
X217728452Y-104772619D01*
X217776071Y-104725000D01*
X217871309Y-104677380D01*
X218585595Y-105677380D02*
X219347500Y-104677380D01*
X218728452Y-104677380D02*
X218823690Y-104725000D01*
X218871309Y-104820238D01*
X218823690Y-104915476D01*
X218728452Y-104963095D01*
X218633214Y-104915476D01*
X218585595Y-104820238D01*
X218633214Y-104725000D01*
X218728452Y-104677380D01*
X219299880Y-105629761D02*
X219347500Y-105534523D01*
X219299880Y-105439285D01*
X219204642Y-105391666D01*
X219109404Y-105439285D01*
X219061785Y-105534523D01*
X219109404Y-105629761D01*
X219204642Y-105677380D01*
X219299880Y-105629761D01*
X220395119Y-105010714D02*
X220776071Y-105010714D01*
X220537976Y-104677380D02*
X220537976Y-105534523D01*
X220585595Y-105629761D01*
X220680833Y-105677380D01*
X220776071Y-105677380D01*
X221252261Y-105677380D02*
X221157023Y-105629761D01*
X221109404Y-105582142D01*
X221061785Y-105486904D01*
X221061785Y-105201190D01*
X221109404Y-105105952D01*
X221157023Y-105058333D01*
X221252261Y-105010714D01*
X221395119Y-105010714D01*
X221490357Y-105058333D01*
X221537976Y-105105952D01*
X221585595Y-105201190D01*
X221585595Y-105486904D01*
X221537976Y-105582142D01*
X221490357Y-105629761D01*
X221395119Y-105677380D01*
X221252261Y-105677380D01*
X222157023Y-105677380D02*
X222061785Y-105629761D01*
X222014166Y-105534523D01*
X222014166Y-104677380D01*
X222918928Y-105629761D02*
X222823690Y-105677380D01*
X222633214Y-105677380D01*
X222537976Y-105629761D01*
X222490357Y-105534523D01*
X222490357Y-105153571D01*
X222537976Y-105058333D01*
X222633214Y-105010714D01*
X222823690Y-105010714D01*
X222918928Y-105058333D01*
X222966547Y-105153571D01*
X222966547Y-105248809D01*
X222490357Y-105344047D01*
X223395119Y-105677380D02*
X223395119Y-105010714D01*
X223395119Y-105201190D02*
X223442738Y-105105952D01*
X223490357Y-105058333D01*
X223585595Y-105010714D01*
X223680833Y-105010714D01*
X224442738Y-105677380D02*
X224442738Y-105153571D01*
X224395119Y-105058333D01*
X224299880Y-105010714D01*
X224109404Y-105010714D01*
X224014166Y-105058333D01*
X224442738Y-105629761D02*
X224347500Y-105677380D01*
X224109404Y-105677380D01*
X224014166Y-105629761D01*
X223966547Y-105534523D01*
X223966547Y-105439285D01*
X224014166Y-105344047D01*
X224109404Y-105296428D01*
X224347500Y-105296428D01*
X224442738Y-105248809D01*
X224918928Y-105010714D02*
X224918928Y-105677380D01*
X224918928Y-105105952D02*
X224966547Y-105058333D01*
X225061785Y-105010714D01*
X225204642Y-105010714D01*
X225299880Y-105058333D01*
X225347500Y-105153571D01*
X225347500Y-105677380D01*
X226252261Y-105629761D02*
X226157023Y-105677380D01*
X225966547Y-105677380D01*
X225871309Y-105629761D01*
X225823690Y-105582142D01*
X225776071Y-105486904D01*
X225776071Y-105201190D01*
X225823690Y-105105952D01*
X225871309Y-105058333D01*
X225966547Y-105010714D01*
X226157023Y-105010714D01*
X226252261Y-105058333D01*
X227061785Y-105629761D02*
X226966547Y-105677380D01*
X226776071Y-105677380D01*
X226680833Y-105629761D01*
X226633214Y-105534523D01*
X226633214Y-105153571D01*
X226680833Y-105058333D01*
X226776071Y-105010714D01*
X226966547Y-105010714D01*
X227061785Y-105058333D01*
X227109404Y-105153571D01*
X227109404Y-105248809D01*
X226633214Y-105344047D01*
X191537976Y-106422619D02*
X191585595Y-106375000D01*
X191680833Y-106327380D01*
X191918928Y-106327380D01*
X192014166Y-106375000D01*
X192061785Y-106422619D01*
X192109404Y-106517857D01*
X192109404Y-106613095D01*
X192061785Y-106755952D01*
X191490357Y-107327380D01*
X192109404Y-107327380D01*
X192537976Y-107232142D02*
X192585595Y-107279761D01*
X192537976Y-107327380D01*
X192490357Y-107279761D01*
X192537976Y-107232142D01*
X192537976Y-107327380D01*
X194109404Y-106803571D02*
X193776071Y-106803571D01*
X193776071Y-107327380D02*
X193776071Y-106327380D01*
X194252261Y-106327380D01*
X195204642Y-107327380D02*
X194871309Y-106851190D01*
X194633214Y-107327380D02*
X194633214Y-106327380D01*
X195014166Y-106327380D01*
X195109404Y-106375000D01*
X195157023Y-106422619D01*
X195204642Y-106517857D01*
X195204642Y-106660714D01*
X195157023Y-106755952D01*
X195109404Y-106803571D01*
X195014166Y-106851190D01*
X194633214Y-106851190D01*
X196061785Y-106660714D02*
X196061785Y-107327380D01*
X195823690Y-106279761D02*
X195585595Y-106994047D01*
X196204642Y-106994047D01*
X197871309Y-107327380D02*
X197299880Y-107327380D01*
X197585595Y-107327380D02*
X197585595Y-106327380D01*
X197490357Y-106470238D01*
X197395119Y-106565476D01*
X197299880Y-106613095D01*
X198204642Y-106327380D02*
X198823690Y-106327380D01*
X198490357Y-106708333D01*
X198633214Y-106708333D01*
X198728452Y-106755952D01*
X198776071Y-106803571D01*
X198823690Y-106898809D01*
X198823690Y-107136904D01*
X198776071Y-107232142D01*
X198728452Y-107279761D01*
X198633214Y-107327380D01*
X198347500Y-107327380D01*
X198252261Y-107279761D01*
X198204642Y-107232142D01*
X199728452Y-106327380D02*
X199252261Y-106327380D01*
X199204642Y-106803571D01*
X199252261Y-106755952D01*
X199347500Y-106708333D01*
X199585595Y-106708333D01*
X199680833Y-106755952D01*
X199728452Y-106803571D01*
X199776071Y-106898809D01*
X199776071Y-107136904D01*
X199728452Y-107232142D01*
X199680833Y-107279761D01*
X199585595Y-107327380D01*
X199347500Y-107327380D01*
X199252261Y-107279761D01*
X199204642Y-107232142D01*
X200061785Y-106660714D02*
X200442738Y-106660714D01*
X200204642Y-106327380D02*
X200204642Y-107184523D01*
X200252261Y-107279761D01*
X200347500Y-107327380D01*
X200442738Y-107327380D01*
X201204642Y-106660714D02*
X201204642Y-107470238D01*
X201157023Y-107565476D01*
X201109404Y-107613095D01*
X201014166Y-107660714D01*
X200871309Y-107660714D01*
X200776071Y-107613095D01*
X201204642Y-107279761D02*
X201109404Y-107327380D01*
X200918928Y-107327380D01*
X200823690Y-107279761D01*
X200776071Y-107232142D01*
X200728452Y-107136904D01*
X200728452Y-106851190D01*
X200776071Y-106755952D01*
X200823690Y-106708333D01*
X200918928Y-106660714D01*
X201109404Y-106660714D01*
X201204642Y-106708333D01*
X201680833Y-106946428D02*
X202442738Y-106946428D01*
X202823690Y-106327380D02*
X203442738Y-106327380D01*
X203109404Y-106708333D01*
X203252261Y-106708333D01*
X203347500Y-106755952D01*
X203395119Y-106803571D01*
X203442738Y-106898809D01*
X203442738Y-107136904D01*
X203395119Y-107232142D01*
X203347500Y-107279761D01*
X203252261Y-107327380D01*
X202966547Y-107327380D01*
X202871309Y-107279761D01*
X202823690Y-107232142D01*
X204395119Y-107327380D02*
X203823690Y-107327380D01*
X204109404Y-107327380D02*
X204109404Y-106327380D01*
X204014166Y-106470238D01*
X203918928Y-106565476D01*
X203823690Y-106613095D01*
X205014166Y-106327380D02*
X205109404Y-106327380D01*
X205204642Y-106375000D01*
X205252261Y-106422619D01*
X205299880Y-106517857D01*
X205347500Y-106708333D01*
X205347500Y-106946428D01*
X205299880Y-107136904D01*
X205252261Y-107232142D01*
X205204642Y-107279761D01*
X205109404Y-107327380D01*
X205014166Y-107327380D01*
X204918928Y-107279761D01*
X204871309Y-107232142D01*
X204823690Y-107136904D01*
X204776071Y-106946428D01*
X204776071Y-106708333D01*
X204823690Y-106517857D01*
X204871309Y-106422619D01*
X204918928Y-106375000D01*
X205014166Y-106327380D01*
X205633214Y-106660714D02*
X206014166Y-106660714D01*
X205776071Y-106327380D02*
X205776071Y-107184523D01*
X205823690Y-107279761D01*
X205918928Y-107327380D01*
X206014166Y-107327380D01*
X206776071Y-107327380D02*
X206776071Y-106327380D01*
X206776071Y-107279761D02*
X206680833Y-107327380D01*
X206490357Y-107327380D01*
X206395119Y-107279761D01*
X206347500Y-107232142D01*
X206299880Y-107136904D01*
X206299880Y-106851190D01*
X206347500Y-106755952D01*
X206395119Y-106708333D01*
X206490357Y-106660714D01*
X206680833Y-106660714D01*
X206776071Y-106708333D01*
X208157023Y-107327380D02*
X208061785Y-107279761D01*
X208014166Y-107184523D01*
X208014166Y-106327380D01*
X208966547Y-107327380D02*
X208966547Y-106803571D01*
X208918928Y-106708333D01*
X208823690Y-106660714D01*
X208633214Y-106660714D01*
X208537976Y-106708333D01*
X208966547Y-107279761D02*
X208871309Y-107327380D01*
X208633214Y-107327380D01*
X208537976Y-107279761D01*
X208490357Y-107184523D01*
X208490357Y-107089285D01*
X208537976Y-106994047D01*
X208633214Y-106946428D01*
X208871309Y-106946428D01*
X208966547Y-106898809D01*
X209442738Y-107327380D02*
X209442738Y-106660714D01*
X209442738Y-106755952D02*
X209490357Y-106708333D01*
X209585595Y-106660714D01*
X209728452Y-106660714D01*
X209823690Y-106708333D01*
X209871309Y-106803571D01*
X209871309Y-107327380D01*
X209871309Y-106803571D02*
X209918928Y-106708333D01*
X210014166Y-106660714D01*
X210157023Y-106660714D01*
X210252261Y-106708333D01*
X210299880Y-106803571D01*
X210299880Y-107327380D01*
X210776071Y-107327380D02*
X210776071Y-106660714D01*
X210776071Y-106327380D02*
X210728452Y-106375000D01*
X210776071Y-106422619D01*
X210823690Y-106375000D01*
X210776071Y-106327380D01*
X210776071Y-106422619D01*
X211252261Y-106660714D02*
X211252261Y-107327380D01*
X211252261Y-106755952D02*
X211299880Y-106708333D01*
X211395119Y-106660714D01*
X211537976Y-106660714D01*
X211633214Y-106708333D01*
X211680833Y-106803571D01*
X211680833Y-107327380D01*
X212585595Y-107327380D02*
X212585595Y-106803571D01*
X212537976Y-106708333D01*
X212442738Y-106660714D01*
X212252261Y-106660714D01*
X212157023Y-106708333D01*
X212585595Y-107279761D02*
X212490357Y-107327380D01*
X212252261Y-107327380D01*
X212157023Y-107279761D01*
X212109404Y-107184523D01*
X212109404Y-107089285D01*
X212157023Y-106994047D01*
X212252261Y-106946428D01*
X212490357Y-106946428D01*
X212585595Y-106898809D01*
X212918928Y-106660714D02*
X213299880Y-106660714D01*
X213061785Y-106327380D02*
X213061785Y-107184523D01*
X213109404Y-107279761D01*
X213204642Y-107327380D01*
X213299880Y-107327380D01*
X214014166Y-107279761D02*
X213918928Y-107327380D01*
X213728452Y-107327380D01*
X213633214Y-107279761D01*
X213585595Y-107184523D01*
X213585595Y-106803571D01*
X213633214Y-106708333D01*
X213728452Y-106660714D01*
X213918928Y-106660714D01*
X214014166Y-106708333D01*
X214061785Y-106803571D01*
X214061785Y-106898809D01*
X213585595Y-106994047D01*
X191490357Y-107977380D02*
X192109404Y-107977380D01*
X191776071Y-108358333D01*
X191918928Y-108358333D01*
X192014166Y-108405952D01*
X192061785Y-108453571D01*
X192109404Y-108548809D01*
X192109404Y-108786904D01*
X192061785Y-108882142D01*
X192014166Y-108929761D01*
X191918928Y-108977380D01*
X191633214Y-108977380D01*
X191537976Y-108929761D01*
X191490357Y-108882142D01*
X192537976Y-108882142D02*
X192585595Y-108929761D01*
X192537976Y-108977380D01*
X192490357Y-108929761D01*
X192537976Y-108882142D01*
X192537976Y-108977380D01*
X194347500Y-108882142D02*
X194299880Y-108929761D01*
X194157023Y-108977380D01*
X194061785Y-108977380D01*
X193918928Y-108929761D01*
X193823690Y-108834523D01*
X193776071Y-108739285D01*
X193728452Y-108548809D01*
X193728452Y-108405952D01*
X193776071Y-108215476D01*
X193823690Y-108120238D01*
X193918928Y-108025000D01*
X194061785Y-107977380D01*
X194157023Y-107977380D01*
X194299880Y-108025000D01*
X194347500Y-108072619D01*
X194918928Y-108977380D02*
X194823690Y-108929761D01*
X194776071Y-108882142D01*
X194728452Y-108786904D01*
X194728452Y-108501190D01*
X194776071Y-108405952D01*
X194823690Y-108358333D01*
X194918928Y-108310714D01*
X195061785Y-108310714D01*
X195157023Y-108358333D01*
X195204642Y-108405952D01*
X195252261Y-108501190D01*
X195252261Y-108786904D01*
X195204642Y-108882142D01*
X195157023Y-108929761D01*
X195061785Y-108977380D01*
X194918928Y-108977380D01*
X195680833Y-108310714D02*
X195680833Y-109310714D01*
X195680833Y-108358333D02*
X195776071Y-108310714D01*
X195966547Y-108310714D01*
X196061785Y-108358333D01*
X196109404Y-108405952D01*
X196157023Y-108501190D01*
X196157023Y-108786904D01*
X196109404Y-108882142D01*
X196061785Y-108929761D01*
X195966547Y-108977380D01*
X195776071Y-108977380D01*
X195680833Y-108929761D01*
X196585595Y-108310714D02*
X196585595Y-109310714D01*
X196585595Y-108358333D02*
X196680833Y-108310714D01*
X196871309Y-108310714D01*
X196966547Y-108358333D01*
X197014166Y-108405952D01*
X197061785Y-108501190D01*
X197061785Y-108786904D01*
X197014166Y-108882142D01*
X196966547Y-108929761D01*
X196871309Y-108977380D01*
X196680833Y-108977380D01*
X196585595Y-108929761D01*
X197871309Y-108929761D02*
X197776071Y-108977380D01*
X197585595Y-108977380D01*
X197490357Y-108929761D01*
X197442738Y-108834523D01*
X197442738Y-108453571D01*
X197490357Y-108358333D01*
X197585595Y-108310714D01*
X197776071Y-108310714D01*
X197871309Y-108358333D01*
X197918928Y-108453571D01*
X197918928Y-108548809D01*
X197442738Y-108644047D01*
X198347500Y-108977380D02*
X198347500Y-108310714D01*
X198347500Y-108501190D02*
X198395119Y-108405952D01*
X198442738Y-108358333D01*
X198537976Y-108310714D01*
X198633214Y-108310714D01*
X200252261Y-108977380D02*
X199680833Y-108977380D01*
X199966547Y-108977380D02*
X199966547Y-107977380D01*
X199871309Y-108120238D01*
X199776071Y-108215476D01*
X199680833Y-108263095D01*
X201585595Y-108977380D02*
X201490357Y-108929761D01*
X201442738Y-108882142D01*
X201395119Y-108786904D01*
X201395119Y-108501190D01*
X201442738Y-108405952D01*
X201490357Y-108358333D01*
X201585595Y-108310714D01*
X201728452Y-108310714D01*
X201823690Y-108358333D01*
X201871309Y-108405952D01*
X201918928Y-108501190D01*
X201918928Y-108786904D01*
X201871309Y-108882142D01*
X201823690Y-108929761D01*
X201728452Y-108977380D01*
X201585595Y-108977380D01*
X202252261Y-108310714D02*
X202776071Y-108310714D01*
X202252261Y-108977380D01*
X202776071Y-108977380D01*
X192014166Y-109960714D02*
X192014166Y-110627380D01*
X191776071Y-109579761D02*
X191537976Y-110294047D01*
X192157023Y-110294047D01*
X192537976Y-110532142D02*
X192585595Y-110579761D01*
X192537976Y-110627380D01*
X192490357Y-110579761D01*
X192537976Y-110532142D01*
X192537976Y-110627380D01*
X193776071Y-110103571D02*
X194109404Y-110103571D01*
X194252261Y-110627380D02*
X193776071Y-110627380D01*
X193776071Y-109627380D01*
X194252261Y-109627380D01*
X194680833Y-110627380D02*
X194680833Y-109627380D01*
X195252261Y-110627380D01*
X195252261Y-109627380D01*
X195728452Y-110627380D02*
X195728452Y-109627380D01*
X196728452Y-109675000D02*
X196633214Y-109627380D01*
X196490357Y-109627380D01*
X196347500Y-109675000D01*
X196252261Y-109770238D01*
X196204642Y-109865476D01*
X196157023Y-110055952D01*
X196157023Y-110198809D01*
X196204642Y-110389285D01*
X196252261Y-110484523D01*
X196347500Y-110579761D01*
X196490357Y-110627380D01*
X196585595Y-110627380D01*
X196728452Y-110579761D01*
X196776071Y-110532142D01*
X196776071Y-110198809D01*
X196585595Y-110198809D01*
X197204642Y-110246428D02*
X197966547Y-110246428D01*
X199014166Y-110627380D02*
X198680833Y-110151190D01*
X198442738Y-110627380D02*
X198442738Y-109627380D01*
X198823690Y-109627380D01*
X198918928Y-109675000D01*
X198966547Y-109722619D01*
X199014166Y-109817857D01*
X199014166Y-109960714D01*
X198966547Y-110055952D01*
X198918928Y-110103571D01*
X198823690Y-110151190D01*
X198442738Y-110151190D01*
X199585595Y-110627380D02*
X199490357Y-110579761D01*
X199442738Y-110532142D01*
X199395119Y-110436904D01*
X199395119Y-110151190D01*
X199442738Y-110055952D01*
X199490357Y-110008333D01*
X199585595Y-109960714D01*
X199728452Y-109960714D01*
X199823690Y-110008333D01*
X199871309Y-110055952D01*
X199918928Y-110151190D01*
X199918928Y-110436904D01*
X199871309Y-110532142D01*
X199823690Y-110579761D01*
X199728452Y-110627380D01*
X199585595Y-110627380D01*
X200347500Y-110627380D02*
X200347500Y-109627380D01*
X200347500Y-110103571D02*
X200918928Y-110103571D01*
X200918928Y-110627380D02*
X200918928Y-109627380D01*
X201347500Y-110579761D02*
X201490357Y-110627380D01*
X201728452Y-110627380D01*
X201823690Y-110579761D01*
X201871309Y-110532142D01*
X201918928Y-110436904D01*
X201918928Y-110341666D01*
X201871309Y-110246428D01*
X201823690Y-110198809D01*
X201728452Y-110151190D01*
X201537976Y-110103571D01*
X201442738Y-110055952D01*
X201395119Y-110008333D01*
X201347500Y-109913095D01*
X201347500Y-109817857D01*
X201395119Y-109722619D01*
X201442738Y-109675000D01*
X201537976Y-109627380D01*
X201776071Y-109627380D01*
X201918928Y-109675000D01*
X202966547Y-109960714D02*
X203347500Y-109960714D01*
X203109404Y-110627380D02*
X203109404Y-109770238D01*
X203157023Y-109675000D01*
X203252261Y-109627380D01*
X203347500Y-109627380D01*
X203680833Y-110627380D02*
X203680833Y-109960714D01*
X203680833Y-109627380D02*
X203633214Y-109675000D01*
X203680833Y-109722619D01*
X203728452Y-109675000D01*
X203680833Y-109627380D01*
X203680833Y-109722619D01*
X204157023Y-109960714D02*
X204157023Y-110627380D01*
X204157023Y-110055952D02*
X204204642Y-110008333D01*
X204299880Y-109960714D01*
X204442738Y-109960714D01*
X204537976Y-110008333D01*
X204585595Y-110103571D01*
X204585595Y-110627380D01*
X205061785Y-110627380D02*
X205061785Y-109960714D01*
X205061785Y-109627380D02*
X205014166Y-109675000D01*
X205061785Y-109722619D01*
X205109404Y-109675000D01*
X205061785Y-109627380D01*
X205061785Y-109722619D01*
X205490357Y-110579761D02*
X205585595Y-110627380D01*
X205776071Y-110627380D01*
X205871309Y-110579761D01*
X205918928Y-110484523D01*
X205918928Y-110436904D01*
X205871309Y-110341666D01*
X205776071Y-110294047D01*
X205633214Y-110294047D01*
X205537976Y-110246428D01*
X205490357Y-110151190D01*
X205490357Y-110103571D01*
X205537976Y-110008333D01*
X205633214Y-109960714D01*
X205776071Y-109960714D01*
X205871309Y-110008333D01*
X206347500Y-110627380D02*
X206347500Y-109627380D01*
X206776071Y-110627380D02*
X206776071Y-110103571D01*
X206728452Y-110008333D01*
X206633214Y-109960714D01*
X206490357Y-109960714D01*
X206395119Y-110008333D01*
X206347500Y-110055952D01*
X208442738Y-110627380D02*
X208442738Y-110103571D01*
X208395119Y-110008333D01*
X208299880Y-109960714D01*
X208109404Y-109960714D01*
X208014166Y-110008333D01*
X208442738Y-110579761D02*
X208347500Y-110627380D01*
X208109404Y-110627380D01*
X208014166Y-110579761D01*
X207966547Y-110484523D01*
X207966547Y-110389285D01*
X208014166Y-110294047D01*
X208109404Y-110246428D01*
X208347500Y-110246428D01*
X208442738Y-110198809D01*
X208871309Y-110579761D02*
X208966547Y-110627380D01*
X209157023Y-110627380D01*
X209252261Y-110579761D01*
X209299880Y-110484523D01*
X209299880Y-110436904D01*
X209252261Y-110341666D01*
X209157023Y-110294047D01*
X209014166Y-110294047D01*
X208918928Y-110246428D01*
X208871309Y-110151190D01*
X208871309Y-110103571D01*
X208918928Y-110008333D01*
X209014166Y-109960714D01*
X209157023Y-109960714D01*
X209252261Y-110008333D01*
X210490357Y-109960714D02*
X210490357Y-110960714D01*
X210490357Y-110008333D02*
X210585595Y-109960714D01*
X210776071Y-109960714D01*
X210871309Y-110008333D01*
X210918928Y-110055952D01*
X210966547Y-110151190D01*
X210966547Y-110436904D01*
X210918928Y-110532142D01*
X210871309Y-110579761D01*
X210776071Y-110627380D01*
X210585595Y-110627380D01*
X210490357Y-110579761D01*
X211776071Y-110579761D02*
X211680833Y-110627380D01*
X211490357Y-110627380D01*
X211395119Y-110579761D01*
X211347500Y-110484523D01*
X211347500Y-110103571D01*
X211395119Y-110008333D01*
X211490357Y-109960714D01*
X211680833Y-109960714D01*
X211776071Y-110008333D01*
X211823690Y-110103571D01*
X211823690Y-110198809D01*
X211347500Y-110294047D01*
X212252261Y-110627380D02*
X212252261Y-109960714D01*
X212252261Y-110151190D02*
X212299880Y-110055952D01*
X212347500Y-110008333D01*
X212442738Y-109960714D01*
X212537976Y-109960714D01*
X213633214Y-110627380D02*
X213633214Y-109627380D01*
X214109404Y-110627380D02*
X214109404Y-109627380D01*
X214490357Y-109627380D01*
X214585595Y-109675000D01*
X214633214Y-109722619D01*
X214680833Y-109817857D01*
X214680833Y-109960714D01*
X214633214Y-110055952D01*
X214585595Y-110103571D01*
X214490357Y-110151190D01*
X214109404Y-110151190D01*
X215680833Y-110532142D02*
X215633214Y-110579761D01*
X215490357Y-110627380D01*
X215395119Y-110627380D01*
X215252261Y-110579761D01*
X215157023Y-110484523D01*
X215109404Y-110389285D01*
X215061785Y-110198809D01*
X215061785Y-110055952D01*
X215109404Y-109865476D01*
X215157023Y-109770238D01*
X215252261Y-109675000D01*
X215395119Y-109627380D01*
X215490357Y-109627380D01*
X215633214Y-109675000D01*
X215680833Y-109722619D01*
X216109404Y-110246428D02*
X216871309Y-110246428D01*
X217776071Y-109960714D02*
X217776071Y-110627380D01*
X217537976Y-109579761D02*
X217299880Y-110294047D01*
X217918928Y-110294047D01*
X218776071Y-109627380D02*
X218299880Y-109627380D01*
X218252261Y-110103571D01*
X218299880Y-110055952D01*
X218395119Y-110008333D01*
X218633214Y-110008333D01*
X218728452Y-110055952D01*
X218776071Y-110103571D01*
X218823690Y-110198809D01*
X218823690Y-110436904D01*
X218776071Y-110532142D01*
X218728452Y-110579761D01*
X218633214Y-110627380D01*
X218395119Y-110627380D01*
X218299880Y-110579761D01*
X218252261Y-110532142D01*
X219728452Y-109627380D02*
X219252261Y-109627380D01*
X219204642Y-110103571D01*
X219252261Y-110055952D01*
X219347500Y-110008333D01*
X219585595Y-110008333D01*
X219680833Y-110055952D01*
X219728452Y-110103571D01*
X219776071Y-110198809D01*
X219776071Y-110436904D01*
X219728452Y-110532142D01*
X219680833Y-110579761D01*
X219585595Y-110627380D01*
X219347500Y-110627380D01*
X219252261Y-110579761D01*
X219204642Y-110532142D01*
X220157023Y-109722619D02*
X220204642Y-109675000D01*
X220299880Y-109627380D01*
X220537976Y-109627380D01*
X220633214Y-109675000D01*
X220680833Y-109722619D01*
X220728452Y-109817857D01*
X220728452Y-109913095D01*
X220680833Y-110055952D01*
X220109404Y-110627380D01*
X220728452Y-110627380D01*
X192061785Y-111277380D02*
X191585595Y-111277380D01*
X191537976Y-111753571D01*
X191585595Y-111705952D01*
X191680833Y-111658333D01*
X191918928Y-111658333D01*
X192014166Y-111705952D01*
X192061785Y-111753571D01*
X192109404Y-111848809D01*
X192109404Y-112086904D01*
X192061785Y-112182142D01*
X192014166Y-112229761D01*
X191918928Y-112277380D01*
X191680833Y-112277380D01*
X191585595Y-112229761D01*
X191537976Y-112182142D01*
X192537976Y-112182142D02*
X192585595Y-112229761D01*
X192537976Y-112277380D01*
X192490357Y-112229761D01*
X192537976Y-112182142D01*
X192537976Y-112277380D01*
X194299880Y-111325000D02*
X194204642Y-111277380D01*
X194061785Y-111277380D01*
X193918928Y-111325000D01*
X193823690Y-111420238D01*
X193776071Y-111515476D01*
X193728452Y-111705952D01*
X193728452Y-111848809D01*
X193776071Y-112039285D01*
X193823690Y-112134523D01*
X193918928Y-112229761D01*
X194061785Y-112277380D01*
X194157023Y-112277380D01*
X194299880Y-112229761D01*
X194347500Y-112182142D01*
X194347500Y-111848809D01*
X194157023Y-111848809D01*
X194776071Y-112277380D02*
X194776071Y-111610714D01*
X194776071Y-111801190D02*
X194823690Y-111705952D01*
X194871309Y-111658333D01*
X194966547Y-111610714D01*
X195061785Y-111610714D01*
X195776071Y-112229761D02*
X195680833Y-112277380D01*
X195490357Y-112277380D01*
X195395119Y-112229761D01*
X195347500Y-112134523D01*
X195347500Y-111753571D01*
X195395119Y-111658333D01*
X195490357Y-111610714D01*
X195680833Y-111610714D01*
X195776071Y-111658333D01*
X195823690Y-111753571D01*
X195823690Y-111848809D01*
X195347500Y-111944047D01*
X196633214Y-112229761D02*
X196537976Y-112277380D01*
X196347500Y-112277380D01*
X196252261Y-112229761D01*
X196204642Y-112134523D01*
X196204642Y-111753571D01*
X196252261Y-111658333D01*
X196347500Y-111610714D01*
X196537976Y-111610714D01*
X196633214Y-111658333D01*
X196680833Y-111753571D01*
X196680833Y-111848809D01*
X196204642Y-111944047D01*
X197109404Y-111610714D02*
X197109404Y-112277380D01*
X197109404Y-111705952D02*
X197157023Y-111658333D01*
X197252261Y-111610714D01*
X197395119Y-111610714D01*
X197490357Y-111658333D01*
X197537976Y-111753571D01*
X197537976Y-112277380D01*
X198728452Y-112229761D02*
X198823690Y-112277380D01*
X199014166Y-112277380D01*
X199109404Y-112229761D01*
X199157023Y-112134523D01*
X199157023Y-112086904D01*
X199109404Y-111991666D01*
X199014166Y-111944047D01*
X198871309Y-111944047D01*
X198776071Y-111896428D01*
X198728452Y-111801190D01*
X198728452Y-111753571D01*
X198776071Y-111658333D01*
X198871309Y-111610714D01*
X199014166Y-111610714D01*
X199109404Y-111658333D01*
X199728452Y-112277380D02*
X199633214Y-112229761D01*
X199585595Y-112182142D01*
X199537976Y-112086904D01*
X199537976Y-111801190D01*
X199585595Y-111705952D01*
X199633214Y-111658333D01*
X199728452Y-111610714D01*
X199871309Y-111610714D01*
X199966547Y-111658333D01*
X200014166Y-111705952D01*
X200061785Y-111801190D01*
X200061785Y-112086904D01*
X200014166Y-112182142D01*
X199966547Y-112229761D01*
X199871309Y-112277380D01*
X199728452Y-112277380D01*
X200633214Y-112277380D02*
X200537976Y-112229761D01*
X200490357Y-112134523D01*
X200490357Y-111277380D01*
X201442738Y-112277380D02*
X201442738Y-111277380D01*
X201442738Y-112229761D02*
X201347500Y-112277380D01*
X201157023Y-112277380D01*
X201061785Y-112229761D01*
X201014166Y-112182142D01*
X200966547Y-112086904D01*
X200966547Y-111801190D01*
X201014166Y-111705952D01*
X201061785Y-111658333D01*
X201157023Y-111610714D01*
X201347500Y-111610714D01*
X201442738Y-111658333D01*
X202299880Y-112229761D02*
X202204642Y-112277380D01*
X202014166Y-112277380D01*
X201918928Y-112229761D01*
X201871309Y-112134523D01*
X201871309Y-111753571D01*
X201918928Y-111658333D01*
X202014166Y-111610714D01*
X202204642Y-111610714D01*
X202299880Y-111658333D01*
X202347500Y-111753571D01*
X202347500Y-111848809D01*
X201871309Y-111944047D01*
X202776071Y-112277380D02*
X202776071Y-111610714D01*
X202776071Y-111801190D02*
X202823690Y-111705952D01*
X202871309Y-111658333D01*
X202966547Y-111610714D01*
X203061785Y-111610714D01*
X204157023Y-112277380D02*
X204157023Y-111610714D01*
X204157023Y-111705952D02*
X204204642Y-111658333D01*
X204299880Y-111610714D01*
X204442738Y-111610714D01*
X204537976Y-111658333D01*
X204585595Y-111753571D01*
X204585595Y-112277380D01*
X204585595Y-111753571D02*
X204633214Y-111658333D01*
X204728452Y-111610714D01*
X204871309Y-111610714D01*
X204966547Y-111658333D01*
X205014166Y-111753571D01*
X205014166Y-112277380D01*
X205918928Y-112277380D02*
X205918928Y-111753571D01*
X205871309Y-111658333D01*
X205776071Y-111610714D01*
X205585595Y-111610714D01*
X205490357Y-111658333D01*
X205918928Y-112229761D02*
X205823690Y-112277380D01*
X205585595Y-112277380D01*
X205490357Y-112229761D01*
X205442738Y-112134523D01*
X205442738Y-112039285D01*
X205490357Y-111944047D01*
X205585595Y-111896428D01*
X205823690Y-111896428D01*
X205918928Y-111848809D01*
X206347500Y-112229761D02*
X206442738Y-112277380D01*
X206633214Y-112277380D01*
X206728452Y-112229761D01*
X206776071Y-112134523D01*
X206776071Y-112086904D01*
X206728452Y-111991666D01*
X206633214Y-111944047D01*
X206490357Y-111944047D01*
X206395119Y-111896428D01*
X206347500Y-111801190D01*
X206347500Y-111753571D01*
X206395119Y-111658333D01*
X206490357Y-111610714D01*
X206633214Y-111610714D01*
X206728452Y-111658333D01*
X207204642Y-112277380D02*
X207204642Y-111277380D01*
X207299880Y-111896428D02*
X207585595Y-112277380D01*
X207585595Y-111610714D02*
X207204642Y-111991666D01*
X192014166Y-112927380D02*
X191823690Y-112927380D01*
X191728452Y-112975000D01*
X191680833Y-113022619D01*
X191585595Y-113165476D01*
X191537976Y-113355952D01*
X191537976Y-113736904D01*
X191585595Y-113832142D01*
X191633214Y-113879761D01*
X191728452Y-113927380D01*
X191918928Y-113927380D01*
X192014166Y-113879761D01*
X192061785Y-113832142D01*
X192109404Y-113736904D01*
X192109404Y-113498809D01*
X192061785Y-113403571D01*
X192014166Y-113355952D01*
X191918928Y-113308333D01*
X191728452Y-113308333D01*
X191633214Y-113355952D01*
X191585595Y-113403571D01*
X191537976Y-113498809D01*
X192537976Y-113832142D02*
X192585595Y-113879761D01*
X192537976Y-113927380D01*
X192490357Y-113879761D01*
X192537976Y-113832142D01*
X192537976Y-113927380D01*
X193680833Y-112927380D02*
X193918928Y-113927380D01*
X194109404Y-113213095D01*
X194299880Y-113927380D01*
X194537976Y-112927380D01*
X194918928Y-113927380D02*
X194918928Y-112927380D01*
X195347500Y-113927380D02*
X195347500Y-113403571D01*
X195299880Y-113308333D01*
X195204642Y-113260714D01*
X195061785Y-113260714D01*
X194966547Y-113308333D01*
X194918928Y-113355952D01*
X195823690Y-113927380D02*
X195823690Y-113260714D01*
X195823690Y-112927380D02*
X195776071Y-112975000D01*
X195823690Y-113022619D01*
X195871309Y-112975000D01*
X195823690Y-112927380D01*
X195823690Y-113022619D01*
X196157023Y-113260714D02*
X196537976Y-113260714D01*
X196299880Y-112927380D02*
X196299880Y-113784523D01*
X196347500Y-113879761D01*
X196442738Y-113927380D01*
X196537976Y-113927380D01*
X197252261Y-113879761D02*
X197157023Y-113927380D01*
X196966547Y-113927380D01*
X196871309Y-113879761D01*
X196823690Y-113784523D01*
X196823690Y-113403571D01*
X196871309Y-113308333D01*
X196966547Y-113260714D01*
X197157023Y-113260714D01*
X197252261Y-113308333D01*
X197299880Y-113403571D01*
X197299880Y-113498809D01*
X196823690Y-113594047D01*
X198442738Y-113879761D02*
X198537976Y-113927380D01*
X198728452Y-113927380D01*
X198823690Y-113879761D01*
X198871309Y-113784523D01*
X198871309Y-113736904D01*
X198823690Y-113641666D01*
X198728452Y-113594047D01*
X198585595Y-113594047D01*
X198490357Y-113546428D01*
X198442738Y-113451190D01*
X198442738Y-113403571D01*
X198490357Y-113308333D01*
X198585595Y-113260714D01*
X198728452Y-113260714D01*
X198823690Y-113308333D01*
X199299880Y-113927380D02*
X199299880Y-113260714D01*
X199299880Y-112927380D02*
X199252261Y-112975000D01*
X199299880Y-113022619D01*
X199347500Y-112975000D01*
X199299880Y-112927380D01*
X199299880Y-113022619D01*
X199918928Y-113927380D02*
X199823690Y-113879761D01*
X199776071Y-113784523D01*
X199776071Y-112927380D01*
X200299880Y-113927380D02*
X200299880Y-112927380D01*
X200395119Y-113546428D02*
X200680833Y-113927380D01*
X200680833Y-113260714D02*
X200299880Y-113641666D01*
X201061785Y-113879761D02*
X201157023Y-113927380D01*
X201347500Y-113927380D01*
X201442738Y-113879761D01*
X201490357Y-113784523D01*
X201490357Y-113736904D01*
X201442738Y-113641666D01*
X201347500Y-113594047D01*
X201204642Y-113594047D01*
X201109404Y-113546428D01*
X201061785Y-113451190D01*
X201061785Y-113403571D01*
X201109404Y-113308333D01*
X201204642Y-113260714D01*
X201347500Y-113260714D01*
X201442738Y-113308333D01*
X202347500Y-113879761D02*
X202252261Y-113927380D01*
X202061785Y-113927380D01*
X201966547Y-113879761D01*
X201918928Y-113832142D01*
X201871309Y-113736904D01*
X201871309Y-113451190D01*
X201918928Y-113355952D01*
X201966547Y-113308333D01*
X202061785Y-113260714D01*
X202252261Y-113260714D01*
X202347500Y-113308333D01*
X202776071Y-113927380D02*
X202776071Y-113260714D01*
X202776071Y-113451190D02*
X202823690Y-113355952D01*
X202871309Y-113308333D01*
X202966547Y-113260714D01*
X203061785Y-113260714D01*
X203776071Y-113879761D02*
X203680833Y-113927380D01*
X203490357Y-113927380D01*
X203395119Y-113879761D01*
X203347500Y-113784523D01*
X203347500Y-113403571D01*
X203395119Y-113308333D01*
X203490357Y-113260714D01*
X203680833Y-113260714D01*
X203776071Y-113308333D01*
X203823690Y-113403571D01*
X203823690Y-113498809D01*
X203347500Y-113594047D01*
X204633214Y-113879761D02*
X204537976Y-113927380D01*
X204347500Y-113927380D01*
X204252261Y-113879761D01*
X204204642Y-113784523D01*
X204204642Y-113403571D01*
X204252261Y-113308333D01*
X204347500Y-113260714D01*
X204537976Y-113260714D01*
X204633214Y-113308333D01*
X204680833Y-113403571D01*
X204680833Y-113498809D01*
X204204642Y-113594047D01*
X205109404Y-113260714D02*
X205109404Y-113927380D01*
X205109404Y-113355952D02*
X205157023Y-113308333D01*
X205252261Y-113260714D01*
X205395119Y-113260714D01*
X205490357Y-113308333D01*
X205537976Y-113403571D01*
X205537976Y-113927380D01*
X191490357Y-114577380D02*
X192157023Y-114577380D01*
X191728452Y-115577380D01*
X192537976Y-115482142D02*
X192585595Y-115529761D01*
X192537976Y-115577380D01*
X192490357Y-115529761D01*
X192537976Y-115482142D01*
X192537976Y-115577380D01*
X193776071Y-115577380D02*
X193776071Y-114577380D01*
X194347500Y-115577380D01*
X194347500Y-114577380D01*
X194966547Y-115577380D02*
X194871309Y-115529761D01*
X194823690Y-115482142D01*
X194776071Y-115386904D01*
X194776071Y-115101190D01*
X194823690Y-115005952D01*
X194871309Y-114958333D01*
X194966547Y-114910714D01*
X195109404Y-114910714D01*
X195204642Y-114958333D01*
X195252261Y-115005952D01*
X195299880Y-115101190D01*
X195299880Y-115386904D01*
X195252261Y-115482142D01*
X195204642Y-115529761D01*
X195109404Y-115577380D01*
X194966547Y-115577380D01*
X196442738Y-115529761D02*
X196537976Y-115577380D01*
X196728452Y-115577380D01*
X196823690Y-115529761D01*
X196871309Y-115434523D01*
X196871309Y-115386904D01*
X196823690Y-115291666D01*
X196728452Y-115244047D01*
X196585595Y-115244047D01*
X196490357Y-115196428D01*
X196442738Y-115101190D01*
X196442738Y-115053571D01*
X196490357Y-114958333D01*
X196585595Y-114910714D01*
X196728452Y-114910714D01*
X196823690Y-114958333D01*
X197299880Y-115577380D02*
X197299880Y-114910714D01*
X197299880Y-114577380D02*
X197252261Y-114625000D01*
X197299880Y-114672619D01*
X197347500Y-114625000D01*
X197299880Y-114577380D01*
X197299880Y-114672619D01*
X197918928Y-115577380D02*
X197823690Y-115529761D01*
X197776071Y-115434523D01*
X197776071Y-114577380D01*
X198299880Y-115577380D02*
X198299880Y-114577380D01*
X198395119Y-115196428D02*
X198680833Y-115577380D01*
X198680833Y-114910714D02*
X198299880Y-115291666D01*
X199061785Y-115529761D02*
X199157023Y-115577380D01*
X199347500Y-115577380D01*
X199442738Y-115529761D01*
X199490357Y-115434523D01*
X199490357Y-115386904D01*
X199442738Y-115291666D01*
X199347500Y-115244047D01*
X199204642Y-115244047D01*
X199109404Y-115196428D01*
X199061785Y-115101190D01*
X199061785Y-115053571D01*
X199109404Y-114958333D01*
X199204642Y-114910714D01*
X199347500Y-114910714D01*
X199442738Y-114958333D01*
X200347500Y-115529761D02*
X200252261Y-115577380D01*
X200061785Y-115577380D01*
X199966547Y-115529761D01*
X199918928Y-115482142D01*
X199871309Y-115386904D01*
X199871309Y-115101190D01*
X199918928Y-115005952D01*
X199966547Y-114958333D01*
X200061785Y-114910714D01*
X200252261Y-114910714D01*
X200347500Y-114958333D01*
X200776071Y-115577380D02*
X200776071Y-114910714D01*
X200776071Y-115101190D02*
X200823690Y-115005952D01*
X200871309Y-114958333D01*
X200966547Y-114910714D01*
X201061785Y-114910714D01*
X201776071Y-115529761D02*
X201680833Y-115577380D01*
X201490357Y-115577380D01*
X201395119Y-115529761D01*
X201347500Y-115434523D01*
X201347500Y-115053571D01*
X201395119Y-114958333D01*
X201490357Y-114910714D01*
X201680833Y-114910714D01*
X201776071Y-114958333D01*
X201823690Y-115053571D01*
X201823690Y-115148809D01*
X201347500Y-115244047D01*
X202633214Y-115529761D02*
X202537976Y-115577380D01*
X202347500Y-115577380D01*
X202252261Y-115529761D01*
X202204642Y-115434523D01*
X202204642Y-115053571D01*
X202252261Y-114958333D01*
X202347500Y-114910714D01*
X202537976Y-114910714D01*
X202633214Y-114958333D01*
X202680833Y-115053571D01*
X202680833Y-115148809D01*
X202204642Y-115244047D01*
X203109404Y-114910714D02*
X203109404Y-115577380D01*
X203109404Y-115005952D02*
X203157023Y-114958333D01*
X203252261Y-114910714D01*
X203395119Y-114910714D01*
X203490357Y-114958333D01*
X203537976Y-115053571D01*
X203537976Y-115577380D01*
X205204642Y-115577380D02*
X205204642Y-115053571D01*
X205157023Y-114958333D01*
X205061785Y-114910714D01*
X204871309Y-114910714D01*
X204776071Y-114958333D01*
X205204642Y-115529761D02*
X205109404Y-115577380D01*
X204871309Y-115577380D01*
X204776071Y-115529761D01*
X204728452Y-115434523D01*
X204728452Y-115339285D01*
X204776071Y-115244047D01*
X204871309Y-115196428D01*
X205109404Y-115196428D01*
X205204642Y-115148809D01*
X205823690Y-115577380D02*
X205728452Y-115529761D01*
X205680833Y-115434523D01*
X205680833Y-114577380D01*
X206347500Y-115577380D02*
X206252261Y-115529761D01*
X206204642Y-115434523D01*
X206204642Y-114577380D01*
X206871309Y-115577380D02*
X206776071Y-115529761D01*
X206728452Y-115482142D01*
X206680833Y-115386904D01*
X206680833Y-115101190D01*
X206728452Y-115005952D01*
X206776071Y-114958333D01*
X206871309Y-114910714D01*
X207014166Y-114910714D01*
X207109404Y-114958333D01*
X207157023Y-115005952D01*
X207204642Y-115101190D01*
X207204642Y-115386904D01*
X207157023Y-115482142D01*
X207109404Y-115529761D01*
X207014166Y-115577380D01*
X206871309Y-115577380D01*
X207537976Y-114910714D02*
X207728452Y-115577380D01*
X207918928Y-115101190D01*
X208109404Y-115577380D01*
X208299880Y-114910714D01*
X209061785Y-115529761D02*
X208966547Y-115577380D01*
X208776071Y-115577380D01*
X208680833Y-115529761D01*
X208633214Y-115434523D01*
X208633214Y-115053571D01*
X208680833Y-114958333D01*
X208776071Y-114910714D01*
X208966547Y-114910714D01*
X209061785Y-114958333D01*
X209109404Y-115053571D01*
X209109404Y-115148809D01*
X208633214Y-115244047D01*
X209966547Y-115577380D02*
X209966547Y-114577380D01*
X209966547Y-115529761D02*
X209871309Y-115577380D01*
X209680833Y-115577380D01*
X209585595Y-115529761D01*
X209537976Y-115482142D01*
X209490357Y-115386904D01*
X209490357Y-115101190D01*
X209537976Y-115005952D01*
X209585595Y-114958333D01*
X209680833Y-114910714D01*
X209871309Y-114910714D01*
X209966547Y-114958333D01*
X211347500Y-115577380D02*
X211252261Y-115529761D01*
X211204642Y-115482142D01*
X211157023Y-115386904D01*
X211157023Y-115101190D01*
X211204642Y-115005952D01*
X211252261Y-114958333D01*
X211347500Y-114910714D01*
X211490357Y-114910714D01*
X211585595Y-114958333D01*
X211633214Y-115005952D01*
X211680833Y-115101190D01*
X211680833Y-115386904D01*
X211633214Y-115482142D01*
X211585595Y-115529761D01*
X211490357Y-115577380D01*
X211347500Y-115577380D01*
X212109404Y-114910714D02*
X212109404Y-115577380D01*
X212109404Y-115005952D02*
X212157023Y-114958333D01*
X212252261Y-114910714D01*
X212395119Y-114910714D01*
X212490357Y-114958333D01*
X212537976Y-115053571D01*
X212537976Y-115577380D01*
X214204642Y-115529761D02*
X214109404Y-115577380D01*
X213918928Y-115577380D01*
X213823690Y-115529761D01*
X213776071Y-115482142D01*
X213728452Y-115386904D01*
X213728452Y-115101190D01*
X213776071Y-115005952D01*
X213823690Y-114958333D01*
X213918928Y-114910714D01*
X214109404Y-114910714D01*
X214204642Y-114958333D01*
X214776071Y-115577380D02*
X214680833Y-115529761D01*
X214633214Y-115482142D01*
X214585595Y-115386904D01*
X214585595Y-115101190D01*
X214633214Y-115005952D01*
X214680833Y-114958333D01*
X214776071Y-114910714D01*
X214918928Y-114910714D01*
X215014166Y-114958333D01*
X215061785Y-115005952D01*
X215109404Y-115101190D01*
X215109404Y-115386904D01*
X215061785Y-115482142D01*
X215014166Y-115529761D01*
X214918928Y-115577380D01*
X214776071Y-115577380D01*
X215537976Y-115577380D02*
X215537976Y-114910714D01*
X215537976Y-115005952D02*
X215585595Y-114958333D01*
X215680833Y-114910714D01*
X215823690Y-114910714D01*
X215918928Y-114958333D01*
X215966547Y-115053571D01*
X215966547Y-115577380D01*
X215966547Y-115053571D02*
X216014166Y-114958333D01*
X216109404Y-114910714D01*
X216252261Y-114910714D01*
X216347500Y-114958333D01*
X216395119Y-115053571D01*
X216395119Y-115577380D01*
X216871309Y-114910714D02*
X216871309Y-115910714D01*
X216871309Y-114958333D02*
X216966547Y-114910714D01*
X217157023Y-114910714D01*
X217252261Y-114958333D01*
X217299880Y-115005952D01*
X217347500Y-115101190D01*
X217347500Y-115386904D01*
X217299880Y-115482142D01*
X217252261Y-115529761D01*
X217157023Y-115577380D01*
X216966547Y-115577380D01*
X216871309Y-115529761D01*
X217918928Y-115577380D02*
X217823690Y-115529761D01*
X217776071Y-115482142D01*
X217728452Y-115386904D01*
X217728452Y-115101190D01*
X217776071Y-115005952D01*
X217823690Y-114958333D01*
X217918928Y-114910714D01*
X218061785Y-114910714D01*
X218157023Y-114958333D01*
X218204642Y-115005952D01*
X218252261Y-115101190D01*
X218252261Y-115386904D01*
X218204642Y-115482142D01*
X218157023Y-115529761D01*
X218061785Y-115577380D01*
X217918928Y-115577380D01*
X218680833Y-114910714D02*
X218680833Y-115577380D01*
X218680833Y-115005952D02*
X218728452Y-114958333D01*
X218823690Y-114910714D01*
X218966547Y-114910714D01*
X219061785Y-114958333D01*
X219109404Y-115053571D01*
X219109404Y-115577380D01*
X219966547Y-115529761D02*
X219871309Y-115577380D01*
X219680833Y-115577380D01*
X219585595Y-115529761D01*
X219537976Y-115434523D01*
X219537976Y-115053571D01*
X219585595Y-114958333D01*
X219680833Y-114910714D01*
X219871309Y-114910714D01*
X219966547Y-114958333D01*
X220014166Y-115053571D01*
X220014166Y-115148809D01*
X219537976Y-115244047D01*
X220442738Y-114910714D02*
X220442738Y-115577380D01*
X220442738Y-115005952D02*
X220490357Y-114958333D01*
X220585595Y-114910714D01*
X220728452Y-114910714D01*
X220823690Y-114958333D01*
X220871309Y-115053571D01*
X220871309Y-115577380D01*
X221204642Y-114910714D02*
X221585595Y-114910714D01*
X221347500Y-114577380D02*
X221347500Y-115434523D01*
X221395119Y-115529761D01*
X221490357Y-115577380D01*
X221585595Y-115577380D01*
X222680833Y-114910714D02*
X222680833Y-115910714D01*
X222680833Y-114958333D02*
X222776071Y-114910714D01*
X222966547Y-114910714D01*
X223061785Y-114958333D01*
X223109404Y-115005952D01*
X223157023Y-115101190D01*
X223157023Y-115386904D01*
X223109404Y-115482142D01*
X223061785Y-115529761D01*
X222966547Y-115577380D01*
X222776071Y-115577380D01*
X222680833Y-115529761D01*
X224014166Y-115577380D02*
X224014166Y-115053571D01*
X223966547Y-114958333D01*
X223871309Y-114910714D01*
X223680833Y-114910714D01*
X223585595Y-114958333D01*
X224014166Y-115529761D02*
X223918928Y-115577380D01*
X223680833Y-115577380D01*
X223585595Y-115529761D01*
X223537976Y-115434523D01*
X223537976Y-115339285D01*
X223585595Y-115244047D01*
X223680833Y-115196428D01*
X223918928Y-115196428D01*
X224014166Y-115148809D01*
X224918928Y-115577380D02*
X224918928Y-114577380D01*
X224918928Y-115529761D02*
X224823690Y-115577380D01*
X224633214Y-115577380D01*
X224537976Y-115529761D01*
X224490357Y-115482142D01*
X224442738Y-115386904D01*
X224442738Y-115101190D01*
X224490357Y-115005952D01*
X224537976Y-114958333D01*
X224633214Y-114910714D01*
X224823690Y-114910714D01*
X224918928Y-114958333D01*
X225347500Y-115529761D02*
X225442738Y-115577380D01*
X225633214Y-115577380D01*
X225728452Y-115529761D01*
X225776071Y-115434523D01*
X225776071Y-115386904D01*
X225728452Y-115291666D01*
X225633214Y-115244047D01*
X225490357Y-115244047D01*
X225395119Y-115196428D01*
X225347500Y-115101190D01*
X225347500Y-115053571D01*
X225395119Y-114958333D01*
X225490357Y-114910714D01*
X225633214Y-114910714D01*
X225728452Y-114958333D01*
X191728452Y-116655952D02*
X191633214Y-116608333D01*
X191585595Y-116560714D01*
X191537976Y-116465476D01*
X191537976Y-116417857D01*
X191585595Y-116322619D01*
X191633214Y-116275000D01*
X191728452Y-116227380D01*
X191918928Y-116227380D01*
X192014166Y-116275000D01*
X192061785Y-116322619D01*
X192109404Y-116417857D01*
X192109404Y-116465476D01*
X192061785Y-116560714D01*
X192014166Y-116608333D01*
X191918928Y-116655952D01*
X191728452Y-116655952D01*
X191633214Y-116703571D01*
X191585595Y-116751190D01*
X191537976Y-116846428D01*
X191537976Y-117036904D01*
X191585595Y-117132142D01*
X191633214Y-117179761D01*
X191728452Y-117227380D01*
X191918928Y-117227380D01*
X192014166Y-117179761D01*
X192061785Y-117132142D01*
X192109404Y-117036904D01*
X192109404Y-116846428D01*
X192061785Y-116751190D01*
X192014166Y-116703571D01*
X191918928Y-116655952D01*
X192537976Y-117132142D02*
X192585595Y-117179761D01*
X192537976Y-117227380D01*
X192490357Y-117179761D01*
X192537976Y-117132142D01*
X192537976Y-117227380D01*
X193776071Y-116703571D02*
X194109404Y-116703571D01*
X194252261Y-117227380D02*
X193776071Y-117227380D01*
X193776071Y-116227380D01*
X194252261Y-116227380D01*
X195109404Y-117179761D02*
X195014166Y-117227380D01*
X194823690Y-117227380D01*
X194728452Y-117179761D01*
X194680833Y-117132142D01*
X194633214Y-117036904D01*
X194633214Y-116751190D01*
X194680833Y-116655952D01*
X194728452Y-116608333D01*
X194823690Y-116560714D01*
X195014166Y-116560714D01*
X195109404Y-116608333D01*
X195680833Y-117227380D02*
X195585595Y-117179761D01*
X195537976Y-117132142D01*
X195490357Y-117036904D01*
X195490357Y-116751190D01*
X195537976Y-116655952D01*
X195585595Y-116608333D01*
X195680833Y-116560714D01*
X195823690Y-116560714D01*
X195918928Y-116608333D01*
X195966547Y-116655952D01*
X196014166Y-116751190D01*
X196014166Y-117036904D01*
X195966547Y-117132142D01*
X195918928Y-117179761D01*
X195823690Y-117227380D01*
X195680833Y-117227380D01*
X196966547Y-117227380D02*
X196395119Y-117227380D01*
X196680833Y-117227380D02*
X196680833Y-116227380D01*
X196585595Y-116370238D01*
X196490357Y-116465476D01*
X196395119Y-116513095D01*
X197395119Y-117132142D02*
X197442738Y-117179761D01*
X197395119Y-117227380D01*
X197347500Y-117179761D01*
X197395119Y-117132142D01*
X197395119Y-117227380D01*
X197871309Y-116227380D02*
X197871309Y-117036904D01*
X197918928Y-117132142D01*
X197966547Y-117179761D01*
X198061785Y-117227380D01*
X198252261Y-117227380D01*
X198347500Y-117179761D01*
X198395119Y-117132142D01*
X198442738Y-117036904D01*
X198442738Y-116227380D01*
X198871309Y-117179761D02*
X198966547Y-117227380D01*
X199157023Y-117227380D01*
X199252261Y-117179761D01*
X199299880Y-117084523D01*
X199299880Y-117036904D01*
X199252261Y-116941666D01*
X199157023Y-116894047D01*
X199014166Y-116894047D01*
X198918928Y-116846428D01*
X198871309Y-116751190D01*
X198871309Y-116703571D01*
X198918928Y-116608333D01*
X199014166Y-116560714D01*
X199157023Y-116560714D01*
X199252261Y-116608333D01*
X200109404Y-117179761D02*
X200014166Y-117227380D01*
X199823690Y-117227380D01*
X199728452Y-117179761D01*
X199680833Y-117084523D01*
X199680833Y-116703571D01*
X199728452Y-116608333D01*
X199823690Y-116560714D01*
X200014166Y-116560714D01*
X200109404Y-116608333D01*
X200157023Y-116703571D01*
X200157023Y-116798809D01*
X199680833Y-116894047D01*
X200585595Y-117227380D02*
X200585595Y-116560714D01*
X200585595Y-116751190D02*
X200633214Y-116655952D01*
X200680833Y-116608333D01*
X200776071Y-116560714D01*
X200871309Y-116560714D01*
X201966547Y-116560714D02*
X201966547Y-117560714D01*
X201966547Y-116608333D02*
X202061785Y-116560714D01*
X202252261Y-116560714D01*
X202347500Y-116608333D01*
X202395119Y-116655952D01*
X202442738Y-116751190D01*
X202442738Y-117036904D01*
X202395119Y-117132142D01*
X202347500Y-117179761D01*
X202252261Y-117227380D01*
X202061785Y-117227380D01*
X201966547Y-117179761D01*
X203014166Y-117227380D02*
X202918928Y-117179761D01*
X202871309Y-117132142D01*
X202823690Y-117036904D01*
X202823690Y-116751190D01*
X202871309Y-116655952D01*
X202918928Y-116608333D01*
X203014166Y-116560714D01*
X203157023Y-116560714D01*
X203252261Y-116608333D01*
X203299880Y-116655952D01*
X203347500Y-116751190D01*
X203347500Y-117036904D01*
X203299880Y-117132142D01*
X203252261Y-117179761D01*
X203157023Y-117227380D01*
X203014166Y-117227380D01*
X203918928Y-117227380D02*
X203823690Y-117179761D01*
X203776071Y-117084523D01*
X203776071Y-116227380D01*
X204204642Y-116560714D02*
X204442738Y-117227380D01*
X204680833Y-116560714D02*
X204442738Y-117227380D01*
X204347500Y-117465476D01*
X204299880Y-117513095D01*
X204204642Y-117560714D01*
X205490357Y-116560714D02*
X205490357Y-117370238D01*
X205442738Y-117465476D01*
X205395119Y-117513095D01*
X205299880Y-117560714D01*
X205157023Y-117560714D01*
X205061785Y-117513095D01*
X205490357Y-117179761D02*
X205395119Y-117227380D01*
X205204642Y-117227380D01*
X205109404Y-117179761D01*
X205061785Y-117132142D01*
X205014166Y-117036904D01*
X205014166Y-116751190D01*
X205061785Y-116655952D01*
X205109404Y-116608333D01*
X205204642Y-116560714D01*
X205395119Y-116560714D01*
X205490357Y-116608333D01*
X206109404Y-117227380D02*
X206014166Y-117179761D01*
X205966547Y-117132142D01*
X205918928Y-117036904D01*
X205918928Y-116751190D01*
X205966547Y-116655952D01*
X206014166Y-116608333D01*
X206109404Y-116560714D01*
X206252261Y-116560714D01*
X206347500Y-116608333D01*
X206395119Y-116655952D01*
X206442738Y-116751190D01*
X206442738Y-117036904D01*
X206395119Y-117132142D01*
X206347500Y-117179761D01*
X206252261Y-117227380D01*
X206109404Y-117227380D01*
X206871309Y-116560714D02*
X206871309Y-117227380D01*
X206871309Y-116655952D02*
X206918928Y-116608333D01*
X207014166Y-116560714D01*
X207157023Y-116560714D01*
X207252261Y-116608333D01*
X207299880Y-116703571D01*
X207299880Y-117227380D01*
X208490357Y-117179761D02*
X208585595Y-117227380D01*
X208776071Y-117227380D01*
X208871309Y-117179761D01*
X208918928Y-117084523D01*
X208918928Y-117036904D01*
X208871309Y-116941666D01*
X208776071Y-116894047D01*
X208633214Y-116894047D01*
X208537976Y-116846428D01*
X208490357Y-116751190D01*
X208490357Y-116703571D01*
X208537976Y-116608333D01*
X208633214Y-116560714D01*
X208776071Y-116560714D01*
X208871309Y-116608333D01*
X209347500Y-117227380D02*
X209347500Y-116227380D01*
X209776071Y-117227380D02*
X209776071Y-116703571D01*
X209728452Y-116608333D01*
X209633214Y-116560714D01*
X209490357Y-116560714D01*
X209395119Y-116608333D01*
X209347500Y-116655952D01*
X210395119Y-117227380D02*
X210299880Y-117179761D01*
X210252261Y-117132142D01*
X210204642Y-117036904D01*
X210204642Y-116751190D01*
X210252261Y-116655952D01*
X210299880Y-116608333D01*
X210395119Y-116560714D01*
X210537976Y-116560714D01*
X210633214Y-116608333D01*
X210680833Y-116655952D01*
X210728452Y-116751190D01*
X210728452Y-117036904D01*
X210680833Y-117132142D01*
X210633214Y-117179761D01*
X210537976Y-117227380D01*
X210395119Y-117227380D01*
X211585595Y-116560714D02*
X211585595Y-117227380D01*
X211157023Y-116560714D02*
X211157023Y-117084523D01*
X211204642Y-117179761D01*
X211299880Y-117227380D01*
X211442738Y-117227380D01*
X211537976Y-117179761D01*
X211585595Y-117132142D01*
X212204642Y-117227380D02*
X212109404Y-117179761D01*
X212061785Y-117084523D01*
X212061785Y-116227380D01*
X213014166Y-117227380D02*
X213014166Y-116227380D01*
X213014166Y-117179761D02*
X212918928Y-117227380D01*
X212728452Y-117227380D01*
X212633214Y-117179761D01*
X212585595Y-117132142D01*
X212537976Y-117036904D01*
X212537976Y-116751190D01*
X212585595Y-116655952D01*
X212633214Y-116608333D01*
X212728452Y-116560714D01*
X212918928Y-116560714D01*
X213014166Y-116608333D01*
X214252261Y-117227380D02*
X214252261Y-116227380D01*
X214252261Y-116608333D02*
X214347500Y-116560714D01*
X214537976Y-116560714D01*
X214633214Y-116608333D01*
X214680833Y-116655952D01*
X214728452Y-116751190D01*
X214728452Y-117036904D01*
X214680833Y-117132142D01*
X214633214Y-117179761D01*
X214537976Y-117227380D01*
X214347500Y-117227380D01*
X214252261Y-117179761D01*
X215537976Y-117179761D02*
X215442738Y-117227380D01*
X215252261Y-117227380D01*
X215157023Y-117179761D01*
X215109404Y-117084523D01*
X215109404Y-116703571D01*
X215157023Y-116608333D01*
X215252261Y-116560714D01*
X215442738Y-116560714D01*
X215537976Y-116608333D01*
X215585595Y-116703571D01*
X215585595Y-116798809D01*
X215109404Y-116894047D01*
X216633214Y-116560714D02*
X217014166Y-116560714D01*
X216776071Y-117227380D02*
X216776071Y-116370238D01*
X216823690Y-116275000D01*
X216918928Y-116227380D01*
X217014166Y-116227380D01*
X217347500Y-117227380D02*
X217347500Y-116560714D01*
X217347500Y-116227380D02*
X217299880Y-116275000D01*
X217347500Y-116322619D01*
X217395119Y-116275000D01*
X217347500Y-116227380D01*
X217347500Y-116322619D01*
X217966547Y-117227380D02*
X217871309Y-117179761D01*
X217823690Y-117084523D01*
X217823690Y-116227380D01*
X218490357Y-117227380D02*
X218395119Y-117179761D01*
X218347500Y-117084523D01*
X218347500Y-116227380D01*
X219252261Y-117179761D02*
X219157023Y-117227380D01*
X218966547Y-117227380D01*
X218871309Y-117179761D01*
X218823690Y-117084523D01*
X218823690Y-116703571D01*
X218871309Y-116608333D01*
X218966547Y-116560714D01*
X219157023Y-116560714D01*
X219252261Y-116608333D01*
X219299880Y-116703571D01*
X219299880Y-116798809D01*
X218823690Y-116894047D01*
X220157023Y-117227380D02*
X220157023Y-116227380D01*
X220157023Y-117179761D02*
X220061785Y-117227380D01*
X219871309Y-117227380D01*
X219776071Y-117179761D01*
X219728452Y-117132142D01*
X219680833Y-117036904D01*
X219680833Y-116751190D01*
X219728452Y-116655952D01*
X219776071Y-116608333D01*
X219871309Y-116560714D01*
X220061785Y-116560714D01*
X220157023Y-116608333D01*
X221299880Y-116560714D02*
X221490357Y-117227380D01*
X221680833Y-116751190D01*
X221871309Y-117227380D01*
X222061785Y-116560714D01*
X222442738Y-117227380D02*
X222442738Y-116560714D01*
X222442738Y-116227380D02*
X222395119Y-116275000D01*
X222442738Y-116322619D01*
X222490357Y-116275000D01*
X222442738Y-116227380D01*
X222442738Y-116322619D01*
X222776071Y-116560714D02*
X223157023Y-116560714D01*
X222918928Y-116227380D02*
X222918928Y-117084523D01*
X222966547Y-117179761D01*
X223061785Y-117227380D01*
X223157023Y-117227380D01*
X223490357Y-117227380D02*
X223490357Y-116227380D01*
X223918928Y-117227380D02*
X223918928Y-116703571D01*
X223871309Y-116608333D01*
X223776071Y-116560714D01*
X223633214Y-116560714D01*
X223537976Y-116608333D01*
X223490357Y-116655952D01*
X225585595Y-117179761D02*
X225490357Y-117227380D01*
X225299880Y-117227380D01*
X225204642Y-117179761D01*
X225157023Y-117132142D01*
X225109404Y-117036904D01*
X225109404Y-116751190D01*
X225157023Y-116655952D01*
X225204642Y-116608333D01*
X225299880Y-116560714D01*
X225490357Y-116560714D01*
X225585595Y-116608333D01*
X226157023Y-117227380D02*
X226061785Y-117179761D01*
X226014166Y-117132142D01*
X225966547Y-117036904D01*
X225966547Y-116751190D01*
X226014166Y-116655952D01*
X226061785Y-116608333D01*
X226157023Y-116560714D01*
X226299880Y-116560714D01*
X226395119Y-116608333D01*
X226442738Y-116655952D01*
X226490357Y-116751190D01*
X226490357Y-117036904D01*
X226442738Y-117132142D01*
X226395119Y-117179761D01*
X226299880Y-117227380D01*
X226157023Y-117227380D01*
X226918928Y-116560714D02*
X226918928Y-117227380D01*
X226918928Y-116655952D02*
X226966547Y-116608333D01*
X227061785Y-116560714D01*
X227204642Y-116560714D01*
X227299880Y-116608333D01*
X227347500Y-116703571D01*
X227347500Y-117227380D01*
X228252261Y-117227380D02*
X228252261Y-116227380D01*
X228252261Y-117179761D02*
X228157023Y-117227380D01*
X227966547Y-117227380D01*
X227871309Y-117179761D01*
X227823690Y-117132142D01*
X227776071Y-117036904D01*
X227776071Y-116751190D01*
X227823690Y-116655952D01*
X227871309Y-116608333D01*
X227966547Y-116560714D01*
X228157023Y-116560714D01*
X228252261Y-116608333D01*
X229157023Y-116560714D02*
X229157023Y-117227380D01*
X228728452Y-116560714D02*
X228728452Y-117084523D01*
X228776071Y-117179761D01*
X228871309Y-117227380D01*
X229014166Y-117227380D01*
X229109404Y-117179761D01*
X229157023Y-117132142D01*
X230061785Y-117179761D02*
X229966547Y-117227380D01*
X229776071Y-117227380D01*
X229680833Y-117179761D01*
X229633214Y-117132142D01*
X229585595Y-117036904D01*
X229585595Y-116751190D01*
X229633214Y-116655952D01*
X229680833Y-116608333D01*
X229776071Y-116560714D01*
X229966547Y-116560714D01*
X230061785Y-116608333D01*
X230347500Y-116560714D02*
X230728452Y-116560714D01*
X230490357Y-116227380D02*
X230490357Y-117084523D01*
X230537976Y-117179761D01*
X230633214Y-117227380D01*
X230728452Y-117227380D01*
X231061785Y-117227380D02*
X231061785Y-116560714D01*
X231061785Y-116227380D02*
X231014166Y-116275000D01*
X231061785Y-116322619D01*
X231109404Y-116275000D01*
X231061785Y-116227380D01*
X231061785Y-116322619D01*
X231442738Y-116560714D02*
X231680833Y-117227380D01*
X231918928Y-116560714D01*
X232680833Y-117179761D02*
X232585595Y-117227380D01*
X232395119Y-117227380D01*
X232299880Y-117179761D01*
X232252261Y-117084523D01*
X232252261Y-116703571D01*
X232299880Y-116608333D01*
X232395119Y-116560714D01*
X232585595Y-116560714D01*
X232680833Y-116608333D01*
X232728452Y-116703571D01*
X232728452Y-116798809D01*
X232252261Y-116894047D01*
X233918928Y-117227380D02*
X233918928Y-116560714D01*
X233918928Y-116655952D02*
X233966547Y-116608333D01*
X234061785Y-116560714D01*
X234204642Y-116560714D01*
X234299880Y-116608333D01*
X234347500Y-116703571D01*
X234347500Y-117227380D01*
X234347500Y-116703571D02*
X234395119Y-116608333D01*
X234490357Y-116560714D01*
X234633214Y-116560714D01*
X234728452Y-116608333D01*
X234776071Y-116703571D01*
X234776071Y-117227380D01*
X235680833Y-117227380D02*
X235680833Y-116703571D01*
X235633214Y-116608333D01*
X235537976Y-116560714D01*
X235347500Y-116560714D01*
X235252261Y-116608333D01*
X235680833Y-117179761D02*
X235585595Y-117227380D01*
X235347500Y-117227380D01*
X235252261Y-117179761D01*
X235204642Y-117084523D01*
X235204642Y-116989285D01*
X235252261Y-116894047D01*
X235347500Y-116846428D01*
X235585595Y-116846428D01*
X235680833Y-116798809D01*
X236014166Y-116560714D02*
X236395119Y-116560714D01*
X236157023Y-116227380D02*
X236157023Y-117084523D01*
X236204642Y-117179761D01*
X236299880Y-117227380D01*
X236395119Y-117227380D01*
X237109404Y-117179761D02*
X237014166Y-117227380D01*
X236823690Y-117227380D01*
X236728452Y-117179761D01*
X236680833Y-117084523D01*
X236680833Y-116703571D01*
X236728452Y-116608333D01*
X236823690Y-116560714D01*
X237014166Y-116560714D01*
X237109404Y-116608333D01*
X237157023Y-116703571D01*
X237157023Y-116798809D01*
X236680833Y-116894047D01*
X237585595Y-117227380D02*
X237585595Y-116560714D01*
X237585595Y-116751190D02*
X237633214Y-116655952D01*
X237680833Y-116608333D01*
X237776071Y-116560714D01*
X237871309Y-116560714D01*
X238204642Y-117227380D02*
X238204642Y-116560714D01*
X238204642Y-116227380D02*
X238157023Y-116275000D01*
X238204642Y-116322619D01*
X238252261Y-116275000D01*
X238204642Y-116227380D01*
X238204642Y-116322619D01*
X239109404Y-117227380D02*
X239109404Y-116703571D01*
X239061785Y-116608333D01*
X238966547Y-116560714D01*
X238776071Y-116560714D01*
X238680833Y-116608333D01*
X239109404Y-117179761D02*
X239014166Y-117227380D01*
X238776071Y-117227380D01*
X238680833Y-117179761D01*
X238633214Y-117084523D01*
X238633214Y-116989285D01*
X238680833Y-116894047D01*
X238776071Y-116846428D01*
X239014166Y-116846428D01*
X239109404Y-116798809D01*
X239728452Y-117227380D02*
X239633214Y-117179761D01*
X239585595Y-117084523D01*
X239585595Y-116227380D01*
X191633214Y-118877380D02*
X191823690Y-118877380D01*
X191918928Y-118829761D01*
X191966547Y-118782142D01*
X192061785Y-118639285D01*
X192109404Y-118448809D01*
X192109404Y-118067857D01*
X192061785Y-117972619D01*
X192014166Y-117925000D01*
X191918928Y-117877380D01*
X191728452Y-117877380D01*
X191633214Y-117925000D01*
X191585595Y-117972619D01*
X191537976Y-118067857D01*
X191537976Y-118305952D01*
X191585595Y-118401190D01*
X191633214Y-118448809D01*
X191728452Y-118496428D01*
X191918928Y-118496428D01*
X192014166Y-118448809D01*
X192061785Y-118401190D01*
X192109404Y-118305952D01*
X192537976Y-118782142D02*
X192585595Y-118829761D01*
X192537976Y-118877380D01*
X192490357Y-118829761D01*
X192537976Y-118782142D01*
X192537976Y-118877380D01*
X193776071Y-118353571D02*
X194109404Y-118353571D01*
X194252261Y-118877380D02*
X193776071Y-118877380D01*
X193776071Y-117877380D01*
X194252261Y-117877380D01*
X195109404Y-118829761D02*
X195014166Y-118877380D01*
X194823690Y-118877380D01*
X194728452Y-118829761D01*
X194680833Y-118782142D01*
X194633214Y-118686904D01*
X194633214Y-118401190D01*
X194680833Y-118305952D01*
X194728452Y-118258333D01*
X194823690Y-118210714D01*
X195014166Y-118210714D01*
X195109404Y-118258333D01*
X195680833Y-118877380D02*
X195585595Y-118829761D01*
X195537976Y-118782142D01*
X195490357Y-118686904D01*
X195490357Y-118401190D01*
X195537976Y-118305952D01*
X195585595Y-118258333D01*
X195680833Y-118210714D01*
X195823690Y-118210714D01*
X195918928Y-118258333D01*
X195966547Y-118305952D01*
X196014166Y-118401190D01*
X196014166Y-118686904D01*
X195966547Y-118782142D01*
X195918928Y-118829761D01*
X195823690Y-118877380D01*
X195680833Y-118877380D01*
X196395119Y-117972619D02*
X196442738Y-117925000D01*
X196537976Y-117877380D01*
X196776071Y-117877380D01*
X196871309Y-117925000D01*
X196918928Y-117972619D01*
X196966547Y-118067857D01*
X196966547Y-118163095D01*
X196918928Y-118305952D01*
X196347500Y-118877380D01*
X196966547Y-118877380D01*
X197395119Y-118782142D02*
X197442738Y-118829761D01*
X197395119Y-118877380D01*
X197347500Y-118829761D01*
X197395119Y-118782142D01*
X197395119Y-118877380D01*
X197871309Y-117877380D02*
X197871309Y-118686904D01*
X197918928Y-118782142D01*
X197966547Y-118829761D01*
X198061785Y-118877380D01*
X198252261Y-118877380D01*
X198347500Y-118829761D01*
X198395119Y-118782142D01*
X198442738Y-118686904D01*
X198442738Y-117877380D01*
X198871309Y-118829761D02*
X198966547Y-118877380D01*
X199157023Y-118877380D01*
X199252261Y-118829761D01*
X199299880Y-118734523D01*
X199299880Y-118686904D01*
X199252261Y-118591666D01*
X199157023Y-118544047D01*
X199014166Y-118544047D01*
X198918928Y-118496428D01*
X198871309Y-118401190D01*
X198871309Y-118353571D01*
X198918928Y-118258333D01*
X199014166Y-118210714D01*
X199157023Y-118210714D01*
X199252261Y-118258333D01*
X200109404Y-118829761D02*
X200014166Y-118877380D01*
X199823690Y-118877380D01*
X199728452Y-118829761D01*
X199680833Y-118734523D01*
X199680833Y-118353571D01*
X199728452Y-118258333D01*
X199823690Y-118210714D01*
X200014166Y-118210714D01*
X200109404Y-118258333D01*
X200157023Y-118353571D01*
X200157023Y-118448809D01*
X199680833Y-118544047D01*
X200585595Y-118877380D02*
X200585595Y-118210714D01*
X200585595Y-118401190D02*
X200633214Y-118305952D01*
X200680833Y-118258333D01*
X200776071Y-118210714D01*
X200871309Y-118210714D01*
X201966547Y-118210714D02*
X201966547Y-119210714D01*
X201966547Y-118258333D02*
X202061785Y-118210714D01*
X202252261Y-118210714D01*
X202347500Y-118258333D01*
X202395119Y-118305952D01*
X202442738Y-118401190D01*
X202442738Y-118686904D01*
X202395119Y-118782142D01*
X202347500Y-118829761D01*
X202252261Y-118877380D01*
X202061785Y-118877380D01*
X201966547Y-118829761D01*
X203014166Y-118877380D02*
X202918928Y-118829761D01*
X202871309Y-118782142D01*
X202823690Y-118686904D01*
X202823690Y-118401190D01*
X202871309Y-118305952D01*
X202918928Y-118258333D01*
X203014166Y-118210714D01*
X203157023Y-118210714D01*
X203252261Y-118258333D01*
X203299880Y-118305952D01*
X203347500Y-118401190D01*
X203347500Y-118686904D01*
X203299880Y-118782142D01*
X203252261Y-118829761D01*
X203157023Y-118877380D01*
X203014166Y-118877380D01*
X203918928Y-118877380D02*
X203823690Y-118829761D01*
X203776071Y-118734523D01*
X203776071Y-117877380D01*
X204204642Y-118210714D02*
X204442738Y-118877380D01*
X204680833Y-118210714D02*
X204442738Y-118877380D01*
X204347500Y-119115476D01*
X204299880Y-119163095D01*
X204204642Y-119210714D01*
X205490357Y-118210714D02*
X205490357Y-119020238D01*
X205442738Y-119115476D01*
X205395119Y-119163095D01*
X205299880Y-119210714D01*
X205157023Y-119210714D01*
X205061785Y-119163095D01*
X205490357Y-118829761D02*
X205395119Y-118877380D01*
X205204642Y-118877380D01*
X205109404Y-118829761D01*
X205061785Y-118782142D01*
X205014166Y-118686904D01*
X205014166Y-118401190D01*
X205061785Y-118305952D01*
X205109404Y-118258333D01*
X205204642Y-118210714D01*
X205395119Y-118210714D01*
X205490357Y-118258333D01*
X206109404Y-118877380D02*
X206014166Y-118829761D01*
X205966547Y-118782142D01*
X205918928Y-118686904D01*
X205918928Y-118401190D01*
X205966547Y-118305952D01*
X206014166Y-118258333D01*
X206109404Y-118210714D01*
X206252261Y-118210714D01*
X206347500Y-118258333D01*
X206395119Y-118305952D01*
X206442738Y-118401190D01*
X206442738Y-118686904D01*
X206395119Y-118782142D01*
X206347500Y-118829761D01*
X206252261Y-118877380D01*
X206109404Y-118877380D01*
X206871309Y-118210714D02*
X206871309Y-118877380D01*
X206871309Y-118305952D02*
X206918928Y-118258333D01*
X207014166Y-118210714D01*
X207157023Y-118210714D01*
X207252261Y-118258333D01*
X207299880Y-118353571D01*
X207299880Y-118877380D01*
X208966547Y-118877380D02*
X208966547Y-117877380D01*
X208966547Y-118829761D02*
X208871309Y-118877380D01*
X208680833Y-118877380D01*
X208585595Y-118829761D01*
X208537976Y-118782142D01*
X208490357Y-118686904D01*
X208490357Y-118401190D01*
X208537976Y-118305952D01*
X208585595Y-118258333D01*
X208680833Y-118210714D01*
X208871309Y-118210714D01*
X208966547Y-118258333D01*
X209823690Y-118829761D02*
X209728452Y-118877380D01*
X209537976Y-118877380D01*
X209442738Y-118829761D01*
X209395119Y-118734523D01*
X209395119Y-118353571D01*
X209442738Y-118258333D01*
X209537976Y-118210714D01*
X209728452Y-118210714D01*
X209823690Y-118258333D01*
X209871309Y-118353571D01*
X209871309Y-118448809D01*
X209395119Y-118544047D01*
X210299880Y-118210714D02*
X210299880Y-118877380D01*
X210299880Y-118305952D02*
X210347500Y-118258333D01*
X210442738Y-118210714D01*
X210585595Y-118210714D01*
X210680833Y-118258333D01*
X210728452Y-118353571D01*
X210728452Y-118877380D01*
X211347500Y-118877380D02*
X211252261Y-118829761D01*
X211204642Y-118782142D01*
X211157023Y-118686904D01*
X211157023Y-118401190D01*
X211204642Y-118305952D01*
X211252261Y-118258333D01*
X211347500Y-118210714D01*
X211490357Y-118210714D01*
X211585595Y-118258333D01*
X211633214Y-118305952D01*
X211680833Y-118401190D01*
X211680833Y-118686904D01*
X211633214Y-118782142D01*
X211585595Y-118829761D01*
X211490357Y-118877380D01*
X211347500Y-118877380D01*
X211966547Y-118210714D02*
X212347500Y-118210714D01*
X212109404Y-117877380D02*
X212109404Y-118734523D01*
X212157023Y-118829761D01*
X212252261Y-118877380D01*
X212347500Y-118877380D01*
X213061785Y-118829761D02*
X212966547Y-118877380D01*
X212776071Y-118877380D01*
X212680833Y-118829761D01*
X212633214Y-118734523D01*
X212633214Y-118353571D01*
X212680833Y-118258333D01*
X212776071Y-118210714D01*
X212966547Y-118210714D01*
X213061785Y-118258333D01*
X213109404Y-118353571D01*
X213109404Y-118448809D01*
X212633214Y-118544047D01*
X213490357Y-118829761D02*
X213585595Y-118877380D01*
X213776071Y-118877380D01*
X213871309Y-118829761D01*
X213918928Y-118734523D01*
X213918928Y-118686904D01*
X213871309Y-118591666D01*
X213776071Y-118544047D01*
X213633214Y-118544047D01*
X213537976Y-118496428D01*
X213490357Y-118401190D01*
X213490357Y-118353571D01*
X213537976Y-118258333D01*
X213633214Y-118210714D01*
X213776071Y-118210714D01*
X213871309Y-118258333D01*
X215014166Y-118210714D02*
X215204642Y-118877380D01*
X215395119Y-118401190D01*
X215585595Y-118877380D01*
X215776071Y-118210714D01*
X216157023Y-118877380D02*
X216157023Y-117877380D01*
X216585595Y-118877380D02*
X216585595Y-118353571D01*
X216537976Y-118258333D01*
X216442738Y-118210714D01*
X216299880Y-118210714D01*
X216204642Y-118258333D01*
X216157023Y-118305952D01*
X217442738Y-118829761D02*
X217347500Y-118877380D01*
X217157023Y-118877380D01*
X217061785Y-118829761D01*
X217014166Y-118734523D01*
X217014166Y-118353571D01*
X217061785Y-118258333D01*
X217157023Y-118210714D01*
X217347500Y-118210714D01*
X217442738Y-118258333D01*
X217490357Y-118353571D01*
X217490357Y-118448809D01*
X217014166Y-118544047D01*
X217918928Y-118877380D02*
X217918928Y-118210714D01*
X217918928Y-118401190D02*
X217966547Y-118305952D01*
X218014166Y-118258333D01*
X218109404Y-118210714D01*
X218204642Y-118210714D01*
X218918928Y-118829761D02*
X218823690Y-118877380D01*
X218633214Y-118877380D01*
X218537976Y-118829761D01*
X218490357Y-118734523D01*
X218490357Y-118353571D01*
X218537976Y-118258333D01*
X218633214Y-118210714D01*
X218823690Y-118210714D01*
X218918928Y-118258333D01*
X218966547Y-118353571D01*
X218966547Y-118448809D01*
X218490357Y-118544047D01*
X220157023Y-118877380D02*
X220157023Y-117877380D01*
X220633214Y-118877380D02*
X220633214Y-117877380D01*
X221014166Y-117877380D01*
X221109404Y-117925000D01*
X221157023Y-117972619D01*
X221204642Y-118067857D01*
X221204642Y-118210714D01*
X221157023Y-118305952D01*
X221109404Y-118353571D01*
X221014166Y-118401190D01*
X220633214Y-118401190D01*
X222204642Y-118782142D02*
X222157023Y-118829761D01*
X222014166Y-118877380D01*
X221918928Y-118877380D01*
X221776071Y-118829761D01*
X221680833Y-118734523D01*
X221633214Y-118639285D01*
X221585595Y-118448809D01*
X221585595Y-118305952D01*
X221633214Y-118115476D01*
X221680833Y-118020238D01*
X221776071Y-117925000D01*
X221918928Y-117877380D01*
X222014166Y-117877380D01*
X222157023Y-117925000D01*
X222204642Y-117972619D01*
X223347500Y-118829761D02*
X223490357Y-118877380D01*
X223728452Y-118877380D01*
X223823690Y-118829761D01*
X223871309Y-118782142D01*
X223918928Y-118686904D01*
X223918928Y-118591666D01*
X223871309Y-118496428D01*
X223823690Y-118448809D01*
X223728452Y-118401190D01*
X223537976Y-118353571D01*
X223442738Y-118305952D01*
X223395119Y-118258333D01*
X223347500Y-118163095D01*
X223347500Y-118067857D01*
X223395119Y-117972619D01*
X223442738Y-117925000D01*
X223537976Y-117877380D01*
X223776071Y-117877380D01*
X223918928Y-117925000D01*
X224204642Y-118210714D02*
X224585595Y-118210714D01*
X224347500Y-117877380D02*
X224347500Y-118734523D01*
X224395119Y-118829761D01*
X224490357Y-118877380D01*
X224585595Y-118877380D01*
X225347500Y-118877380D02*
X225347500Y-118353571D01*
X225299880Y-118258333D01*
X225204642Y-118210714D01*
X225014166Y-118210714D01*
X224918928Y-118258333D01*
X225347500Y-118829761D02*
X225252261Y-118877380D01*
X225014166Y-118877380D01*
X224918928Y-118829761D01*
X224871309Y-118734523D01*
X224871309Y-118639285D01*
X224918928Y-118544047D01*
X225014166Y-118496428D01*
X225252261Y-118496428D01*
X225347500Y-118448809D01*
X225823690Y-118210714D02*
X225823690Y-118877380D01*
X225823690Y-118305952D02*
X225871309Y-118258333D01*
X225966547Y-118210714D01*
X226109404Y-118210714D01*
X226204642Y-118258333D01*
X226252261Y-118353571D01*
X226252261Y-118877380D01*
X227157023Y-118877380D02*
X227157023Y-117877380D01*
X227157023Y-118829761D02*
X227061785Y-118877380D01*
X226871309Y-118877380D01*
X226776071Y-118829761D01*
X226728452Y-118782142D01*
X226680833Y-118686904D01*
X226680833Y-118401190D01*
X226728452Y-118305952D01*
X226776071Y-118258333D01*
X226871309Y-118210714D01*
X227061785Y-118210714D01*
X227157023Y-118258333D01*
X228061785Y-118877380D02*
X228061785Y-118353571D01*
X228014166Y-118258333D01*
X227918928Y-118210714D01*
X227728452Y-118210714D01*
X227633214Y-118258333D01*
X228061785Y-118829761D02*
X227966547Y-118877380D01*
X227728452Y-118877380D01*
X227633214Y-118829761D01*
X227585595Y-118734523D01*
X227585595Y-118639285D01*
X227633214Y-118544047D01*
X227728452Y-118496428D01*
X227966547Y-118496428D01*
X228061785Y-118448809D01*
X228537976Y-118877380D02*
X228537976Y-118210714D01*
X228537976Y-118401190D02*
X228585595Y-118305952D01*
X228633214Y-118258333D01*
X228728452Y-118210714D01*
X228823690Y-118210714D01*
X229585595Y-118877380D02*
X229585595Y-117877380D01*
X229585595Y-118829761D02*
X229490357Y-118877380D01*
X229299880Y-118877380D01*
X229204642Y-118829761D01*
X229157023Y-118782142D01*
X229109404Y-118686904D01*
X229109404Y-118401190D01*
X229157023Y-118305952D01*
X229204642Y-118258333D01*
X229299880Y-118210714D01*
X229490357Y-118210714D01*
X229585595Y-118258333D01*
X230823690Y-118877380D02*
X230823690Y-117877380D01*
X230823690Y-118353571D02*
X231395119Y-118353571D01*
X231395119Y-118877380D02*
X231395119Y-117877380D01*
X232299880Y-118877380D02*
X232299880Y-118353571D01*
X232252261Y-118258333D01*
X232157023Y-118210714D01*
X231966547Y-118210714D01*
X231871309Y-118258333D01*
X232299880Y-118829761D02*
X232204642Y-118877380D01*
X231966547Y-118877380D01*
X231871309Y-118829761D01*
X231823690Y-118734523D01*
X231823690Y-118639285D01*
X231871309Y-118544047D01*
X231966547Y-118496428D01*
X232204642Y-118496428D01*
X232299880Y-118448809D01*
X232776071Y-118877380D02*
X232776071Y-118210714D01*
X232776071Y-118401190D02*
X232823690Y-118305952D01*
X232871309Y-118258333D01*
X232966547Y-118210714D01*
X233061785Y-118210714D01*
X233823690Y-118877380D02*
X233823690Y-117877380D01*
X233823690Y-118829761D02*
X233728452Y-118877380D01*
X233537976Y-118877380D01*
X233442738Y-118829761D01*
X233395119Y-118782142D01*
X233347500Y-118686904D01*
X233347500Y-118401190D01*
X233395119Y-118305952D01*
X233442738Y-118258333D01*
X233537976Y-118210714D01*
X233728452Y-118210714D01*
X233823690Y-118258333D01*
X235585595Y-117925000D02*
X235490357Y-117877380D01*
X235347499Y-117877380D01*
X235204642Y-117925000D01*
X235109404Y-118020238D01*
X235061785Y-118115476D01*
X235014166Y-118305952D01*
X235014166Y-118448809D01*
X235061785Y-118639285D01*
X235109404Y-118734523D01*
X235204642Y-118829761D01*
X235347499Y-118877380D01*
X235442738Y-118877380D01*
X235585595Y-118829761D01*
X235633214Y-118782142D01*
X235633214Y-118448809D01*
X235442738Y-118448809D01*
X236204642Y-118877380D02*
X236109404Y-118829761D01*
X236061785Y-118782142D01*
X236014166Y-118686904D01*
X236014166Y-118401190D01*
X236061785Y-118305952D01*
X236109404Y-118258333D01*
X236204642Y-118210714D01*
X236347499Y-118210714D01*
X236442738Y-118258333D01*
X236490357Y-118305952D01*
X236537976Y-118401190D01*
X236537976Y-118686904D01*
X236490357Y-118782142D01*
X236442738Y-118829761D01*
X236347499Y-118877380D01*
X236204642Y-118877380D01*
X237109404Y-118877380D02*
X237014166Y-118829761D01*
X236966547Y-118734523D01*
X236966547Y-117877380D01*
X237918928Y-118877380D02*
X237918928Y-117877380D01*
X237918928Y-118829761D02*
X237823690Y-118877380D01*
X237633214Y-118877380D01*
X237537976Y-118829761D01*
X237490357Y-118782142D01*
X237442738Y-118686904D01*
X237442738Y-118401190D01*
X237490357Y-118305952D01*
X237537976Y-118258333D01*
X237633214Y-118210714D01*
X237823690Y-118210714D01*
X237918928Y-118258333D01*
X239490357Y-118353571D02*
X239157023Y-118353571D01*
X239157023Y-118877380D02*
X239157023Y-117877380D01*
X239633214Y-117877380D01*
X240014166Y-118877380D02*
X240014166Y-118210714D01*
X240014166Y-117877380D02*
X239966547Y-117925000D01*
X240014166Y-117972619D01*
X240061785Y-117925000D01*
X240014166Y-117877380D01*
X240014166Y-117972619D01*
X240490357Y-118210714D02*
X240490357Y-118877380D01*
X240490357Y-118305952D02*
X240537976Y-118258333D01*
X240633214Y-118210714D01*
X240776071Y-118210714D01*
X240871309Y-118258333D01*
X240918928Y-118353571D01*
X240918928Y-118877380D01*
X241395119Y-118877380D02*
X241395119Y-118210714D01*
X241395119Y-117877380D02*
X241347499Y-117925000D01*
X241395119Y-117972619D01*
X241442738Y-117925000D01*
X241395119Y-117877380D01*
X241395119Y-117972619D01*
X241823690Y-118829761D02*
X241918928Y-118877380D01*
X242109404Y-118877380D01*
X242204642Y-118829761D01*
X242252261Y-118734523D01*
X242252261Y-118686904D01*
X242204642Y-118591666D01*
X242109404Y-118544047D01*
X241966547Y-118544047D01*
X241871309Y-118496428D01*
X241823690Y-118401190D01*
X241823690Y-118353571D01*
X241871309Y-118258333D01*
X241966547Y-118210714D01*
X242109404Y-118210714D01*
X242204642Y-118258333D01*
X242680833Y-118877380D02*
X242680833Y-117877380D01*
X243109404Y-118877380D02*
X243109404Y-118353571D01*
X243061785Y-118258333D01*
X242966547Y-118210714D01*
X242823690Y-118210714D01*
X242728452Y-118258333D01*
X242680833Y-118305952D01*
X244347499Y-118877380D02*
X244347499Y-118210714D01*
X244347499Y-117877380D02*
X244299880Y-117925000D01*
X244347499Y-117972619D01*
X244395119Y-117925000D01*
X244347499Y-117877380D01*
X244347499Y-117972619D01*
X244776071Y-118829761D02*
X244871309Y-118877380D01*
X245061785Y-118877380D01*
X245157023Y-118829761D01*
X245204642Y-118734523D01*
X245204642Y-118686904D01*
X245157023Y-118591666D01*
X245061785Y-118544047D01*
X244918928Y-118544047D01*
X244823690Y-118496428D01*
X244776071Y-118401190D01*
X244776071Y-118353571D01*
X244823690Y-118258333D01*
X244918928Y-118210714D01*
X245061785Y-118210714D01*
X245157023Y-118258333D01*
X246823690Y-118877380D02*
X246823690Y-118353571D01*
X246776071Y-118258333D01*
X246680833Y-118210714D01*
X246490357Y-118210714D01*
X246395119Y-118258333D01*
X246823690Y-118829761D02*
X246728452Y-118877380D01*
X246490357Y-118877380D01*
X246395119Y-118829761D01*
X246347499Y-118734523D01*
X246347499Y-118639285D01*
X246395119Y-118544047D01*
X246490357Y-118496428D01*
X246728452Y-118496428D01*
X246823690Y-118448809D01*
X247299880Y-118210714D02*
X247299880Y-119210714D01*
X247299880Y-118258333D02*
X247395119Y-118210714D01*
X247585595Y-118210714D01*
X247680833Y-118258333D01*
X247728452Y-118305952D01*
X247776071Y-118401190D01*
X247776071Y-118686904D01*
X247728452Y-118782142D01*
X247680833Y-118829761D01*
X247585595Y-118877380D01*
X247395119Y-118877380D01*
X247299880Y-118829761D01*
X248204642Y-118210714D02*
X248204642Y-119210714D01*
X248204642Y-118258333D02*
X248299880Y-118210714D01*
X248490357Y-118210714D01*
X248585595Y-118258333D01*
X248633214Y-118305952D01*
X248680833Y-118401190D01*
X248680833Y-118686904D01*
X248633214Y-118782142D01*
X248585595Y-118829761D01*
X248490357Y-118877380D01*
X248299880Y-118877380D01*
X248204642Y-118829761D01*
X249252261Y-118877380D02*
X249157023Y-118829761D01*
X249109404Y-118734523D01*
X249109404Y-117877380D01*
X249633214Y-118877380D02*
X249633214Y-118210714D01*
X249633214Y-117877380D02*
X249585595Y-117925000D01*
X249633214Y-117972619D01*
X249680833Y-117925000D01*
X249633214Y-117877380D01*
X249633214Y-117972619D01*
X250490357Y-118829761D02*
X250395119Y-118877380D01*
X250204642Y-118877380D01*
X250109404Y-118829761D01*
X250061785Y-118734523D01*
X250061785Y-118353571D01*
X250109404Y-118258333D01*
X250204642Y-118210714D01*
X250395119Y-118210714D01*
X250490357Y-118258333D01*
X250537976Y-118353571D01*
X250537976Y-118448809D01*
X250061785Y-118544047D01*
X251395119Y-118877380D02*
X251395119Y-117877380D01*
X251395119Y-118829761D02*
X251299880Y-118877380D01*
X251109404Y-118877380D01*
X251014166Y-118829761D01*
X250966547Y-118782142D01*
X250918928Y-118686904D01*
X250918928Y-118401190D01*
X250966547Y-118305952D01*
X251014166Y-118258333D01*
X251109404Y-118210714D01*
X251299880Y-118210714D01*
X251395119Y-118258333D01*
X163700000Y-130500000D02*
G75*
G03X163700000Y-130500000I-2200000J0D01*
G01*
X186700000Y-130500000D02*
G75*
G03X186700000Y-130500000I-2200000J0D01*
G01*
X186700000Y-82500000D02*
G75*
G03X186700000Y-82500000I-2200000J0D01*
G01*
X163700000Y-82500000D02*
G75*
G03X163700000Y-82500000I-2200000J0D01*
G01*
D11*
X181361904Y-88580952D02*
X181361904Y-88180952D01*
X181590476Y-88580952D02*
X181419047Y-88352380D01*
X181590476Y-88180952D02*
X181361904Y-88409523D01*
X181761904Y-88371428D02*
X181895238Y-88371428D01*
X181952380Y-88580952D02*
X181761904Y-88580952D01*
X181761904Y-88180952D01*
X181952380Y-88180952D01*
X182123809Y-88371428D02*
X182257142Y-88371428D01*
X182314285Y-88580952D02*
X182123809Y-88580952D01*
X182123809Y-88180952D01*
X182314285Y-88180952D01*
X182485714Y-88580952D02*
X182485714Y-88180952D01*
X182638095Y-88180952D01*
X182676190Y-88200000D01*
X182695238Y-88219047D01*
X182714285Y-88257142D01*
X182714285Y-88314285D01*
X182695238Y-88352380D01*
X182676190Y-88371428D01*
X182638095Y-88390476D01*
X182485714Y-88390476D01*
X182961904Y-88180952D02*
X183038095Y-88180952D01*
X183076190Y-88200000D01*
X183114285Y-88238095D01*
X183133333Y-88314285D01*
X183133333Y-88447619D01*
X183114285Y-88523809D01*
X183076190Y-88561904D01*
X183038095Y-88580952D01*
X182961904Y-88580952D01*
X182923809Y-88561904D01*
X182885714Y-88523809D01*
X182866666Y-88447619D01*
X182866666Y-88314285D01*
X182885714Y-88238095D01*
X182923809Y-88200000D01*
X182961904Y-88180952D01*
X183304761Y-88180952D02*
X183304761Y-88504761D01*
X183323809Y-88542857D01*
X183342857Y-88561904D01*
X183380952Y-88580952D01*
X183457142Y-88580952D01*
X183495238Y-88561904D01*
X183514285Y-88542857D01*
X183533333Y-88504761D01*
X183533333Y-88180952D01*
X183666666Y-88180952D02*
X183895238Y-88180952D01*
X183780952Y-88580952D02*
X183780952Y-88180952D01*
M02*
