G04 #@! TF.GenerationSoftware,KiCad,Pcbnew,5.1.5+dfsg1-2build2*
G04 #@! TF.CreationDate,2022-01-22T12:50:49-08:00*
G04 #@! TF.ProjectId,pcb_v1,7063625f-7631-42e6-9b69-6361645f7063,rev?*
G04 #@! TF.SameCoordinates,Original*
G04 #@! TF.FileFunction,Profile,NP*
%FSLAX46Y46*%
G04 Gerber Fmt 4.6, Leading zero omitted, Abs format (unit mm)*
G04 Created by KiCad (PCBNEW 5.1.5+dfsg1-2build2) date 2022-01-22 12:50:49*
%MOMM*%
%LPD*%
G04 APERTURE LIST*
%ADD10C,0.050000*%
G04 APERTURE END LIST*
D10*
X161800000Y-117300000D02*
X159500000Y-117300000D01*
X161800000Y-118200000D02*
X161800000Y-117300000D01*
X159500000Y-118200000D02*
X159500000Y-117300000D01*
X159500000Y-118200000D02*
X161800000Y-118200000D01*
X161800000Y-125500000D02*
X159500000Y-125500000D01*
X159500000Y-126400000D02*
X161800000Y-126400000D01*
X161800000Y-126400000D02*
X161800000Y-125500000D01*
X159500000Y-126400000D02*
X159500000Y-125500000D01*
X159650000Y-120101920D02*
G75*
G02X159000000Y-119500000I0J651920D01*
G01*
X159001915Y-123500147D02*
G75*
G02X159650000Y-122900000I648085J-49853D01*
G01*
X159650000Y-120100000D02*
G75*
G02X160100000Y-120550000I0J-450000D01*
G01*
X187750000Y-123800000D02*
X187750000Y-119200000D01*
X183108453Y-120750001D02*
X176091546Y-120750000D01*
X176091547Y-122249999D02*
X183108454Y-122250000D01*
X171591547Y-122249999D02*
X173908454Y-122250000D01*
X171591546Y-120750000D02*
X173908453Y-120750001D01*
X167091547Y-120750001D02*
X169398453Y-120750001D01*
X167091548Y-122250000D02*
X169398453Y-122249999D01*
X167091548Y-122250000D02*
G75*
G03X166950001Y-122000001I-291546J0D01*
G01*
X166950001Y-122000001D02*
X166950001Y-121000001D01*
X167091547Y-120750001D02*
G75*
G02X166950000Y-121000000I-291546J0D01*
G01*
X183108454Y-122250000D02*
G75*
G02X183250001Y-122000001I291546J0D01*
G01*
X183108453Y-120750001D02*
G75*
G03X183250000Y-121000000I291546J0D01*
G01*
X183250000Y-121000000D02*
X183250000Y-122000000D01*
X176091546Y-120750000D02*
G75*
G02X175949999Y-120999999I-291546J0D01*
G01*
X176091547Y-122249999D02*
G75*
G03X175950000Y-122000000I-291546J0D01*
G01*
X175950000Y-122000000D02*
X175950000Y-121000000D01*
X173908454Y-122250000D02*
G75*
G02X174050001Y-122000001I291546J0D01*
G01*
X173908453Y-120750001D02*
G75*
G03X174050000Y-121000000I291546J0D01*
G01*
X174050000Y-121000000D02*
X174050000Y-122000000D01*
X171450000Y-122000000D02*
X171450000Y-121000000D01*
X171591546Y-120750000D02*
G75*
G02X171449999Y-120999999I-291546J0D01*
G01*
X171591547Y-122249999D02*
G75*
G03X171450000Y-122000000I-291546J0D01*
G01*
X169540000Y-121000000D02*
X169540000Y-122000000D01*
X169398453Y-122249999D02*
G75*
G02X169540000Y-122000000I291546J0D01*
G01*
X169398453Y-120750001D02*
G75*
G03X169540000Y-121000000I291546J0D01*
G01*
X162591547Y-122249999D02*
X164908454Y-122250000D01*
X162591546Y-120750000D02*
X164908453Y-120750001D01*
X165050000Y-121000000D02*
X165050000Y-122000000D01*
X164908453Y-120750001D02*
G75*
G03X165050000Y-121000000I291546J0D01*
G01*
X164908454Y-122250000D02*
G75*
G02X165050001Y-122000001I291546J0D01*
G01*
X162591547Y-122249999D02*
G75*
G03X162450000Y-122000000I-291546J0D01*
G01*
X162591546Y-120750000D02*
G75*
G02X162449999Y-120999999I-291546J0D01*
G01*
X162450000Y-122000000D02*
X162450000Y-121000000D01*
X160550000Y-121000000D02*
G75*
G02X160100000Y-120550000I0J450000D01*
G01*
X160550000Y-121000000D02*
X160550000Y-122000000D01*
X160100000Y-122450000D02*
G75*
G02X159650000Y-122900000I-450000J0D01*
G01*
X160100000Y-122450000D02*
G75*
G02X160550000Y-122000000I450000J0D01*
G01*
X187750000Y-119200000D02*
X187750000Y-82500000D01*
X187750000Y-130500000D02*
X187750000Y-123800000D01*
X159000000Y-119500000D02*
X159000000Y-113000000D01*
X159000000Y-130500000D02*
X159000000Y-123500000D01*
X181350000Y-117350000D02*
X177750000Y-117350000D01*
X181350000Y-118250000D02*
X177750000Y-118250000D01*
X181350000Y-117350000D02*
X181350000Y-118250000D01*
X177750000Y-117350000D02*
X177750000Y-118250000D01*
X181350000Y-125600000D02*
X177750000Y-125600000D01*
X181350000Y-126500000D02*
X177750000Y-126500000D01*
X181350000Y-125600000D02*
X181350000Y-126500000D01*
X177750000Y-125600000D02*
X177750000Y-126500000D01*
X172600000Y-125500000D02*
X169000000Y-125500000D01*
X172600000Y-126400000D02*
X169000000Y-126400000D01*
X172600000Y-125500000D02*
X172600000Y-126400000D01*
X169000000Y-125500000D02*
X169000000Y-126400000D01*
X172700000Y-117350000D02*
X169100000Y-117350000D01*
X172700000Y-118250000D02*
X169100000Y-118250000D01*
X172700000Y-117350000D02*
X172700000Y-118250000D01*
X169100000Y-117350000D02*
X169100000Y-118250000D01*
X167850000Y-117350000D02*
X164250000Y-117350000D01*
X167850000Y-118250000D02*
X164250000Y-118250000D01*
X167850000Y-117350000D02*
X167850000Y-118250000D01*
X164250000Y-117350000D02*
X164250000Y-118250000D01*
X164250000Y-125500000D02*
X164250000Y-126400000D01*
X167850000Y-125500000D02*
X164250000Y-125500000D01*
X167850000Y-125500000D02*
X167850000Y-126400000D01*
X167850000Y-126400000D02*
X164250000Y-126400000D01*
X161500000Y-133000000D02*
G75*
G02X159000000Y-130500000I0J2500000D01*
G01*
X187750000Y-130500000D02*
G75*
G02X185250000Y-133000000I-2500000J0D01*
G01*
X185250000Y-80000000D02*
G75*
G02X187750000Y-82500000I0J-2500000D01*
G01*
X159000000Y-82500000D02*
G75*
G02X161500000Y-80000000I2500000J0D01*
G01*
X185250000Y-80000000D02*
X161500000Y-80000000D01*
X161500000Y-133000000D02*
X185250000Y-133000000D01*
X159000000Y-82500000D02*
X159000000Y-113000000D01*
M02*
