G04 #@! TF.GenerationSoftware,KiCad,Pcbnew,5.1.5+dfsg1-2build2*
G04 #@! TF.CreationDate,2022-01-15T14:27:05-08:00*
G04 #@! TF.ProjectId,pcb_v1,7063625f-7631-42e6-9b69-6361645f7063,rev?*
G04 #@! TF.SameCoordinates,Original*
G04 #@! TF.FileFunction,Soldermask,Top*
G04 #@! TF.FilePolarity,Negative*
%FSLAX46Y46*%
G04 Gerber Fmt 4.6, Leading zero omitted, Abs format (unit mm)*
G04 Created by KiCad (PCBNEW 5.1.5+dfsg1-2build2) date 2022-01-15 14:27:05*
%MOMM*%
%LPD*%
G04 APERTURE LIST*
%ADD10C,0.100000*%
G04 APERTURE END LIST*
D10*
G36*
X184724549Y-129371116D02*
G01*
X184835734Y-129393232D01*
X185045203Y-129479997D01*
X185233720Y-129605960D01*
X185394040Y-129766280D01*
X185520003Y-129954797D01*
X185606768Y-130164266D01*
X185651000Y-130386636D01*
X185651000Y-130613364D01*
X185606768Y-130835734D01*
X185520003Y-131045203D01*
X185394040Y-131233720D01*
X185233720Y-131394040D01*
X185045203Y-131520003D01*
X184835734Y-131606768D01*
X184724549Y-131628884D01*
X184613365Y-131651000D01*
X184386635Y-131651000D01*
X184275451Y-131628884D01*
X184164266Y-131606768D01*
X183954797Y-131520003D01*
X183766280Y-131394040D01*
X183605960Y-131233720D01*
X183479997Y-131045203D01*
X183393232Y-130835734D01*
X183349000Y-130613364D01*
X183349000Y-130386636D01*
X183393232Y-130164266D01*
X183479997Y-129954797D01*
X183605960Y-129766280D01*
X183766280Y-129605960D01*
X183954797Y-129479997D01*
X184164266Y-129393232D01*
X184275451Y-129371116D01*
X184386635Y-129349000D01*
X184613365Y-129349000D01*
X184724549Y-129371116D01*
G37*
G36*
X161724549Y-129371116D02*
G01*
X161835734Y-129393232D01*
X162045203Y-129479997D01*
X162233720Y-129605960D01*
X162394040Y-129766280D01*
X162520003Y-129954797D01*
X162606768Y-130164266D01*
X162651000Y-130386636D01*
X162651000Y-130613364D01*
X162606768Y-130835734D01*
X162520003Y-131045203D01*
X162394040Y-131233720D01*
X162233720Y-131394040D01*
X162045203Y-131520003D01*
X161835734Y-131606768D01*
X161724549Y-131628884D01*
X161613365Y-131651000D01*
X161386635Y-131651000D01*
X161275451Y-131628884D01*
X161164266Y-131606768D01*
X160954797Y-131520003D01*
X160766280Y-131394040D01*
X160605960Y-131233720D01*
X160479997Y-131045203D01*
X160393232Y-130835734D01*
X160349000Y-130613364D01*
X160349000Y-130386636D01*
X160393232Y-130164266D01*
X160479997Y-129954797D01*
X160605960Y-129766280D01*
X160766280Y-129605960D01*
X160954797Y-129479997D01*
X161164266Y-129393232D01*
X161275451Y-129371116D01*
X161386635Y-129349000D01*
X161613365Y-129349000D01*
X161724549Y-129371116D01*
G37*
G36*
X174954591Y-126278085D02*
G01*
X174988569Y-126288393D01*
X175019890Y-126305134D01*
X175047339Y-126327661D01*
X175069866Y-126355110D01*
X175086607Y-126386431D01*
X175096915Y-126420409D01*
X175101000Y-126461890D01*
X175101000Y-127138110D01*
X175096915Y-127179591D01*
X175086607Y-127213569D01*
X175069866Y-127244890D01*
X175047339Y-127272339D01*
X175019890Y-127294866D01*
X174988569Y-127311607D01*
X174954591Y-127321915D01*
X174913110Y-127326000D01*
X174311890Y-127326000D01*
X174270409Y-127321915D01*
X174236431Y-127311607D01*
X174205110Y-127294866D01*
X174177661Y-127272339D01*
X174155134Y-127244890D01*
X174138393Y-127213569D01*
X174128085Y-127179591D01*
X174124000Y-127138110D01*
X174124000Y-126461890D01*
X174128085Y-126420409D01*
X174138393Y-126386431D01*
X174155134Y-126355110D01*
X174177661Y-126327661D01*
X174205110Y-126305134D01*
X174236431Y-126288393D01*
X174270409Y-126278085D01*
X174311890Y-126274000D01*
X174913110Y-126274000D01*
X174954591Y-126278085D01*
G37*
G36*
X176529591Y-126278085D02*
G01*
X176563569Y-126288393D01*
X176594890Y-126305134D01*
X176622339Y-126327661D01*
X176644866Y-126355110D01*
X176661607Y-126386431D01*
X176671915Y-126420409D01*
X176676000Y-126461890D01*
X176676000Y-127138110D01*
X176671915Y-127179591D01*
X176661607Y-127213569D01*
X176644866Y-127244890D01*
X176622339Y-127272339D01*
X176594890Y-127294866D01*
X176563569Y-127311607D01*
X176529591Y-127321915D01*
X176488110Y-127326000D01*
X175886890Y-127326000D01*
X175845409Y-127321915D01*
X175811431Y-127311607D01*
X175780110Y-127294866D01*
X175752661Y-127272339D01*
X175730134Y-127244890D01*
X175713393Y-127213569D01*
X175703085Y-127179591D01*
X175699000Y-127138110D01*
X175699000Y-126461890D01*
X175703085Y-126420409D01*
X175713393Y-126386431D01*
X175730134Y-126355110D01*
X175752661Y-126327661D01*
X175780110Y-126305134D01*
X175811431Y-126288393D01*
X175845409Y-126278085D01*
X175886890Y-126274000D01*
X176488110Y-126274000D01*
X176529591Y-126278085D01*
G37*
G36*
X175248228Y-123261703D02*
G01*
X175403100Y-123325853D01*
X175542481Y-123418985D01*
X175661015Y-123537519D01*
X175754147Y-123676900D01*
X175818297Y-123831772D01*
X175851000Y-123996184D01*
X175851000Y-124163816D01*
X175818297Y-124328228D01*
X175754147Y-124483100D01*
X175661015Y-124622481D01*
X175542481Y-124741015D01*
X175403100Y-124834147D01*
X175248228Y-124898297D01*
X175083816Y-124931000D01*
X174916184Y-124931000D01*
X174751772Y-124898297D01*
X174596900Y-124834147D01*
X174457519Y-124741015D01*
X174338985Y-124622481D01*
X174245853Y-124483100D01*
X174181703Y-124328228D01*
X174149000Y-124163816D01*
X174149000Y-123996184D01*
X174181703Y-123831772D01*
X174245853Y-123676900D01*
X174338985Y-123537519D01*
X174457519Y-123418985D01*
X174596900Y-123325853D01*
X174751772Y-123261703D01*
X174916184Y-123229000D01*
X175083816Y-123229000D01*
X175248228Y-123261703D01*
G37*
G36*
X166354591Y-123578085D02*
G01*
X166388569Y-123588393D01*
X166419890Y-123605134D01*
X166447339Y-123627661D01*
X166469866Y-123655110D01*
X166486607Y-123686431D01*
X166496915Y-123720409D01*
X166501000Y-123761890D01*
X166501000Y-124438110D01*
X166496915Y-124479591D01*
X166486607Y-124513569D01*
X166469866Y-124544890D01*
X166447339Y-124572339D01*
X166419890Y-124594866D01*
X166388569Y-124611607D01*
X166354591Y-124621915D01*
X166313110Y-124626000D01*
X165711890Y-124626000D01*
X165670409Y-124621915D01*
X165636431Y-124611607D01*
X165605110Y-124594866D01*
X165577661Y-124572339D01*
X165555134Y-124544890D01*
X165538393Y-124513569D01*
X165528085Y-124479591D01*
X165524000Y-124438110D01*
X165524000Y-123761890D01*
X165528085Y-123720409D01*
X165538393Y-123686431D01*
X165555134Y-123655110D01*
X165577661Y-123627661D01*
X165605110Y-123605134D01*
X165636431Y-123588393D01*
X165670409Y-123578085D01*
X165711890Y-123574000D01*
X166313110Y-123574000D01*
X166354591Y-123578085D01*
G37*
G36*
X170854591Y-123578085D02*
G01*
X170888569Y-123588393D01*
X170919890Y-123605134D01*
X170947339Y-123627661D01*
X170969866Y-123655110D01*
X170986607Y-123686431D01*
X170996915Y-123720409D01*
X171001000Y-123761890D01*
X171001000Y-124438110D01*
X170996915Y-124479591D01*
X170986607Y-124513569D01*
X170969866Y-124544890D01*
X170947339Y-124572339D01*
X170919890Y-124594866D01*
X170888569Y-124611607D01*
X170854591Y-124621915D01*
X170813110Y-124626000D01*
X170211890Y-124626000D01*
X170170409Y-124621915D01*
X170136431Y-124611607D01*
X170105110Y-124594866D01*
X170077661Y-124572339D01*
X170055134Y-124544890D01*
X170038393Y-124513569D01*
X170028085Y-124479591D01*
X170024000Y-124438110D01*
X170024000Y-123761890D01*
X170028085Y-123720409D01*
X170038393Y-123686431D01*
X170055134Y-123655110D01*
X170077661Y-123627661D01*
X170105110Y-123605134D01*
X170136431Y-123588393D01*
X170170409Y-123578085D01*
X170211890Y-123574000D01*
X170813110Y-123574000D01*
X170854591Y-123578085D01*
G37*
G36*
X167929591Y-123578085D02*
G01*
X167963569Y-123588393D01*
X167994890Y-123605134D01*
X168022339Y-123627661D01*
X168044866Y-123655110D01*
X168061607Y-123686431D01*
X168071915Y-123720409D01*
X168076000Y-123761890D01*
X168076000Y-124438110D01*
X168071915Y-124479591D01*
X168061607Y-124513569D01*
X168044866Y-124544890D01*
X168022339Y-124572339D01*
X167994890Y-124594866D01*
X167963569Y-124611607D01*
X167929591Y-124621915D01*
X167888110Y-124626000D01*
X167286890Y-124626000D01*
X167245409Y-124621915D01*
X167211431Y-124611607D01*
X167180110Y-124594866D01*
X167152661Y-124572339D01*
X167130134Y-124544890D01*
X167113393Y-124513569D01*
X167103085Y-124479591D01*
X167099000Y-124438110D01*
X167099000Y-123761890D01*
X167103085Y-123720409D01*
X167113393Y-123686431D01*
X167130134Y-123655110D01*
X167152661Y-123627661D01*
X167180110Y-123605134D01*
X167211431Y-123588393D01*
X167245409Y-123578085D01*
X167286890Y-123574000D01*
X167888110Y-123574000D01*
X167929591Y-123578085D01*
G37*
G36*
X181417091Y-123578085D02*
G01*
X181451069Y-123588393D01*
X181482390Y-123605134D01*
X181509839Y-123627661D01*
X181532366Y-123655110D01*
X181549107Y-123686431D01*
X181559415Y-123720409D01*
X181563500Y-123761890D01*
X181563500Y-124438110D01*
X181559415Y-124479591D01*
X181549107Y-124513569D01*
X181532366Y-124544890D01*
X181509839Y-124572339D01*
X181482390Y-124594866D01*
X181451069Y-124611607D01*
X181417091Y-124621915D01*
X181375610Y-124626000D01*
X180774390Y-124626000D01*
X180732909Y-124621915D01*
X180698931Y-124611607D01*
X180667610Y-124594866D01*
X180640161Y-124572339D01*
X180617634Y-124544890D01*
X180600893Y-124513569D01*
X180590585Y-124479591D01*
X180586500Y-124438110D01*
X180586500Y-123761890D01*
X180590585Y-123720409D01*
X180600893Y-123686431D01*
X180617634Y-123655110D01*
X180640161Y-123627661D01*
X180667610Y-123605134D01*
X180698931Y-123588393D01*
X180732909Y-123578085D01*
X180774390Y-123574000D01*
X181375610Y-123574000D01*
X181417091Y-123578085D01*
G37*
G36*
X179842091Y-123578085D02*
G01*
X179876069Y-123588393D01*
X179907390Y-123605134D01*
X179934839Y-123627661D01*
X179957366Y-123655110D01*
X179974107Y-123686431D01*
X179984415Y-123720409D01*
X179988500Y-123761890D01*
X179988500Y-124438110D01*
X179984415Y-124479591D01*
X179974107Y-124513569D01*
X179957366Y-124544890D01*
X179934839Y-124572339D01*
X179907390Y-124594866D01*
X179876069Y-124611607D01*
X179842091Y-124621915D01*
X179800610Y-124626000D01*
X179199390Y-124626000D01*
X179157909Y-124621915D01*
X179123931Y-124611607D01*
X179092610Y-124594866D01*
X179065161Y-124572339D01*
X179042634Y-124544890D01*
X179025893Y-124513569D01*
X179015585Y-124479591D01*
X179011500Y-124438110D01*
X179011500Y-123761890D01*
X179015585Y-123720409D01*
X179025893Y-123686431D01*
X179042634Y-123655110D01*
X179065161Y-123627661D01*
X179092610Y-123605134D01*
X179123931Y-123588393D01*
X179157909Y-123578085D01*
X179199390Y-123574000D01*
X179800610Y-123574000D01*
X179842091Y-123578085D01*
G37*
G36*
X172429591Y-123578085D02*
G01*
X172463569Y-123588393D01*
X172494890Y-123605134D01*
X172522339Y-123627661D01*
X172544866Y-123655110D01*
X172561607Y-123686431D01*
X172571915Y-123720409D01*
X172576000Y-123761890D01*
X172576000Y-124438110D01*
X172571915Y-124479591D01*
X172561607Y-124513569D01*
X172544866Y-124544890D01*
X172522339Y-124572339D01*
X172494890Y-124594866D01*
X172463569Y-124611607D01*
X172429591Y-124621915D01*
X172388110Y-124626000D01*
X171786890Y-124626000D01*
X171745409Y-124621915D01*
X171711431Y-124611607D01*
X171680110Y-124594866D01*
X171652661Y-124572339D01*
X171630134Y-124544890D01*
X171613393Y-124513569D01*
X171603085Y-124479591D01*
X171599000Y-124438110D01*
X171599000Y-123761890D01*
X171603085Y-123720409D01*
X171613393Y-123686431D01*
X171630134Y-123655110D01*
X171652661Y-123627661D01*
X171680110Y-123605134D01*
X171711431Y-123588393D01*
X171745409Y-123578085D01*
X171786890Y-123574000D01*
X172388110Y-123574000D01*
X172429591Y-123578085D01*
G37*
G36*
X165555202Y-120375683D02*
G01*
X165565735Y-120378878D01*
X165575443Y-120384068D01*
X165590749Y-120396629D01*
X165595704Y-120401583D01*
X165616079Y-120415197D01*
X165638718Y-120424573D01*
X165662751Y-120429353D01*
X165687255Y-120429353D01*
X165711288Y-120424572D01*
X165733927Y-120415194D01*
X165754301Y-120401580D01*
X165759259Y-120396622D01*
X165774557Y-120384068D01*
X165784265Y-120378878D01*
X165794798Y-120375683D01*
X165811888Y-120374000D01*
X166188112Y-120374000D01*
X166205202Y-120375683D01*
X166215735Y-120378878D01*
X166225443Y-120384068D01*
X166240749Y-120396629D01*
X166245704Y-120401583D01*
X166266079Y-120415197D01*
X166288718Y-120424573D01*
X166312751Y-120429353D01*
X166337255Y-120429353D01*
X166361288Y-120424572D01*
X166383927Y-120415194D01*
X166404301Y-120401580D01*
X166409259Y-120396622D01*
X166424557Y-120384068D01*
X166434265Y-120378878D01*
X166444798Y-120375683D01*
X166461888Y-120374000D01*
X166838112Y-120374000D01*
X166855202Y-120375683D01*
X166865735Y-120378878D01*
X166875443Y-120384068D01*
X166883951Y-120391049D01*
X166890932Y-120399557D01*
X166896122Y-120409265D01*
X166899317Y-120419798D01*
X166901000Y-120436888D01*
X166901000Y-120788112D01*
X166899317Y-120805202D01*
X166896122Y-120815735D01*
X166890933Y-120825443D01*
X166879372Y-120839530D01*
X166865759Y-120859904D01*
X166856382Y-120882543D01*
X166851000Y-120918827D01*
X166851000Y-122081173D01*
X166853402Y-122105559D01*
X166860515Y-122129008D01*
X166879372Y-122160470D01*
X166890933Y-122174557D01*
X166896122Y-122184265D01*
X166899317Y-122194798D01*
X166901000Y-122211888D01*
X166901000Y-122563112D01*
X166899317Y-122580202D01*
X166896122Y-122590735D01*
X166890932Y-122600443D01*
X166883951Y-122608951D01*
X166875443Y-122615932D01*
X166865735Y-122621122D01*
X166855202Y-122624317D01*
X166838112Y-122626000D01*
X166461888Y-122626000D01*
X166444798Y-122624317D01*
X166434265Y-122621122D01*
X166424557Y-122615932D01*
X166409251Y-122603371D01*
X166404296Y-122598417D01*
X166383921Y-122584803D01*
X166361282Y-122575427D01*
X166337249Y-122570647D01*
X166312745Y-122570647D01*
X166288712Y-122575428D01*
X166266073Y-122584806D01*
X166245699Y-122598420D01*
X166240741Y-122603378D01*
X166225443Y-122615932D01*
X166215735Y-122621122D01*
X166205202Y-122624317D01*
X166188112Y-122626000D01*
X165811888Y-122626000D01*
X165794798Y-122624317D01*
X165784265Y-122621122D01*
X165774557Y-122615932D01*
X165759251Y-122603371D01*
X165754296Y-122598417D01*
X165733921Y-122584803D01*
X165711282Y-122575427D01*
X165687249Y-122570647D01*
X165662745Y-122570647D01*
X165638712Y-122575428D01*
X165616073Y-122584806D01*
X165595699Y-122598420D01*
X165590741Y-122603378D01*
X165575443Y-122615932D01*
X165565735Y-122621122D01*
X165555202Y-122624317D01*
X165538112Y-122626000D01*
X165161888Y-122626000D01*
X165144798Y-122624317D01*
X165134265Y-122621122D01*
X165124557Y-122615932D01*
X165116049Y-122608951D01*
X165109068Y-122600443D01*
X165103878Y-122590735D01*
X165100683Y-122580202D01*
X165099000Y-122563112D01*
X165099000Y-122211888D01*
X165100683Y-122194798D01*
X165103878Y-122184265D01*
X165109067Y-122174557D01*
X165120628Y-122160470D01*
X165134241Y-122140096D01*
X165143618Y-122117457D01*
X165149000Y-122081173D01*
X165149000Y-120918827D01*
X165146598Y-120894441D01*
X165139485Y-120870992D01*
X165120628Y-120839530D01*
X165109067Y-120825443D01*
X165103878Y-120815735D01*
X165100683Y-120805202D01*
X165099000Y-120788112D01*
X165099000Y-120436888D01*
X165100683Y-120419798D01*
X165103878Y-120409265D01*
X165109068Y-120399557D01*
X165116049Y-120391049D01*
X165124557Y-120384068D01*
X165134265Y-120378878D01*
X165144798Y-120375683D01*
X165161888Y-120374000D01*
X165538112Y-120374000D01*
X165555202Y-120375683D01*
G37*
G36*
X170055202Y-120375683D02*
G01*
X170065735Y-120378878D01*
X170075443Y-120384068D01*
X170090749Y-120396629D01*
X170095704Y-120401583D01*
X170116079Y-120415197D01*
X170138718Y-120424573D01*
X170162751Y-120429353D01*
X170187255Y-120429353D01*
X170211288Y-120424572D01*
X170233927Y-120415194D01*
X170254301Y-120401580D01*
X170259259Y-120396622D01*
X170274557Y-120384068D01*
X170284265Y-120378878D01*
X170294798Y-120375683D01*
X170311888Y-120374000D01*
X170688112Y-120374000D01*
X170705202Y-120375683D01*
X170715735Y-120378878D01*
X170725443Y-120384068D01*
X170740749Y-120396629D01*
X170745704Y-120401583D01*
X170766079Y-120415197D01*
X170788718Y-120424573D01*
X170812751Y-120429353D01*
X170837255Y-120429353D01*
X170861288Y-120424572D01*
X170883927Y-120415194D01*
X170904301Y-120401580D01*
X170909259Y-120396622D01*
X170924557Y-120384068D01*
X170934265Y-120378878D01*
X170944798Y-120375683D01*
X170961888Y-120374000D01*
X171338112Y-120374000D01*
X171355202Y-120375683D01*
X171365735Y-120378878D01*
X171375443Y-120384068D01*
X171383951Y-120391049D01*
X171390932Y-120399557D01*
X171396122Y-120409265D01*
X171399317Y-120419798D01*
X171401000Y-120436888D01*
X171401000Y-120788112D01*
X171399317Y-120805202D01*
X171396122Y-120815735D01*
X171390933Y-120825443D01*
X171379372Y-120839530D01*
X171365759Y-120859904D01*
X171356382Y-120882543D01*
X171351000Y-120918827D01*
X171351000Y-122081173D01*
X171353402Y-122105559D01*
X171360515Y-122129008D01*
X171379372Y-122160470D01*
X171390933Y-122174557D01*
X171396122Y-122184265D01*
X171399317Y-122194798D01*
X171401000Y-122211888D01*
X171401000Y-122563112D01*
X171399317Y-122580202D01*
X171396122Y-122590735D01*
X171390932Y-122600443D01*
X171383951Y-122608951D01*
X171375443Y-122615932D01*
X171365735Y-122621122D01*
X171355202Y-122624317D01*
X171338112Y-122626000D01*
X170961888Y-122626000D01*
X170944798Y-122624317D01*
X170934265Y-122621122D01*
X170924557Y-122615932D01*
X170909251Y-122603371D01*
X170904296Y-122598417D01*
X170883921Y-122584803D01*
X170861282Y-122575427D01*
X170837249Y-122570647D01*
X170812745Y-122570647D01*
X170788712Y-122575428D01*
X170766073Y-122584806D01*
X170745699Y-122598420D01*
X170740741Y-122603378D01*
X170725443Y-122615932D01*
X170715735Y-122621122D01*
X170705202Y-122624317D01*
X170688112Y-122626000D01*
X170311888Y-122626000D01*
X170294798Y-122624317D01*
X170284265Y-122621122D01*
X170274557Y-122615932D01*
X170259251Y-122603371D01*
X170254296Y-122598417D01*
X170233921Y-122584803D01*
X170211282Y-122575427D01*
X170187249Y-122570647D01*
X170162745Y-122570647D01*
X170138712Y-122575428D01*
X170116073Y-122584806D01*
X170095699Y-122598420D01*
X170090741Y-122603378D01*
X170075443Y-122615932D01*
X170065735Y-122621122D01*
X170055202Y-122624317D01*
X170038112Y-122626000D01*
X169661888Y-122626000D01*
X169644798Y-122624317D01*
X169634265Y-122621122D01*
X169624557Y-122615932D01*
X169616049Y-122608951D01*
X169609068Y-122600443D01*
X169603878Y-122590735D01*
X169600683Y-122580202D01*
X169599000Y-122563112D01*
X169599000Y-122211888D01*
X169600683Y-122194798D01*
X169603878Y-122184265D01*
X169609067Y-122174557D01*
X169620628Y-122160470D01*
X169634241Y-122140096D01*
X169643618Y-122117457D01*
X169649000Y-122081173D01*
X169649000Y-120918827D01*
X169646598Y-120894441D01*
X169639485Y-120870992D01*
X169620628Y-120839530D01*
X169609067Y-120825443D01*
X169603878Y-120815735D01*
X169600683Y-120805202D01*
X169599000Y-120788112D01*
X169599000Y-120436888D01*
X169600683Y-120419798D01*
X169603878Y-120409265D01*
X169609068Y-120399557D01*
X169616049Y-120391049D01*
X169624557Y-120384068D01*
X169634265Y-120378878D01*
X169644798Y-120375683D01*
X169661888Y-120374000D01*
X170038112Y-120374000D01*
X170055202Y-120375683D01*
G37*
G36*
X174555202Y-120375683D02*
G01*
X174565735Y-120378878D01*
X174575443Y-120384068D01*
X174590749Y-120396629D01*
X174595704Y-120401583D01*
X174616079Y-120415197D01*
X174638718Y-120424573D01*
X174662751Y-120429353D01*
X174687255Y-120429353D01*
X174711288Y-120424572D01*
X174733927Y-120415194D01*
X174754301Y-120401580D01*
X174759259Y-120396622D01*
X174774557Y-120384068D01*
X174784265Y-120378878D01*
X174794798Y-120375683D01*
X174811888Y-120374000D01*
X175188112Y-120374000D01*
X175205202Y-120375683D01*
X175215735Y-120378878D01*
X175225443Y-120384068D01*
X175240749Y-120396629D01*
X175245704Y-120401583D01*
X175266079Y-120415197D01*
X175288718Y-120424573D01*
X175312751Y-120429353D01*
X175337255Y-120429353D01*
X175361288Y-120424572D01*
X175383927Y-120415194D01*
X175404301Y-120401580D01*
X175409259Y-120396622D01*
X175424557Y-120384068D01*
X175434265Y-120378878D01*
X175444798Y-120375683D01*
X175461888Y-120374000D01*
X175838112Y-120374000D01*
X175855202Y-120375683D01*
X175865735Y-120378878D01*
X175875443Y-120384068D01*
X175883951Y-120391049D01*
X175890932Y-120399557D01*
X175896122Y-120409265D01*
X175899317Y-120419798D01*
X175901000Y-120436888D01*
X175901000Y-120788112D01*
X175899317Y-120805202D01*
X175896122Y-120815735D01*
X175890933Y-120825443D01*
X175879372Y-120839530D01*
X175865759Y-120859904D01*
X175856382Y-120882543D01*
X175851000Y-120918827D01*
X175851000Y-122081173D01*
X175853402Y-122105559D01*
X175860515Y-122129008D01*
X175879372Y-122160470D01*
X175890933Y-122174557D01*
X175896122Y-122184265D01*
X175899317Y-122194798D01*
X175901000Y-122211888D01*
X175901000Y-122563112D01*
X175899317Y-122580202D01*
X175896122Y-122590735D01*
X175890932Y-122600443D01*
X175883951Y-122608951D01*
X175875443Y-122615932D01*
X175865735Y-122621122D01*
X175855202Y-122624317D01*
X175838112Y-122626000D01*
X175461888Y-122626000D01*
X175444798Y-122624317D01*
X175434265Y-122621122D01*
X175424557Y-122615932D01*
X175409251Y-122603371D01*
X175404296Y-122598417D01*
X175383921Y-122584803D01*
X175361282Y-122575427D01*
X175337249Y-122570647D01*
X175312745Y-122570647D01*
X175288712Y-122575428D01*
X175266073Y-122584806D01*
X175245699Y-122598420D01*
X175240741Y-122603378D01*
X175225443Y-122615932D01*
X175215735Y-122621122D01*
X175205202Y-122624317D01*
X175188112Y-122626000D01*
X174811888Y-122626000D01*
X174794798Y-122624317D01*
X174784265Y-122621122D01*
X174774557Y-122615932D01*
X174759251Y-122603371D01*
X174754296Y-122598417D01*
X174733921Y-122584803D01*
X174711282Y-122575427D01*
X174687249Y-122570647D01*
X174662745Y-122570647D01*
X174638712Y-122575428D01*
X174616073Y-122584806D01*
X174595699Y-122598420D01*
X174590741Y-122603378D01*
X174575443Y-122615932D01*
X174565735Y-122621122D01*
X174555202Y-122624317D01*
X174538112Y-122626000D01*
X174161888Y-122626000D01*
X174144798Y-122624317D01*
X174134265Y-122621122D01*
X174124557Y-122615932D01*
X174116049Y-122608951D01*
X174109068Y-122600443D01*
X174103878Y-122590735D01*
X174100683Y-122580202D01*
X174099000Y-122563112D01*
X174099000Y-122211888D01*
X174100683Y-122194798D01*
X174103878Y-122184265D01*
X174109067Y-122174557D01*
X174120628Y-122160470D01*
X174134241Y-122140096D01*
X174143618Y-122117457D01*
X174149000Y-122081173D01*
X174149000Y-120918827D01*
X174146598Y-120894441D01*
X174139485Y-120870992D01*
X174120628Y-120839530D01*
X174109067Y-120825443D01*
X174103878Y-120815735D01*
X174100683Y-120805202D01*
X174099000Y-120788112D01*
X174099000Y-120436888D01*
X174100683Y-120419798D01*
X174103878Y-120409265D01*
X174109068Y-120399557D01*
X174116049Y-120391049D01*
X174124557Y-120384068D01*
X174134265Y-120378878D01*
X174144798Y-120375683D01*
X174161888Y-120374000D01*
X174538112Y-120374000D01*
X174555202Y-120375683D01*
G37*
G36*
X179055202Y-120375683D02*
G01*
X179065735Y-120378878D01*
X179075443Y-120384068D01*
X179090749Y-120396629D01*
X179095704Y-120401583D01*
X179116079Y-120415197D01*
X179138718Y-120424573D01*
X179162751Y-120429353D01*
X179187255Y-120429353D01*
X179211288Y-120424572D01*
X179233927Y-120415194D01*
X179254301Y-120401580D01*
X179259259Y-120396622D01*
X179274557Y-120384068D01*
X179284265Y-120378878D01*
X179294798Y-120375683D01*
X179311888Y-120374000D01*
X179688112Y-120374000D01*
X179705202Y-120375683D01*
X179715735Y-120378878D01*
X179725443Y-120384068D01*
X179740749Y-120396629D01*
X179745704Y-120401583D01*
X179766079Y-120415197D01*
X179788718Y-120424573D01*
X179812751Y-120429353D01*
X179837255Y-120429353D01*
X179861288Y-120424572D01*
X179883927Y-120415194D01*
X179904301Y-120401580D01*
X179909259Y-120396622D01*
X179924557Y-120384068D01*
X179934265Y-120378878D01*
X179944798Y-120375683D01*
X179961888Y-120374000D01*
X180338112Y-120374000D01*
X180355202Y-120375683D01*
X180365735Y-120378878D01*
X180375443Y-120384068D01*
X180383951Y-120391049D01*
X180390932Y-120399557D01*
X180396122Y-120409265D01*
X180399317Y-120419798D01*
X180401000Y-120436888D01*
X180401000Y-120788112D01*
X180399317Y-120805202D01*
X180396122Y-120815735D01*
X180390933Y-120825443D01*
X180379372Y-120839530D01*
X180365759Y-120859904D01*
X180356382Y-120882543D01*
X180351000Y-120918827D01*
X180351000Y-122081173D01*
X180353402Y-122105559D01*
X180360515Y-122129008D01*
X180379372Y-122160470D01*
X180390933Y-122174557D01*
X180396122Y-122184265D01*
X180399317Y-122194798D01*
X180401000Y-122211888D01*
X180401000Y-122563112D01*
X180399317Y-122580202D01*
X180396122Y-122590735D01*
X180390932Y-122600443D01*
X180383951Y-122608951D01*
X180375443Y-122615932D01*
X180365735Y-122621122D01*
X180355202Y-122624317D01*
X180338112Y-122626000D01*
X179961888Y-122626000D01*
X179944798Y-122624317D01*
X179934265Y-122621122D01*
X179924557Y-122615932D01*
X179909251Y-122603371D01*
X179904296Y-122598417D01*
X179883921Y-122584803D01*
X179861282Y-122575427D01*
X179837249Y-122570647D01*
X179812745Y-122570647D01*
X179788712Y-122575428D01*
X179766073Y-122584806D01*
X179745699Y-122598420D01*
X179740741Y-122603378D01*
X179725443Y-122615932D01*
X179715735Y-122621122D01*
X179705202Y-122624317D01*
X179688112Y-122626000D01*
X179311888Y-122626000D01*
X179294798Y-122624317D01*
X179284265Y-122621122D01*
X179274557Y-122615932D01*
X179259251Y-122603371D01*
X179254296Y-122598417D01*
X179233921Y-122584803D01*
X179211282Y-122575427D01*
X179187249Y-122570647D01*
X179162745Y-122570647D01*
X179138712Y-122575428D01*
X179116073Y-122584806D01*
X179095699Y-122598420D01*
X179090741Y-122603378D01*
X179075443Y-122615932D01*
X179065735Y-122621122D01*
X179055202Y-122624317D01*
X179038112Y-122626000D01*
X178661888Y-122626000D01*
X178644798Y-122624317D01*
X178634265Y-122621122D01*
X178624557Y-122615932D01*
X178616049Y-122608951D01*
X178609068Y-122600443D01*
X178603878Y-122590735D01*
X178600683Y-122580202D01*
X178599000Y-122563112D01*
X178599000Y-122211888D01*
X178600683Y-122194798D01*
X178603878Y-122184265D01*
X178609067Y-122174557D01*
X178620628Y-122160470D01*
X178634241Y-122140096D01*
X178643618Y-122117457D01*
X178649000Y-122081173D01*
X178649000Y-120918827D01*
X178646598Y-120894441D01*
X178639485Y-120870992D01*
X178620628Y-120839530D01*
X178609067Y-120825443D01*
X178603878Y-120815735D01*
X178600683Y-120805202D01*
X178599000Y-120788112D01*
X178599000Y-120436888D01*
X178600683Y-120419798D01*
X178603878Y-120409265D01*
X178609068Y-120399557D01*
X178616049Y-120391049D01*
X178624557Y-120384068D01*
X178634265Y-120378878D01*
X178644798Y-120375683D01*
X178661888Y-120374000D01*
X179038112Y-120374000D01*
X179055202Y-120375683D01*
G37*
G36*
X175248228Y-118181703D02*
G01*
X175403100Y-118245853D01*
X175542481Y-118338985D01*
X175661015Y-118457519D01*
X175754147Y-118596900D01*
X175818297Y-118751772D01*
X175851000Y-118916184D01*
X175851000Y-119083816D01*
X175818297Y-119248228D01*
X175754147Y-119403100D01*
X175661015Y-119542481D01*
X175542481Y-119661015D01*
X175403100Y-119754147D01*
X175248228Y-119818297D01*
X175083816Y-119851000D01*
X174916184Y-119851000D01*
X174751772Y-119818297D01*
X174596900Y-119754147D01*
X174457519Y-119661015D01*
X174338985Y-119542481D01*
X174245853Y-119403100D01*
X174181703Y-119248228D01*
X174149000Y-119083816D01*
X174149000Y-118916184D01*
X174181703Y-118751772D01*
X174245853Y-118596900D01*
X174338985Y-118457519D01*
X174457519Y-118338985D01*
X174596900Y-118245853D01*
X174751772Y-118181703D01*
X174916184Y-118149000D01*
X175083816Y-118149000D01*
X175248228Y-118181703D01*
G37*
G36*
X167525170Y-103325803D02*
G01*
X167536875Y-103329354D01*
X167547665Y-103335121D01*
X167561688Y-103346630D01*
X167570704Y-103355645D01*
X167591078Y-103369259D01*
X167613717Y-103378635D01*
X167637751Y-103383415D01*
X167662255Y-103383415D01*
X167686288Y-103378634D01*
X167708926Y-103369256D01*
X167729301Y-103355642D01*
X167738317Y-103346626D01*
X167752335Y-103335121D01*
X167763125Y-103329354D01*
X167774830Y-103325803D01*
X167793138Y-103324000D01*
X168156862Y-103324000D01*
X168175170Y-103325803D01*
X168186875Y-103329354D01*
X168197665Y-103335121D01*
X168211688Y-103346630D01*
X168220704Y-103355645D01*
X168241078Y-103369259D01*
X168263717Y-103378635D01*
X168287751Y-103383415D01*
X168312255Y-103383415D01*
X168336288Y-103378634D01*
X168358926Y-103369256D01*
X168379301Y-103355642D01*
X168388317Y-103346626D01*
X168402335Y-103335121D01*
X168413125Y-103329354D01*
X168424830Y-103325803D01*
X168443138Y-103324000D01*
X168806862Y-103324000D01*
X168825170Y-103325803D01*
X168836875Y-103329354D01*
X168847665Y-103335121D01*
X168861688Y-103346630D01*
X168870704Y-103355645D01*
X168891078Y-103369259D01*
X168913717Y-103378635D01*
X168937751Y-103383415D01*
X168962255Y-103383415D01*
X168986288Y-103378634D01*
X169008926Y-103369256D01*
X169029301Y-103355642D01*
X169038317Y-103346626D01*
X169052335Y-103335121D01*
X169063125Y-103329354D01*
X169074830Y-103325803D01*
X169093138Y-103324000D01*
X169456862Y-103324000D01*
X169475170Y-103325803D01*
X169486875Y-103329354D01*
X169497665Y-103335121D01*
X169511688Y-103346630D01*
X169520704Y-103355645D01*
X169541078Y-103369259D01*
X169563717Y-103378635D01*
X169587751Y-103383415D01*
X169612255Y-103383415D01*
X169636288Y-103378634D01*
X169658926Y-103369256D01*
X169679301Y-103355642D01*
X169688317Y-103346626D01*
X169702335Y-103335121D01*
X169713125Y-103329354D01*
X169724830Y-103325803D01*
X169743138Y-103324000D01*
X170106862Y-103324000D01*
X170125170Y-103325803D01*
X170136875Y-103329354D01*
X170147665Y-103335121D01*
X170161688Y-103346630D01*
X170170704Y-103355645D01*
X170191078Y-103369259D01*
X170213717Y-103378635D01*
X170237751Y-103383415D01*
X170262255Y-103383415D01*
X170286288Y-103378634D01*
X170308926Y-103369256D01*
X170329301Y-103355642D01*
X170338317Y-103346626D01*
X170352335Y-103335121D01*
X170363125Y-103329354D01*
X170374830Y-103325803D01*
X170393138Y-103324000D01*
X170756862Y-103324000D01*
X170775170Y-103325803D01*
X170786875Y-103329354D01*
X170797665Y-103335121D01*
X170811688Y-103346630D01*
X170820704Y-103355645D01*
X170841078Y-103369259D01*
X170863717Y-103378635D01*
X170887751Y-103383415D01*
X170912255Y-103383415D01*
X170936288Y-103378634D01*
X170958926Y-103369256D01*
X170979301Y-103355642D01*
X170988317Y-103346626D01*
X171002335Y-103335121D01*
X171013125Y-103329354D01*
X171024830Y-103325803D01*
X171043138Y-103324000D01*
X171406862Y-103324000D01*
X171425170Y-103325803D01*
X171436875Y-103329354D01*
X171447665Y-103335121D01*
X171461688Y-103346630D01*
X171470704Y-103355645D01*
X171491078Y-103369259D01*
X171513717Y-103378635D01*
X171537751Y-103383415D01*
X171562255Y-103383415D01*
X171586288Y-103378634D01*
X171608926Y-103369256D01*
X171629301Y-103355642D01*
X171638317Y-103346626D01*
X171652335Y-103335121D01*
X171663125Y-103329354D01*
X171674830Y-103325803D01*
X171693138Y-103324000D01*
X172056862Y-103324000D01*
X172075170Y-103325803D01*
X172086875Y-103329354D01*
X172097665Y-103335121D01*
X172107119Y-103342881D01*
X172114879Y-103352335D01*
X172120646Y-103363125D01*
X172124197Y-103374830D01*
X172126000Y-103393138D01*
X172126000Y-104831862D01*
X172124197Y-104850170D01*
X172120646Y-104861875D01*
X172114879Y-104872665D01*
X172107119Y-104882119D01*
X172097665Y-104889879D01*
X172086875Y-104895646D01*
X172075170Y-104899197D01*
X172056862Y-104901000D01*
X171693138Y-104901000D01*
X171674830Y-104899197D01*
X171663125Y-104895646D01*
X171652335Y-104889879D01*
X171638312Y-104878370D01*
X171629296Y-104869355D01*
X171608922Y-104855741D01*
X171586283Y-104846365D01*
X171562249Y-104841585D01*
X171537745Y-104841585D01*
X171513712Y-104846366D01*
X171491074Y-104855744D01*
X171470699Y-104869358D01*
X171461683Y-104878374D01*
X171447665Y-104889879D01*
X171436875Y-104895646D01*
X171425170Y-104899197D01*
X171406862Y-104901000D01*
X171043138Y-104901000D01*
X171024830Y-104899197D01*
X171013125Y-104895646D01*
X171002335Y-104889879D01*
X170988312Y-104878370D01*
X170979296Y-104869355D01*
X170958922Y-104855741D01*
X170936283Y-104846365D01*
X170912249Y-104841585D01*
X170887745Y-104841585D01*
X170863712Y-104846366D01*
X170841074Y-104855744D01*
X170820699Y-104869358D01*
X170811683Y-104878374D01*
X170797665Y-104889879D01*
X170786875Y-104895646D01*
X170775170Y-104899197D01*
X170756862Y-104901000D01*
X170393138Y-104901000D01*
X170374830Y-104899197D01*
X170363125Y-104895646D01*
X170352335Y-104889879D01*
X170338312Y-104878370D01*
X170329296Y-104869355D01*
X170308922Y-104855741D01*
X170286283Y-104846365D01*
X170262249Y-104841585D01*
X170237745Y-104841585D01*
X170213712Y-104846366D01*
X170191074Y-104855744D01*
X170170699Y-104869358D01*
X170161683Y-104878374D01*
X170147665Y-104889879D01*
X170136875Y-104895646D01*
X170125170Y-104899197D01*
X170106862Y-104901000D01*
X169743138Y-104901000D01*
X169724830Y-104899197D01*
X169713125Y-104895646D01*
X169702335Y-104889879D01*
X169688312Y-104878370D01*
X169679296Y-104869355D01*
X169658922Y-104855741D01*
X169636283Y-104846365D01*
X169612249Y-104841585D01*
X169587745Y-104841585D01*
X169563712Y-104846366D01*
X169541074Y-104855744D01*
X169520699Y-104869358D01*
X169511683Y-104878374D01*
X169497665Y-104889879D01*
X169486875Y-104895646D01*
X169475170Y-104899197D01*
X169456862Y-104901000D01*
X169093138Y-104901000D01*
X169074830Y-104899197D01*
X169063125Y-104895646D01*
X169052335Y-104889879D01*
X169038312Y-104878370D01*
X169029296Y-104869355D01*
X169008922Y-104855741D01*
X168986283Y-104846365D01*
X168962249Y-104841585D01*
X168937745Y-104841585D01*
X168913712Y-104846366D01*
X168891074Y-104855744D01*
X168870699Y-104869358D01*
X168861683Y-104878374D01*
X168847665Y-104889879D01*
X168836875Y-104895646D01*
X168825170Y-104899197D01*
X168806862Y-104901000D01*
X168443138Y-104901000D01*
X168424830Y-104899197D01*
X168413125Y-104895646D01*
X168402335Y-104889879D01*
X168388312Y-104878370D01*
X168379296Y-104869355D01*
X168358922Y-104855741D01*
X168336283Y-104846365D01*
X168312249Y-104841585D01*
X168287745Y-104841585D01*
X168263712Y-104846366D01*
X168241074Y-104855744D01*
X168220699Y-104869358D01*
X168211683Y-104878374D01*
X168197665Y-104889879D01*
X168186875Y-104895646D01*
X168175170Y-104899197D01*
X168156862Y-104901000D01*
X167793138Y-104901000D01*
X167774830Y-104899197D01*
X167763125Y-104895646D01*
X167752335Y-104889879D01*
X167738312Y-104878370D01*
X167729296Y-104869355D01*
X167708922Y-104855741D01*
X167686283Y-104846365D01*
X167662249Y-104841585D01*
X167637745Y-104841585D01*
X167613712Y-104846366D01*
X167591074Y-104855744D01*
X167570699Y-104869358D01*
X167561683Y-104878374D01*
X167547665Y-104889879D01*
X167536875Y-104895646D01*
X167525170Y-104899197D01*
X167506862Y-104901000D01*
X167143138Y-104901000D01*
X167124830Y-104899197D01*
X167113125Y-104895646D01*
X167102335Y-104889879D01*
X167092881Y-104882119D01*
X167085121Y-104872665D01*
X167079354Y-104861875D01*
X167075803Y-104850170D01*
X167074000Y-104831862D01*
X167074000Y-103393138D01*
X167075803Y-103374830D01*
X167079354Y-103363125D01*
X167085121Y-103352335D01*
X167092881Y-103342881D01*
X167102335Y-103335121D01*
X167113125Y-103329354D01*
X167124830Y-103325803D01*
X167143138Y-103324000D01*
X167506862Y-103324000D01*
X167525170Y-103325803D01*
G37*
G36*
X184629591Y-102053085D02*
G01*
X184663569Y-102063393D01*
X184694890Y-102080134D01*
X184722339Y-102102661D01*
X184744866Y-102130110D01*
X184761607Y-102161431D01*
X184771915Y-102195409D01*
X184776000Y-102236890D01*
X184776000Y-102838110D01*
X184771915Y-102879591D01*
X184761607Y-102913569D01*
X184744866Y-102944890D01*
X184722339Y-102972339D01*
X184694890Y-102994866D01*
X184663569Y-103011607D01*
X184629591Y-103021915D01*
X184588110Y-103026000D01*
X183911890Y-103026000D01*
X183870409Y-103021915D01*
X183836431Y-103011607D01*
X183805110Y-102994866D01*
X183777661Y-102972339D01*
X183755134Y-102944890D01*
X183738393Y-102913569D01*
X183728085Y-102879591D01*
X183724000Y-102838110D01*
X183724000Y-102236890D01*
X183728085Y-102195409D01*
X183738393Y-102161431D01*
X183755134Y-102130110D01*
X183777661Y-102102661D01*
X183805110Y-102080134D01*
X183836431Y-102063393D01*
X183870409Y-102053085D01*
X183911890Y-102049000D01*
X184588110Y-102049000D01*
X184629591Y-102053085D01*
G37*
G36*
X183129591Y-102053085D02*
G01*
X183163569Y-102063393D01*
X183194890Y-102080134D01*
X183222339Y-102102661D01*
X183244866Y-102130110D01*
X183261607Y-102161431D01*
X183271915Y-102195409D01*
X183276000Y-102236890D01*
X183276000Y-102838110D01*
X183271915Y-102879591D01*
X183261607Y-102913569D01*
X183244866Y-102944890D01*
X183222339Y-102972339D01*
X183194890Y-102994866D01*
X183163569Y-103011607D01*
X183129591Y-103021915D01*
X183088110Y-103026000D01*
X182411890Y-103026000D01*
X182370409Y-103021915D01*
X182336431Y-103011607D01*
X182305110Y-102994866D01*
X182277661Y-102972339D01*
X182255134Y-102944890D01*
X182238393Y-102913569D01*
X182228085Y-102879591D01*
X182224000Y-102838110D01*
X182224000Y-102236890D01*
X182228085Y-102195409D01*
X182238393Y-102161431D01*
X182255134Y-102130110D01*
X182277661Y-102102661D01*
X182305110Y-102080134D01*
X182336431Y-102063393D01*
X182370409Y-102053085D01*
X182411890Y-102049000D01*
X183088110Y-102049000D01*
X183129591Y-102053085D01*
G37*
G36*
X181629591Y-102053085D02*
G01*
X181663569Y-102063393D01*
X181694890Y-102080134D01*
X181722339Y-102102661D01*
X181744866Y-102130110D01*
X181761607Y-102161431D01*
X181771915Y-102195409D01*
X181776000Y-102236890D01*
X181776000Y-102838110D01*
X181771915Y-102879591D01*
X181761607Y-102913569D01*
X181744866Y-102944890D01*
X181722339Y-102972339D01*
X181694890Y-102994866D01*
X181663569Y-103011607D01*
X181629591Y-103021915D01*
X181588110Y-103026000D01*
X180911890Y-103026000D01*
X180870409Y-103021915D01*
X180836431Y-103011607D01*
X180805110Y-102994866D01*
X180777661Y-102972339D01*
X180755134Y-102944890D01*
X180738393Y-102913569D01*
X180728085Y-102879591D01*
X180724000Y-102838110D01*
X180724000Y-102236890D01*
X180728085Y-102195409D01*
X180738393Y-102161431D01*
X180755134Y-102130110D01*
X180777661Y-102102661D01*
X180805110Y-102080134D01*
X180836431Y-102063393D01*
X180870409Y-102053085D01*
X180911890Y-102049000D01*
X181588110Y-102049000D01*
X181629591Y-102053085D01*
G37*
G36*
X178629591Y-102053085D02*
G01*
X178663569Y-102063393D01*
X178694890Y-102080134D01*
X178722339Y-102102661D01*
X178744866Y-102130110D01*
X178761607Y-102161431D01*
X178771915Y-102195409D01*
X178776000Y-102236890D01*
X178776000Y-102838110D01*
X178771915Y-102879591D01*
X178761607Y-102913569D01*
X178744866Y-102944890D01*
X178722339Y-102972339D01*
X178694890Y-102994866D01*
X178663569Y-103011607D01*
X178629591Y-103021915D01*
X178588110Y-103026000D01*
X177911890Y-103026000D01*
X177870409Y-103021915D01*
X177836431Y-103011607D01*
X177805110Y-102994866D01*
X177777661Y-102972339D01*
X177755134Y-102944890D01*
X177738393Y-102913569D01*
X177728085Y-102879591D01*
X177724000Y-102838110D01*
X177724000Y-102236890D01*
X177728085Y-102195409D01*
X177738393Y-102161431D01*
X177755134Y-102130110D01*
X177777661Y-102102661D01*
X177805110Y-102080134D01*
X177836431Y-102063393D01*
X177870409Y-102053085D01*
X177911890Y-102049000D01*
X178588110Y-102049000D01*
X178629591Y-102053085D01*
G37*
G36*
X177129591Y-102053085D02*
G01*
X177163569Y-102063393D01*
X177194890Y-102080134D01*
X177222339Y-102102661D01*
X177244866Y-102130110D01*
X177261607Y-102161431D01*
X177271915Y-102195409D01*
X177276000Y-102236890D01*
X177276000Y-102838110D01*
X177271915Y-102879591D01*
X177261607Y-102913569D01*
X177244866Y-102944890D01*
X177222339Y-102972339D01*
X177194890Y-102994866D01*
X177163569Y-103011607D01*
X177129591Y-103021915D01*
X177088110Y-103026000D01*
X176411890Y-103026000D01*
X176370409Y-103021915D01*
X176336431Y-103011607D01*
X176305110Y-102994866D01*
X176277661Y-102972339D01*
X176255134Y-102944890D01*
X176238393Y-102913569D01*
X176228085Y-102879591D01*
X176224000Y-102838110D01*
X176224000Y-102236890D01*
X176228085Y-102195409D01*
X176238393Y-102161431D01*
X176255134Y-102130110D01*
X176277661Y-102102661D01*
X176305110Y-102080134D01*
X176336431Y-102063393D01*
X176370409Y-102053085D01*
X176411890Y-102049000D01*
X177088110Y-102049000D01*
X177129591Y-102053085D01*
G37*
G36*
X180129591Y-102053085D02*
G01*
X180163569Y-102063393D01*
X180194890Y-102080134D01*
X180222339Y-102102661D01*
X180244866Y-102130110D01*
X180261607Y-102161431D01*
X180271915Y-102195409D01*
X180276000Y-102236890D01*
X180276000Y-102838110D01*
X180271915Y-102879591D01*
X180261607Y-102913569D01*
X180244866Y-102944890D01*
X180222339Y-102972339D01*
X180194890Y-102994866D01*
X180163569Y-103011607D01*
X180129591Y-103021915D01*
X180088110Y-103026000D01*
X179411890Y-103026000D01*
X179370409Y-103021915D01*
X179336431Y-103011607D01*
X179305110Y-102994866D01*
X179277661Y-102972339D01*
X179255134Y-102944890D01*
X179238393Y-102913569D01*
X179228085Y-102879591D01*
X179224000Y-102838110D01*
X179224000Y-102236890D01*
X179228085Y-102195409D01*
X179238393Y-102161431D01*
X179255134Y-102130110D01*
X179277661Y-102102661D01*
X179305110Y-102080134D01*
X179336431Y-102063393D01*
X179370409Y-102053085D01*
X179411890Y-102049000D01*
X180088110Y-102049000D01*
X180129591Y-102053085D01*
G37*
G36*
X183129591Y-100478085D02*
G01*
X183163569Y-100488393D01*
X183194890Y-100505134D01*
X183222339Y-100527661D01*
X183244866Y-100555110D01*
X183261607Y-100586431D01*
X183271915Y-100620409D01*
X183276000Y-100661890D01*
X183276000Y-101263110D01*
X183271915Y-101304591D01*
X183261607Y-101338569D01*
X183244866Y-101369890D01*
X183222339Y-101397339D01*
X183194890Y-101419866D01*
X183163569Y-101436607D01*
X183129591Y-101446915D01*
X183088110Y-101451000D01*
X182411890Y-101451000D01*
X182370409Y-101446915D01*
X182336431Y-101436607D01*
X182305110Y-101419866D01*
X182277661Y-101397339D01*
X182255134Y-101369890D01*
X182238393Y-101338569D01*
X182228085Y-101304591D01*
X182224000Y-101263110D01*
X182224000Y-100661890D01*
X182228085Y-100620409D01*
X182238393Y-100586431D01*
X182255134Y-100555110D01*
X182277661Y-100527661D01*
X182305110Y-100505134D01*
X182336431Y-100488393D01*
X182370409Y-100478085D01*
X182411890Y-100474000D01*
X183088110Y-100474000D01*
X183129591Y-100478085D01*
G37*
G36*
X184629591Y-100478085D02*
G01*
X184663569Y-100488393D01*
X184694890Y-100505134D01*
X184722339Y-100527661D01*
X184744866Y-100555110D01*
X184761607Y-100586431D01*
X184771915Y-100620409D01*
X184776000Y-100661890D01*
X184776000Y-101263110D01*
X184771915Y-101304591D01*
X184761607Y-101338569D01*
X184744866Y-101369890D01*
X184722339Y-101397339D01*
X184694890Y-101419866D01*
X184663569Y-101436607D01*
X184629591Y-101446915D01*
X184588110Y-101451000D01*
X183911890Y-101451000D01*
X183870409Y-101446915D01*
X183836431Y-101436607D01*
X183805110Y-101419866D01*
X183777661Y-101397339D01*
X183755134Y-101369890D01*
X183738393Y-101338569D01*
X183728085Y-101304591D01*
X183724000Y-101263110D01*
X183724000Y-100661890D01*
X183728085Y-100620409D01*
X183738393Y-100586431D01*
X183755134Y-100555110D01*
X183777661Y-100527661D01*
X183805110Y-100505134D01*
X183836431Y-100488393D01*
X183870409Y-100478085D01*
X183911890Y-100474000D01*
X184588110Y-100474000D01*
X184629591Y-100478085D01*
G37*
G36*
X181629591Y-100478085D02*
G01*
X181663569Y-100488393D01*
X181694890Y-100505134D01*
X181722339Y-100527661D01*
X181744866Y-100555110D01*
X181761607Y-100586431D01*
X181771915Y-100620409D01*
X181776000Y-100661890D01*
X181776000Y-101263110D01*
X181771915Y-101304591D01*
X181761607Y-101338569D01*
X181744866Y-101369890D01*
X181722339Y-101397339D01*
X181694890Y-101419866D01*
X181663569Y-101436607D01*
X181629591Y-101446915D01*
X181588110Y-101451000D01*
X180911890Y-101451000D01*
X180870409Y-101446915D01*
X180836431Y-101436607D01*
X180805110Y-101419866D01*
X180777661Y-101397339D01*
X180755134Y-101369890D01*
X180738393Y-101338569D01*
X180728085Y-101304591D01*
X180724000Y-101263110D01*
X180724000Y-100661890D01*
X180728085Y-100620409D01*
X180738393Y-100586431D01*
X180755134Y-100555110D01*
X180777661Y-100527661D01*
X180805110Y-100505134D01*
X180836431Y-100488393D01*
X180870409Y-100478085D01*
X180911890Y-100474000D01*
X181588110Y-100474000D01*
X181629591Y-100478085D01*
G37*
G36*
X180129591Y-100478085D02*
G01*
X180163569Y-100488393D01*
X180194890Y-100505134D01*
X180222339Y-100527661D01*
X180244866Y-100555110D01*
X180261607Y-100586431D01*
X180271915Y-100620409D01*
X180276000Y-100661890D01*
X180276000Y-101263110D01*
X180271915Y-101304591D01*
X180261607Y-101338569D01*
X180244866Y-101369890D01*
X180222339Y-101397339D01*
X180194890Y-101419866D01*
X180163569Y-101436607D01*
X180129591Y-101446915D01*
X180088110Y-101451000D01*
X179411890Y-101451000D01*
X179370409Y-101446915D01*
X179336431Y-101436607D01*
X179305110Y-101419866D01*
X179277661Y-101397339D01*
X179255134Y-101369890D01*
X179238393Y-101338569D01*
X179228085Y-101304591D01*
X179224000Y-101263110D01*
X179224000Y-100661890D01*
X179228085Y-100620409D01*
X179238393Y-100586431D01*
X179255134Y-100555110D01*
X179277661Y-100527661D01*
X179305110Y-100505134D01*
X179336431Y-100488393D01*
X179370409Y-100478085D01*
X179411890Y-100474000D01*
X180088110Y-100474000D01*
X180129591Y-100478085D01*
G37*
G36*
X177129591Y-100478085D02*
G01*
X177163569Y-100488393D01*
X177194890Y-100505134D01*
X177222339Y-100527661D01*
X177244866Y-100555110D01*
X177261607Y-100586431D01*
X177271915Y-100620409D01*
X177276000Y-100661890D01*
X177276000Y-101263110D01*
X177271915Y-101304591D01*
X177261607Y-101338569D01*
X177244866Y-101369890D01*
X177222339Y-101397339D01*
X177194890Y-101419866D01*
X177163569Y-101436607D01*
X177129591Y-101446915D01*
X177088110Y-101451000D01*
X176411890Y-101451000D01*
X176370409Y-101446915D01*
X176336431Y-101436607D01*
X176305110Y-101419866D01*
X176277661Y-101397339D01*
X176255134Y-101369890D01*
X176238393Y-101338569D01*
X176228085Y-101304591D01*
X176224000Y-101263110D01*
X176224000Y-100661890D01*
X176228085Y-100620409D01*
X176238393Y-100586431D01*
X176255134Y-100555110D01*
X176277661Y-100527661D01*
X176305110Y-100505134D01*
X176336431Y-100488393D01*
X176370409Y-100478085D01*
X176411890Y-100474000D01*
X177088110Y-100474000D01*
X177129591Y-100478085D01*
G37*
G36*
X178629591Y-100478085D02*
G01*
X178663569Y-100488393D01*
X178694890Y-100505134D01*
X178722339Y-100527661D01*
X178744866Y-100555110D01*
X178761607Y-100586431D01*
X178771915Y-100620409D01*
X178776000Y-100661890D01*
X178776000Y-101263110D01*
X178771915Y-101304591D01*
X178761607Y-101338569D01*
X178744866Y-101369890D01*
X178722339Y-101397339D01*
X178694890Y-101419866D01*
X178663569Y-101436607D01*
X178629591Y-101446915D01*
X178588110Y-101451000D01*
X177911890Y-101451000D01*
X177870409Y-101446915D01*
X177836431Y-101436607D01*
X177805110Y-101419866D01*
X177777661Y-101397339D01*
X177755134Y-101369890D01*
X177738393Y-101338569D01*
X177728085Y-101304591D01*
X177724000Y-101263110D01*
X177724000Y-100661890D01*
X177728085Y-100620409D01*
X177738393Y-100586431D01*
X177755134Y-100555110D01*
X177777661Y-100527661D01*
X177805110Y-100505134D01*
X177836431Y-100488393D01*
X177870409Y-100478085D01*
X177911890Y-100474000D01*
X178588110Y-100474000D01*
X178629591Y-100478085D01*
G37*
G36*
X175179591Y-99103085D02*
G01*
X175213569Y-99113393D01*
X175244890Y-99130134D01*
X175272339Y-99152661D01*
X175294866Y-99180110D01*
X175311607Y-99211431D01*
X175321915Y-99245409D01*
X175326000Y-99286890D01*
X175326000Y-99888110D01*
X175321915Y-99929591D01*
X175311607Y-99963569D01*
X175294866Y-99994890D01*
X175272339Y-100022339D01*
X175244890Y-100044866D01*
X175213569Y-100061607D01*
X175179591Y-100071915D01*
X175138110Y-100076000D01*
X174461890Y-100076000D01*
X174420409Y-100071915D01*
X174386431Y-100061607D01*
X174355110Y-100044866D01*
X174327661Y-100022339D01*
X174305134Y-99994890D01*
X174288393Y-99963569D01*
X174278085Y-99929591D01*
X174274000Y-99888110D01*
X174274000Y-99286890D01*
X174278085Y-99245409D01*
X174288393Y-99211431D01*
X174305134Y-99180110D01*
X174327661Y-99152661D01*
X174355110Y-99130134D01*
X174386431Y-99113393D01*
X174420409Y-99103085D01*
X174461890Y-99099000D01*
X175138110Y-99099000D01*
X175179591Y-99103085D01*
G37*
G36*
X173629591Y-99103085D02*
G01*
X173663569Y-99113393D01*
X173694890Y-99130134D01*
X173722339Y-99152661D01*
X173744866Y-99180110D01*
X173761607Y-99211431D01*
X173771915Y-99245409D01*
X173776000Y-99286890D01*
X173776000Y-99888110D01*
X173771915Y-99929591D01*
X173761607Y-99963569D01*
X173744866Y-99994890D01*
X173722339Y-100022339D01*
X173694890Y-100044866D01*
X173663569Y-100061607D01*
X173629591Y-100071915D01*
X173588110Y-100076000D01*
X172911890Y-100076000D01*
X172870409Y-100071915D01*
X172836431Y-100061607D01*
X172805110Y-100044866D01*
X172777661Y-100022339D01*
X172755134Y-99994890D01*
X172738393Y-99963569D01*
X172728085Y-99929591D01*
X172724000Y-99888110D01*
X172724000Y-99286890D01*
X172728085Y-99245409D01*
X172738393Y-99211431D01*
X172755134Y-99180110D01*
X172777661Y-99152661D01*
X172805110Y-99130134D01*
X172836431Y-99113393D01*
X172870409Y-99103085D01*
X172911890Y-99099000D01*
X173588110Y-99099000D01*
X173629591Y-99103085D01*
G37*
G36*
X166301000Y-99201000D02*
G01*
X163699000Y-99201000D01*
X163699000Y-97299000D01*
X166301000Y-97299000D01*
X166301000Y-99201000D01*
G37*
G36*
X162301000Y-99201000D02*
G01*
X159699000Y-99201000D01*
X159699000Y-97299000D01*
X162301000Y-97299000D01*
X162301000Y-99201000D01*
G37*
G36*
X167525170Y-97600803D02*
G01*
X167536875Y-97604354D01*
X167547665Y-97610121D01*
X167561688Y-97621630D01*
X167570704Y-97630645D01*
X167591078Y-97644259D01*
X167613717Y-97653635D01*
X167637751Y-97658415D01*
X167662255Y-97658415D01*
X167686288Y-97653634D01*
X167708926Y-97644256D01*
X167729301Y-97630642D01*
X167738317Y-97621626D01*
X167752335Y-97610121D01*
X167763125Y-97604354D01*
X167774830Y-97600803D01*
X167793138Y-97599000D01*
X168156862Y-97599000D01*
X168175170Y-97600803D01*
X168186875Y-97604354D01*
X168197665Y-97610121D01*
X168211688Y-97621630D01*
X168220704Y-97630645D01*
X168241078Y-97644259D01*
X168263717Y-97653635D01*
X168287751Y-97658415D01*
X168312255Y-97658415D01*
X168336288Y-97653634D01*
X168358926Y-97644256D01*
X168379301Y-97630642D01*
X168388317Y-97621626D01*
X168402335Y-97610121D01*
X168413125Y-97604354D01*
X168424830Y-97600803D01*
X168443138Y-97599000D01*
X168806862Y-97599000D01*
X168825170Y-97600803D01*
X168836875Y-97604354D01*
X168847665Y-97610121D01*
X168861688Y-97621630D01*
X168870704Y-97630645D01*
X168891078Y-97644259D01*
X168913717Y-97653635D01*
X168937751Y-97658415D01*
X168962255Y-97658415D01*
X168986288Y-97653634D01*
X169008926Y-97644256D01*
X169029301Y-97630642D01*
X169038317Y-97621626D01*
X169052335Y-97610121D01*
X169063125Y-97604354D01*
X169074830Y-97600803D01*
X169093138Y-97599000D01*
X169456862Y-97599000D01*
X169475170Y-97600803D01*
X169486875Y-97604354D01*
X169497665Y-97610121D01*
X169511688Y-97621630D01*
X169520704Y-97630645D01*
X169541078Y-97644259D01*
X169563717Y-97653635D01*
X169587751Y-97658415D01*
X169612255Y-97658415D01*
X169636288Y-97653634D01*
X169658926Y-97644256D01*
X169679301Y-97630642D01*
X169688317Y-97621626D01*
X169702335Y-97610121D01*
X169713125Y-97604354D01*
X169724830Y-97600803D01*
X169743138Y-97599000D01*
X170106862Y-97599000D01*
X170125170Y-97600803D01*
X170136875Y-97604354D01*
X170147665Y-97610121D01*
X170161688Y-97621630D01*
X170170704Y-97630645D01*
X170191078Y-97644259D01*
X170213717Y-97653635D01*
X170237751Y-97658415D01*
X170262255Y-97658415D01*
X170286288Y-97653634D01*
X170308926Y-97644256D01*
X170329301Y-97630642D01*
X170338317Y-97621626D01*
X170352335Y-97610121D01*
X170363125Y-97604354D01*
X170374830Y-97600803D01*
X170393138Y-97599000D01*
X170756862Y-97599000D01*
X170775170Y-97600803D01*
X170786875Y-97604354D01*
X170797665Y-97610121D01*
X170811688Y-97621630D01*
X170820704Y-97630645D01*
X170841078Y-97644259D01*
X170863717Y-97653635D01*
X170887751Y-97658415D01*
X170912255Y-97658415D01*
X170936288Y-97653634D01*
X170958926Y-97644256D01*
X170979301Y-97630642D01*
X170988317Y-97621626D01*
X171002335Y-97610121D01*
X171013125Y-97604354D01*
X171024830Y-97600803D01*
X171043138Y-97599000D01*
X171406862Y-97599000D01*
X171425170Y-97600803D01*
X171436875Y-97604354D01*
X171447665Y-97610121D01*
X171461688Y-97621630D01*
X171470704Y-97630645D01*
X171491078Y-97644259D01*
X171513717Y-97653635D01*
X171537751Y-97658415D01*
X171562255Y-97658415D01*
X171586288Y-97653634D01*
X171608926Y-97644256D01*
X171629301Y-97630642D01*
X171638317Y-97621626D01*
X171652335Y-97610121D01*
X171663125Y-97604354D01*
X171674830Y-97600803D01*
X171693138Y-97599000D01*
X172056862Y-97599000D01*
X172075170Y-97600803D01*
X172086875Y-97604354D01*
X172097665Y-97610121D01*
X172107119Y-97617881D01*
X172114879Y-97627335D01*
X172120646Y-97638125D01*
X172124197Y-97649830D01*
X172126000Y-97668138D01*
X172126000Y-99106862D01*
X172124197Y-99125170D01*
X172120646Y-99136875D01*
X172114879Y-99147665D01*
X172107119Y-99157119D01*
X172097665Y-99164879D01*
X172086875Y-99170646D01*
X172075170Y-99174197D01*
X172056862Y-99176000D01*
X171693138Y-99176000D01*
X171674830Y-99174197D01*
X171663125Y-99170646D01*
X171652335Y-99164879D01*
X171638312Y-99153370D01*
X171629296Y-99144355D01*
X171608922Y-99130741D01*
X171586283Y-99121365D01*
X171562249Y-99116585D01*
X171537745Y-99116585D01*
X171513712Y-99121366D01*
X171491074Y-99130744D01*
X171470699Y-99144358D01*
X171461683Y-99153374D01*
X171447665Y-99164879D01*
X171436875Y-99170646D01*
X171425170Y-99174197D01*
X171406862Y-99176000D01*
X171043138Y-99176000D01*
X171024830Y-99174197D01*
X171013125Y-99170646D01*
X171002335Y-99164879D01*
X170988312Y-99153370D01*
X170979296Y-99144355D01*
X170958922Y-99130741D01*
X170936283Y-99121365D01*
X170912249Y-99116585D01*
X170887745Y-99116585D01*
X170863712Y-99121366D01*
X170841074Y-99130744D01*
X170820699Y-99144358D01*
X170811683Y-99153374D01*
X170797665Y-99164879D01*
X170786875Y-99170646D01*
X170775170Y-99174197D01*
X170756862Y-99176000D01*
X170393138Y-99176000D01*
X170374830Y-99174197D01*
X170363125Y-99170646D01*
X170352335Y-99164879D01*
X170338312Y-99153370D01*
X170329296Y-99144355D01*
X170308922Y-99130741D01*
X170286283Y-99121365D01*
X170262249Y-99116585D01*
X170237745Y-99116585D01*
X170213712Y-99121366D01*
X170191074Y-99130744D01*
X170170699Y-99144358D01*
X170161683Y-99153374D01*
X170147665Y-99164879D01*
X170136875Y-99170646D01*
X170125170Y-99174197D01*
X170106862Y-99176000D01*
X169743138Y-99176000D01*
X169724830Y-99174197D01*
X169713125Y-99170646D01*
X169702335Y-99164879D01*
X169688312Y-99153370D01*
X169679296Y-99144355D01*
X169658922Y-99130741D01*
X169636283Y-99121365D01*
X169612249Y-99116585D01*
X169587745Y-99116585D01*
X169563712Y-99121366D01*
X169541074Y-99130744D01*
X169520699Y-99144358D01*
X169511683Y-99153374D01*
X169497665Y-99164879D01*
X169486875Y-99170646D01*
X169475170Y-99174197D01*
X169456862Y-99176000D01*
X169093138Y-99176000D01*
X169074830Y-99174197D01*
X169063125Y-99170646D01*
X169052335Y-99164879D01*
X169038312Y-99153370D01*
X169029296Y-99144355D01*
X169008922Y-99130741D01*
X168986283Y-99121365D01*
X168962249Y-99116585D01*
X168937745Y-99116585D01*
X168913712Y-99121366D01*
X168891074Y-99130744D01*
X168870699Y-99144358D01*
X168861683Y-99153374D01*
X168847665Y-99164879D01*
X168836875Y-99170646D01*
X168825170Y-99174197D01*
X168806862Y-99176000D01*
X168443138Y-99176000D01*
X168424830Y-99174197D01*
X168413125Y-99170646D01*
X168402335Y-99164879D01*
X168388312Y-99153370D01*
X168379296Y-99144355D01*
X168358922Y-99130741D01*
X168336283Y-99121365D01*
X168312249Y-99116585D01*
X168287745Y-99116585D01*
X168263712Y-99121366D01*
X168241074Y-99130744D01*
X168220699Y-99144358D01*
X168211683Y-99153374D01*
X168197665Y-99164879D01*
X168186875Y-99170646D01*
X168175170Y-99174197D01*
X168156862Y-99176000D01*
X167793138Y-99176000D01*
X167774830Y-99174197D01*
X167763125Y-99170646D01*
X167752335Y-99164879D01*
X167738312Y-99153370D01*
X167729296Y-99144355D01*
X167708922Y-99130741D01*
X167686283Y-99121365D01*
X167662249Y-99116585D01*
X167637745Y-99116585D01*
X167613712Y-99121366D01*
X167591074Y-99130744D01*
X167570699Y-99144358D01*
X167561683Y-99153374D01*
X167547665Y-99164879D01*
X167536875Y-99170646D01*
X167525170Y-99174197D01*
X167506862Y-99176000D01*
X167143138Y-99176000D01*
X167124830Y-99174197D01*
X167113125Y-99170646D01*
X167102335Y-99164879D01*
X167092881Y-99157119D01*
X167085121Y-99147665D01*
X167079354Y-99136875D01*
X167075803Y-99125170D01*
X167074000Y-99106862D01*
X167074000Y-97668138D01*
X167075803Y-97649830D01*
X167079354Y-97638125D01*
X167085121Y-97627335D01*
X167092881Y-97617881D01*
X167102335Y-97610121D01*
X167113125Y-97604354D01*
X167124830Y-97600803D01*
X167143138Y-97599000D01*
X167506862Y-97599000D01*
X167525170Y-97600803D01*
G37*
G36*
X175179591Y-97528085D02*
G01*
X175213569Y-97538393D01*
X175244890Y-97555134D01*
X175272339Y-97577661D01*
X175294866Y-97605110D01*
X175311607Y-97636431D01*
X175321915Y-97670409D01*
X175326000Y-97711890D01*
X175326000Y-98313110D01*
X175321915Y-98354591D01*
X175311607Y-98388569D01*
X175294866Y-98419890D01*
X175272339Y-98447339D01*
X175244890Y-98469866D01*
X175213569Y-98486607D01*
X175179591Y-98496915D01*
X175138110Y-98501000D01*
X174461890Y-98501000D01*
X174420409Y-98496915D01*
X174386431Y-98486607D01*
X174355110Y-98469866D01*
X174327661Y-98447339D01*
X174305134Y-98419890D01*
X174288393Y-98388569D01*
X174278085Y-98354591D01*
X174274000Y-98313110D01*
X174274000Y-97711890D01*
X174278085Y-97670409D01*
X174288393Y-97636431D01*
X174305134Y-97605110D01*
X174327661Y-97577661D01*
X174355110Y-97555134D01*
X174386431Y-97538393D01*
X174420409Y-97528085D01*
X174461890Y-97524000D01*
X175138110Y-97524000D01*
X175179591Y-97528085D01*
G37*
G36*
X173629591Y-97528085D02*
G01*
X173663569Y-97538393D01*
X173694890Y-97555134D01*
X173722339Y-97577661D01*
X173744866Y-97605110D01*
X173761607Y-97636431D01*
X173771915Y-97670409D01*
X173776000Y-97711890D01*
X173776000Y-98313110D01*
X173771915Y-98354591D01*
X173761607Y-98388569D01*
X173744866Y-98419890D01*
X173722339Y-98447339D01*
X173694890Y-98469866D01*
X173663569Y-98486607D01*
X173629591Y-98496915D01*
X173588110Y-98501000D01*
X172911890Y-98501000D01*
X172870409Y-98496915D01*
X172836431Y-98486607D01*
X172805110Y-98469866D01*
X172777661Y-98447339D01*
X172755134Y-98419890D01*
X172738393Y-98388569D01*
X172728085Y-98354591D01*
X172724000Y-98313110D01*
X172724000Y-97711890D01*
X172728085Y-97670409D01*
X172738393Y-97636431D01*
X172755134Y-97605110D01*
X172777661Y-97577661D01*
X172805110Y-97555134D01*
X172836431Y-97538393D01*
X172870409Y-97528085D01*
X172911890Y-97524000D01*
X173588110Y-97524000D01*
X173629591Y-97528085D01*
G37*
G36*
X180629591Y-94553085D02*
G01*
X180663569Y-94563393D01*
X180694890Y-94580134D01*
X180722339Y-94602661D01*
X180744866Y-94630110D01*
X180761607Y-94661431D01*
X180771915Y-94695409D01*
X180776000Y-94736890D01*
X180776000Y-95338110D01*
X180771915Y-95379591D01*
X180761607Y-95413569D01*
X180744866Y-95444890D01*
X180722339Y-95472339D01*
X180694890Y-95494866D01*
X180663569Y-95511607D01*
X180629591Y-95521915D01*
X180588110Y-95526000D01*
X179911890Y-95526000D01*
X179870409Y-95521915D01*
X179836431Y-95511607D01*
X179805110Y-95494866D01*
X179777661Y-95472339D01*
X179755134Y-95444890D01*
X179738393Y-95413569D01*
X179728085Y-95379591D01*
X179724000Y-95338110D01*
X179724000Y-94736890D01*
X179728085Y-94695409D01*
X179738393Y-94661431D01*
X179755134Y-94630110D01*
X179777661Y-94602661D01*
X179805110Y-94580134D01*
X179836431Y-94563393D01*
X179870409Y-94553085D01*
X179911890Y-94549000D01*
X180588110Y-94549000D01*
X180629591Y-94553085D01*
G37*
G36*
X179129591Y-94553085D02*
G01*
X179163569Y-94563393D01*
X179194890Y-94580134D01*
X179222339Y-94602661D01*
X179244866Y-94630110D01*
X179261607Y-94661431D01*
X179271915Y-94695409D01*
X179276000Y-94736890D01*
X179276000Y-95338110D01*
X179271915Y-95379591D01*
X179261607Y-95413569D01*
X179244866Y-95444890D01*
X179222339Y-95472339D01*
X179194890Y-95494866D01*
X179163569Y-95511607D01*
X179129591Y-95521915D01*
X179088110Y-95526000D01*
X178411890Y-95526000D01*
X178370409Y-95521915D01*
X178336431Y-95511607D01*
X178305110Y-95494866D01*
X178277661Y-95472339D01*
X178255134Y-95444890D01*
X178238393Y-95413569D01*
X178228085Y-95379591D01*
X178224000Y-95338110D01*
X178224000Y-94736890D01*
X178228085Y-94695409D01*
X178238393Y-94661431D01*
X178255134Y-94630110D01*
X178277661Y-94602661D01*
X178305110Y-94580134D01*
X178336431Y-94563393D01*
X178370409Y-94553085D01*
X178411890Y-94549000D01*
X179088110Y-94549000D01*
X179129591Y-94553085D01*
G37*
G36*
X182129591Y-94553085D02*
G01*
X182163569Y-94563393D01*
X182194890Y-94580134D01*
X182222339Y-94602661D01*
X182244866Y-94630110D01*
X182261607Y-94661431D01*
X182271915Y-94695409D01*
X182276000Y-94736890D01*
X182276000Y-95338110D01*
X182271915Y-95379591D01*
X182261607Y-95413569D01*
X182244866Y-95444890D01*
X182222339Y-95472339D01*
X182194890Y-95494866D01*
X182163569Y-95511607D01*
X182129591Y-95521915D01*
X182088110Y-95526000D01*
X181411890Y-95526000D01*
X181370409Y-95521915D01*
X181336431Y-95511607D01*
X181305110Y-95494866D01*
X181277661Y-95472339D01*
X181255134Y-95444890D01*
X181238393Y-95413569D01*
X181228085Y-95379591D01*
X181224000Y-95338110D01*
X181224000Y-94736890D01*
X181228085Y-94695409D01*
X181238393Y-94661431D01*
X181255134Y-94630110D01*
X181277661Y-94602661D01*
X181305110Y-94580134D01*
X181336431Y-94563393D01*
X181370409Y-94553085D01*
X181411890Y-94549000D01*
X182088110Y-94549000D01*
X182129591Y-94553085D01*
G37*
G36*
X162513512Y-93723927D02*
G01*
X162662812Y-93753624D01*
X162826784Y-93821544D01*
X162974354Y-93920147D01*
X163099853Y-94045646D01*
X163198456Y-94193216D01*
X163266376Y-94357188D01*
X163301000Y-94531259D01*
X163301000Y-94708741D01*
X163266376Y-94882812D01*
X163198456Y-95046784D01*
X163099853Y-95194354D01*
X162974354Y-95319853D01*
X162826784Y-95418456D01*
X162662812Y-95486376D01*
X162513512Y-95516073D01*
X162488742Y-95521000D01*
X162311258Y-95521000D01*
X162286488Y-95516073D01*
X162137188Y-95486376D01*
X161973216Y-95418456D01*
X161825646Y-95319853D01*
X161700147Y-95194354D01*
X161601544Y-95046784D01*
X161533624Y-94882812D01*
X161499000Y-94708741D01*
X161499000Y-94531259D01*
X161533624Y-94357188D01*
X161601544Y-94193216D01*
X161700147Y-94045646D01*
X161825646Y-93920147D01*
X161973216Y-93821544D01*
X162137188Y-93753624D01*
X162286488Y-93723927D01*
X162311258Y-93719000D01*
X162488742Y-93719000D01*
X162513512Y-93723927D01*
G37*
G36*
X167879591Y-93303085D02*
G01*
X167913569Y-93313393D01*
X167944890Y-93330134D01*
X167972339Y-93352661D01*
X167994866Y-93380110D01*
X168011607Y-93411431D01*
X168021915Y-93445409D01*
X168026000Y-93486890D01*
X168026000Y-94088110D01*
X168021915Y-94129591D01*
X168011607Y-94163569D01*
X167994866Y-94194890D01*
X167972339Y-94222339D01*
X167944890Y-94244866D01*
X167913569Y-94261607D01*
X167879591Y-94271915D01*
X167838110Y-94276000D01*
X167161890Y-94276000D01*
X167120409Y-94271915D01*
X167086431Y-94261607D01*
X167055110Y-94244866D01*
X167027661Y-94222339D01*
X167005134Y-94194890D01*
X166988393Y-94163569D01*
X166978085Y-94129591D01*
X166974000Y-94088110D01*
X166974000Y-93486890D01*
X166978085Y-93445409D01*
X166988393Y-93411431D01*
X167005134Y-93380110D01*
X167027661Y-93352661D01*
X167055110Y-93330134D01*
X167086431Y-93313393D01*
X167120409Y-93303085D01*
X167161890Y-93299000D01*
X167838110Y-93299000D01*
X167879591Y-93303085D01*
G37*
G36*
X170879591Y-93303085D02*
G01*
X170913569Y-93313393D01*
X170944890Y-93330134D01*
X170972339Y-93352661D01*
X170994866Y-93380110D01*
X171011607Y-93411431D01*
X171021915Y-93445409D01*
X171026000Y-93486890D01*
X171026000Y-94088110D01*
X171021915Y-94129591D01*
X171011607Y-94163569D01*
X170994866Y-94194890D01*
X170972339Y-94222339D01*
X170944890Y-94244866D01*
X170913569Y-94261607D01*
X170879591Y-94271915D01*
X170838110Y-94276000D01*
X170161890Y-94276000D01*
X170120409Y-94271915D01*
X170086431Y-94261607D01*
X170055110Y-94244866D01*
X170027661Y-94222339D01*
X170005134Y-94194890D01*
X169988393Y-94163569D01*
X169978085Y-94129591D01*
X169974000Y-94088110D01*
X169974000Y-93486890D01*
X169978085Y-93445409D01*
X169988393Y-93411431D01*
X170005134Y-93380110D01*
X170027661Y-93352661D01*
X170055110Y-93330134D01*
X170086431Y-93313393D01*
X170120409Y-93303085D01*
X170161890Y-93299000D01*
X170838110Y-93299000D01*
X170879591Y-93303085D01*
G37*
G36*
X169379591Y-93303085D02*
G01*
X169413569Y-93313393D01*
X169444890Y-93330134D01*
X169472339Y-93352661D01*
X169494866Y-93380110D01*
X169511607Y-93411431D01*
X169521915Y-93445409D01*
X169526000Y-93486890D01*
X169526000Y-94088110D01*
X169521915Y-94129591D01*
X169511607Y-94163569D01*
X169494866Y-94194890D01*
X169472339Y-94222339D01*
X169444890Y-94244866D01*
X169413569Y-94261607D01*
X169379591Y-94271915D01*
X169338110Y-94276000D01*
X168661890Y-94276000D01*
X168620409Y-94271915D01*
X168586431Y-94261607D01*
X168555110Y-94244866D01*
X168527661Y-94222339D01*
X168505134Y-94194890D01*
X168488393Y-94163569D01*
X168478085Y-94129591D01*
X168474000Y-94088110D01*
X168474000Y-93486890D01*
X168478085Y-93445409D01*
X168488393Y-93411431D01*
X168505134Y-93380110D01*
X168527661Y-93352661D01*
X168555110Y-93330134D01*
X168586431Y-93313393D01*
X168620409Y-93303085D01*
X168661890Y-93299000D01*
X169338110Y-93299000D01*
X169379591Y-93303085D01*
G37*
G36*
X173065355Y-88225083D02*
G01*
X173070029Y-88226501D01*
X173074330Y-88228800D01*
X173080702Y-88234029D01*
X173101076Y-88247643D01*
X173123715Y-88257020D01*
X173147749Y-88261800D01*
X173172253Y-88261800D01*
X173196286Y-88257019D01*
X173218925Y-88247642D01*
X173239298Y-88234029D01*
X173245670Y-88228800D01*
X173249971Y-88226501D01*
X173254645Y-88225083D01*
X173265641Y-88224000D01*
X173554359Y-88224000D01*
X173565355Y-88225083D01*
X173570029Y-88226501D01*
X173574330Y-88228800D01*
X173580702Y-88234029D01*
X173601076Y-88247643D01*
X173623715Y-88257020D01*
X173647749Y-88261800D01*
X173672253Y-88261800D01*
X173696286Y-88257019D01*
X173718925Y-88247642D01*
X173739298Y-88234029D01*
X173745670Y-88228800D01*
X173749971Y-88226501D01*
X173754645Y-88225083D01*
X173765641Y-88224000D01*
X174054359Y-88224000D01*
X174065355Y-88225083D01*
X174070029Y-88226501D01*
X174074330Y-88228800D01*
X174080702Y-88234029D01*
X174101076Y-88247643D01*
X174123715Y-88257020D01*
X174147749Y-88261800D01*
X174172253Y-88261800D01*
X174196286Y-88257019D01*
X174218925Y-88247642D01*
X174239298Y-88234029D01*
X174245670Y-88228800D01*
X174249971Y-88226501D01*
X174254645Y-88225083D01*
X174265641Y-88224000D01*
X174554359Y-88224000D01*
X174565355Y-88225083D01*
X174570029Y-88226501D01*
X174574330Y-88228800D01*
X174580702Y-88234029D01*
X174601076Y-88247643D01*
X174623715Y-88257020D01*
X174647749Y-88261800D01*
X174672253Y-88261800D01*
X174696286Y-88257019D01*
X174718925Y-88247642D01*
X174739298Y-88234029D01*
X174745670Y-88228800D01*
X174749971Y-88226501D01*
X174754645Y-88225083D01*
X174765641Y-88224000D01*
X175054359Y-88224000D01*
X175065355Y-88225083D01*
X175070029Y-88226501D01*
X175074330Y-88228800D01*
X175080702Y-88234029D01*
X175101076Y-88247643D01*
X175123715Y-88257020D01*
X175147749Y-88261800D01*
X175172253Y-88261800D01*
X175196286Y-88257019D01*
X175218925Y-88247642D01*
X175239298Y-88234029D01*
X175245670Y-88228800D01*
X175249971Y-88226501D01*
X175254645Y-88225083D01*
X175265641Y-88224000D01*
X175554359Y-88224000D01*
X175565355Y-88225083D01*
X175570029Y-88226501D01*
X175574330Y-88228800D01*
X175580702Y-88234029D01*
X175601076Y-88247643D01*
X175623715Y-88257020D01*
X175647749Y-88261800D01*
X175672253Y-88261800D01*
X175696286Y-88257019D01*
X175718925Y-88247642D01*
X175739298Y-88234029D01*
X175745670Y-88228800D01*
X175749971Y-88226501D01*
X175754645Y-88225083D01*
X175765641Y-88224000D01*
X176054359Y-88224000D01*
X176065355Y-88225083D01*
X176070029Y-88226501D01*
X176074330Y-88228800D01*
X176080702Y-88234029D01*
X176101076Y-88247643D01*
X176123715Y-88257020D01*
X176147749Y-88261800D01*
X176172253Y-88261800D01*
X176196286Y-88257019D01*
X176218925Y-88247642D01*
X176239298Y-88234029D01*
X176245670Y-88228800D01*
X176249971Y-88226501D01*
X176254645Y-88225083D01*
X176265641Y-88224000D01*
X176554359Y-88224000D01*
X176565355Y-88225083D01*
X176570029Y-88226501D01*
X176574331Y-88228800D01*
X176578104Y-88231896D01*
X176581200Y-88235669D01*
X176583499Y-88239971D01*
X176584917Y-88244645D01*
X176586000Y-88255641D01*
X176586000Y-89099001D01*
X176588402Y-89123387D01*
X176595515Y-89146836D01*
X176607066Y-89168447D01*
X176622611Y-89187389D01*
X176641553Y-89202934D01*
X176663164Y-89214485D01*
X176686613Y-89221598D01*
X176710999Y-89224000D01*
X177554359Y-89224000D01*
X177565355Y-89225083D01*
X177570029Y-89226501D01*
X177574331Y-89228800D01*
X177578104Y-89231896D01*
X177581200Y-89235669D01*
X177583499Y-89239971D01*
X177584917Y-89244645D01*
X177586000Y-89255641D01*
X177586000Y-89544359D01*
X177584917Y-89555355D01*
X177583499Y-89560029D01*
X177581200Y-89564330D01*
X177575971Y-89570702D01*
X177562357Y-89591076D01*
X177552980Y-89613715D01*
X177548200Y-89637749D01*
X177548200Y-89662253D01*
X177552981Y-89686286D01*
X177562358Y-89708925D01*
X177575971Y-89729298D01*
X177581200Y-89735670D01*
X177583499Y-89739971D01*
X177584917Y-89744645D01*
X177586000Y-89755641D01*
X177586000Y-90044359D01*
X177584917Y-90055355D01*
X177583499Y-90060029D01*
X177581200Y-90064330D01*
X177575971Y-90070702D01*
X177562357Y-90091076D01*
X177552980Y-90113715D01*
X177548200Y-90137749D01*
X177548200Y-90162253D01*
X177552981Y-90186286D01*
X177562358Y-90208925D01*
X177575971Y-90229298D01*
X177581200Y-90235670D01*
X177583499Y-90239971D01*
X177584917Y-90244645D01*
X177586000Y-90255641D01*
X177586000Y-90544359D01*
X177584917Y-90555355D01*
X177583499Y-90560029D01*
X177581200Y-90564330D01*
X177575971Y-90570702D01*
X177562357Y-90591076D01*
X177552980Y-90613715D01*
X177548200Y-90637749D01*
X177548200Y-90662253D01*
X177552981Y-90686286D01*
X177562358Y-90708925D01*
X177575971Y-90729298D01*
X177581200Y-90735670D01*
X177583499Y-90739971D01*
X177584917Y-90744645D01*
X177586000Y-90755641D01*
X177586000Y-91044359D01*
X177584917Y-91055355D01*
X177583499Y-91060029D01*
X177581200Y-91064330D01*
X177575971Y-91070702D01*
X177562357Y-91091076D01*
X177552980Y-91113715D01*
X177548200Y-91137749D01*
X177548200Y-91162253D01*
X177552981Y-91186286D01*
X177562358Y-91208925D01*
X177575971Y-91229298D01*
X177581200Y-91235670D01*
X177583499Y-91239971D01*
X177584917Y-91244645D01*
X177586000Y-91255641D01*
X177586000Y-91544359D01*
X177584917Y-91555355D01*
X177583499Y-91560029D01*
X177581200Y-91564330D01*
X177575971Y-91570702D01*
X177562357Y-91591076D01*
X177552980Y-91613715D01*
X177548200Y-91637749D01*
X177548200Y-91662253D01*
X177552981Y-91686286D01*
X177562358Y-91708925D01*
X177575971Y-91729298D01*
X177581200Y-91735670D01*
X177583499Y-91739971D01*
X177584917Y-91744645D01*
X177586000Y-91755641D01*
X177586000Y-92044359D01*
X177584917Y-92055355D01*
X177583499Y-92060029D01*
X177581200Y-92064330D01*
X177575971Y-92070702D01*
X177562357Y-92091076D01*
X177552980Y-92113715D01*
X177548200Y-92137749D01*
X177548200Y-92162253D01*
X177552981Y-92186286D01*
X177562358Y-92208925D01*
X177575971Y-92229298D01*
X177581200Y-92235670D01*
X177583499Y-92239971D01*
X177584917Y-92244645D01*
X177586000Y-92255641D01*
X177586000Y-92544359D01*
X177584917Y-92555355D01*
X177583499Y-92560029D01*
X177581200Y-92564330D01*
X177575971Y-92570702D01*
X177562357Y-92591076D01*
X177552980Y-92613715D01*
X177548200Y-92637749D01*
X177548200Y-92662253D01*
X177552981Y-92686286D01*
X177562358Y-92708925D01*
X177575971Y-92729298D01*
X177581200Y-92735670D01*
X177583499Y-92739971D01*
X177584917Y-92744645D01*
X177586000Y-92755641D01*
X177586000Y-93044359D01*
X177584917Y-93055355D01*
X177583499Y-93060029D01*
X177581200Y-93064331D01*
X177578104Y-93068104D01*
X177574331Y-93071200D01*
X177570029Y-93073499D01*
X177565355Y-93074917D01*
X177554359Y-93076000D01*
X176710999Y-93076000D01*
X176686613Y-93078402D01*
X176663164Y-93085515D01*
X176641553Y-93097066D01*
X176622611Y-93112611D01*
X176607066Y-93131553D01*
X176595515Y-93153164D01*
X176588402Y-93176613D01*
X176586000Y-93200999D01*
X176586000Y-94044359D01*
X176584917Y-94055355D01*
X176583499Y-94060029D01*
X176581200Y-94064331D01*
X176578104Y-94068104D01*
X176574331Y-94071200D01*
X176570029Y-94073499D01*
X176565355Y-94074917D01*
X176554359Y-94076000D01*
X176265641Y-94076000D01*
X176254645Y-94074917D01*
X176249971Y-94073499D01*
X176245670Y-94071200D01*
X176239298Y-94065971D01*
X176218924Y-94052357D01*
X176196285Y-94042980D01*
X176172251Y-94038200D01*
X176147747Y-94038200D01*
X176123714Y-94042981D01*
X176101075Y-94052358D01*
X176080702Y-94065971D01*
X176074330Y-94071200D01*
X176070029Y-94073499D01*
X176065355Y-94074917D01*
X176054359Y-94076000D01*
X175765641Y-94076000D01*
X175754645Y-94074917D01*
X175749971Y-94073499D01*
X175745670Y-94071200D01*
X175739298Y-94065971D01*
X175718924Y-94052357D01*
X175696285Y-94042980D01*
X175672251Y-94038200D01*
X175647747Y-94038200D01*
X175623714Y-94042981D01*
X175601075Y-94052358D01*
X175580702Y-94065971D01*
X175574330Y-94071200D01*
X175570029Y-94073499D01*
X175565355Y-94074917D01*
X175554359Y-94076000D01*
X175265641Y-94076000D01*
X175254645Y-94074917D01*
X175249971Y-94073499D01*
X175245670Y-94071200D01*
X175239298Y-94065971D01*
X175218924Y-94052357D01*
X175196285Y-94042980D01*
X175172251Y-94038200D01*
X175147747Y-94038200D01*
X175123714Y-94042981D01*
X175101075Y-94052358D01*
X175080702Y-94065971D01*
X175074330Y-94071200D01*
X175070029Y-94073499D01*
X175065355Y-94074917D01*
X175054359Y-94076000D01*
X174765641Y-94076000D01*
X174754645Y-94074917D01*
X174749971Y-94073499D01*
X174745670Y-94071200D01*
X174739298Y-94065971D01*
X174718924Y-94052357D01*
X174696285Y-94042980D01*
X174672251Y-94038200D01*
X174647747Y-94038200D01*
X174623714Y-94042981D01*
X174601075Y-94052358D01*
X174580702Y-94065971D01*
X174574330Y-94071200D01*
X174570029Y-94073499D01*
X174565355Y-94074917D01*
X174554359Y-94076000D01*
X174265641Y-94076000D01*
X174254645Y-94074917D01*
X174249971Y-94073499D01*
X174245670Y-94071200D01*
X174239298Y-94065971D01*
X174218924Y-94052357D01*
X174196285Y-94042980D01*
X174172251Y-94038200D01*
X174147747Y-94038200D01*
X174123714Y-94042981D01*
X174101075Y-94052358D01*
X174080702Y-94065971D01*
X174074330Y-94071200D01*
X174070029Y-94073499D01*
X174065355Y-94074917D01*
X174054359Y-94076000D01*
X173765641Y-94076000D01*
X173754645Y-94074917D01*
X173749971Y-94073499D01*
X173745670Y-94071200D01*
X173739298Y-94065971D01*
X173718924Y-94052357D01*
X173696285Y-94042980D01*
X173672251Y-94038200D01*
X173647747Y-94038200D01*
X173623714Y-94042981D01*
X173601075Y-94052358D01*
X173580702Y-94065971D01*
X173574330Y-94071200D01*
X173570029Y-94073499D01*
X173565355Y-94074917D01*
X173554359Y-94076000D01*
X173265641Y-94076000D01*
X173254645Y-94074917D01*
X173249971Y-94073499D01*
X173245670Y-94071200D01*
X173239298Y-94065971D01*
X173218924Y-94052357D01*
X173196285Y-94042980D01*
X173172251Y-94038200D01*
X173147747Y-94038200D01*
X173123714Y-94042981D01*
X173101075Y-94052358D01*
X173080702Y-94065971D01*
X173074330Y-94071200D01*
X173070029Y-94073499D01*
X173065355Y-94074917D01*
X173054359Y-94076000D01*
X172765641Y-94076000D01*
X172754645Y-94074917D01*
X172749971Y-94073499D01*
X172745669Y-94071200D01*
X172741896Y-94068104D01*
X172738800Y-94064331D01*
X172736501Y-94060029D01*
X172735083Y-94055355D01*
X172734000Y-94044359D01*
X172734000Y-93200999D01*
X172731598Y-93176613D01*
X172724485Y-93153164D01*
X172712934Y-93131553D01*
X172697389Y-93112611D01*
X172678447Y-93097066D01*
X172656836Y-93085515D01*
X172633387Y-93078402D01*
X172609001Y-93076000D01*
X171765641Y-93076000D01*
X171754645Y-93074917D01*
X171749971Y-93073499D01*
X171745669Y-93071200D01*
X171741896Y-93068104D01*
X171738800Y-93064331D01*
X171736501Y-93060029D01*
X171735083Y-93055355D01*
X171734000Y-93044359D01*
X171734000Y-92965801D01*
X172711000Y-92965801D01*
X172711000Y-92974001D01*
X172713402Y-92998387D01*
X172720515Y-93021836D01*
X172732066Y-93043447D01*
X172747611Y-93062389D01*
X172766553Y-93077934D01*
X172788164Y-93089485D01*
X172811613Y-93096598D01*
X172835999Y-93099000D01*
X172844199Y-93099000D01*
X172868585Y-93096598D01*
X172892034Y-93089485D01*
X172913645Y-93077934D01*
X172932587Y-93062389D01*
X172948132Y-93043447D01*
X172959683Y-93021836D01*
X172966796Y-92998387D01*
X172967991Y-92986247D01*
X176351403Y-92986247D01*
X176356183Y-93010281D01*
X176365559Y-93032920D01*
X176379172Y-93053295D01*
X176396498Y-93070623D01*
X176416872Y-93084238D01*
X176439510Y-93093616D01*
X176463543Y-93098398D01*
X176475801Y-93099000D01*
X176484001Y-93099000D01*
X176508387Y-93096598D01*
X176531836Y-93089485D01*
X176553447Y-93077934D01*
X176572389Y-93062389D01*
X176587934Y-93043447D01*
X176599485Y-93021836D01*
X176606598Y-92998387D01*
X176609000Y-92974001D01*
X176609000Y-92965801D01*
X176606598Y-92941415D01*
X176599485Y-92917966D01*
X176587934Y-92896355D01*
X176572389Y-92877413D01*
X176553447Y-92861868D01*
X176531836Y-92850317D01*
X176508387Y-92843204D01*
X176484001Y-92840802D01*
X176459615Y-92843204D01*
X176436166Y-92850317D01*
X176414555Y-92861868D01*
X176395613Y-92877413D01*
X176387382Y-92886496D01*
X176379179Y-92894698D01*
X176365564Y-92915072D01*
X176356186Y-92937710D01*
X176351404Y-92961743D01*
X176351403Y-92986247D01*
X172967991Y-92986247D01*
X172969198Y-92974001D01*
X172966796Y-92949615D01*
X172959683Y-92926166D01*
X172948132Y-92904555D01*
X172932587Y-92885613D01*
X172923504Y-92877382D01*
X172915302Y-92869179D01*
X172894928Y-92855564D01*
X172872290Y-92846186D01*
X172848257Y-92841404D01*
X172823753Y-92841403D01*
X172799719Y-92846183D01*
X172777080Y-92855559D01*
X172756705Y-92869172D01*
X172739377Y-92886498D01*
X172725762Y-92906872D01*
X172716384Y-92929510D01*
X172711602Y-92953543D01*
X172711000Y-92965801D01*
X171734000Y-92965801D01*
X171734000Y-92755641D01*
X171735083Y-92744645D01*
X171736501Y-92739971D01*
X171738800Y-92735670D01*
X171744029Y-92729298D01*
X171757643Y-92708924D01*
X171767020Y-92686285D01*
X171771800Y-92662251D01*
X171771800Y-92637747D01*
X171767019Y-92613714D01*
X171757642Y-92591075D01*
X171744029Y-92570702D01*
X171738800Y-92564330D01*
X171736501Y-92560029D01*
X171735083Y-92555355D01*
X171734000Y-92544359D01*
X171734000Y-92255641D01*
X171735083Y-92244645D01*
X171736501Y-92239971D01*
X171738800Y-92235670D01*
X171744029Y-92229298D01*
X171757643Y-92208924D01*
X171767020Y-92186285D01*
X171771800Y-92162251D01*
X171771800Y-92137747D01*
X171767019Y-92113714D01*
X171757642Y-92091075D01*
X171744029Y-92070702D01*
X171738800Y-92064330D01*
X171736501Y-92060029D01*
X171735083Y-92055355D01*
X171734000Y-92044359D01*
X171734000Y-91755641D01*
X171735083Y-91744645D01*
X171736501Y-91739971D01*
X171738800Y-91735670D01*
X171744029Y-91729298D01*
X171757643Y-91708924D01*
X171767020Y-91686285D01*
X171771800Y-91662251D01*
X171771800Y-91637747D01*
X171767019Y-91613714D01*
X171757642Y-91591075D01*
X171744029Y-91570702D01*
X171738800Y-91564330D01*
X171736501Y-91560029D01*
X171735083Y-91555355D01*
X171734000Y-91544359D01*
X171734000Y-91255641D01*
X171735083Y-91244645D01*
X171736501Y-91239971D01*
X171738800Y-91235670D01*
X171744029Y-91229298D01*
X171757643Y-91208924D01*
X171767020Y-91186285D01*
X171771800Y-91162251D01*
X171771800Y-91137747D01*
X171767019Y-91113714D01*
X171757642Y-91091075D01*
X171744029Y-91070702D01*
X171738800Y-91064330D01*
X171736501Y-91060029D01*
X171735083Y-91055355D01*
X171734000Y-91044359D01*
X171734000Y-90755641D01*
X171735083Y-90744645D01*
X171736501Y-90739971D01*
X171738800Y-90735670D01*
X171744029Y-90729298D01*
X171757643Y-90708924D01*
X171767020Y-90686285D01*
X171771800Y-90662251D01*
X171771800Y-90637747D01*
X171767019Y-90613714D01*
X171757642Y-90591075D01*
X171744029Y-90570702D01*
X171738800Y-90564330D01*
X171736501Y-90560029D01*
X171735083Y-90555355D01*
X171734000Y-90544359D01*
X171734000Y-90255641D01*
X171735083Y-90244645D01*
X171736501Y-90239971D01*
X171738800Y-90235670D01*
X171744029Y-90229298D01*
X171757643Y-90208924D01*
X171767020Y-90186285D01*
X171771800Y-90162251D01*
X171771800Y-90137747D01*
X171767019Y-90113714D01*
X171757642Y-90091075D01*
X171744029Y-90070702D01*
X171738800Y-90064330D01*
X171736501Y-90060029D01*
X171735083Y-90055355D01*
X171734000Y-90044359D01*
X171734000Y-89755641D01*
X171735083Y-89744645D01*
X171736501Y-89739971D01*
X171738800Y-89735670D01*
X171744029Y-89729298D01*
X171757643Y-89708924D01*
X171767020Y-89686285D01*
X171771800Y-89662251D01*
X171771800Y-89637747D01*
X171767019Y-89613714D01*
X171757642Y-89591075D01*
X171744029Y-89570702D01*
X171738800Y-89564330D01*
X171736501Y-89560029D01*
X171735083Y-89555355D01*
X171734000Y-89544359D01*
X171734000Y-89325999D01*
X172711000Y-89325999D01*
X172711000Y-89334199D01*
X172713402Y-89358585D01*
X172720515Y-89382034D01*
X172732066Y-89403645D01*
X172747611Y-89422587D01*
X172766553Y-89438132D01*
X172788164Y-89449683D01*
X172811613Y-89456796D01*
X172835999Y-89459198D01*
X172860385Y-89456796D01*
X172883834Y-89449683D01*
X172905445Y-89438132D01*
X172924387Y-89422587D01*
X172932620Y-89413502D01*
X172940821Y-89405302D01*
X172954436Y-89384928D01*
X172963814Y-89362290D01*
X172968596Y-89338257D01*
X172968596Y-89325999D01*
X176350802Y-89325999D01*
X176353204Y-89350385D01*
X176360317Y-89373834D01*
X176371868Y-89395445D01*
X176387413Y-89414387D01*
X176396496Y-89422618D01*
X176404698Y-89430821D01*
X176425072Y-89444436D01*
X176447710Y-89453814D01*
X176471743Y-89458596D01*
X176496247Y-89458597D01*
X176520281Y-89453817D01*
X176542920Y-89444441D01*
X176563295Y-89430828D01*
X176580623Y-89413502D01*
X176594238Y-89393128D01*
X176603616Y-89370490D01*
X176608398Y-89346457D01*
X176609000Y-89334199D01*
X176609000Y-89325999D01*
X176606598Y-89301613D01*
X176599485Y-89278164D01*
X176587934Y-89256553D01*
X176572389Y-89237611D01*
X176553447Y-89222066D01*
X176531836Y-89210515D01*
X176508387Y-89203402D01*
X176484001Y-89201000D01*
X176475801Y-89201000D01*
X176451415Y-89203402D01*
X176427966Y-89210515D01*
X176406355Y-89222066D01*
X176387413Y-89237611D01*
X176371868Y-89256553D01*
X176360317Y-89278164D01*
X176353204Y-89301613D01*
X176350802Y-89325999D01*
X172968596Y-89325999D01*
X172968597Y-89313753D01*
X172963817Y-89289719D01*
X172954441Y-89267080D01*
X172940828Y-89246705D01*
X172923502Y-89229377D01*
X172903128Y-89215762D01*
X172880490Y-89206384D01*
X172856457Y-89201602D01*
X172844199Y-89201000D01*
X172835999Y-89201000D01*
X172811613Y-89203402D01*
X172788164Y-89210515D01*
X172766553Y-89222066D01*
X172747611Y-89237611D01*
X172732066Y-89256553D01*
X172720515Y-89278164D01*
X172713402Y-89301613D01*
X172711000Y-89325999D01*
X171734000Y-89325999D01*
X171734000Y-89255641D01*
X171735083Y-89244645D01*
X171736501Y-89239971D01*
X171738800Y-89235669D01*
X171741896Y-89231896D01*
X171745669Y-89228800D01*
X171749971Y-89226501D01*
X171754645Y-89225083D01*
X171765641Y-89224000D01*
X172609001Y-89224000D01*
X172633387Y-89221598D01*
X172656836Y-89214485D01*
X172678447Y-89202934D01*
X172697389Y-89187389D01*
X172712934Y-89168447D01*
X172724485Y-89146836D01*
X172731598Y-89123387D01*
X172734000Y-89099001D01*
X172734000Y-88255641D01*
X172735083Y-88244645D01*
X172736501Y-88239971D01*
X172738800Y-88235669D01*
X172741896Y-88231896D01*
X172745669Y-88228800D01*
X172749971Y-88226501D01*
X172754645Y-88225083D01*
X172765641Y-88224000D01*
X173054359Y-88224000D01*
X173065355Y-88225083D01*
G37*
G36*
X182129591Y-92978085D02*
G01*
X182163569Y-92988393D01*
X182194890Y-93005134D01*
X182222339Y-93027661D01*
X182244866Y-93055110D01*
X182261607Y-93086431D01*
X182271915Y-93120409D01*
X182276000Y-93161890D01*
X182276000Y-93763110D01*
X182271915Y-93804591D01*
X182261607Y-93838569D01*
X182244866Y-93869890D01*
X182222339Y-93897339D01*
X182194890Y-93919866D01*
X182163569Y-93936607D01*
X182129591Y-93946915D01*
X182088110Y-93951000D01*
X181411890Y-93951000D01*
X181370409Y-93946915D01*
X181336431Y-93936607D01*
X181305110Y-93919866D01*
X181277661Y-93897339D01*
X181255134Y-93869890D01*
X181238393Y-93838569D01*
X181228085Y-93804591D01*
X181224000Y-93763110D01*
X181224000Y-93161890D01*
X181228085Y-93120409D01*
X181238393Y-93086431D01*
X181255134Y-93055110D01*
X181277661Y-93027661D01*
X181305110Y-93005134D01*
X181336431Y-92988393D01*
X181370409Y-92978085D01*
X181411890Y-92974000D01*
X182088110Y-92974000D01*
X182129591Y-92978085D01*
G37*
G36*
X180629591Y-92978085D02*
G01*
X180663569Y-92988393D01*
X180694890Y-93005134D01*
X180722339Y-93027661D01*
X180744866Y-93055110D01*
X180761607Y-93086431D01*
X180771915Y-93120409D01*
X180776000Y-93161890D01*
X180776000Y-93763110D01*
X180771915Y-93804591D01*
X180761607Y-93838569D01*
X180744866Y-93869890D01*
X180722339Y-93897339D01*
X180694890Y-93919866D01*
X180663569Y-93936607D01*
X180629591Y-93946915D01*
X180588110Y-93951000D01*
X179911890Y-93951000D01*
X179870409Y-93946915D01*
X179836431Y-93936607D01*
X179805110Y-93919866D01*
X179777661Y-93897339D01*
X179755134Y-93869890D01*
X179738393Y-93838569D01*
X179728085Y-93804591D01*
X179724000Y-93763110D01*
X179724000Y-93161890D01*
X179728085Y-93120409D01*
X179738393Y-93086431D01*
X179755134Y-93055110D01*
X179777661Y-93027661D01*
X179805110Y-93005134D01*
X179836431Y-92988393D01*
X179870409Y-92978085D01*
X179911890Y-92974000D01*
X180588110Y-92974000D01*
X180629591Y-92978085D01*
G37*
G36*
X179129591Y-92978085D02*
G01*
X179163569Y-92988393D01*
X179194890Y-93005134D01*
X179222339Y-93027661D01*
X179244866Y-93055110D01*
X179261607Y-93086431D01*
X179271915Y-93120409D01*
X179276000Y-93161890D01*
X179276000Y-93763110D01*
X179271915Y-93804591D01*
X179261607Y-93838569D01*
X179244866Y-93869890D01*
X179222339Y-93897339D01*
X179194890Y-93919866D01*
X179163569Y-93936607D01*
X179129591Y-93946915D01*
X179088110Y-93951000D01*
X178411890Y-93951000D01*
X178370409Y-93946915D01*
X178336431Y-93936607D01*
X178305110Y-93919866D01*
X178277661Y-93897339D01*
X178255134Y-93869890D01*
X178238393Y-93838569D01*
X178228085Y-93804591D01*
X178224000Y-93763110D01*
X178224000Y-93161890D01*
X178228085Y-93120409D01*
X178238393Y-93086431D01*
X178255134Y-93055110D01*
X178277661Y-93027661D01*
X178305110Y-93005134D01*
X178336431Y-92988393D01*
X178370409Y-92978085D01*
X178411890Y-92974000D01*
X179088110Y-92974000D01*
X179129591Y-92978085D01*
G37*
G36*
X162513512Y-91183927D02*
G01*
X162662812Y-91213624D01*
X162826784Y-91281544D01*
X162974354Y-91380147D01*
X163099853Y-91505646D01*
X163198456Y-91653216D01*
X163266376Y-91817188D01*
X163301000Y-91991259D01*
X163301000Y-92168741D01*
X163266376Y-92342812D01*
X163198456Y-92506784D01*
X163099853Y-92654354D01*
X162974354Y-92779853D01*
X162826784Y-92878456D01*
X162662812Y-92946376D01*
X162523933Y-92974000D01*
X162488742Y-92981000D01*
X162311258Y-92981000D01*
X162276067Y-92974000D01*
X162137188Y-92946376D01*
X161973216Y-92878456D01*
X161825646Y-92779853D01*
X161700147Y-92654354D01*
X161601544Y-92506784D01*
X161533624Y-92342812D01*
X161499000Y-92168741D01*
X161499000Y-91991259D01*
X161533624Y-91817188D01*
X161601544Y-91653216D01*
X161700147Y-91505646D01*
X161825646Y-91380147D01*
X161973216Y-91281544D01*
X162137188Y-91213624D01*
X162286488Y-91183927D01*
X162311258Y-91179000D01*
X162488742Y-91179000D01*
X162513512Y-91183927D01*
G37*
G36*
X170879591Y-91728085D02*
G01*
X170913569Y-91738393D01*
X170944890Y-91755134D01*
X170972339Y-91777661D01*
X170994866Y-91805110D01*
X171011607Y-91836431D01*
X171021915Y-91870409D01*
X171026000Y-91911890D01*
X171026000Y-92513110D01*
X171021915Y-92554591D01*
X171011607Y-92588569D01*
X170994866Y-92619890D01*
X170972339Y-92647339D01*
X170944890Y-92669866D01*
X170913569Y-92686607D01*
X170879591Y-92696915D01*
X170838110Y-92701000D01*
X170161890Y-92701000D01*
X170120409Y-92696915D01*
X170086431Y-92686607D01*
X170055110Y-92669866D01*
X170027661Y-92647339D01*
X170005134Y-92619890D01*
X169988393Y-92588569D01*
X169978085Y-92554591D01*
X169974000Y-92513110D01*
X169974000Y-91911890D01*
X169978085Y-91870409D01*
X169988393Y-91836431D01*
X170005134Y-91805110D01*
X170027661Y-91777661D01*
X170055110Y-91755134D01*
X170086431Y-91738393D01*
X170120409Y-91728085D01*
X170161890Y-91724000D01*
X170838110Y-91724000D01*
X170879591Y-91728085D01*
G37*
G36*
X169379591Y-91728085D02*
G01*
X169413569Y-91738393D01*
X169444890Y-91755134D01*
X169472339Y-91777661D01*
X169494866Y-91805110D01*
X169511607Y-91836431D01*
X169521915Y-91870409D01*
X169526000Y-91911890D01*
X169526000Y-92513110D01*
X169521915Y-92554591D01*
X169511607Y-92588569D01*
X169494866Y-92619890D01*
X169472339Y-92647339D01*
X169444890Y-92669866D01*
X169413569Y-92686607D01*
X169379591Y-92696915D01*
X169338110Y-92701000D01*
X168661890Y-92701000D01*
X168620409Y-92696915D01*
X168586431Y-92686607D01*
X168555110Y-92669866D01*
X168527661Y-92647339D01*
X168505134Y-92619890D01*
X168488393Y-92588569D01*
X168478085Y-92554591D01*
X168474000Y-92513110D01*
X168474000Y-91911890D01*
X168478085Y-91870409D01*
X168488393Y-91836431D01*
X168505134Y-91805110D01*
X168527661Y-91777661D01*
X168555110Y-91755134D01*
X168586431Y-91738393D01*
X168620409Y-91728085D01*
X168661890Y-91724000D01*
X169338110Y-91724000D01*
X169379591Y-91728085D01*
G37*
G36*
X167879591Y-91728085D02*
G01*
X167913569Y-91738393D01*
X167944890Y-91755134D01*
X167972339Y-91777661D01*
X167994866Y-91805110D01*
X168011607Y-91836431D01*
X168021915Y-91870409D01*
X168026000Y-91911890D01*
X168026000Y-92513110D01*
X168021915Y-92554591D01*
X168011607Y-92588569D01*
X167994866Y-92619890D01*
X167972339Y-92647339D01*
X167944890Y-92669866D01*
X167913569Y-92686607D01*
X167879591Y-92696915D01*
X167838110Y-92701000D01*
X167161890Y-92701000D01*
X167120409Y-92696915D01*
X167086431Y-92686607D01*
X167055110Y-92669866D01*
X167027661Y-92647339D01*
X167005134Y-92619890D01*
X166988393Y-92588569D01*
X166978085Y-92554591D01*
X166974000Y-92513110D01*
X166974000Y-91911890D01*
X166978085Y-91870409D01*
X166988393Y-91836431D01*
X167005134Y-91805110D01*
X167027661Y-91777661D01*
X167055110Y-91755134D01*
X167086431Y-91738393D01*
X167120409Y-91728085D01*
X167161890Y-91724000D01*
X167838110Y-91724000D01*
X167879591Y-91728085D01*
G37*
G36*
X169524638Y-89766726D02*
G01*
X168745406Y-90545958D01*
X167754042Y-89554594D01*
X168533274Y-88775362D01*
X169524638Y-89766726D01*
G37*
G36*
X162513512Y-88643927D02*
G01*
X162662812Y-88673624D01*
X162826784Y-88741544D01*
X162974354Y-88840147D01*
X163099853Y-88965646D01*
X163198456Y-89113216D01*
X163266376Y-89277188D01*
X163301000Y-89451259D01*
X163301000Y-89628741D01*
X163266376Y-89802812D01*
X163198456Y-89966784D01*
X163099853Y-90114354D01*
X162974354Y-90239853D01*
X162826784Y-90338456D01*
X162662812Y-90406376D01*
X162513512Y-90436073D01*
X162488742Y-90441000D01*
X162311258Y-90441000D01*
X162286488Y-90436073D01*
X162137188Y-90406376D01*
X161973216Y-90338456D01*
X161825646Y-90239853D01*
X161700147Y-90114354D01*
X161601544Y-89966784D01*
X161533624Y-89802812D01*
X161499000Y-89628741D01*
X161499000Y-89451259D01*
X161533624Y-89277188D01*
X161601544Y-89113216D01*
X161700147Y-88965646D01*
X161825646Y-88840147D01*
X161973216Y-88741544D01*
X162137188Y-88673624D01*
X162286488Y-88643927D01*
X162311258Y-88639000D01*
X162488742Y-88639000D01*
X162513512Y-88643927D01*
G37*
G36*
X166401977Y-89018855D02*
G01*
X166435955Y-89029163D01*
X166467276Y-89045904D01*
X166499490Y-89072342D01*
X166539341Y-89112193D01*
X166539347Y-89112198D01*
X166937802Y-89510653D01*
X166937807Y-89510659D01*
X166977658Y-89550510D01*
X167004096Y-89582724D01*
X167020837Y-89614045D01*
X167031145Y-89648023D01*
X167034625Y-89683364D01*
X167031145Y-89718705D01*
X167020837Y-89752683D01*
X167004096Y-89784004D01*
X166977658Y-89816218D01*
X166937807Y-89856069D01*
X166937802Y-89856075D01*
X166592381Y-90201496D01*
X166592375Y-90201501D01*
X166552524Y-90241352D01*
X166520310Y-90267790D01*
X166488989Y-90284531D01*
X166455011Y-90294839D01*
X166419670Y-90298319D01*
X166384329Y-90294839D01*
X166350351Y-90284531D01*
X166319030Y-90267790D01*
X166286816Y-90241352D01*
X166246965Y-90201501D01*
X166246959Y-90201496D01*
X165848504Y-89803041D01*
X165848499Y-89803035D01*
X165808648Y-89763184D01*
X165782210Y-89730970D01*
X165765469Y-89699649D01*
X165755161Y-89665671D01*
X165751681Y-89630330D01*
X165755161Y-89594989D01*
X165765469Y-89561011D01*
X165782210Y-89529690D01*
X165808648Y-89497476D01*
X165848499Y-89457625D01*
X165848504Y-89457619D01*
X166193925Y-89112198D01*
X166193931Y-89112193D01*
X166233782Y-89072342D01*
X166265996Y-89045904D01*
X166297317Y-89029163D01*
X166331295Y-89018855D01*
X166366636Y-89015375D01*
X166401977Y-89018855D01*
G37*
G36*
X185246578Y-88880197D02*
G01*
X185299350Y-88890694D01*
X185398770Y-88931875D01*
X185488246Y-88991661D01*
X185564339Y-89067754D01*
X185624125Y-89157230D01*
X185665306Y-89256650D01*
X185669391Y-89277188D01*
X185686300Y-89362193D01*
X185686300Y-89469807D01*
X185682681Y-89488000D01*
X185665306Y-89575350D01*
X185624125Y-89674770D01*
X185564339Y-89764246D01*
X185488246Y-89840339D01*
X185398770Y-89900125D01*
X185299350Y-89941306D01*
X185246578Y-89951803D01*
X185193807Y-89962300D01*
X185086193Y-89962300D01*
X185033422Y-89951803D01*
X184980650Y-89941306D01*
X184881230Y-89900125D01*
X184791754Y-89840339D01*
X184715661Y-89764246D01*
X184655875Y-89674770D01*
X184614694Y-89575350D01*
X184597319Y-89488000D01*
X184593700Y-89469807D01*
X184593700Y-89362193D01*
X184610609Y-89277188D01*
X184614694Y-89256650D01*
X184655875Y-89157230D01*
X184715661Y-89067754D01*
X184791754Y-88991661D01*
X184881230Y-88931875D01*
X184980650Y-88890694D01*
X185033422Y-88880197D01*
X185086193Y-88869700D01*
X185193807Y-88869700D01*
X185246578Y-88880197D01*
G37*
G36*
X170585298Y-88706066D02*
G01*
X169806066Y-89485298D01*
X168814702Y-88493934D01*
X169593934Y-87714702D01*
X170585298Y-88706066D01*
G37*
G36*
X167515671Y-87905161D02*
G01*
X167549649Y-87915469D01*
X167580970Y-87932210D01*
X167613184Y-87958648D01*
X167653035Y-87998499D01*
X167653041Y-87998504D01*
X168051496Y-88396959D01*
X168051501Y-88396965D01*
X168091352Y-88436816D01*
X168117790Y-88469030D01*
X168134531Y-88500351D01*
X168144839Y-88534329D01*
X168148319Y-88569670D01*
X168144839Y-88605011D01*
X168134531Y-88638989D01*
X168117790Y-88670310D01*
X168091352Y-88702524D01*
X168051501Y-88742375D01*
X168051496Y-88742381D01*
X167706075Y-89087802D01*
X167706069Y-89087807D01*
X167666218Y-89127658D01*
X167634004Y-89154096D01*
X167602683Y-89170837D01*
X167568705Y-89181145D01*
X167533364Y-89184625D01*
X167498023Y-89181145D01*
X167464045Y-89170837D01*
X167432724Y-89154096D01*
X167400510Y-89127658D01*
X167360659Y-89087807D01*
X167360653Y-89087802D01*
X166962198Y-88689347D01*
X166962193Y-88689341D01*
X166922342Y-88649490D01*
X166895904Y-88617276D01*
X166879163Y-88585955D01*
X166868855Y-88551977D01*
X166865375Y-88516636D01*
X166868855Y-88481295D01*
X166879163Y-88447317D01*
X166895904Y-88415996D01*
X166922342Y-88383782D01*
X166962193Y-88343931D01*
X166962198Y-88343925D01*
X167307619Y-87998504D01*
X167307625Y-87998499D01*
X167347476Y-87958648D01*
X167379690Y-87932210D01*
X167411011Y-87915469D01*
X167444989Y-87905161D01*
X167480330Y-87901681D01*
X167515671Y-87905161D01*
G37*
G36*
X180166578Y-87864197D02*
G01*
X180219350Y-87874694D01*
X180318770Y-87915875D01*
X180408246Y-87975661D01*
X180484339Y-88051754D01*
X180544125Y-88141230D01*
X180585306Y-88240650D01*
X180606300Y-88346194D01*
X180606300Y-88453806D01*
X180585306Y-88559350D01*
X180544125Y-88658770D01*
X180484339Y-88748246D01*
X180408246Y-88824339D01*
X180318770Y-88884125D01*
X180219350Y-88925306D01*
X180186325Y-88931875D01*
X180113807Y-88946300D01*
X180006193Y-88946300D01*
X179933675Y-88931875D01*
X179900650Y-88925306D01*
X179801230Y-88884125D01*
X179711754Y-88824339D01*
X179635661Y-88748246D01*
X179575875Y-88658770D01*
X179534694Y-88559350D01*
X179513700Y-88453806D01*
X179513700Y-88346194D01*
X179534694Y-88240650D01*
X179575875Y-88141230D01*
X179635661Y-88051754D01*
X179711754Y-87975661D01*
X179801230Y-87915875D01*
X179900650Y-87874694D01*
X179953422Y-87864197D01*
X180006193Y-87853700D01*
X180113807Y-87853700D01*
X180166578Y-87864197D01*
G37*
G36*
X168651977Y-86768855D02*
G01*
X168685955Y-86779163D01*
X168717276Y-86795904D01*
X168749490Y-86822342D01*
X168789341Y-86862193D01*
X168789347Y-86862198D01*
X169187802Y-87260653D01*
X169187807Y-87260659D01*
X169227658Y-87300510D01*
X169254096Y-87332724D01*
X169270837Y-87364045D01*
X169281145Y-87398023D01*
X169284625Y-87433364D01*
X169281145Y-87468705D01*
X169270837Y-87502683D01*
X169254096Y-87534004D01*
X169227658Y-87566218D01*
X169187807Y-87606069D01*
X169187802Y-87606075D01*
X168842381Y-87951496D01*
X168842375Y-87951501D01*
X168802524Y-87991352D01*
X168770310Y-88017790D01*
X168738989Y-88034531D01*
X168705011Y-88044839D01*
X168669670Y-88048319D01*
X168634329Y-88044839D01*
X168600351Y-88034531D01*
X168569030Y-88017790D01*
X168536816Y-87991352D01*
X168496965Y-87951501D01*
X168496959Y-87951496D01*
X168098504Y-87553041D01*
X168098499Y-87553035D01*
X168058648Y-87513184D01*
X168032210Y-87480970D01*
X168015469Y-87449649D01*
X168005161Y-87415671D01*
X168001681Y-87380330D01*
X168005161Y-87344989D01*
X168015469Y-87311011D01*
X168032210Y-87279690D01*
X168058648Y-87247476D01*
X168098499Y-87207625D01*
X168098504Y-87207619D01*
X168443925Y-86862198D01*
X168443931Y-86862193D01*
X168483782Y-86822342D01*
X168515996Y-86795904D01*
X168547317Y-86779163D01*
X168581295Y-86768855D01*
X168616636Y-86765375D01*
X168651977Y-86768855D01*
G37*
G36*
X185246578Y-86848197D02*
G01*
X185299350Y-86858694D01*
X185398770Y-86899875D01*
X185488246Y-86959661D01*
X185564339Y-87035754D01*
X185624125Y-87125230D01*
X185665306Y-87224650D01*
X185665306Y-87224651D01*
X185680396Y-87300510D01*
X185686300Y-87330194D01*
X185686300Y-87437806D01*
X185665306Y-87543350D01*
X185624125Y-87642770D01*
X185564339Y-87732246D01*
X185488246Y-87808339D01*
X185398770Y-87868125D01*
X185299350Y-87909306D01*
X185268366Y-87915469D01*
X185193807Y-87930300D01*
X185086193Y-87930300D01*
X185011634Y-87915469D01*
X184980650Y-87909306D01*
X184881230Y-87868125D01*
X184791754Y-87808339D01*
X184715661Y-87732246D01*
X184655875Y-87642770D01*
X184614694Y-87543350D01*
X184593700Y-87437806D01*
X184593700Y-87330194D01*
X184599605Y-87300510D01*
X184614694Y-87224651D01*
X184614694Y-87224650D01*
X184655875Y-87125230D01*
X184715661Y-87035754D01*
X184791754Y-86959661D01*
X184881230Y-86899875D01*
X184980650Y-86858694D01*
X185033422Y-86848197D01*
X185086193Y-86837700D01*
X185193807Y-86837700D01*
X185246578Y-86848197D01*
G37*
G36*
X163301000Y-87901000D02*
G01*
X161499000Y-87901000D01*
X161499000Y-86099000D01*
X163301000Y-86099000D01*
X163301000Y-87901000D01*
G37*
G36*
X173529591Y-86478085D02*
G01*
X173563569Y-86488393D01*
X173594890Y-86505134D01*
X173622339Y-86527661D01*
X173644866Y-86555110D01*
X173661607Y-86586431D01*
X173671915Y-86620409D01*
X173676000Y-86661890D01*
X173676000Y-87338110D01*
X173671915Y-87379591D01*
X173661607Y-87413569D01*
X173644866Y-87444890D01*
X173622339Y-87472339D01*
X173594890Y-87494866D01*
X173563569Y-87511607D01*
X173529591Y-87521915D01*
X173488110Y-87526000D01*
X172886890Y-87526000D01*
X172845409Y-87521915D01*
X172811431Y-87511607D01*
X172780110Y-87494866D01*
X172752661Y-87472339D01*
X172730134Y-87444890D01*
X172713393Y-87413569D01*
X172703085Y-87379591D01*
X172699000Y-87338110D01*
X172699000Y-86661890D01*
X172703085Y-86620409D01*
X172713393Y-86586431D01*
X172730134Y-86555110D01*
X172752661Y-86527661D01*
X172780110Y-86505134D01*
X172811431Y-86488393D01*
X172845409Y-86478085D01*
X172886890Y-86474000D01*
X173488110Y-86474000D01*
X173529591Y-86478085D01*
G37*
G36*
X171954591Y-86478085D02*
G01*
X171988569Y-86488393D01*
X172019890Y-86505134D01*
X172047339Y-86527661D01*
X172069866Y-86555110D01*
X172086607Y-86586431D01*
X172096915Y-86620409D01*
X172101000Y-86661890D01*
X172101000Y-87338110D01*
X172096915Y-87379591D01*
X172086607Y-87413569D01*
X172069866Y-87444890D01*
X172047339Y-87472339D01*
X172019890Y-87494866D01*
X171988569Y-87511607D01*
X171954591Y-87521915D01*
X171913110Y-87526000D01*
X171311890Y-87526000D01*
X171270409Y-87521915D01*
X171236431Y-87511607D01*
X171205110Y-87494866D01*
X171177661Y-87472339D01*
X171155134Y-87444890D01*
X171138393Y-87413569D01*
X171128085Y-87379591D01*
X171124000Y-87338110D01*
X171124000Y-86661890D01*
X171128085Y-86620409D01*
X171138393Y-86586431D01*
X171155134Y-86555110D01*
X171177661Y-86527661D01*
X171205110Y-86505134D01*
X171236431Y-86488393D01*
X171270409Y-86478085D01*
X171311890Y-86474000D01*
X171913110Y-86474000D01*
X171954591Y-86478085D01*
G37*
G36*
X169765671Y-85655161D02*
G01*
X169799649Y-85665469D01*
X169830970Y-85682210D01*
X169863184Y-85708648D01*
X169903035Y-85748499D01*
X169903041Y-85748504D01*
X170301496Y-86146959D01*
X170301501Y-86146965D01*
X170341352Y-86186816D01*
X170367790Y-86219030D01*
X170384531Y-86250351D01*
X170394839Y-86284329D01*
X170398319Y-86319670D01*
X170394839Y-86355011D01*
X170384531Y-86388989D01*
X170367790Y-86420310D01*
X170341352Y-86452524D01*
X170301501Y-86492375D01*
X170301496Y-86492381D01*
X169956075Y-86837802D01*
X169956069Y-86837807D01*
X169916218Y-86877658D01*
X169884004Y-86904096D01*
X169852683Y-86920837D01*
X169818705Y-86931145D01*
X169783364Y-86934625D01*
X169748023Y-86931145D01*
X169714045Y-86920837D01*
X169682724Y-86904096D01*
X169650510Y-86877658D01*
X169610659Y-86837807D01*
X169610653Y-86837802D01*
X169212198Y-86439347D01*
X169212193Y-86439341D01*
X169172342Y-86399490D01*
X169145904Y-86367276D01*
X169129163Y-86335955D01*
X169118855Y-86301977D01*
X169115375Y-86266636D01*
X169118855Y-86231295D01*
X169129163Y-86197317D01*
X169145904Y-86165996D01*
X169172342Y-86133782D01*
X169212193Y-86093931D01*
X169212198Y-86093925D01*
X169557619Y-85748504D01*
X169557625Y-85748499D01*
X169597476Y-85708648D01*
X169629690Y-85682210D01*
X169661011Y-85665469D01*
X169694989Y-85655161D01*
X169730330Y-85651681D01*
X169765671Y-85655161D01*
G37*
G36*
X184724549Y-81371116D02*
G01*
X184835734Y-81393232D01*
X185045203Y-81479997D01*
X185233720Y-81605960D01*
X185394040Y-81766280D01*
X185520003Y-81954797D01*
X185520004Y-81954799D01*
X185606768Y-82164267D01*
X185651000Y-82386635D01*
X185651000Y-82613365D01*
X185638385Y-82676784D01*
X185606768Y-82835734D01*
X185520003Y-83045203D01*
X185394040Y-83233720D01*
X185233720Y-83394040D01*
X185045203Y-83520003D01*
X184835734Y-83606768D01*
X184724549Y-83628884D01*
X184613365Y-83651000D01*
X184386635Y-83651000D01*
X184275451Y-83628884D01*
X184164266Y-83606768D01*
X183954797Y-83520003D01*
X183766280Y-83394040D01*
X183605960Y-83233720D01*
X183479997Y-83045203D01*
X183393232Y-82835734D01*
X183361615Y-82676784D01*
X183349000Y-82613365D01*
X183349000Y-82386635D01*
X183393232Y-82164267D01*
X183479996Y-81954799D01*
X183479997Y-81954797D01*
X183605960Y-81766280D01*
X183766280Y-81605960D01*
X183954797Y-81479997D01*
X184164266Y-81393232D01*
X184275451Y-81371116D01*
X184386635Y-81349000D01*
X184613365Y-81349000D01*
X184724549Y-81371116D01*
G37*
G36*
X161724549Y-81371116D02*
G01*
X161835734Y-81393232D01*
X162045203Y-81479997D01*
X162233720Y-81605960D01*
X162394040Y-81766280D01*
X162520003Y-81954797D01*
X162520004Y-81954799D01*
X162606768Y-82164267D01*
X162651000Y-82386635D01*
X162651000Y-82613365D01*
X162638385Y-82676784D01*
X162606768Y-82835734D01*
X162520003Y-83045203D01*
X162394040Y-83233720D01*
X162233720Y-83394040D01*
X162045203Y-83520003D01*
X161835734Y-83606768D01*
X161724549Y-83628884D01*
X161613365Y-83651000D01*
X161386635Y-83651000D01*
X161275451Y-83628884D01*
X161164266Y-83606768D01*
X160954797Y-83520003D01*
X160766280Y-83394040D01*
X160605960Y-83233720D01*
X160479997Y-83045203D01*
X160393232Y-82835734D01*
X160361615Y-82676784D01*
X160349000Y-82613365D01*
X160349000Y-82386635D01*
X160393232Y-82164267D01*
X160479996Y-81954799D01*
X160479997Y-81954797D01*
X160605960Y-81766280D01*
X160766280Y-81605960D01*
X160954797Y-81479997D01*
X161164266Y-81393232D01*
X161275451Y-81371116D01*
X161386635Y-81349000D01*
X161613365Y-81349000D01*
X161724549Y-81371116D01*
G37*
G36*
X173243512Y-81353927D02*
G01*
X173392812Y-81383624D01*
X173556784Y-81451544D01*
X173704354Y-81550147D01*
X173829853Y-81675646D01*
X173928456Y-81823216D01*
X173996376Y-81987188D01*
X174031000Y-82161259D01*
X174031000Y-82338741D01*
X173996376Y-82512812D01*
X173928456Y-82676784D01*
X173829853Y-82824354D01*
X173704354Y-82949853D01*
X173556784Y-83048456D01*
X173392812Y-83116376D01*
X173243512Y-83146073D01*
X173218742Y-83151000D01*
X173041258Y-83151000D01*
X173016488Y-83146073D01*
X172867188Y-83116376D01*
X172703216Y-83048456D01*
X172555646Y-82949853D01*
X172430147Y-82824354D01*
X172331544Y-82676784D01*
X172263624Y-82512812D01*
X172229000Y-82338741D01*
X172229000Y-82161259D01*
X172263624Y-81987188D01*
X172331544Y-81823216D01*
X172430147Y-81675646D01*
X172555646Y-81550147D01*
X172703216Y-81451544D01*
X172867188Y-81383624D01*
X173016488Y-81353927D01*
X173041258Y-81349000D01*
X173218742Y-81349000D01*
X173243512Y-81353927D01*
G37*
G36*
X170703512Y-81353927D02*
G01*
X170852812Y-81383624D01*
X171016784Y-81451544D01*
X171164354Y-81550147D01*
X171289853Y-81675646D01*
X171388456Y-81823216D01*
X171456376Y-81987188D01*
X171491000Y-82161259D01*
X171491000Y-82338741D01*
X171456376Y-82512812D01*
X171388456Y-82676784D01*
X171289853Y-82824354D01*
X171164354Y-82949853D01*
X171016784Y-83048456D01*
X170852812Y-83116376D01*
X170703512Y-83146073D01*
X170678742Y-83151000D01*
X170501258Y-83151000D01*
X170476488Y-83146073D01*
X170327188Y-83116376D01*
X170163216Y-83048456D01*
X170015646Y-82949853D01*
X169890147Y-82824354D01*
X169791544Y-82676784D01*
X169723624Y-82512812D01*
X169689000Y-82338741D01*
X169689000Y-82161259D01*
X169723624Y-81987188D01*
X169791544Y-81823216D01*
X169890147Y-81675646D01*
X170015646Y-81550147D01*
X170163216Y-81451544D01*
X170327188Y-81383624D01*
X170476488Y-81353927D01*
X170501258Y-81349000D01*
X170678742Y-81349000D01*
X170703512Y-81353927D01*
G37*
G36*
X165623512Y-81353927D02*
G01*
X165772812Y-81383624D01*
X165936784Y-81451544D01*
X166084354Y-81550147D01*
X166209853Y-81675646D01*
X166308456Y-81823216D01*
X166376376Y-81987188D01*
X166411000Y-82161259D01*
X166411000Y-82338741D01*
X166376376Y-82512812D01*
X166308456Y-82676784D01*
X166209853Y-82824354D01*
X166084354Y-82949853D01*
X165936784Y-83048456D01*
X165772812Y-83116376D01*
X165623512Y-83146073D01*
X165598742Y-83151000D01*
X165421258Y-83151000D01*
X165396488Y-83146073D01*
X165247188Y-83116376D01*
X165083216Y-83048456D01*
X164935646Y-82949853D01*
X164810147Y-82824354D01*
X164711544Y-82676784D01*
X164643624Y-82512812D01*
X164609000Y-82338741D01*
X164609000Y-82161259D01*
X164643624Y-81987188D01*
X164711544Y-81823216D01*
X164810147Y-81675646D01*
X164935646Y-81550147D01*
X165083216Y-81451544D01*
X165247188Y-81383624D01*
X165396488Y-81353927D01*
X165421258Y-81349000D01*
X165598742Y-81349000D01*
X165623512Y-81353927D01*
G37*
G36*
X168163512Y-81353927D02*
G01*
X168312812Y-81383624D01*
X168476784Y-81451544D01*
X168624354Y-81550147D01*
X168749853Y-81675646D01*
X168848456Y-81823216D01*
X168916376Y-81987188D01*
X168951000Y-82161259D01*
X168951000Y-82338741D01*
X168916376Y-82512812D01*
X168848456Y-82676784D01*
X168749853Y-82824354D01*
X168624354Y-82949853D01*
X168476784Y-83048456D01*
X168312812Y-83116376D01*
X168163512Y-83146073D01*
X168138742Y-83151000D01*
X167961258Y-83151000D01*
X167936488Y-83146073D01*
X167787188Y-83116376D01*
X167623216Y-83048456D01*
X167475646Y-82949853D01*
X167350147Y-82824354D01*
X167251544Y-82676784D01*
X167183624Y-82512812D01*
X167149000Y-82338741D01*
X167149000Y-82161259D01*
X167183624Y-81987188D01*
X167251544Y-81823216D01*
X167350147Y-81675646D01*
X167475646Y-81550147D01*
X167623216Y-81451544D01*
X167787188Y-81383624D01*
X167936488Y-81353927D01*
X167961258Y-81349000D01*
X168138742Y-81349000D01*
X168163512Y-81353927D01*
G37*
G36*
X175783512Y-81353927D02*
G01*
X175932812Y-81383624D01*
X176096784Y-81451544D01*
X176244354Y-81550147D01*
X176369853Y-81675646D01*
X176468456Y-81823216D01*
X176536376Y-81987188D01*
X176571000Y-82161259D01*
X176571000Y-82338741D01*
X176536376Y-82512812D01*
X176468456Y-82676784D01*
X176369853Y-82824354D01*
X176244354Y-82949853D01*
X176096784Y-83048456D01*
X175932812Y-83116376D01*
X175783512Y-83146073D01*
X175758742Y-83151000D01*
X175581258Y-83151000D01*
X175556488Y-83146073D01*
X175407188Y-83116376D01*
X175243216Y-83048456D01*
X175095646Y-82949853D01*
X174970147Y-82824354D01*
X174871544Y-82676784D01*
X174803624Y-82512812D01*
X174769000Y-82338741D01*
X174769000Y-82161259D01*
X174803624Y-81987188D01*
X174871544Y-81823216D01*
X174970147Y-81675646D01*
X175095646Y-81550147D01*
X175243216Y-81451544D01*
X175407188Y-81383624D01*
X175556488Y-81353927D01*
X175581258Y-81349000D01*
X175758742Y-81349000D01*
X175783512Y-81353927D01*
G37*
G36*
X178323512Y-81353927D02*
G01*
X178472812Y-81383624D01*
X178636784Y-81451544D01*
X178784354Y-81550147D01*
X178909853Y-81675646D01*
X179008456Y-81823216D01*
X179076376Y-81987188D01*
X179111000Y-82161259D01*
X179111000Y-82338741D01*
X179076376Y-82512812D01*
X179008456Y-82676784D01*
X178909853Y-82824354D01*
X178784354Y-82949853D01*
X178636784Y-83048456D01*
X178472812Y-83116376D01*
X178323512Y-83146073D01*
X178298742Y-83151000D01*
X178121258Y-83151000D01*
X178096488Y-83146073D01*
X177947188Y-83116376D01*
X177783216Y-83048456D01*
X177635646Y-82949853D01*
X177510147Y-82824354D01*
X177411544Y-82676784D01*
X177343624Y-82512812D01*
X177309000Y-82338741D01*
X177309000Y-82161259D01*
X177343624Y-81987188D01*
X177411544Y-81823216D01*
X177510147Y-81675646D01*
X177635646Y-81550147D01*
X177783216Y-81451544D01*
X177947188Y-81383624D01*
X178096488Y-81353927D01*
X178121258Y-81349000D01*
X178298742Y-81349000D01*
X178323512Y-81353927D01*
G37*
G36*
X181651000Y-83151000D02*
G01*
X179849000Y-83151000D01*
X179849000Y-81349000D01*
X181651000Y-81349000D01*
X181651000Y-83151000D01*
G37*
M02*
