M48
; DRILL file {KiCad 5.1.5+dfsg1-2build2} date Sat 15 Jan 2022 02:27:09 PM
; FORMAT={-:-/ absolute / metric / decimal}
; #@! TF.CreationDate,2022-01-15T14:27:09-08:00
; #@! TF.GenerationSoftware,Kicad,Pcbnew,5.1.5+dfsg1-2build2
; #@! TF.FileFunction,Plated,1,2,PTH
FMAT,2
METRIC
T1C0.300
T2C0.800
T3C1.000
%
G90
G05
T1
X164.8Y-119.6
X165.4Y-121.5
X165.7Y-119.6
X166.0Y-93.8
X166.0Y-121.5
X166.419Y-124.981
X166.6Y-87.2
X166.6Y-121.5
X167.2Y-84.8
X167.2Y-86.6
X167.8Y-86.0
X168.25Y-110.25
X168.4Y-112.2
X169.2Y-119.7
X169.4Y-124.2
X169.9Y-121.5
X170.1Y-119.7
X170.25Y-110.5
X170.5Y-105.5
X170.5Y-121.5
X170.6Y-84.0
X170.8Y-112.2
X171.1Y-121.5
X171.3Y-105.5
X171.5Y-88.25
X172.5Y-110.75
X172.8Y-119.775
X173.0Y-112.2
X173.1Y-124.4
X173.125Y-125.8
X173.4Y-90.0
X173.4Y-91.2
X173.4Y-92.4
X173.4Y-101.0
X173.4Y-101.8
X173.5Y-123.7
X173.6Y-119.0
X173.6Y-126.8
X174.2Y-101.0
X174.2Y-101.8
X174.4Y-121.5
X174.6Y-90.0
X174.6Y-91.2
X174.6Y-92.4
X174.75Y-96.0
X175.0Y-101.0
X175.0Y-101.8
X175.0Y-121.5
X175.5Y-84.5
X175.6Y-121.5
X175.75Y-95.0
X175.75Y-96.0
X175.8Y-90.0
X175.8Y-91.2
X175.8Y-92.4
X177.2Y-127.6
X177.493Y-85.175
X178.205Y-119.888
X178.4Y-124.0
X178.9Y-121.5
X179.1Y-119.9
X179.2Y-90.3
X179.5Y-121.5
X180.1Y-121.5
X180.5Y-90.3
X180.5Y-99.25
X181.25Y-86.25
X181.25Y-110.5
X182.0Y-112.2
X182.75Y-96.6
X182.75Y-97.4
X183.55Y-96.6
X183.55Y-97.4
X183.8Y-86.0
X184.35Y-96.6
X184.35Y-97.4
X185.75Y-103.75
T2
X175.0Y-119.0
X175.0Y-124.08
T3
X162.4Y-87.0
X162.4Y-89.54
X162.4Y-92.08
X162.4Y-94.62
X165.51Y-82.25
X168.05Y-82.25
X170.59Y-82.25
X173.13Y-82.25
X175.67Y-82.25
X178.21Y-82.25
X180.75Y-82.25
T0
M30
