G04 #@! TF.GenerationSoftware,KiCad,Pcbnew,5.1.5+dfsg1-2build2*
G04 #@! TF.CreationDate,2022-01-22T12:50:49-08:00*
G04 #@! TF.ProjectId,pcb_v1,7063625f-7631-42e6-9b69-6361645f7063,rev?*
G04 #@! TF.SameCoordinates,Original*
G04 #@! TF.FileFunction,Soldermask,Bot*
G04 #@! TF.FilePolarity,Negative*
%FSLAX46Y46*%
G04 Gerber Fmt 4.6, Leading zero omitted, Abs format (unit mm)*
G04 Created by KiCad (PCBNEW 5.1.5+dfsg1-2build2) date 2022-01-22 12:50:49*
%MOMM*%
%LPD*%
G04 APERTURE LIST*
%ADD10C,0.300000*%
%ADD11C,0.010000*%
%ADD12C,0.100000*%
G04 APERTURE END LIST*
D10*
X167771428Y-92807142D02*
X167857142Y-93064285D01*
X167942857Y-93150000D01*
X168114285Y-93235714D01*
X168371428Y-93235714D01*
X168542857Y-93150000D01*
X168628571Y-93064285D01*
X168714285Y-92892857D01*
X168714285Y-92207142D01*
X166914285Y-92207142D01*
X166914285Y-92807142D01*
X167000000Y-92978571D01*
X167085714Y-93064285D01*
X167257142Y-93150000D01*
X167428571Y-93150000D01*
X167600000Y-93064285D01*
X167685714Y-92978571D01*
X167771428Y-92807142D01*
X167771428Y-92207142D01*
X168714285Y-94007142D02*
X167514285Y-94007142D01*
X166914285Y-94007142D02*
X167000000Y-93921428D01*
X167085714Y-94007142D01*
X167000000Y-94092857D01*
X166914285Y-94007142D01*
X167085714Y-94007142D01*
X168714285Y-95121428D02*
X168628571Y-94950000D01*
X168542857Y-94864285D01*
X168371428Y-94778571D01*
X167857142Y-94778571D01*
X167685714Y-94864285D01*
X167600000Y-94950000D01*
X167514285Y-95121428D01*
X167514285Y-95378571D01*
X167600000Y-95550000D01*
X167685714Y-95635714D01*
X167857142Y-95721428D01*
X168371428Y-95721428D01*
X168542857Y-95635714D01*
X168628571Y-95550000D01*
X168714285Y-95378571D01*
X168714285Y-95121428D01*
X168714285Y-96492857D02*
X166914285Y-96492857D01*
X168200000Y-97092857D01*
X166914285Y-97692857D01*
X168714285Y-97692857D01*
X167771428Y-98550000D02*
X167771428Y-99150000D01*
X168714285Y-99407142D02*
X168714285Y-98550000D01*
X166914285Y-98550000D01*
X166914285Y-99407142D01*
X168714285Y-100178571D02*
X166914285Y-100178571D01*
X168200000Y-100778571D01*
X166914285Y-101378571D01*
X168714285Y-101378571D01*
X168628571Y-102150000D02*
X168714285Y-102407142D01*
X168714285Y-102835714D01*
X168628571Y-103007142D01*
X168542857Y-103092857D01*
X168371428Y-103178571D01*
X168200000Y-103178571D01*
X168028571Y-103092857D01*
X167942857Y-103007142D01*
X167857142Y-102835714D01*
X167771428Y-102492857D01*
X167685714Y-102321428D01*
X167600000Y-102235714D01*
X167428571Y-102150000D01*
X167257142Y-102150000D01*
X167085714Y-102235714D01*
X167000000Y-102321428D01*
X166914285Y-102492857D01*
X166914285Y-102921428D01*
X167000000Y-103178571D01*
D11*
G36*
X162103050Y-102274784D02*
G01*
X162440948Y-102273095D01*
X162732067Y-102271486D01*
X162980427Y-102269822D01*
X163190050Y-102267966D01*
X163364954Y-102265784D01*
X163509162Y-102263138D01*
X163626693Y-102259894D01*
X163721567Y-102255916D01*
X163797806Y-102251067D01*
X163859429Y-102245213D01*
X163910458Y-102238216D01*
X163954912Y-102229942D01*
X163996812Y-102220255D01*
X164038693Y-102209413D01*
X164368705Y-102096892D01*
X164670944Y-101942284D01*
X164944204Y-101746803D01*
X165187278Y-101511662D01*
X165398960Y-101238074D01*
X165578044Y-100927253D01*
X165723325Y-100580411D01*
X165756192Y-100482025D01*
X165784719Y-100391921D01*
X165806096Y-100323970D01*
X165816721Y-100289638D01*
X165817277Y-100287607D01*
X165809494Y-100265155D01*
X165789014Y-100205089D01*
X165759415Y-100117919D01*
X165739921Y-100060389D01*
X165597162Y-99704286D01*
X165423453Y-99388388D01*
X165218350Y-99112283D01*
X164981413Y-98875559D01*
X164712197Y-98677803D01*
X164410262Y-98518600D01*
X164075164Y-98397540D01*
X163912800Y-98355250D01*
X163869615Y-98346278D01*
X163820266Y-98338505D01*
X163760752Y-98331811D01*
X163687070Y-98326080D01*
X163595218Y-98321192D01*
X163481194Y-98317030D01*
X163340996Y-98313474D01*
X163170621Y-98310409D01*
X162966068Y-98307714D01*
X162723335Y-98305272D01*
X162438420Y-98302964D01*
X162107320Y-98300673D01*
X162052250Y-98300316D01*
X160560000Y-98290708D01*
X160560000Y-98471200D01*
X162052250Y-98471302D01*
X162384370Y-98471558D01*
X162669845Y-98472340D01*
X162912828Y-98473738D01*
X163117474Y-98475843D01*
X163287934Y-98478747D01*
X163428362Y-98482542D01*
X163542911Y-98487317D01*
X163635735Y-98493166D01*
X163710986Y-98500177D01*
X163772819Y-98508444D01*
X163777585Y-98509207D01*
X164111079Y-98586717D01*
X164416301Y-98706370D01*
X164693035Y-98867961D01*
X164941065Y-99071282D01*
X165160177Y-99316127D01*
X165350153Y-99602291D01*
X165510780Y-99929568D01*
X165639350Y-100289455D01*
X165632418Y-100312646D01*
X165613610Y-100371434D01*
X165586971Y-100453174D01*
X165586518Y-100454555D01*
X165488278Y-100708166D01*
X165364055Y-100956339D01*
X165221266Y-101186676D01*
X165067328Y-101386777D01*
X164963613Y-101495889D01*
X164791325Y-101649890D01*
X164629987Y-101770310D01*
X164463891Y-101866814D01*
X164277328Y-101949065D01*
X164154100Y-101993860D01*
X164072509Y-102020457D01*
X163991404Y-102043328D01*
X163906370Y-102062752D01*
X163812996Y-102079004D01*
X163706868Y-102092363D01*
X163583574Y-102103106D01*
X163438700Y-102111510D01*
X163267834Y-102117853D01*
X163066563Y-102122411D01*
X162830475Y-102125462D01*
X162555155Y-102127283D01*
X162236192Y-102128152D01*
X162014150Y-102128334D01*
X160560000Y-102128800D01*
X160560000Y-98471200D01*
X160560000Y-98290708D01*
X160382200Y-98289563D01*
X160382200Y-102283205D01*
X162103050Y-102274784D01*
G37*
X162103050Y-102274784D02*
X162440948Y-102273095D01*
X162732067Y-102271486D01*
X162980427Y-102269822D01*
X163190050Y-102267966D01*
X163364954Y-102265784D01*
X163509162Y-102263138D01*
X163626693Y-102259894D01*
X163721567Y-102255916D01*
X163797806Y-102251067D01*
X163859429Y-102245213D01*
X163910458Y-102238216D01*
X163954912Y-102229942D01*
X163996812Y-102220255D01*
X164038693Y-102209413D01*
X164368705Y-102096892D01*
X164670944Y-101942284D01*
X164944204Y-101746803D01*
X165187278Y-101511662D01*
X165398960Y-101238074D01*
X165578044Y-100927253D01*
X165723325Y-100580411D01*
X165756192Y-100482025D01*
X165784719Y-100391921D01*
X165806096Y-100323970D01*
X165816721Y-100289638D01*
X165817277Y-100287607D01*
X165809494Y-100265155D01*
X165789014Y-100205089D01*
X165759415Y-100117919D01*
X165739921Y-100060389D01*
X165597162Y-99704286D01*
X165423453Y-99388388D01*
X165218350Y-99112283D01*
X164981413Y-98875559D01*
X164712197Y-98677803D01*
X164410262Y-98518600D01*
X164075164Y-98397540D01*
X163912800Y-98355250D01*
X163869615Y-98346278D01*
X163820266Y-98338505D01*
X163760752Y-98331811D01*
X163687070Y-98326080D01*
X163595218Y-98321192D01*
X163481194Y-98317030D01*
X163340996Y-98313474D01*
X163170621Y-98310409D01*
X162966068Y-98307714D01*
X162723335Y-98305272D01*
X162438420Y-98302964D01*
X162107320Y-98300673D01*
X162052250Y-98300316D01*
X160560000Y-98290708D01*
X160560000Y-98471200D01*
X162052250Y-98471302D01*
X162384370Y-98471558D01*
X162669845Y-98472340D01*
X162912828Y-98473738D01*
X163117474Y-98475843D01*
X163287934Y-98478747D01*
X163428362Y-98482542D01*
X163542911Y-98487317D01*
X163635735Y-98493166D01*
X163710986Y-98500177D01*
X163772819Y-98508444D01*
X163777585Y-98509207D01*
X164111079Y-98586717D01*
X164416301Y-98706370D01*
X164693035Y-98867961D01*
X164941065Y-99071282D01*
X165160177Y-99316127D01*
X165350153Y-99602291D01*
X165510780Y-99929568D01*
X165639350Y-100289455D01*
X165632418Y-100312646D01*
X165613610Y-100371434D01*
X165586971Y-100453174D01*
X165586518Y-100454555D01*
X165488278Y-100708166D01*
X165364055Y-100956339D01*
X165221266Y-101186676D01*
X165067328Y-101386777D01*
X164963613Y-101495889D01*
X164791325Y-101649890D01*
X164629987Y-101770310D01*
X164463891Y-101866814D01*
X164277328Y-101949065D01*
X164154100Y-101993860D01*
X164072509Y-102020457D01*
X163991404Y-102043328D01*
X163906370Y-102062752D01*
X163812996Y-102079004D01*
X163706868Y-102092363D01*
X163583574Y-102103106D01*
X163438700Y-102111510D01*
X163267834Y-102117853D01*
X163066563Y-102122411D01*
X162830475Y-102125462D01*
X162555155Y-102127283D01*
X162236192Y-102128152D01*
X162014150Y-102128334D01*
X160560000Y-102128800D01*
X160560000Y-98471200D01*
X160560000Y-98290708D01*
X160382200Y-98289563D01*
X160382200Y-102283205D01*
X162103050Y-102274784D01*
G36*
X162427541Y-100302784D02*
G01*
X162458443Y-100310922D01*
X162512888Y-100321205D01*
X162595740Y-100334433D01*
X162711863Y-100351407D01*
X162866122Y-100372928D01*
X163063379Y-100399798D01*
X163183678Y-100416031D01*
X163365168Y-100441160D01*
X163527970Y-100465029D01*
X163665952Y-100486630D01*
X163772984Y-100504958D01*
X163842934Y-100519004D01*
X163869672Y-100527762D01*
X163869478Y-100528653D01*
X163842925Y-100546084D01*
X163778923Y-100585827D01*
X163683629Y-100644129D01*
X163563197Y-100717237D01*
X163423782Y-100801397D01*
X163308443Y-100870728D01*
X163160481Y-100959957D01*
X163028553Y-101040382D01*
X162918421Y-101108417D01*
X162835848Y-101160478D01*
X162786597Y-101192982D01*
X162775043Y-101202480D01*
X162800793Y-101199039D01*
X162869145Y-101185511D01*
X162973234Y-101163376D01*
X163106196Y-101134114D01*
X163261165Y-101099206D01*
X163377494Y-101072565D01*
X163543743Y-101034678D01*
X163692817Y-101001532D01*
X163817834Y-100974590D01*
X163911910Y-100955314D01*
X163968160Y-100945168D01*
X163981320Y-100944254D01*
X163979406Y-100953574D01*
X163963127Y-100975999D01*
X163928885Y-101015428D01*
X163873079Y-101075762D01*
X163792108Y-101160898D01*
X163682372Y-101274735D01*
X163553443Y-101407623D01*
X163468580Y-101496118D01*
X163398378Y-101571586D01*
X163349566Y-101626624D01*
X163328874Y-101653831D01*
X163328600Y-101654902D01*
X163331368Y-101659364D01*
X163343267Y-101658746D01*
X163369687Y-101650984D01*
X163416018Y-101634009D01*
X163487650Y-101605755D01*
X163589973Y-101564154D01*
X163728378Y-101507141D01*
X163908253Y-101432647D01*
X163909133Y-101432282D01*
X164026535Y-101384956D01*
X164122997Y-101348680D01*
X164191084Y-101326040D01*
X164223358Y-101319617D01*
X164224097Y-101322864D01*
X164149786Y-101420045D01*
X164071398Y-101525126D01*
X163994641Y-101630131D01*
X163925219Y-101727085D01*
X163868839Y-101808012D01*
X163831205Y-101864938D01*
X163818023Y-101889886D01*
X163818182Y-101890249D01*
X163846737Y-101886987D01*
X163911684Y-101865184D01*
X164003807Y-101828670D01*
X164113891Y-101781279D01*
X164232720Y-101726843D01*
X164351080Y-101669194D01*
X164357300Y-101666053D01*
X164591410Y-101530122D01*
X164789440Y-101374534D01*
X164960817Y-101190097D01*
X165114970Y-100967616D01*
X165169159Y-100874479D01*
X165217716Y-100781137D01*
X165269321Y-100671700D01*
X165319134Y-100557788D01*
X165362318Y-100451021D01*
X165394033Y-100363019D01*
X165409440Y-100305402D01*
X165410158Y-100295768D01*
X165400824Y-100255552D01*
X165377747Y-100184559D01*
X165350145Y-100109333D01*
X165214993Y-99802065D01*
X165062895Y-99539993D01*
X164891324Y-99319601D01*
X164697752Y-99137373D01*
X164598600Y-99064010D01*
X164514959Y-99011719D01*
X164409850Y-98953179D01*
X164292229Y-98892535D01*
X164171053Y-98833930D01*
X164055277Y-98781509D01*
X163953858Y-98739416D01*
X163875752Y-98711795D01*
X163829916Y-98702789D01*
X163822857Y-98705075D01*
X163832859Y-98728526D01*
X163868589Y-98784478D01*
X163924783Y-98865182D01*
X163996175Y-98962889D01*
X164016405Y-98989894D01*
X164090962Y-99090614D01*
X164151868Y-99176145D01*
X164193818Y-99238783D01*
X164211505Y-99270823D01*
X164211482Y-99273184D01*
X164185910Y-99267181D01*
X164121157Y-99244188D01*
X164024781Y-99207110D01*
X163904343Y-99158851D01*
X163774158Y-99105141D01*
X163637778Y-99048968D01*
X163518192Y-99001281D01*
X163422976Y-98964971D01*
X163359704Y-98942932D01*
X163336076Y-98937856D01*
X163349392Y-98958621D01*
X163393100Y-99009792D01*
X163461943Y-99085590D01*
X163550662Y-99180230D01*
X163654000Y-99287932D01*
X163660681Y-99294818D01*
X163764776Y-99402993D01*
X163854678Y-99498258D01*
X163925114Y-99574874D01*
X163970812Y-99627099D01*
X163986501Y-99649192D01*
X163986365Y-99649441D01*
X163959863Y-99646415D01*
X163890891Y-99633177D01*
X163786412Y-99611213D01*
X163653391Y-99582012D01*
X163498791Y-99547063D01*
X163392100Y-99522449D01*
X163226707Y-99484428D01*
X163077839Y-99451018D01*
X162952608Y-99423746D01*
X162858125Y-99404144D01*
X162801504Y-99393742D01*
X162788486Y-99392596D01*
X162803925Y-99406622D01*
X162857509Y-99442983D01*
X162943656Y-99498154D01*
X163056788Y-99568608D01*
X163191323Y-99650820D01*
X163315536Y-99725634D01*
X163464917Y-99815703D01*
X163598728Y-99897641D01*
X163711116Y-99967759D01*
X163796225Y-100022372D01*
X163848204Y-100057790D01*
X163862000Y-100069873D01*
X163837863Y-100077533D01*
X163769667Y-100090720D01*
X163663729Y-100108430D01*
X163526369Y-100129659D01*
X163363904Y-100153404D01*
X163182653Y-100178662D01*
X163144450Y-100183841D01*
X162959603Y-100209044D01*
X162791712Y-100232434D01*
X162647210Y-100253075D01*
X162532528Y-100270031D01*
X162454099Y-100282366D01*
X162418357Y-100289144D01*
X162416914Y-100289733D01*
X162415320Y-100295988D01*
X162427541Y-100302784D01*
G37*
X162427541Y-100302784D02*
X162458443Y-100310922D01*
X162512888Y-100321205D01*
X162595740Y-100334433D01*
X162711863Y-100351407D01*
X162866122Y-100372928D01*
X163063379Y-100399798D01*
X163183678Y-100416031D01*
X163365168Y-100441160D01*
X163527970Y-100465029D01*
X163665952Y-100486630D01*
X163772984Y-100504958D01*
X163842934Y-100519004D01*
X163869672Y-100527762D01*
X163869478Y-100528653D01*
X163842925Y-100546084D01*
X163778923Y-100585827D01*
X163683629Y-100644129D01*
X163563197Y-100717237D01*
X163423782Y-100801397D01*
X163308443Y-100870728D01*
X163160481Y-100959957D01*
X163028553Y-101040382D01*
X162918421Y-101108417D01*
X162835848Y-101160478D01*
X162786597Y-101192982D01*
X162775043Y-101202480D01*
X162800793Y-101199039D01*
X162869145Y-101185511D01*
X162973234Y-101163376D01*
X163106196Y-101134114D01*
X163261165Y-101099206D01*
X163377494Y-101072565D01*
X163543743Y-101034678D01*
X163692817Y-101001532D01*
X163817834Y-100974590D01*
X163911910Y-100955314D01*
X163968160Y-100945168D01*
X163981320Y-100944254D01*
X163979406Y-100953574D01*
X163963127Y-100975999D01*
X163928885Y-101015428D01*
X163873079Y-101075762D01*
X163792108Y-101160898D01*
X163682372Y-101274735D01*
X163553443Y-101407623D01*
X163468580Y-101496118D01*
X163398378Y-101571586D01*
X163349566Y-101626624D01*
X163328874Y-101653831D01*
X163328600Y-101654902D01*
X163331368Y-101659364D01*
X163343267Y-101658746D01*
X163369687Y-101650984D01*
X163416018Y-101634009D01*
X163487650Y-101605755D01*
X163589973Y-101564154D01*
X163728378Y-101507141D01*
X163908253Y-101432647D01*
X163909133Y-101432282D01*
X164026535Y-101384956D01*
X164122997Y-101348680D01*
X164191084Y-101326040D01*
X164223358Y-101319617D01*
X164224097Y-101322864D01*
X164149786Y-101420045D01*
X164071398Y-101525126D01*
X163994641Y-101630131D01*
X163925219Y-101727085D01*
X163868839Y-101808012D01*
X163831205Y-101864938D01*
X163818023Y-101889886D01*
X163818182Y-101890249D01*
X163846737Y-101886987D01*
X163911684Y-101865184D01*
X164003807Y-101828670D01*
X164113891Y-101781279D01*
X164232720Y-101726843D01*
X164351080Y-101669194D01*
X164357300Y-101666053D01*
X164591410Y-101530122D01*
X164789440Y-101374534D01*
X164960817Y-101190097D01*
X165114970Y-100967616D01*
X165169159Y-100874479D01*
X165217716Y-100781137D01*
X165269321Y-100671700D01*
X165319134Y-100557788D01*
X165362318Y-100451021D01*
X165394033Y-100363019D01*
X165409440Y-100305402D01*
X165410158Y-100295768D01*
X165400824Y-100255552D01*
X165377747Y-100184559D01*
X165350145Y-100109333D01*
X165214993Y-99802065D01*
X165062895Y-99539993D01*
X164891324Y-99319601D01*
X164697752Y-99137373D01*
X164598600Y-99064010D01*
X164514959Y-99011719D01*
X164409850Y-98953179D01*
X164292229Y-98892535D01*
X164171053Y-98833930D01*
X164055277Y-98781509D01*
X163953858Y-98739416D01*
X163875752Y-98711795D01*
X163829916Y-98702789D01*
X163822857Y-98705075D01*
X163832859Y-98728526D01*
X163868589Y-98784478D01*
X163924783Y-98865182D01*
X163996175Y-98962889D01*
X164016405Y-98989894D01*
X164090962Y-99090614D01*
X164151868Y-99176145D01*
X164193818Y-99238783D01*
X164211505Y-99270823D01*
X164211482Y-99273184D01*
X164185910Y-99267181D01*
X164121157Y-99244188D01*
X164024781Y-99207110D01*
X163904343Y-99158851D01*
X163774158Y-99105141D01*
X163637778Y-99048968D01*
X163518192Y-99001281D01*
X163422976Y-98964971D01*
X163359704Y-98942932D01*
X163336076Y-98937856D01*
X163349392Y-98958621D01*
X163393100Y-99009792D01*
X163461943Y-99085590D01*
X163550662Y-99180230D01*
X163654000Y-99287932D01*
X163660681Y-99294818D01*
X163764776Y-99402993D01*
X163854678Y-99498258D01*
X163925114Y-99574874D01*
X163970812Y-99627099D01*
X163986501Y-99649192D01*
X163986365Y-99649441D01*
X163959863Y-99646415D01*
X163890891Y-99633177D01*
X163786412Y-99611213D01*
X163653391Y-99582012D01*
X163498791Y-99547063D01*
X163392100Y-99522449D01*
X163226707Y-99484428D01*
X163077839Y-99451018D01*
X162952608Y-99423746D01*
X162858125Y-99404144D01*
X162801504Y-99393742D01*
X162788486Y-99392596D01*
X162803925Y-99406622D01*
X162857509Y-99442983D01*
X162943656Y-99498154D01*
X163056788Y-99568608D01*
X163191323Y-99650820D01*
X163315536Y-99725634D01*
X163464917Y-99815703D01*
X163598728Y-99897641D01*
X163711116Y-99967759D01*
X163796225Y-100022372D01*
X163848204Y-100057790D01*
X163862000Y-100069873D01*
X163837863Y-100077533D01*
X163769667Y-100090720D01*
X163663729Y-100108430D01*
X163526369Y-100129659D01*
X163363904Y-100153404D01*
X163182653Y-100178662D01*
X163144450Y-100183841D01*
X162959603Y-100209044D01*
X162791712Y-100232434D01*
X162647210Y-100253075D01*
X162532528Y-100270031D01*
X162454099Y-100282366D01*
X162418357Y-100289144D01*
X162416914Y-100289733D01*
X162415320Y-100295988D01*
X162427541Y-100302784D01*
G36*
X162899911Y-99263545D02*
G01*
X162916568Y-99297596D01*
X162957755Y-99313566D01*
X162979350Y-99317788D01*
X163056809Y-99333836D01*
X163119050Y-99349473D01*
X163150738Y-99355560D01*
X163167835Y-99343181D01*
X163174827Y-99301761D01*
X163176198Y-99220722D01*
X163176200Y-99214738D01*
X163186267Y-99093656D01*
X163212143Y-98965146D01*
X163227000Y-98915700D01*
X163262599Y-98806763D01*
X163276983Y-98736742D01*
X163266994Y-98697070D01*
X163229476Y-98679180D01*
X163161274Y-98674507D01*
X163138100Y-98674400D01*
X163056923Y-98676816D01*
X163014650Y-98686736D01*
X162999504Y-98708161D01*
X162998400Y-98721891D01*
X162990915Y-98770056D01*
X162971413Y-98848279D01*
X162947600Y-98928400D01*
X162920159Y-99031469D01*
X162901714Y-99133638D01*
X162896800Y-99195085D01*
X162899911Y-99263545D01*
G37*
X162899911Y-99263545D02*
X162916568Y-99297596D01*
X162957755Y-99313566D01*
X162979350Y-99317788D01*
X163056809Y-99333836D01*
X163119050Y-99349473D01*
X163150738Y-99355560D01*
X163167835Y-99343181D01*
X163174827Y-99301761D01*
X163176198Y-99220722D01*
X163176200Y-99214738D01*
X163186267Y-99093656D01*
X163212143Y-98965146D01*
X163227000Y-98915700D01*
X163262599Y-98806763D01*
X163276983Y-98736742D01*
X163266994Y-98697070D01*
X163229476Y-98679180D01*
X163161274Y-98674507D01*
X163138100Y-98674400D01*
X163056923Y-98676816D01*
X163014650Y-98686736D01*
X162999504Y-98708161D01*
X162998400Y-98721891D01*
X162990915Y-98770056D01*
X162971413Y-98848279D01*
X162947600Y-98928400D01*
X162920159Y-99031469D01*
X162901714Y-99133638D01*
X162896800Y-99195085D01*
X162899911Y-99263545D01*
G36*
X162931663Y-100089330D02*
G01*
X162960369Y-100091975D01*
X163022847Y-100087792D01*
X163070105Y-100082298D01*
X163147908Y-100068910D01*
X163192523Y-100047292D01*
X163221414Y-100005380D01*
X163238170Y-99966216D01*
X163262879Y-99900349D01*
X163276724Y-99855464D01*
X163277800Y-99848451D01*
X163257870Y-99825925D01*
X163206707Y-99788228D01*
X163162464Y-99760065D01*
X163093040Y-99720720D01*
X163040236Y-99695461D01*
X163022764Y-99690400D01*
X163006423Y-99712673D01*
X162998531Y-99767188D01*
X162998400Y-99776106D01*
X162989548Y-99855795D01*
X162967542Y-99947612D01*
X162960028Y-99970568D01*
X162939103Y-100037526D01*
X162930429Y-100081452D01*
X162931663Y-100089330D01*
G37*
X162931663Y-100089330D02*
X162960369Y-100091975D01*
X163022847Y-100087792D01*
X163070105Y-100082298D01*
X163147908Y-100068910D01*
X163192523Y-100047292D01*
X163221414Y-100005380D01*
X163238170Y-99966216D01*
X163262879Y-99900349D01*
X163276724Y-99855464D01*
X163277800Y-99848451D01*
X163257870Y-99825925D01*
X163206707Y-99788228D01*
X163162464Y-99760065D01*
X163093040Y-99720720D01*
X163040236Y-99695461D01*
X163022764Y-99690400D01*
X163006423Y-99712673D01*
X162998531Y-99767188D01*
X162998400Y-99776106D01*
X162989548Y-99855795D01*
X162967542Y-99947612D01*
X162960028Y-99970568D01*
X162939103Y-100037526D01*
X162930429Y-100081452D01*
X162931663Y-100089330D01*
G36*
X162929888Y-100540208D02*
G01*
X162949307Y-100598639D01*
X162960300Y-100630200D01*
X162984712Y-100720061D01*
X162997734Y-100808270D01*
X162998400Y-100826610D01*
X163001226Y-100876814D01*
X163015286Y-100899499D01*
X163048949Y-100894442D01*
X163110588Y-100861419D01*
X163174266Y-100821920D01*
X163238736Y-100779541D01*
X163267493Y-100746874D01*
X163267149Y-100705541D01*
X163244319Y-100637159D01*
X163242525Y-100632201D01*
X163208489Y-100568663D01*
X163166846Y-100528323D01*
X163161907Y-100526036D01*
X163114605Y-100514933D01*
X163048811Y-100507319D01*
X162982859Y-100504214D01*
X162935080Y-100506637D01*
X162922200Y-100512706D01*
X162929888Y-100540208D01*
G37*
X162929888Y-100540208D02*
X162949307Y-100598639D01*
X162960300Y-100630200D01*
X162984712Y-100720061D01*
X162997734Y-100808270D01*
X162998400Y-100826610D01*
X163001226Y-100876814D01*
X163015286Y-100899499D01*
X163048949Y-100894442D01*
X163110588Y-100861419D01*
X163174266Y-100821920D01*
X163238736Y-100779541D01*
X163267493Y-100746874D01*
X163267149Y-100705541D01*
X163244319Y-100637159D01*
X163242525Y-100632201D01*
X163208489Y-100568663D01*
X163166846Y-100528323D01*
X163161907Y-100526036D01*
X163114605Y-100514933D01*
X163048811Y-100507319D01*
X162982859Y-100504214D01*
X162935080Y-100506637D01*
X162922200Y-100512706D01*
X162929888Y-100540208D01*
G36*
X162905758Y-101496918D02*
G01*
X162928710Y-101603125D01*
X162947600Y-101665004D01*
X162975309Y-101753301D01*
X162993761Y-101830214D01*
X162998400Y-101867569D01*
X163002861Y-101900883D01*
X163024466Y-101918235D01*
X163075549Y-101924747D01*
X163138100Y-101925600D01*
X163217923Y-101924215D01*
X163259197Y-101915901D01*
X163274168Y-101894418D01*
X163275166Y-101855750D01*
X163263839Y-101789488D01*
X163238428Y-101704925D01*
X163225747Y-101671600D01*
X163195789Y-101566479D01*
X163179222Y-101441846D01*
X163177581Y-101398550D01*
X163175197Y-101316286D01*
X163170346Y-101258913D01*
X163164750Y-101239800D01*
X163135446Y-101244690D01*
X163072919Y-101257210D01*
X163025050Y-101267304D01*
X162896800Y-101294809D01*
X162896800Y-101407639D01*
X162905758Y-101496918D01*
G37*
X162905758Y-101496918D02*
X162928710Y-101603125D01*
X162947600Y-101665004D01*
X162975309Y-101753301D01*
X162993761Y-101830214D01*
X162998400Y-101867569D01*
X163002861Y-101900883D01*
X163024466Y-101918235D01*
X163075549Y-101924747D01*
X163138100Y-101925600D01*
X163217923Y-101924215D01*
X163259197Y-101915901D01*
X163274168Y-101894418D01*
X163275166Y-101855750D01*
X163263839Y-101789488D01*
X163238428Y-101704925D01*
X163225747Y-101671600D01*
X163195789Y-101566479D01*
X163179222Y-101441846D01*
X163177581Y-101398550D01*
X163175197Y-101316286D01*
X163170346Y-101258913D01*
X163164750Y-101239800D01*
X163135446Y-101244690D01*
X163072919Y-101257210D01*
X163025050Y-101267304D01*
X162896800Y-101294809D01*
X162896800Y-101407639D01*
X162905758Y-101496918D01*
G36*
X162464439Y-99381903D02*
G01*
X162479002Y-99437214D01*
X162516078Y-99573146D01*
X162538488Y-99673705D01*
X162547410Y-99751780D01*
X162544021Y-99820265D01*
X162529500Y-99892051D01*
X162522863Y-99917207D01*
X162492020Y-100029598D01*
X162475297Y-100101025D01*
X162475387Y-100140019D01*
X162494981Y-100155113D01*
X162536769Y-100154840D01*
X162595805Y-100148485D01*
X162674727Y-100138415D01*
X162719956Y-100120584D01*
X162748408Y-100082858D01*
X162774140Y-100020600D01*
X162813685Y-99846908D01*
X162807425Y-99655131D01*
X162769472Y-99491287D01*
X162728391Y-99315265D01*
X162724512Y-99156176D01*
X162757845Y-98996348D01*
X162769800Y-98960395D01*
X162797735Y-98869179D01*
X162816187Y-98786438D01*
X162820600Y-98745130D01*
X162817315Y-98703174D01*
X162798727Y-98682286D01*
X162751737Y-98675143D01*
X162694083Y-98674400D01*
X162618053Y-98676809D01*
X162577981Y-98688892D01*
X162559083Y-98717928D01*
X162552250Y-98744250D01*
X162536098Y-98806476D01*
X162510271Y-98894710D01*
X162488266Y-98965081D01*
X162450603Y-99112438D01*
X162442819Y-99243299D01*
X162464439Y-99381903D01*
G37*
X162464439Y-99381903D02*
X162479002Y-99437214D01*
X162516078Y-99573146D01*
X162538488Y-99673705D01*
X162547410Y-99751780D01*
X162544021Y-99820265D01*
X162529500Y-99892051D01*
X162522863Y-99917207D01*
X162492020Y-100029598D01*
X162475297Y-100101025D01*
X162475387Y-100140019D01*
X162494981Y-100155113D01*
X162536769Y-100154840D01*
X162595805Y-100148485D01*
X162674727Y-100138415D01*
X162719956Y-100120584D01*
X162748408Y-100082858D01*
X162774140Y-100020600D01*
X162813685Y-99846908D01*
X162807425Y-99655131D01*
X162769472Y-99491287D01*
X162728391Y-99315265D01*
X162724512Y-99156176D01*
X162757845Y-98996348D01*
X162769800Y-98960395D01*
X162797735Y-98869179D01*
X162816187Y-98786438D01*
X162820600Y-98745130D01*
X162817315Y-98703174D01*
X162798727Y-98682286D01*
X162751737Y-98675143D01*
X162694083Y-98674400D01*
X162618053Y-98676809D01*
X162577981Y-98688892D01*
X162559083Y-98717928D01*
X162552250Y-98744250D01*
X162536098Y-98806476D01*
X162510271Y-98894710D01*
X162488266Y-98965081D01*
X162450603Y-99112438D01*
X162442819Y-99243299D01*
X162464439Y-99381903D01*
G36*
X162478517Y-101584898D02*
G01*
X162505959Y-101682819D01*
X162528991Y-101775757D01*
X162538999Y-101824000D01*
X162550758Y-101875938D01*
X162572040Y-101903258D01*
X162617185Y-101915279D01*
X162687571Y-101920577D01*
X162764937Y-101923709D01*
X162804381Y-101917276D01*
X162818676Y-101894955D01*
X162820600Y-101854703D01*
X162812303Y-101790432D01*
X162790889Y-101701476D01*
X162769800Y-101633500D01*
X162741229Y-101529705D01*
X162722801Y-101422915D01*
X162719000Y-101366800D01*
X162727855Y-101274106D01*
X162750569Y-101164903D01*
X162769800Y-101100100D01*
X162812372Y-100903709D01*
X162807561Y-100706693D01*
X162776582Y-100576174D01*
X162750852Y-100506555D01*
X162722675Y-100469862D01*
X162675023Y-100452605D01*
X162609055Y-100443446D01*
X162533540Y-100436999D01*
X162481363Y-100437200D01*
X162468303Y-100440629D01*
X162468748Y-100469462D01*
X162482475Y-100531747D01*
X162501664Y-100598144D01*
X162539788Y-100773929D01*
X162535892Y-100935311D01*
X162503920Y-101059673D01*
X162453799Y-101261645D01*
X162451190Y-101452028D01*
X162478517Y-101584898D01*
G37*
X162478517Y-101584898D02*
X162505959Y-101682819D01*
X162528991Y-101775757D01*
X162538999Y-101824000D01*
X162550758Y-101875938D01*
X162572040Y-101903258D01*
X162617185Y-101915279D01*
X162687571Y-101920577D01*
X162764937Y-101923709D01*
X162804381Y-101917276D01*
X162818676Y-101894955D01*
X162820600Y-101854703D01*
X162812303Y-101790432D01*
X162790889Y-101701476D01*
X162769800Y-101633500D01*
X162741229Y-101529705D01*
X162722801Y-101422915D01*
X162719000Y-101366800D01*
X162727855Y-101274106D01*
X162750569Y-101164903D01*
X162769800Y-101100100D01*
X162812372Y-100903709D01*
X162807561Y-100706693D01*
X162776582Y-100576174D01*
X162750852Y-100506555D01*
X162722675Y-100469862D01*
X162675023Y-100452605D01*
X162609055Y-100443446D01*
X162533540Y-100436999D01*
X162481363Y-100437200D01*
X162468303Y-100440629D01*
X162468748Y-100469462D01*
X162482475Y-100531747D01*
X162501664Y-100598144D01*
X162539788Y-100773929D01*
X162535892Y-100935311D01*
X162503920Y-101059673D01*
X162453799Y-101261645D01*
X162451190Y-101452028D01*
X162478517Y-101584898D01*
G36*
X162019126Y-99355753D02*
G01*
X162048528Y-99493322D01*
X162058600Y-99525300D01*
X162095965Y-99655877D01*
X162106203Y-99766707D01*
X162089249Y-99880330D01*
X162057289Y-99984873D01*
X162013109Y-100182725D01*
X162010717Y-100389634D01*
X162050097Y-100587702D01*
X162057803Y-100610515D01*
X162096419Y-100744969D01*
X162105056Y-100861413D01*
X162083754Y-100982819D01*
X162058600Y-101062000D01*
X162016942Y-101246909D01*
X162012215Y-101445997D01*
X162044420Y-101638561D01*
X162058600Y-101684300D01*
X162085875Y-101770948D01*
X162104314Y-101843634D01*
X162109400Y-101878776D01*
X162116755Y-101906022D01*
X162146625Y-101920208D01*
X162210716Y-101925259D01*
X162249100Y-101925600D01*
X162325847Y-101922898D01*
X162371095Y-101909160D01*
X162387830Y-101875933D01*
X162379039Y-101814767D01*
X162347706Y-101717209D01*
X162335195Y-101681926D01*
X162286121Y-101472131D01*
X162287038Y-101260863D01*
X162332592Y-101068248D01*
X162371165Y-100943185D01*
X162385322Y-100840832D01*
X162375117Y-100739745D01*
X162340605Y-100618482D01*
X162333794Y-100598551D01*
X162287818Y-100402385D01*
X162287279Y-100203949D01*
X162332187Y-99993197D01*
X162334363Y-99986174D01*
X162368390Y-99868425D01*
X162384020Y-99779040D01*
X162381254Y-99699032D01*
X162360091Y-99609412D01*
X162334351Y-99530848D01*
X162298800Y-99394526D01*
X162280882Y-99254979D01*
X162279902Y-99220500D01*
X162291762Y-99086592D01*
X162323048Y-98945682D01*
X162334351Y-98910151D01*
X162370103Y-98802525D01*
X162385561Y-98733939D01*
X162377545Y-98695601D01*
X162342878Y-98678721D01*
X162278379Y-98674508D01*
X162249100Y-98674400D01*
X162167810Y-98676865D01*
X162125484Y-98686876D01*
X162110417Y-98708358D01*
X162109400Y-98721223D01*
X162101402Y-98769608D01*
X162080689Y-98846808D01*
X162058600Y-98915700D01*
X162025519Y-99046887D01*
X162008674Y-99186803D01*
X162007800Y-99220500D01*
X162019126Y-99355753D01*
G37*
X162019126Y-99355753D02*
X162048528Y-99493322D01*
X162058600Y-99525300D01*
X162095965Y-99655877D01*
X162106203Y-99766707D01*
X162089249Y-99880330D01*
X162057289Y-99984873D01*
X162013109Y-100182725D01*
X162010717Y-100389634D01*
X162050097Y-100587702D01*
X162057803Y-100610515D01*
X162096419Y-100744969D01*
X162105056Y-100861413D01*
X162083754Y-100982819D01*
X162058600Y-101062000D01*
X162016942Y-101246909D01*
X162012215Y-101445997D01*
X162044420Y-101638561D01*
X162058600Y-101684300D01*
X162085875Y-101770948D01*
X162104314Y-101843634D01*
X162109400Y-101878776D01*
X162116755Y-101906022D01*
X162146625Y-101920208D01*
X162210716Y-101925259D01*
X162249100Y-101925600D01*
X162325847Y-101922898D01*
X162371095Y-101909160D01*
X162387830Y-101875933D01*
X162379039Y-101814767D01*
X162347706Y-101717209D01*
X162335195Y-101681926D01*
X162286121Y-101472131D01*
X162287038Y-101260863D01*
X162332592Y-101068248D01*
X162371165Y-100943185D01*
X162385322Y-100840832D01*
X162375117Y-100739745D01*
X162340605Y-100618482D01*
X162333794Y-100598551D01*
X162287818Y-100402385D01*
X162287279Y-100203949D01*
X162332187Y-99993197D01*
X162334363Y-99986174D01*
X162368390Y-99868425D01*
X162384020Y-99779040D01*
X162381254Y-99699032D01*
X162360091Y-99609412D01*
X162334351Y-99530848D01*
X162298800Y-99394526D01*
X162280882Y-99254979D01*
X162279902Y-99220500D01*
X162291762Y-99086592D01*
X162323048Y-98945682D01*
X162334351Y-98910151D01*
X162370103Y-98802525D01*
X162385561Y-98733939D01*
X162377545Y-98695601D01*
X162342878Y-98678721D01*
X162278379Y-98674508D01*
X162249100Y-98674400D01*
X162167810Y-98676865D01*
X162125484Y-98686876D01*
X162110417Y-98708358D01*
X162109400Y-98721223D01*
X162101402Y-98769608D01*
X162080689Y-98846808D01*
X162058600Y-98915700D01*
X162025519Y-99046887D01*
X162008674Y-99186803D01*
X162007800Y-99220500D01*
X162019126Y-99355753D01*
G36*
X160748372Y-101756941D02*
G01*
X160790580Y-101902130D01*
X160884840Y-101886486D01*
X160970933Y-101870936D01*
X161014660Y-101853854D01*
X161023685Y-101824906D01*
X161005673Y-101773757D01*
X160991602Y-101742536D01*
X160947816Y-101599375D01*
X160948936Y-101470659D01*
X160991531Y-101362125D01*
X161072168Y-101279509D01*
X161187412Y-101228548D01*
X161307669Y-101214400D01*
X161445942Y-101233383D01*
X161551375Y-101289736D01*
X161617746Y-101373579D01*
X161649702Y-101478471D01*
X161655174Y-101602653D01*
X161634421Y-101722226D01*
X161613414Y-101774525D01*
X161588883Y-101836117D01*
X161598501Y-101873870D01*
X161648499Y-101896568D01*
X161707916Y-101907762D01*
X161764582Y-101913896D01*
X161797028Y-101902673D01*
X161819216Y-101862945D01*
X161838971Y-101803120D01*
X161880429Y-101632420D01*
X161889135Y-101481847D01*
X161881175Y-101404900D01*
X161832386Y-101238357D01*
X161744776Y-101103787D01*
X161620840Y-101003824D01*
X161463075Y-100941105D01*
X161436087Y-100934955D01*
X161260172Y-100920655D01*
X161101472Y-100950358D01*
X160964275Y-101018936D01*
X160852869Y-101121266D01*
X160771543Y-101252220D01*
X160724585Y-101406673D01*
X160716283Y-101579499D01*
X160748372Y-101756941D01*
G37*
X160748372Y-101756941D02*
X160790580Y-101902130D01*
X160884840Y-101886486D01*
X160970933Y-101870936D01*
X161014660Y-101853854D01*
X161023685Y-101824906D01*
X161005673Y-101773757D01*
X160991602Y-101742536D01*
X160947816Y-101599375D01*
X160948936Y-101470659D01*
X160991531Y-101362125D01*
X161072168Y-101279509D01*
X161187412Y-101228548D01*
X161307669Y-101214400D01*
X161445942Y-101233383D01*
X161551375Y-101289736D01*
X161617746Y-101373579D01*
X161649702Y-101478471D01*
X161655174Y-101602653D01*
X161634421Y-101722226D01*
X161613414Y-101774525D01*
X161588883Y-101836117D01*
X161598501Y-101873870D01*
X161648499Y-101896568D01*
X161707916Y-101907762D01*
X161764582Y-101913896D01*
X161797028Y-101902673D01*
X161819216Y-101862945D01*
X161838971Y-101803120D01*
X161880429Y-101632420D01*
X161889135Y-101481847D01*
X161881175Y-101404900D01*
X161832386Y-101238357D01*
X161744776Y-101103787D01*
X161620840Y-101003824D01*
X161463075Y-100941105D01*
X161436087Y-100934955D01*
X161260172Y-100920655D01*
X161101472Y-100950358D01*
X160964275Y-101018936D01*
X160852869Y-101121266D01*
X160771543Y-101252220D01*
X160724585Y-101406673D01*
X160716283Y-101579499D01*
X160748372Y-101756941D01*
G36*
X161094215Y-98953800D02*
G01*
X161273492Y-98956180D01*
X161408769Y-98964577D01*
X161506677Y-98980873D01*
X161573848Y-99006953D01*
X161616912Y-99044700D01*
X161642502Y-99095997D01*
X161646840Y-99110756D01*
X161655671Y-99220781D01*
X161627501Y-99322089D01*
X161573536Y-99391950D01*
X161545977Y-99409306D01*
X161506720Y-99421561D01*
X161447374Y-99429553D01*
X161359545Y-99434120D01*
X161234842Y-99436101D01*
X161128686Y-99436400D01*
X160737800Y-99436400D01*
X160737800Y-99715800D01*
X161150550Y-99715382D01*
X161306835Y-99714712D01*
X161421598Y-99712381D01*
X161504111Y-99707356D01*
X161563650Y-99698605D01*
X161609486Y-99685094D01*
X161650895Y-99665793D01*
X161664900Y-99658127D01*
X161770061Y-99572798D01*
X161840035Y-99453322D01*
X161875609Y-99298007D01*
X161880800Y-99195100D01*
X161874716Y-99070150D01*
X161853641Y-98973129D01*
X161823650Y-98902031D01*
X161757376Y-98805037D01*
X161663991Y-98737144D01*
X161653168Y-98731550D01*
X161605699Y-98709681D01*
X161557617Y-98694195D01*
X161499167Y-98684009D01*
X161420595Y-98678038D01*
X161312148Y-98675199D01*
X161164070Y-98674408D01*
X161138818Y-98674400D01*
X160737800Y-98674400D01*
X160737800Y-98953800D01*
X161094215Y-98953800D01*
G37*
X161094215Y-98953800D02*
X161273492Y-98956180D01*
X161408769Y-98964577D01*
X161506677Y-98980873D01*
X161573848Y-99006953D01*
X161616912Y-99044700D01*
X161642502Y-99095997D01*
X161646840Y-99110756D01*
X161655671Y-99220781D01*
X161627501Y-99322089D01*
X161573536Y-99391950D01*
X161545977Y-99409306D01*
X161506720Y-99421561D01*
X161447374Y-99429553D01*
X161359545Y-99434120D01*
X161234842Y-99436101D01*
X161128686Y-99436400D01*
X160737800Y-99436400D01*
X160737800Y-99715800D01*
X161150550Y-99715382D01*
X161306835Y-99714712D01*
X161421598Y-99712381D01*
X161504111Y-99707356D01*
X161563650Y-99698605D01*
X161609486Y-99685094D01*
X161650895Y-99665793D01*
X161664900Y-99658127D01*
X161770061Y-99572798D01*
X161840035Y-99453322D01*
X161875609Y-99298007D01*
X161880800Y-99195100D01*
X161874716Y-99070150D01*
X161853641Y-98973129D01*
X161823650Y-98902031D01*
X161757376Y-98805037D01*
X161663991Y-98737144D01*
X161653168Y-98731550D01*
X161605699Y-98709681D01*
X161557617Y-98694195D01*
X161499167Y-98684009D01*
X161420595Y-98678038D01*
X161312148Y-98675199D01*
X161164070Y-98674408D01*
X161138818Y-98674400D01*
X160737800Y-98674400D01*
X160737800Y-98953800D01*
X161094215Y-98953800D01*
G36*
X160742272Y-100368509D02*
G01*
X160757121Y-100495494D01*
X160784489Y-100587989D01*
X160826523Y-100653813D01*
X160873306Y-100693287D01*
X160961909Y-100728539D01*
X161062776Y-100735570D01*
X161155342Y-100714926D01*
X161203973Y-100684500D01*
X161260740Y-100631171D01*
X161327178Y-100706885D01*
X161372522Y-100751442D01*
X161420034Y-100774106D01*
X161489277Y-100781984D01*
X161535608Y-100782600D01*
X161639060Y-100774430D01*
X161713200Y-100743595D01*
X161772818Y-100680604D01*
X161820456Y-100599800D01*
X161838065Y-100544581D01*
X161853844Y-100456761D01*
X161866935Y-100348677D01*
X161876479Y-100232664D01*
X161881617Y-100121059D01*
X161881489Y-100026195D01*
X161875237Y-99960409D01*
X161866540Y-99938050D01*
X161836429Y-99932475D01*
X161763144Y-99927544D01*
X161654309Y-99923509D01*
X161527287Y-99920831D01*
X161527287Y-100198400D01*
X161681775Y-100198400D01*
X161665706Y-100319050D01*
X161646252Y-100401991D01*
X161616055Y-100469640D01*
X161602429Y-100487483D01*
X161540938Y-100523901D01*
X161480674Y-100516019D01*
X161428228Y-100470055D01*
X161390187Y-100392225D01*
X161373139Y-100288745D01*
X161372800Y-100270809D01*
X161375044Y-100230929D01*
X161389704Y-100209285D01*
X161428670Y-100200306D01*
X161503833Y-100198417D01*
X161527287Y-100198400D01*
X161527287Y-99920831D01*
X161517548Y-99920625D01*
X161360487Y-99919143D01*
X161292366Y-99919000D01*
X161051066Y-99919000D01*
X161051066Y-100198400D01*
X161121760Y-100201539D01*
X161168483Y-100209424D01*
X161175949Y-100213215D01*
X161184579Y-100250412D01*
X161178878Y-100314408D01*
X161161924Y-100384280D01*
X161144609Y-100426233D01*
X161098519Y-100467779D01*
X161037242Y-100475514D01*
X160982583Y-100449140D01*
X160967293Y-100428669D01*
X160949146Y-100369582D01*
X160941030Y-100293376D01*
X160941000Y-100288969D01*
X160943540Y-100232578D01*
X160960554Y-100206394D01*
X161006130Y-100198827D01*
X161051066Y-100198400D01*
X161051066Y-99919000D01*
X160737800Y-99919000D01*
X160737800Y-100199215D01*
X160742272Y-100368509D01*
G37*
X160742272Y-100368509D02*
X160757121Y-100495494D01*
X160784489Y-100587989D01*
X160826523Y-100653813D01*
X160873306Y-100693287D01*
X160961909Y-100728539D01*
X161062776Y-100735570D01*
X161155342Y-100714926D01*
X161203973Y-100684500D01*
X161260740Y-100631171D01*
X161327178Y-100706885D01*
X161372522Y-100751442D01*
X161420034Y-100774106D01*
X161489277Y-100781984D01*
X161535608Y-100782600D01*
X161639060Y-100774430D01*
X161713200Y-100743595D01*
X161772818Y-100680604D01*
X161820456Y-100599800D01*
X161838065Y-100544581D01*
X161853844Y-100456761D01*
X161866935Y-100348677D01*
X161876479Y-100232664D01*
X161881617Y-100121059D01*
X161881489Y-100026195D01*
X161875237Y-99960409D01*
X161866540Y-99938050D01*
X161836429Y-99932475D01*
X161763144Y-99927544D01*
X161654309Y-99923509D01*
X161527287Y-99920831D01*
X161527287Y-100198400D01*
X161681775Y-100198400D01*
X161665706Y-100319050D01*
X161646252Y-100401991D01*
X161616055Y-100469640D01*
X161602429Y-100487483D01*
X161540938Y-100523901D01*
X161480674Y-100516019D01*
X161428228Y-100470055D01*
X161390187Y-100392225D01*
X161373139Y-100288745D01*
X161372800Y-100270809D01*
X161375044Y-100230929D01*
X161389704Y-100209285D01*
X161428670Y-100200306D01*
X161503833Y-100198417D01*
X161527287Y-100198400D01*
X161527287Y-99920831D01*
X161517548Y-99920625D01*
X161360487Y-99919143D01*
X161292366Y-99919000D01*
X161051066Y-99919000D01*
X161051066Y-100198400D01*
X161121760Y-100201539D01*
X161168483Y-100209424D01*
X161175949Y-100213215D01*
X161184579Y-100250412D01*
X161178878Y-100314408D01*
X161161924Y-100384280D01*
X161144609Y-100426233D01*
X161098519Y-100467779D01*
X161037242Y-100475514D01*
X160982583Y-100449140D01*
X160967293Y-100428669D01*
X160949146Y-100369582D01*
X160941030Y-100293376D01*
X160941000Y-100288969D01*
X160943540Y-100232578D01*
X160960554Y-100206394D01*
X161006130Y-100198827D01*
X161051066Y-100198400D01*
X161051066Y-99919000D01*
X160737800Y-99919000D01*
X160737800Y-100199215D01*
X160742272Y-100368509D01*
D12*
G36*
X185474549Y-129371116D02*
G01*
X185585734Y-129393232D01*
X185795203Y-129479997D01*
X185983720Y-129605960D01*
X186144040Y-129766280D01*
X186270003Y-129954797D01*
X186356768Y-130164266D01*
X186401000Y-130386636D01*
X186401000Y-130613364D01*
X186356768Y-130835734D01*
X186270003Y-131045203D01*
X186144040Y-131233720D01*
X185983720Y-131394040D01*
X185795203Y-131520003D01*
X185585734Y-131606768D01*
X185474549Y-131628884D01*
X185363365Y-131651000D01*
X185136635Y-131651000D01*
X185025451Y-131628884D01*
X184914266Y-131606768D01*
X184704797Y-131520003D01*
X184516280Y-131394040D01*
X184355960Y-131233720D01*
X184229997Y-131045203D01*
X184143232Y-130835734D01*
X184099000Y-130613364D01*
X184099000Y-130386636D01*
X184143232Y-130164266D01*
X184229997Y-129954797D01*
X184355960Y-129766280D01*
X184516280Y-129605960D01*
X184704797Y-129479997D01*
X184914266Y-129393232D01*
X185025451Y-129371116D01*
X185136635Y-129349000D01*
X185363365Y-129349000D01*
X185474549Y-129371116D01*
G37*
G36*
X161724549Y-129371116D02*
G01*
X161835734Y-129393232D01*
X162045203Y-129479997D01*
X162233720Y-129605960D01*
X162394040Y-129766280D01*
X162520003Y-129954797D01*
X162606768Y-130164266D01*
X162651000Y-130386636D01*
X162651000Y-130613364D01*
X162606768Y-130835734D01*
X162520003Y-131045203D01*
X162394040Y-131233720D01*
X162233720Y-131394040D01*
X162045203Y-131520003D01*
X161835734Y-131606768D01*
X161724549Y-131628884D01*
X161613365Y-131651000D01*
X161386635Y-131651000D01*
X161275451Y-131628884D01*
X161164266Y-131606768D01*
X160954797Y-131520003D01*
X160766280Y-131394040D01*
X160605960Y-131233720D01*
X160479997Y-131045203D01*
X160393232Y-130835734D01*
X160349000Y-130613364D01*
X160349000Y-130386636D01*
X160393232Y-130164266D01*
X160479997Y-129954797D01*
X160605960Y-129766280D01*
X160766280Y-129605960D01*
X160954797Y-129479997D01*
X161164266Y-129393232D01*
X161275451Y-129371116D01*
X161386635Y-129349000D01*
X161613365Y-129349000D01*
X161724549Y-129371116D01*
G37*
G36*
X175248228Y-123261703D02*
G01*
X175403100Y-123325853D01*
X175542481Y-123418985D01*
X175661015Y-123537519D01*
X175754147Y-123676900D01*
X175818297Y-123831772D01*
X175851000Y-123996184D01*
X175851000Y-124163816D01*
X175818297Y-124328228D01*
X175754147Y-124483100D01*
X175661015Y-124622481D01*
X175542481Y-124741015D01*
X175403100Y-124834147D01*
X175248228Y-124898297D01*
X175083816Y-124931000D01*
X174916184Y-124931000D01*
X174751772Y-124898297D01*
X174596900Y-124834147D01*
X174457519Y-124741015D01*
X174338985Y-124622481D01*
X174245853Y-124483100D01*
X174181703Y-124328228D01*
X174149000Y-124163816D01*
X174149000Y-123996184D01*
X174181703Y-123831772D01*
X174245853Y-123676900D01*
X174338985Y-123537519D01*
X174457519Y-123418985D01*
X174596900Y-123325853D01*
X174751772Y-123261703D01*
X174916184Y-123229000D01*
X175083816Y-123229000D01*
X175248228Y-123261703D01*
G37*
G36*
X171351000Y-122051000D02*
G01*
X169649000Y-122051000D01*
X169649000Y-120949000D01*
X171351000Y-120949000D01*
X171351000Y-122051000D01*
G37*
G36*
X185051000Y-122051000D02*
G01*
X183349000Y-122051000D01*
X183349000Y-120949000D01*
X185051000Y-120949000D01*
X185051000Y-122051000D01*
G37*
G36*
X175851000Y-122051000D02*
G01*
X174149000Y-122051000D01*
X174149000Y-120949000D01*
X175851000Y-120949000D01*
X175851000Y-122051000D01*
G37*
G36*
X166851000Y-122051000D02*
G01*
X165149000Y-122051000D01*
X165149000Y-120949000D01*
X166851000Y-120949000D01*
X166851000Y-122051000D01*
G37*
G36*
X162351000Y-122051000D02*
G01*
X160649000Y-122051000D01*
X160649000Y-120949000D01*
X162351000Y-120949000D01*
X162351000Y-122051000D01*
G37*
G36*
X175248228Y-118181703D02*
G01*
X175403100Y-118245853D01*
X175542481Y-118338985D01*
X175661015Y-118457519D01*
X175754147Y-118596900D01*
X175818297Y-118751772D01*
X175851000Y-118916184D01*
X175851000Y-119083816D01*
X175818297Y-119248228D01*
X175754147Y-119403100D01*
X175661015Y-119542481D01*
X175542481Y-119661015D01*
X175403100Y-119754147D01*
X175248228Y-119818297D01*
X175083816Y-119851000D01*
X174916184Y-119851000D01*
X174751772Y-119818297D01*
X174596900Y-119754147D01*
X174457519Y-119661015D01*
X174338985Y-119542481D01*
X174245853Y-119403100D01*
X174181703Y-119248228D01*
X174149000Y-119083816D01*
X174149000Y-118916184D01*
X174181703Y-118751772D01*
X174245853Y-118596900D01*
X174338985Y-118457519D01*
X174457519Y-118338985D01*
X174596900Y-118245853D01*
X174751772Y-118181703D01*
X174916184Y-118149000D01*
X175083816Y-118149000D01*
X175248228Y-118181703D01*
G37*
G36*
X162513512Y-93723927D02*
G01*
X162662812Y-93753624D01*
X162826784Y-93821544D01*
X162974354Y-93920147D01*
X163099853Y-94045646D01*
X163198456Y-94193216D01*
X163266376Y-94357188D01*
X163301000Y-94531259D01*
X163301000Y-94708741D01*
X163266376Y-94882812D01*
X163198456Y-95046784D01*
X163099853Y-95194354D01*
X162974354Y-95319853D01*
X162826784Y-95418456D01*
X162662812Y-95486376D01*
X162513512Y-95516073D01*
X162488742Y-95521000D01*
X162311258Y-95521000D01*
X162286488Y-95516073D01*
X162137188Y-95486376D01*
X161973216Y-95418456D01*
X161825646Y-95319853D01*
X161700147Y-95194354D01*
X161601544Y-95046784D01*
X161533624Y-94882812D01*
X161499000Y-94708741D01*
X161499000Y-94531259D01*
X161533624Y-94357188D01*
X161601544Y-94193216D01*
X161700147Y-94045646D01*
X161825646Y-93920147D01*
X161973216Y-93821544D01*
X162137188Y-93753624D01*
X162286488Y-93723927D01*
X162311258Y-93719000D01*
X162488742Y-93719000D01*
X162513512Y-93723927D01*
G37*
G36*
X162513512Y-91183927D02*
G01*
X162662812Y-91213624D01*
X162826784Y-91281544D01*
X162974354Y-91380147D01*
X163099853Y-91505646D01*
X163198456Y-91653216D01*
X163266376Y-91817188D01*
X163301000Y-91991259D01*
X163301000Y-92168741D01*
X163266376Y-92342812D01*
X163198456Y-92506784D01*
X163099853Y-92654354D01*
X162974354Y-92779853D01*
X162826784Y-92878456D01*
X162662812Y-92946376D01*
X162513512Y-92976073D01*
X162488742Y-92981000D01*
X162311258Y-92981000D01*
X162286488Y-92976073D01*
X162137188Y-92946376D01*
X161973216Y-92878456D01*
X161825646Y-92779853D01*
X161700147Y-92654354D01*
X161601544Y-92506784D01*
X161533624Y-92342812D01*
X161499000Y-92168741D01*
X161499000Y-91991259D01*
X161533624Y-91817188D01*
X161601544Y-91653216D01*
X161700147Y-91505646D01*
X161825646Y-91380147D01*
X161973216Y-91281544D01*
X162137188Y-91213624D01*
X162286488Y-91183927D01*
X162311258Y-91179000D01*
X162488742Y-91179000D01*
X162513512Y-91183927D01*
G37*
G36*
X162498354Y-88640912D02*
G01*
X162662812Y-88673624D01*
X162826784Y-88741544D01*
X162974354Y-88840147D01*
X163099853Y-88965646D01*
X163198456Y-89113216D01*
X163266376Y-89277188D01*
X163301000Y-89451259D01*
X163301000Y-89628741D01*
X163266376Y-89802812D01*
X163198456Y-89966784D01*
X163099853Y-90114354D01*
X162974354Y-90239853D01*
X162826784Y-90338456D01*
X162662812Y-90406376D01*
X162513512Y-90436073D01*
X162488742Y-90441000D01*
X162311258Y-90441000D01*
X162286488Y-90436073D01*
X162137188Y-90406376D01*
X161973216Y-90338456D01*
X161825646Y-90239853D01*
X161700147Y-90114354D01*
X161601544Y-89966784D01*
X161533624Y-89802812D01*
X161499000Y-89628741D01*
X161499000Y-89451259D01*
X161533624Y-89277188D01*
X161601544Y-89113216D01*
X161700147Y-88965646D01*
X161825646Y-88840147D01*
X161973216Y-88741544D01*
X162137188Y-88673624D01*
X162301646Y-88640912D01*
X162311258Y-88639000D01*
X162488742Y-88639000D01*
X162498354Y-88640912D01*
G37*
G36*
X185246578Y-88880197D02*
G01*
X185299350Y-88890694D01*
X185398770Y-88931875D01*
X185488246Y-88991661D01*
X185564339Y-89067754D01*
X185624125Y-89157230D01*
X185665306Y-89256650D01*
X185686300Y-89362194D01*
X185686300Y-89469806D01*
X185665306Y-89575350D01*
X185624125Y-89674770D01*
X185564339Y-89764246D01*
X185488246Y-89840339D01*
X185398770Y-89900125D01*
X185299350Y-89941306D01*
X185246578Y-89951803D01*
X185193807Y-89962300D01*
X185086193Y-89962300D01*
X185033422Y-89951803D01*
X184980650Y-89941306D01*
X184881230Y-89900125D01*
X184791754Y-89840339D01*
X184715661Y-89764246D01*
X184655875Y-89674770D01*
X184614694Y-89575350D01*
X184593700Y-89469806D01*
X184593700Y-89362194D01*
X184614694Y-89256650D01*
X184655875Y-89157230D01*
X184715661Y-89067754D01*
X184791754Y-88991661D01*
X184881230Y-88931875D01*
X184980650Y-88890694D01*
X185033422Y-88880197D01*
X185086193Y-88869700D01*
X185193807Y-88869700D01*
X185246578Y-88880197D01*
G37*
G36*
X183999714Y-88607389D02*
G01*
X184080645Y-88640912D01*
X184153480Y-88689579D01*
X184215421Y-88751520D01*
X184264088Y-88824355D01*
X184297611Y-88905286D01*
X184314700Y-88991201D01*
X184314700Y-89078799D01*
X184297611Y-89164714D01*
X184264088Y-89245645D01*
X184215421Y-89318480D01*
X184153480Y-89380421D01*
X184080645Y-89429088D01*
X184080644Y-89429089D01*
X184080643Y-89429089D01*
X183999714Y-89462611D01*
X183913801Y-89479700D01*
X183826199Y-89479700D01*
X183740286Y-89462611D01*
X183659357Y-89429089D01*
X183659356Y-89429089D01*
X183659355Y-89429088D01*
X183586520Y-89380421D01*
X183524579Y-89318480D01*
X183475912Y-89245645D01*
X183442389Y-89164714D01*
X183425300Y-89078799D01*
X183425300Y-88991201D01*
X183442389Y-88905286D01*
X183475912Y-88824355D01*
X183524579Y-88751520D01*
X183586520Y-88689579D01*
X183659355Y-88640912D01*
X183740286Y-88607389D01*
X183826199Y-88590300D01*
X183913801Y-88590300D01*
X183999714Y-88607389D01*
G37*
G36*
X181459714Y-88607389D02*
G01*
X181540645Y-88640912D01*
X181613480Y-88689579D01*
X181675421Y-88751520D01*
X181724088Y-88824355D01*
X181757611Y-88905286D01*
X181774700Y-88991201D01*
X181774700Y-89078799D01*
X181757611Y-89164714D01*
X181724088Y-89245645D01*
X181675421Y-89318480D01*
X181613480Y-89380421D01*
X181540645Y-89429088D01*
X181540644Y-89429089D01*
X181540643Y-89429089D01*
X181459714Y-89462611D01*
X181373801Y-89479700D01*
X181286199Y-89479700D01*
X181200286Y-89462611D01*
X181119357Y-89429089D01*
X181119356Y-89429089D01*
X181119355Y-89429088D01*
X181046520Y-89380421D01*
X180984579Y-89318480D01*
X180935912Y-89245645D01*
X180902389Y-89164714D01*
X180885300Y-89078799D01*
X180885300Y-88991201D01*
X180902389Y-88905286D01*
X180935912Y-88824355D01*
X180984579Y-88751520D01*
X181046520Y-88689579D01*
X181119355Y-88640912D01*
X181200286Y-88607389D01*
X181286199Y-88590300D01*
X181373801Y-88590300D01*
X181459714Y-88607389D01*
G37*
G36*
X182729714Y-88607389D02*
G01*
X182810645Y-88640912D01*
X182883480Y-88689579D01*
X182945421Y-88751520D01*
X182994088Y-88824355D01*
X183027611Y-88905286D01*
X183044700Y-88991201D01*
X183044700Y-89078799D01*
X183027611Y-89164714D01*
X182994088Y-89245645D01*
X182945421Y-89318480D01*
X182883480Y-89380421D01*
X182810645Y-89429088D01*
X182810644Y-89429089D01*
X182810643Y-89429089D01*
X182729714Y-89462611D01*
X182643801Y-89479700D01*
X182556199Y-89479700D01*
X182470286Y-89462611D01*
X182389357Y-89429089D01*
X182389356Y-89429089D01*
X182389355Y-89429088D01*
X182316520Y-89380421D01*
X182254579Y-89318480D01*
X182205912Y-89245645D01*
X182172389Y-89164714D01*
X182155300Y-89078799D01*
X182155300Y-88991201D01*
X182172389Y-88905286D01*
X182205912Y-88824355D01*
X182254579Y-88751520D01*
X182316520Y-88689579D01*
X182389355Y-88640912D01*
X182470286Y-88607389D01*
X182556199Y-88590300D01*
X182643801Y-88590300D01*
X182729714Y-88607389D01*
G37*
G36*
X180166578Y-87864197D02*
G01*
X180219350Y-87874694D01*
X180318770Y-87915875D01*
X180408246Y-87975661D01*
X180484339Y-88051754D01*
X180544125Y-88141230D01*
X180585306Y-88240650D01*
X180606300Y-88346194D01*
X180606300Y-88453806D01*
X180585306Y-88559350D01*
X180544125Y-88658770D01*
X180484339Y-88748246D01*
X180408246Y-88824339D01*
X180318770Y-88884125D01*
X180219350Y-88925306D01*
X180186325Y-88931875D01*
X180113807Y-88946300D01*
X180006193Y-88946300D01*
X179933675Y-88931875D01*
X179900650Y-88925306D01*
X179801230Y-88884125D01*
X179711754Y-88824339D01*
X179635661Y-88748246D01*
X179575875Y-88658770D01*
X179534694Y-88559350D01*
X179513700Y-88453806D01*
X179513700Y-88346194D01*
X179534694Y-88240650D01*
X179575875Y-88141230D01*
X179635661Y-88051754D01*
X179711754Y-87975661D01*
X179801230Y-87915875D01*
X179900650Y-87874694D01*
X179953422Y-87864197D01*
X180006193Y-87853700D01*
X180113807Y-87853700D01*
X180166578Y-87864197D01*
G37*
G36*
X181459714Y-87337389D02*
G01*
X181540645Y-87370912D01*
X181613480Y-87419579D01*
X181675421Y-87481520D01*
X181724088Y-87554355D01*
X181757611Y-87635286D01*
X181774700Y-87721201D01*
X181774700Y-87808799D01*
X181757611Y-87894714D01*
X181724088Y-87975645D01*
X181675421Y-88048480D01*
X181613480Y-88110421D01*
X181540645Y-88159088D01*
X181540644Y-88159089D01*
X181540643Y-88159089D01*
X181459714Y-88192611D01*
X181373801Y-88209700D01*
X181286199Y-88209700D01*
X181200286Y-88192611D01*
X181119357Y-88159089D01*
X181119356Y-88159089D01*
X181119355Y-88159088D01*
X181046520Y-88110421D01*
X180984579Y-88048480D01*
X180935912Y-87975645D01*
X180902389Y-87894714D01*
X180885300Y-87808799D01*
X180885300Y-87721201D01*
X180902389Y-87635286D01*
X180935912Y-87554355D01*
X180984579Y-87481520D01*
X181046520Y-87419579D01*
X181119355Y-87370912D01*
X181200286Y-87337389D01*
X181286199Y-87320300D01*
X181373801Y-87320300D01*
X181459714Y-87337389D01*
G37*
G36*
X183999714Y-87337389D02*
G01*
X184080645Y-87370912D01*
X184153480Y-87419579D01*
X184215421Y-87481520D01*
X184264088Y-87554355D01*
X184297611Y-87635286D01*
X184314700Y-87721201D01*
X184314700Y-87808799D01*
X184297611Y-87894714D01*
X184264088Y-87975645D01*
X184215421Y-88048480D01*
X184153480Y-88110421D01*
X184080645Y-88159088D01*
X184080644Y-88159089D01*
X184080643Y-88159089D01*
X183999714Y-88192611D01*
X183913801Y-88209700D01*
X183826199Y-88209700D01*
X183740286Y-88192611D01*
X183659357Y-88159089D01*
X183659356Y-88159089D01*
X183659355Y-88159088D01*
X183586520Y-88110421D01*
X183524579Y-88048480D01*
X183475912Y-87975645D01*
X183442389Y-87894714D01*
X183425300Y-87808799D01*
X183425300Y-87721201D01*
X183442389Y-87635286D01*
X183475912Y-87554355D01*
X183524579Y-87481520D01*
X183586520Y-87419579D01*
X183659355Y-87370912D01*
X183740286Y-87337389D01*
X183826199Y-87320300D01*
X183913801Y-87320300D01*
X183999714Y-87337389D01*
G37*
G36*
X182729714Y-87337389D02*
G01*
X182810645Y-87370912D01*
X182883480Y-87419579D01*
X182945421Y-87481520D01*
X182994088Y-87554355D01*
X183027611Y-87635286D01*
X183044700Y-87721201D01*
X183044700Y-87808799D01*
X183027611Y-87894714D01*
X182994088Y-87975645D01*
X182945421Y-88048480D01*
X182883480Y-88110421D01*
X182810645Y-88159088D01*
X182810644Y-88159089D01*
X182810643Y-88159089D01*
X182729714Y-88192611D01*
X182643801Y-88209700D01*
X182556199Y-88209700D01*
X182470286Y-88192611D01*
X182389357Y-88159089D01*
X182389356Y-88159089D01*
X182389355Y-88159088D01*
X182316520Y-88110421D01*
X182254579Y-88048480D01*
X182205912Y-87975645D01*
X182172389Y-87894714D01*
X182155300Y-87808799D01*
X182155300Y-87721201D01*
X182172389Y-87635286D01*
X182205912Y-87554355D01*
X182254579Y-87481520D01*
X182316520Y-87419579D01*
X182389355Y-87370912D01*
X182470286Y-87337389D01*
X182556199Y-87320300D01*
X182643801Y-87320300D01*
X182729714Y-87337389D01*
G37*
G36*
X185246578Y-86848197D02*
G01*
X185299350Y-86858694D01*
X185398770Y-86899875D01*
X185488246Y-86959661D01*
X185564339Y-87035754D01*
X185624125Y-87125230D01*
X185665306Y-87224650D01*
X185686300Y-87330194D01*
X185686300Y-87437806D01*
X185665306Y-87543350D01*
X185624125Y-87642770D01*
X185564339Y-87732246D01*
X185488246Y-87808339D01*
X185398770Y-87868125D01*
X185299350Y-87909306D01*
X185266325Y-87915875D01*
X185193807Y-87930300D01*
X185086193Y-87930300D01*
X185013675Y-87915875D01*
X184980650Y-87909306D01*
X184881230Y-87868125D01*
X184791754Y-87808339D01*
X184715661Y-87732246D01*
X184655875Y-87642770D01*
X184614694Y-87543350D01*
X184593700Y-87437806D01*
X184593700Y-87330194D01*
X184614694Y-87224650D01*
X184655875Y-87125230D01*
X184715661Y-87035754D01*
X184791754Y-86959661D01*
X184881230Y-86899875D01*
X184980650Y-86858694D01*
X185033422Y-86848197D01*
X185086193Y-86837700D01*
X185193807Y-86837700D01*
X185246578Y-86848197D01*
G37*
G36*
X163301000Y-87901000D02*
G01*
X161499000Y-87901000D01*
X161499000Y-86099000D01*
X163301000Y-86099000D01*
X163301000Y-87901000D01*
G37*
G36*
X185474549Y-81371116D02*
G01*
X185585734Y-81393232D01*
X185795203Y-81479997D01*
X185983720Y-81605960D01*
X186144040Y-81766280D01*
X186270003Y-81954797D01*
X186270004Y-81954799D01*
X186356768Y-82164267D01*
X186401000Y-82386635D01*
X186401000Y-82613365D01*
X186388385Y-82676784D01*
X186356768Y-82835734D01*
X186270003Y-83045203D01*
X186144040Y-83233720D01*
X185983720Y-83394040D01*
X185795203Y-83520003D01*
X185585734Y-83606768D01*
X185474549Y-83628884D01*
X185363365Y-83651000D01*
X185136635Y-83651000D01*
X185025451Y-83628884D01*
X184914266Y-83606768D01*
X184704797Y-83520003D01*
X184516280Y-83394040D01*
X184355960Y-83233720D01*
X184229997Y-83045203D01*
X184143232Y-82835734D01*
X184111615Y-82676784D01*
X184099000Y-82613365D01*
X184099000Y-82386635D01*
X184143232Y-82164267D01*
X184229996Y-81954799D01*
X184229997Y-81954797D01*
X184355960Y-81766280D01*
X184516280Y-81605960D01*
X184704797Y-81479997D01*
X184914266Y-81393232D01*
X185025451Y-81371116D01*
X185136635Y-81349000D01*
X185363365Y-81349000D01*
X185474549Y-81371116D01*
G37*
G36*
X161724549Y-81371116D02*
G01*
X161835734Y-81393232D01*
X162045203Y-81479997D01*
X162233720Y-81605960D01*
X162394040Y-81766280D01*
X162520003Y-81954797D01*
X162520004Y-81954799D01*
X162606768Y-82164267D01*
X162651000Y-82386635D01*
X162651000Y-82613365D01*
X162638385Y-82676784D01*
X162606768Y-82835734D01*
X162520003Y-83045203D01*
X162394040Y-83233720D01*
X162233720Y-83394040D01*
X162045203Y-83520003D01*
X161835734Y-83606768D01*
X161724549Y-83628884D01*
X161613365Y-83651000D01*
X161386635Y-83651000D01*
X161275451Y-83628884D01*
X161164266Y-83606768D01*
X160954797Y-83520003D01*
X160766280Y-83394040D01*
X160605960Y-83233720D01*
X160479997Y-83045203D01*
X160393232Y-82835734D01*
X160361615Y-82676784D01*
X160349000Y-82613365D01*
X160349000Y-82386635D01*
X160393232Y-82164267D01*
X160479996Y-81954799D01*
X160479997Y-81954797D01*
X160605960Y-81766280D01*
X160766280Y-81605960D01*
X160954797Y-81479997D01*
X161164266Y-81393232D01*
X161275451Y-81371116D01*
X161386635Y-81349000D01*
X161613365Y-81349000D01*
X161724549Y-81371116D01*
G37*
G36*
X173243512Y-81353927D02*
G01*
X173392812Y-81383624D01*
X173556784Y-81451544D01*
X173704354Y-81550147D01*
X173829853Y-81675646D01*
X173928456Y-81823216D01*
X173996376Y-81987188D01*
X174031000Y-82161259D01*
X174031000Y-82338741D01*
X173996376Y-82512812D01*
X173928456Y-82676784D01*
X173829853Y-82824354D01*
X173704354Y-82949853D01*
X173556784Y-83048456D01*
X173392812Y-83116376D01*
X173243512Y-83146073D01*
X173218742Y-83151000D01*
X173041258Y-83151000D01*
X173016488Y-83146073D01*
X172867188Y-83116376D01*
X172703216Y-83048456D01*
X172555646Y-82949853D01*
X172430147Y-82824354D01*
X172331544Y-82676784D01*
X172263624Y-82512812D01*
X172229000Y-82338741D01*
X172229000Y-82161259D01*
X172263624Y-81987188D01*
X172331544Y-81823216D01*
X172430147Y-81675646D01*
X172555646Y-81550147D01*
X172703216Y-81451544D01*
X172867188Y-81383624D01*
X173016488Y-81353927D01*
X173041258Y-81349000D01*
X173218742Y-81349000D01*
X173243512Y-81353927D01*
G37*
G36*
X170703512Y-81353927D02*
G01*
X170852812Y-81383624D01*
X171016784Y-81451544D01*
X171164354Y-81550147D01*
X171289853Y-81675646D01*
X171388456Y-81823216D01*
X171456376Y-81987188D01*
X171491000Y-82161259D01*
X171491000Y-82338741D01*
X171456376Y-82512812D01*
X171388456Y-82676784D01*
X171289853Y-82824354D01*
X171164354Y-82949853D01*
X171016784Y-83048456D01*
X170852812Y-83116376D01*
X170703512Y-83146073D01*
X170678742Y-83151000D01*
X170501258Y-83151000D01*
X170476488Y-83146073D01*
X170327188Y-83116376D01*
X170163216Y-83048456D01*
X170015646Y-82949853D01*
X169890147Y-82824354D01*
X169791544Y-82676784D01*
X169723624Y-82512812D01*
X169689000Y-82338741D01*
X169689000Y-82161259D01*
X169723624Y-81987188D01*
X169791544Y-81823216D01*
X169890147Y-81675646D01*
X170015646Y-81550147D01*
X170163216Y-81451544D01*
X170327188Y-81383624D01*
X170476488Y-81353927D01*
X170501258Y-81349000D01*
X170678742Y-81349000D01*
X170703512Y-81353927D01*
G37*
G36*
X168163512Y-81353927D02*
G01*
X168312812Y-81383624D01*
X168476784Y-81451544D01*
X168624354Y-81550147D01*
X168749853Y-81675646D01*
X168848456Y-81823216D01*
X168916376Y-81987188D01*
X168951000Y-82161259D01*
X168951000Y-82338741D01*
X168916376Y-82512812D01*
X168848456Y-82676784D01*
X168749853Y-82824354D01*
X168624354Y-82949853D01*
X168476784Y-83048456D01*
X168312812Y-83116376D01*
X168163512Y-83146073D01*
X168138742Y-83151000D01*
X167961258Y-83151000D01*
X167936488Y-83146073D01*
X167787188Y-83116376D01*
X167623216Y-83048456D01*
X167475646Y-82949853D01*
X167350147Y-82824354D01*
X167251544Y-82676784D01*
X167183624Y-82512812D01*
X167149000Y-82338741D01*
X167149000Y-82161259D01*
X167183624Y-81987188D01*
X167251544Y-81823216D01*
X167350147Y-81675646D01*
X167475646Y-81550147D01*
X167623216Y-81451544D01*
X167787188Y-81383624D01*
X167936488Y-81353927D01*
X167961258Y-81349000D01*
X168138742Y-81349000D01*
X168163512Y-81353927D01*
G37*
G36*
X165623512Y-81353927D02*
G01*
X165772812Y-81383624D01*
X165936784Y-81451544D01*
X166084354Y-81550147D01*
X166209853Y-81675646D01*
X166308456Y-81823216D01*
X166376376Y-81987188D01*
X166411000Y-82161259D01*
X166411000Y-82338741D01*
X166376376Y-82512812D01*
X166308456Y-82676784D01*
X166209853Y-82824354D01*
X166084354Y-82949853D01*
X165936784Y-83048456D01*
X165772812Y-83116376D01*
X165623512Y-83146073D01*
X165598742Y-83151000D01*
X165421258Y-83151000D01*
X165396488Y-83146073D01*
X165247188Y-83116376D01*
X165083216Y-83048456D01*
X164935646Y-82949853D01*
X164810147Y-82824354D01*
X164711544Y-82676784D01*
X164643624Y-82512812D01*
X164609000Y-82338741D01*
X164609000Y-82161259D01*
X164643624Y-81987188D01*
X164711544Y-81823216D01*
X164810147Y-81675646D01*
X164935646Y-81550147D01*
X165083216Y-81451544D01*
X165247188Y-81383624D01*
X165396488Y-81353927D01*
X165421258Y-81349000D01*
X165598742Y-81349000D01*
X165623512Y-81353927D01*
G37*
G36*
X175783512Y-81353927D02*
G01*
X175932812Y-81383624D01*
X176096784Y-81451544D01*
X176244354Y-81550147D01*
X176369853Y-81675646D01*
X176468456Y-81823216D01*
X176536376Y-81987188D01*
X176571000Y-82161259D01*
X176571000Y-82338741D01*
X176536376Y-82512812D01*
X176468456Y-82676784D01*
X176369853Y-82824354D01*
X176244354Y-82949853D01*
X176096784Y-83048456D01*
X175932812Y-83116376D01*
X175783512Y-83146073D01*
X175758742Y-83151000D01*
X175581258Y-83151000D01*
X175556488Y-83146073D01*
X175407188Y-83116376D01*
X175243216Y-83048456D01*
X175095646Y-82949853D01*
X174970147Y-82824354D01*
X174871544Y-82676784D01*
X174803624Y-82512812D01*
X174769000Y-82338741D01*
X174769000Y-82161259D01*
X174803624Y-81987188D01*
X174871544Y-81823216D01*
X174970147Y-81675646D01*
X175095646Y-81550147D01*
X175243216Y-81451544D01*
X175407188Y-81383624D01*
X175556488Y-81353927D01*
X175581258Y-81349000D01*
X175758742Y-81349000D01*
X175783512Y-81353927D01*
G37*
G36*
X181651000Y-83151000D02*
G01*
X179849000Y-83151000D01*
X179849000Y-81349000D01*
X181651000Y-81349000D01*
X181651000Y-83151000D01*
G37*
G36*
X178323512Y-81353927D02*
G01*
X178472812Y-81383624D01*
X178636784Y-81451544D01*
X178784354Y-81550147D01*
X178909853Y-81675646D01*
X179008456Y-81823216D01*
X179076376Y-81987188D01*
X179111000Y-82161259D01*
X179111000Y-82338741D01*
X179076376Y-82512812D01*
X179008456Y-82676784D01*
X178909853Y-82824354D01*
X178784354Y-82949853D01*
X178636784Y-83048456D01*
X178472812Y-83116376D01*
X178323512Y-83146073D01*
X178298742Y-83151000D01*
X178121258Y-83151000D01*
X178096488Y-83146073D01*
X177947188Y-83116376D01*
X177783216Y-83048456D01*
X177635646Y-82949853D01*
X177510147Y-82824354D01*
X177411544Y-82676784D01*
X177343624Y-82512812D01*
X177309000Y-82338741D01*
X177309000Y-82161259D01*
X177343624Y-81987188D01*
X177411544Y-81823216D01*
X177510147Y-81675646D01*
X177635646Y-81550147D01*
X177783216Y-81451544D01*
X177947188Y-81383624D01*
X178096488Y-81353927D01*
X178121258Y-81349000D01*
X178298742Y-81349000D01*
X178323512Y-81353927D01*
G37*
M02*
