G04 #@! TF.GenerationSoftware,KiCad,Pcbnew,5.1.5+dfsg1-2build2*
G04 #@! TF.CreationDate,2022-01-22T12:50:49-08:00*
G04 #@! TF.ProjectId,pcb_v1,7063625f-7631-42e6-9b69-6361645f7063,rev?*
G04 #@! TF.SameCoordinates,Original*
G04 #@! TF.FileFunction,Copper,L2,Bot*
G04 #@! TF.FilePolarity,Positive*
%FSLAX46Y46*%
G04 Gerber Fmt 4.6, Leading zero omitted, Abs format (unit mm)*
G04 Created by KiCad (PCBNEW 5.1.5+dfsg1-2build2) date 2022-01-22 12:50:49*
%MOMM*%
%LPD*%
G04 APERTURE LIST*
%ADD10R,1.600000X1.000000*%
%ADD11C,1.600000*%
%ADD12O,1.700000X1.700000*%
%ADD13R,1.700000X1.700000*%
%ADD14C,0.787400*%
%ADD15C,0.500000*%
%ADD16C,0.400000*%
%ADD17C,0.250000*%
%ADD18C,0.500000*%
%ADD19C,0.254000*%
G04 APERTURE END LIST*
D10*
X161500000Y-121500000D03*
X166000000Y-121500000D03*
X170500000Y-121500000D03*
X175000000Y-121500000D03*
X184200000Y-121500000D03*
D11*
X175000000Y-124080000D03*
X175000000Y-119000000D03*
D12*
X165510000Y-82250000D03*
X168050000Y-82250000D03*
X170590000Y-82250000D03*
X173130000Y-82250000D03*
X175670000Y-82250000D03*
X178210000Y-82250000D03*
D13*
X180750000Y-82250000D03*
D12*
X162400000Y-94620000D03*
X162400000Y-92080000D03*
X162400000Y-89540000D03*
D13*
X162400000Y-87000000D03*
D14*
X183870000Y-89035000D03*
X183870000Y-87765000D03*
X182600000Y-89035000D03*
X182600000Y-87765000D03*
X181330000Y-89035000D03*
X181330000Y-87765000D03*
D15*
X178400000Y-124000000D03*
X166418750Y-124981250D03*
X173600000Y-126800000D03*
X177200000Y-127600000D03*
X171500000Y-88250000D03*
X181250000Y-86250000D03*
X180500000Y-99250000D03*
X185750000Y-103750000D03*
X173500000Y-123700000D03*
X162800000Y-125000000D03*
X169750000Y-124000000D03*
X184850000Y-119400000D03*
X178500000Y-128500000D03*
X167250000Y-123000000D03*
X162500000Y-123250000D03*
X179500000Y-132250000D03*
X176000000Y-131250000D03*
X170000000Y-131250000D03*
D16*
X183700000Y-121250000D03*
X184200000Y-121250000D03*
X184700000Y-121250000D03*
X184200000Y-121750000D03*
X183700000Y-121750000D03*
X184700000Y-121750000D03*
D15*
X182750000Y-97400000D03*
X183550000Y-96600000D03*
X184350000Y-97400000D03*
X183550000Y-97400000D03*
X182750000Y-96600000D03*
X184350000Y-96600000D03*
X175800000Y-92400000D03*
X174600000Y-92400000D03*
X173400000Y-92400000D03*
X175800000Y-91200000D03*
X174600000Y-91200000D03*
X173400000Y-91200000D03*
X175800000Y-90000000D03*
X174600000Y-90000000D03*
X173400000Y-90000000D03*
X170100000Y-119700000D03*
X166000000Y-119900000D03*
X173125000Y-125800000D03*
X168400000Y-112200000D03*
X170800000Y-112200000D03*
X173000000Y-112200000D03*
X182000000Y-112200000D03*
X175750000Y-95000000D03*
X172750000Y-101250000D03*
X173550000Y-101250000D03*
X172750000Y-102050000D03*
X173550000Y-102050000D03*
X166000000Y-93800000D03*
X167800000Y-86000000D03*
X167200000Y-86600000D03*
X166600000Y-87200000D03*
X183800000Y-86000000D03*
X173600000Y-119000000D03*
X175750000Y-96000000D03*
X174750000Y-96000000D03*
X173100000Y-124400000D03*
X183250000Y-119000000D03*
X182750000Y-124000000D03*
D16*
X174500000Y-121250000D03*
X175000000Y-121250000D03*
X175500000Y-121250000D03*
X175000000Y-121750000D03*
X174500000Y-121750000D03*
X175500000Y-121750000D03*
X170000000Y-121250000D03*
X170500000Y-121250000D03*
X171000000Y-121250000D03*
X170500000Y-121750000D03*
X170000000Y-121750000D03*
X171000000Y-121750000D03*
D15*
X167200000Y-84800000D03*
X170600000Y-84000000D03*
X177492852Y-85175000D03*
X180500000Y-90300000D03*
X179200000Y-90300000D03*
X175500000Y-84500000D03*
X178205095Y-119888246D03*
X181250000Y-105250000D03*
X172800000Y-119775000D03*
X173500000Y-109500000D03*
X169200000Y-119700000D03*
X172500000Y-108500000D03*
X164800000Y-119600000D03*
X171750000Y-107750000D03*
D16*
X165500000Y-121250000D03*
X166000000Y-121250000D03*
X166500000Y-121250000D03*
X166000000Y-121750000D03*
X165500000Y-121750000D03*
X166500000Y-121750000D03*
D15*
X182000000Y-110750000D03*
X171300000Y-105500000D03*
X160750000Y-119250000D03*
X170949499Y-107000000D03*
D16*
X162000000Y-121750000D03*
X161500000Y-121750000D03*
X161000000Y-121750000D03*
X161000000Y-121250000D03*
X161500000Y-121250000D03*
X162000000Y-121250000D03*
D15*
X169750000Y-123250000D03*
X179000000Y-129075000D03*
X167000000Y-127750000D03*
X171100000Y-129300000D03*
D17*
X178400000Y-124000000D02*
X177149990Y-125250010D01*
X173600000Y-126400000D02*
X173600000Y-126800000D01*
X173700000Y-126300000D02*
X173600000Y-126400000D01*
X177149990Y-127549990D02*
X177200000Y-127600000D01*
X177149990Y-125250010D02*
X177149990Y-127549990D01*
X173849999Y-124249999D02*
X173849999Y-126150001D01*
X173849999Y-126150001D02*
X173600000Y-126400000D01*
X180550010Y-83549990D02*
X180750000Y-83350000D01*
X175400992Y-83549990D02*
X180550010Y-83549990D01*
X180750000Y-83350000D02*
X180750000Y-82250000D01*
X171500000Y-88250000D02*
X173750000Y-86000000D01*
X173750000Y-85200982D02*
X175400992Y-83549990D01*
X173750000Y-86000000D02*
X173750000Y-85200982D01*
X181250000Y-87685000D02*
X181330000Y-87765000D01*
X181250000Y-86250000D02*
X181250000Y-87685000D01*
D18*
X180500000Y-99250000D02*
X184500000Y-99250000D01*
X184500000Y-99250000D02*
X184750000Y-99250000D01*
X184750000Y-99250000D02*
X185750000Y-100250000D01*
X185750000Y-100250000D02*
X185750000Y-103750000D01*
D17*
X173849999Y-124249999D02*
X173500000Y-123900000D01*
X173500000Y-123900000D02*
X173500000Y-123700000D01*
X169750000Y-124000000D02*
X168500000Y-125250000D01*
X168500000Y-126244988D02*
X167944988Y-126800000D01*
X168500000Y-125250000D02*
X168500000Y-126244988D01*
X170700000Y-126800000D02*
X173600000Y-126800000D01*
X167944988Y-126800000D02*
X170700000Y-126800000D01*
X163118750Y-124981250D02*
X163118750Y-125218750D01*
X166418750Y-124981250D02*
X163118750Y-124981250D01*
X163118750Y-125218750D02*
X163800000Y-125900000D01*
X164155012Y-126800000D02*
X164200000Y-126800000D01*
X163800000Y-126444988D02*
X164155012Y-126800000D01*
X163800000Y-125900000D02*
X163800000Y-126444988D01*
X167944988Y-126800000D02*
X164200000Y-126800000D01*
X162818750Y-124981250D02*
X162800000Y-125000000D01*
X163118750Y-124981250D02*
X162818750Y-124981250D01*
X185203553Y-119400000D02*
X185500000Y-119696447D01*
X184850000Y-119400000D02*
X185203553Y-119400000D01*
X185500000Y-119696447D02*
X185500000Y-122750000D01*
X185500000Y-122750000D02*
X185000000Y-123250000D01*
X185000000Y-123250000D02*
X182500000Y-123250000D01*
X182500000Y-123250000D02*
X182000000Y-123750000D01*
X182000000Y-123750000D02*
X182000000Y-126500000D01*
X182000000Y-126500000D02*
X182000000Y-126750000D01*
X180250000Y-128500000D02*
X178500000Y-128500000D01*
X182000000Y-126750000D02*
X180250000Y-128500000D01*
X164000000Y-129000000D02*
X164000000Y-131250000D01*
X164000000Y-131250000D02*
X165000000Y-132250000D01*
X165000000Y-132250000D02*
X169000000Y-132250000D01*
X169000000Y-132250000D02*
X170000000Y-131250000D01*
X169000000Y-132250000D02*
X175000000Y-132250000D01*
X175000000Y-132250000D02*
X176000000Y-131250000D01*
X175000000Y-132250000D02*
X179500000Y-132250000D01*
X176000000Y-131250000D02*
X176000000Y-131250000D01*
X170000000Y-131250000D02*
X170000000Y-131250000D01*
X162624870Y-123374870D02*
X166875130Y-123374870D01*
X166875130Y-123374870D02*
X167250000Y-123000000D01*
X162500000Y-123250000D02*
X162624870Y-123374870D01*
X162500000Y-127500000D02*
X164000000Y-129000000D01*
X162500000Y-125551002D02*
X162500000Y-127500000D01*
X161950000Y-125001002D02*
X162500000Y-125551002D01*
X161950000Y-123800000D02*
X161950000Y-125001002D01*
X162500000Y-123250000D02*
X161950000Y-123800000D01*
X173125000Y-125800000D02*
X173125000Y-124725000D01*
X165700000Y-119600000D02*
X165100000Y-119000000D01*
X165100000Y-119000000D02*
X164600000Y-119000000D01*
X164600000Y-119000000D02*
X164482857Y-119000000D01*
X164200000Y-116400000D02*
X168400000Y-112200000D01*
X183870000Y-86070000D02*
X183800000Y-86000000D01*
X183870000Y-87765000D02*
X183870000Y-86070000D01*
X163905012Y-119000000D02*
X163400000Y-118494988D01*
X164600000Y-119000000D02*
X163905012Y-119000000D01*
X163400000Y-117200000D02*
X164200000Y-116400000D01*
X163400000Y-118494988D02*
X163400000Y-117200000D01*
X172800000Y-112400000D02*
X173000000Y-112200000D01*
X173950000Y-118250000D02*
X173950000Y-116950000D01*
X173950000Y-116950000D02*
X172800000Y-115800000D01*
X173600000Y-118600000D02*
X173950000Y-118250000D01*
X172800000Y-115800000D02*
X172800000Y-112400000D01*
X173600000Y-119000000D02*
X173600000Y-118600000D01*
X173125000Y-124425000D02*
X173125000Y-124725000D01*
X173100000Y-124400000D02*
X173125000Y-124425000D01*
D18*
X182000000Y-112200000D02*
X183250000Y-113450000D01*
X183250000Y-113450000D02*
X183250000Y-115750000D01*
X183250000Y-115750000D02*
X186250000Y-118750000D01*
X186250000Y-118750000D02*
X186250000Y-123750000D01*
D17*
X183250000Y-115750000D02*
X183250000Y-119000000D01*
X183250000Y-119000000D02*
X183250000Y-119000000D01*
D18*
X186250000Y-123750000D02*
X186000000Y-124000000D01*
X186000000Y-124000000D02*
X182750000Y-124000000D01*
D17*
X165700000Y-119600000D02*
X166000000Y-119900000D01*
X169000000Y-114000000D02*
X170800000Y-112200000D01*
X168749990Y-118398988D02*
X168749990Y-114250010D01*
X170051002Y-119700000D02*
X168749990Y-118398988D01*
X168749990Y-114250010D02*
X169000000Y-114000000D01*
X170100000Y-119700000D02*
X170051002Y-119700000D01*
X169800000Y-84800000D02*
X170600000Y-84000000D01*
X167200000Y-84800000D02*
X169800000Y-84800000D01*
X182600000Y-86600000D02*
X182600000Y-87765000D01*
X177492852Y-85175000D02*
X181425000Y-85175000D01*
X182600000Y-86350000D02*
X182600000Y-86600000D01*
X181425000Y-85175000D02*
X182600000Y-86350000D01*
X181335000Y-90300000D02*
X182600000Y-89035000D01*
X180500000Y-90300000D02*
X181335000Y-90300000D01*
X180936301Y-89428699D02*
X181330000Y-89035000D01*
X180071301Y-89428699D02*
X180936301Y-89428699D01*
X179200000Y-90300000D02*
X180071301Y-89428699D01*
X179200000Y-87200000D02*
X179200000Y-90300000D01*
X177750000Y-85750000D02*
X179200000Y-87200000D01*
X176750000Y-85750000D02*
X177750000Y-85750000D01*
X175500000Y-84500000D02*
X176750000Y-85750000D01*
X181200000Y-112700000D02*
X181200000Y-111625000D01*
X181200000Y-112744988D02*
X181200000Y-112700000D01*
X178205095Y-119888246D02*
X177000000Y-118683151D01*
X177000000Y-118683151D02*
X177000000Y-115900000D01*
X177000000Y-115900000D02*
X178700000Y-114200000D01*
X179744988Y-114200000D02*
X181200000Y-112744988D01*
X178700000Y-114200000D02*
X179744988Y-114200000D01*
X181200000Y-111625000D02*
X181200000Y-110550000D01*
X181200000Y-105300000D02*
X181250000Y-105250000D01*
X181200000Y-110550000D02*
X181200000Y-105300000D01*
X172200000Y-111200000D02*
X172200000Y-111200000D01*
X172200000Y-110800000D02*
X173500000Y-109500000D01*
X173150000Y-117100000D02*
X172200000Y-116150000D01*
X172200000Y-116150000D02*
X172200000Y-110800000D01*
X173150000Y-118300000D02*
X173150000Y-117100000D01*
X172800000Y-118650000D02*
X173150000Y-118300000D01*
X172800000Y-119775000D02*
X172800000Y-118650000D01*
X172250000Y-108500000D02*
X172500000Y-108500000D01*
X169600000Y-111150000D02*
X172250000Y-108500000D01*
X168249990Y-113750010D02*
X169600000Y-112400000D01*
X169600000Y-112400000D02*
X169600000Y-111150000D01*
X168250010Y-113750030D02*
X168249990Y-113750010D01*
X168200010Y-113800030D02*
X168250010Y-113750030D01*
X168200010Y-118700010D02*
X168200010Y-113800030D01*
X169200000Y-119700000D02*
X168200010Y-118700010D01*
X162800000Y-116553553D02*
X167600000Y-111753553D01*
X162800000Y-119000000D02*
X162800000Y-116553553D01*
X163400000Y-119600000D02*
X162800000Y-119000000D01*
X164800000Y-119600000D02*
X163400000Y-119600000D01*
X167746447Y-111753553D02*
X171750000Y-107750000D01*
X167600000Y-111753553D02*
X167746447Y-111753553D01*
D18*
X175000000Y-124080000D02*
X175000000Y-127300000D01*
X187000000Y-124000000D02*
X182500000Y-128500000D01*
X187000000Y-114000000D02*
X187000000Y-124000000D01*
X183750000Y-110750000D02*
X187000000Y-114000000D01*
X182000000Y-110750000D02*
X183750000Y-110750000D01*
X182500000Y-128500000D02*
X181750000Y-129250000D01*
D17*
X176549998Y-129250000D02*
X176500000Y-129250000D01*
D18*
X175000000Y-127750000D02*
X175000000Y-127300000D01*
X176500000Y-129250000D02*
X175000000Y-127750000D01*
X177250000Y-130000000D02*
X176500000Y-129250000D01*
X181000000Y-130000000D02*
X177250000Y-130000000D01*
X181750000Y-129250000D02*
X181000000Y-130000000D01*
X171700000Y-105900000D02*
X171300000Y-105500000D01*
X171700000Y-106300000D02*
X171700000Y-105900000D01*
X175900000Y-110500000D02*
X171700000Y-106300000D01*
X175900000Y-116968630D02*
X175900000Y-110500000D01*
X175000000Y-117868630D02*
X175900000Y-116968630D01*
X175000000Y-119000000D02*
X175000000Y-117868630D01*
D17*
X167199499Y-110750000D02*
X170949499Y-107000000D01*
X160750000Y-119250000D02*
X161100000Y-118900000D01*
X161100000Y-118900000D02*
X161600000Y-118900000D01*
X162000000Y-118494988D02*
X162150010Y-118344978D01*
X162000000Y-118500000D02*
X162000000Y-118494988D01*
X161600000Y-118900000D02*
X162000000Y-118500000D01*
X162150010Y-115799489D02*
X167199499Y-110750000D01*
X162150010Y-118344978D02*
X162150010Y-115799489D01*
X177575002Y-129075000D02*
X179000000Y-129075000D01*
X176500000Y-128000000D02*
X177575002Y-129075000D01*
X176500000Y-123000000D02*
X176500000Y-128000000D01*
X176250000Y-122750000D02*
X176500000Y-123000000D01*
X174000000Y-122750000D02*
X176250000Y-122750000D01*
X173750000Y-123000000D02*
X174000000Y-122750000D01*
X170000000Y-123000000D02*
X173750000Y-123000000D01*
X169750000Y-123250000D02*
X170000000Y-123000000D01*
X167000000Y-127750000D02*
X168250000Y-129000000D01*
X170800000Y-129000000D02*
X171100000Y-129300000D01*
X168250000Y-129000000D02*
X170800000Y-129000000D01*
D19*
G36*
X166127000Y-121373000D02*
G01*
X166147000Y-121373000D01*
X166147000Y-121627000D01*
X166127000Y-121627000D01*
X166127000Y-121647000D01*
X165873000Y-121647000D01*
X165873000Y-121627000D01*
X165853000Y-121627000D01*
X165853000Y-121373000D01*
X165873000Y-121373000D01*
X165873000Y-121353000D01*
X166127000Y-121353000D01*
X166127000Y-121373000D01*
G37*
X166127000Y-121373000D02*
X166147000Y-121373000D01*
X166147000Y-121627000D01*
X166127000Y-121627000D01*
X166127000Y-121647000D01*
X165873000Y-121647000D01*
X165873000Y-121627000D01*
X165853000Y-121627000D01*
X165853000Y-121373000D01*
X165873000Y-121373000D01*
X165873000Y-121353000D01*
X166127000Y-121353000D01*
X166127000Y-121373000D01*
G36*
X170627000Y-121373000D02*
G01*
X170647000Y-121373000D01*
X170647000Y-121627000D01*
X170627000Y-121627000D01*
X170627000Y-121647000D01*
X170373000Y-121647000D01*
X170373000Y-121627000D01*
X170353000Y-121627000D01*
X170353000Y-121373000D01*
X170373000Y-121373000D01*
X170373000Y-121353000D01*
X170627000Y-121353000D01*
X170627000Y-121373000D01*
G37*
X170627000Y-121373000D02*
X170647000Y-121373000D01*
X170647000Y-121627000D01*
X170627000Y-121627000D01*
X170627000Y-121647000D01*
X170373000Y-121647000D01*
X170373000Y-121627000D01*
X170353000Y-121627000D01*
X170353000Y-121373000D01*
X170373000Y-121373000D01*
X170373000Y-121353000D01*
X170627000Y-121353000D01*
X170627000Y-121373000D01*
G36*
X175127000Y-121373000D02*
G01*
X175147000Y-121373000D01*
X175147000Y-121627000D01*
X175127000Y-121627000D01*
X175127000Y-121647000D01*
X174873000Y-121647000D01*
X174873000Y-121627000D01*
X174853000Y-121627000D01*
X174853000Y-121373000D01*
X174873000Y-121373000D01*
X174873000Y-121353000D01*
X175127000Y-121353000D01*
X175127000Y-121373000D01*
G37*
X175127000Y-121373000D02*
X175147000Y-121373000D01*
X175147000Y-121627000D01*
X175127000Y-121627000D01*
X175127000Y-121647000D01*
X174873000Y-121647000D01*
X174873000Y-121627000D01*
X174853000Y-121627000D01*
X174853000Y-121373000D01*
X174873000Y-121373000D01*
X174873000Y-121353000D01*
X175127000Y-121353000D01*
X175127000Y-121373000D01*
G36*
X184327000Y-121373000D02*
G01*
X184347000Y-121373000D01*
X184347000Y-121627000D01*
X184327000Y-121627000D01*
X184327000Y-121647000D01*
X184073000Y-121647000D01*
X184073000Y-121627000D01*
X184053000Y-121627000D01*
X184053000Y-121373000D01*
X184073000Y-121373000D01*
X184073000Y-121353000D01*
X184327000Y-121353000D01*
X184327000Y-121373000D01*
G37*
X184327000Y-121373000D02*
X184347000Y-121373000D01*
X184347000Y-121627000D01*
X184327000Y-121627000D01*
X184327000Y-121647000D01*
X184073000Y-121647000D01*
X184073000Y-121627000D01*
X184053000Y-121627000D01*
X184053000Y-121373000D01*
X184073000Y-121373000D01*
X184073000Y-121353000D01*
X184327000Y-121353000D01*
X184327000Y-121373000D01*
G36*
X185606775Y-80698147D02*
G01*
X185949967Y-80801763D01*
X186266489Y-80970062D01*
X186544299Y-81196637D01*
X186772806Y-81472856D01*
X186943310Y-81788197D01*
X187049319Y-82130656D01*
X187090001Y-82517722D01*
X187090000Y-104123000D01*
X186554118Y-104123000D01*
X186571589Y-104090313D01*
X186584269Y-104048513D01*
X186600990Y-104008145D01*
X186609513Y-103965295D01*
X186622195Y-103923490D01*
X186626477Y-103880013D01*
X186635000Y-103837165D01*
X186635000Y-100293469D01*
X186639281Y-100250000D01*
X186635000Y-100206531D01*
X186635000Y-100206523D01*
X186622195Y-100076510D01*
X186609384Y-100034277D01*
X186571589Y-99909686D01*
X186489411Y-99755941D01*
X186406532Y-99654953D01*
X186406530Y-99654951D01*
X186378817Y-99621183D01*
X186345050Y-99593471D01*
X185406534Y-98654956D01*
X185378817Y-98621183D01*
X185244059Y-98510589D01*
X185090313Y-98428411D01*
X184923490Y-98377805D01*
X184793477Y-98365000D01*
X184793469Y-98365000D01*
X184750000Y-98360719D01*
X184706531Y-98365000D01*
X180412835Y-98365000D01*
X180369987Y-98373523D01*
X180326510Y-98377805D01*
X180284705Y-98390487D01*
X180241855Y-98399010D01*
X180201487Y-98415731D01*
X180159687Y-98428411D01*
X180121165Y-98449001D01*
X180080795Y-98465723D01*
X180044467Y-98489996D01*
X180005941Y-98510589D01*
X179972171Y-98538304D01*
X179935845Y-98562576D01*
X179904951Y-98593470D01*
X179871183Y-98621183D01*
X179843470Y-98654951D01*
X179812576Y-98685845D01*
X179788304Y-98722171D01*
X179760589Y-98755941D01*
X179739996Y-98794467D01*
X179715723Y-98830795D01*
X179699001Y-98871165D01*
X179678411Y-98909687D01*
X179665731Y-98951487D01*
X179649010Y-98991855D01*
X179640487Y-99034705D01*
X179627805Y-99076510D01*
X179623523Y-99119987D01*
X179615000Y-99162835D01*
X179615000Y-99206523D01*
X179610718Y-99250000D01*
X179615000Y-99293477D01*
X179615000Y-99337165D01*
X179623523Y-99380013D01*
X179627805Y-99423490D01*
X179640487Y-99465295D01*
X179649010Y-99508145D01*
X179665731Y-99548513D01*
X179678411Y-99590313D01*
X179699001Y-99628835D01*
X179715723Y-99669205D01*
X179739996Y-99705533D01*
X179760589Y-99744059D01*
X179788304Y-99777829D01*
X179812576Y-99814155D01*
X179843470Y-99845049D01*
X179871183Y-99878817D01*
X179904951Y-99906530D01*
X179935845Y-99937424D01*
X179972171Y-99961696D01*
X180005941Y-99989411D01*
X180044467Y-100010004D01*
X180080795Y-100034277D01*
X180121165Y-100050999D01*
X180159687Y-100071589D01*
X180201487Y-100084269D01*
X180241855Y-100100990D01*
X180284705Y-100109513D01*
X180326510Y-100122195D01*
X180369987Y-100126477D01*
X180412835Y-100135000D01*
X184383422Y-100135000D01*
X184865000Y-100616579D01*
X184865001Y-103662830D01*
X184865000Y-103662835D01*
X184865000Y-103837165D01*
X184873525Y-103880023D01*
X184877806Y-103923490D01*
X184890485Y-103965285D01*
X184899010Y-104008145D01*
X184915735Y-104048522D01*
X184928412Y-104090313D01*
X184945883Y-104123000D01*
X159660000Y-104123000D01*
X159660000Y-87850000D01*
X160911928Y-87850000D01*
X160924188Y-87974482D01*
X160960498Y-88094180D01*
X161019463Y-88204494D01*
X161098815Y-88301185D01*
X161195506Y-88380537D01*
X161305820Y-88439502D01*
X161378380Y-88461513D01*
X161246525Y-88593368D01*
X161084010Y-88836589D01*
X160972068Y-89106842D01*
X160915000Y-89393740D01*
X160915000Y-89686260D01*
X160972068Y-89973158D01*
X161084010Y-90243411D01*
X161246525Y-90486632D01*
X161453368Y-90693475D01*
X161627760Y-90810000D01*
X161453368Y-90926525D01*
X161246525Y-91133368D01*
X161084010Y-91376589D01*
X160972068Y-91646842D01*
X160915000Y-91933740D01*
X160915000Y-92226260D01*
X160972068Y-92513158D01*
X161084010Y-92783411D01*
X161246525Y-93026632D01*
X161453368Y-93233475D01*
X161627760Y-93350000D01*
X161453368Y-93466525D01*
X161246525Y-93673368D01*
X161084010Y-93916589D01*
X160972068Y-94186842D01*
X160915000Y-94473740D01*
X160915000Y-94766260D01*
X160972068Y-95053158D01*
X161084010Y-95323411D01*
X161246525Y-95566632D01*
X161453368Y-95773475D01*
X161696589Y-95935990D01*
X161966842Y-96047932D01*
X162253740Y-96105000D01*
X162546260Y-96105000D01*
X162833158Y-96047932D01*
X163103411Y-95935990D01*
X163346632Y-95773475D01*
X163553475Y-95566632D01*
X163715990Y-95323411D01*
X163827932Y-95053158D01*
X163885000Y-94766260D01*
X163885000Y-94473740D01*
X163827932Y-94186842D01*
X163715990Y-93916589D01*
X163553475Y-93673368D01*
X163346632Y-93466525D01*
X163172240Y-93350000D01*
X163346632Y-93233475D01*
X163553475Y-93026632D01*
X163715990Y-92783411D01*
X163827932Y-92513158D01*
X163885000Y-92226260D01*
X163885000Y-91933740D01*
X163827932Y-91646842D01*
X163715990Y-91376589D01*
X163553475Y-91133368D01*
X163346632Y-90926525D01*
X163172240Y-90810000D01*
X163346632Y-90693475D01*
X163553475Y-90486632D01*
X163715990Y-90243411D01*
X163827932Y-89973158D01*
X163885000Y-89686260D01*
X163885000Y-89393740D01*
X163827932Y-89106842D01*
X163715990Y-88836589D01*
X163553475Y-88593368D01*
X163421620Y-88461513D01*
X163494180Y-88439502D01*
X163604494Y-88380537D01*
X163701185Y-88301185D01*
X163780537Y-88204494D01*
X163839502Y-88094180D01*
X163875812Y-87974482D01*
X163888072Y-87850000D01*
X163885000Y-87285750D01*
X163726250Y-87127000D01*
X162527000Y-87127000D01*
X162527000Y-87147000D01*
X162273000Y-87147000D01*
X162273000Y-87127000D01*
X161073750Y-87127000D01*
X160915000Y-87285750D01*
X160911928Y-87850000D01*
X159660000Y-87850000D01*
X159660000Y-86150000D01*
X160911928Y-86150000D01*
X160915000Y-86714250D01*
X161073750Y-86873000D01*
X162273000Y-86873000D01*
X162273000Y-85673750D01*
X162527000Y-85673750D01*
X162527000Y-86873000D01*
X163726250Y-86873000D01*
X163885000Y-86714250D01*
X163888072Y-86150000D01*
X163875812Y-86025518D01*
X163839502Y-85905820D01*
X163780537Y-85795506D01*
X163701185Y-85698815D01*
X163604494Y-85619463D01*
X163494180Y-85560498D01*
X163374482Y-85524188D01*
X163250000Y-85511928D01*
X162685750Y-85515000D01*
X162527000Y-85673750D01*
X162273000Y-85673750D01*
X162114250Y-85515000D01*
X161550000Y-85511928D01*
X161425518Y-85524188D01*
X161305820Y-85560498D01*
X161195506Y-85619463D01*
X161098815Y-85698815D01*
X161019463Y-85795506D01*
X160960498Y-85905820D01*
X160924188Y-86025518D01*
X160911928Y-86150000D01*
X159660000Y-86150000D01*
X159660000Y-82532279D01*
X159679920Y-82329117D01*
X159765000Y-82329117D01*
X159765000Y-82670883D01*
X159831675Y-83006081D01*
X159962463Y-83321831D01*
X160152337Y-83605998D01*
X160394002Y-83847663D01*
X160678169Y-84037537D01*
X160993919Y-84168325D01*
X161329117Y-84235000D01*
X161670883Y-84235000D01*
X162006081Y-84168325D01*
X162321831Y-84037537D01*
X162605998Y-83847663D01*
X162847663Y-83605998D01*
X163037537Y-83321831D01*
X163168325Y-83006081D01*
X163235000Y-82670883D01*
X163235000Y-82329117D01*
X163190170Y-82103740D01*
X164025000Y-82103740D01*
X164025000Y-82396260D01*
X164082068Y-82683158D01*
X164194010Y-82953411D01*
X164356525Y-83196632D01*
X164563368Y-83403475D01*
X164806589Y-83565990D01*
X165076842Y-83677932D01*
X165363740Y-83735000D01*
X165656260Y-83735000D01*
X165943158Y-83677932D01*
X166213411Y-83565990D01*
X166456632Y-83403475D01*
X166663475Y-83196632D01*
X166780000Y-83022240D01*
X166896525Y-83196632D01*
X167103368Y-83403475D01*
X167346589Y-83565990D01*
X167616842Y-83677932D01*
X167903740Y-83735000D01*
X168196260Y-83735000D01*
X168483158Y-83677932D01*
X168753411Y-83565990D01*
X168996632Y-83403475D01*
X169203475Y-83196632D01*
X169320000Y-83022240D01*
X169436525Y-83196632D01*
X169643368Y-83403475D01*
X169844435Y-83537824D01*
X169815723Y-83580795D01*
X169749010Y-83741855D01*
X169740485Y-83784713D01*
X169485199Y-84040000D01*
X167655538Y-84040000D01*
X167619205Y-84015723D01*
X167458145Y-83949010D01*
X167287165Y-83915000D01*
X167112835Y-83915000D01*
X166941855Y-83949010D01*
X166780795Y-84015723D01*
X166635845Y-84112576D01*
X166512576Y-84235845D01*
X166415723Y-84380795D01*
X166349010Y-84541855D01*
X166315000Y-84712835D01*
X166315000Y-84887165D01*
X166349010Y-85058145D01*
X166415723Y-85219205D01*
X166512576Y-85364155D01*
X166635845Y-85487424D01*
X166780795Y-85584277D01*
X166941855Y-85650990D01*
X167112835Y-85685000D01*
X167287165Y-85685000D01*
X167458145Y-85650990D01*
X167619205Y-85584277D01*
X167655538Y-85560000D01*
X169762678Y-85560000D01*
X169800000Y-85563676D01*
X169837322Y-85560000D01*
X169837333Y-85560000D01*
X169948986Y-85549003D01*
X170092247Y-85505546D01*
X170224276Y-85434974D01*
X170340001Y-85340001D01*
X170363803Y-85310998D01*
X170815287Y-84859515D01*
X170858145Y-84850990D01*
X171019205Y-84784277D01*
X171164155Y-84687424D01*
X171287424Y-84564155D01*
X171384277Y-84419205D01*
X171450990Y-84258145D01*
X171485000Y-84087165D01*
X171485000Y-83912835D01*
X171450990Y-83741855D01*
X171384277Y-83580795D01*
X171349391Y-83528585D01*
X171536632Y-83403475D01*
X171743475Y-83196632D01*
X171860000Y-83022240D01*
X171976525Y-83196632D01*
X172183368Y-83403475D01*
X172426589Y-83565990D01*
X172696842Y-83677932D01*
X172983740Y-83735000D01*
X173276260Y-83735000D01*
X173563158Y-83677932D01*
X173833411Y-83565990D01*
X174076632Y-83403475D01*
X174283475Y-83196632D01*
X174405195Y-83014466D01*
X174474822Y-83131355D01*
X174602822Y-83273358D01*
X173238998Y-84637183D01*
X173210000Y-84660981D01*
X173186202Y-84689979D01*
X173186201Y-84689980D01*
X173115026Y-84776706D01*
X173044454Y-84908736D01*
X173032245Y-84948985D01*
X173000997Y-85051996D01*
X172990000Y-85163649D01*
X172990000Y-85163660D01*
X172986324Y-85200982D01*
X172990000Y-85238304D01*
X172990000Y-85685198D01*
X171284714Y-87390485D01*
X171241855Y-87399010D01*
X171080795Y-87465723D01*
X170935845Y-87562576D01*
X170812576Y-87685845D01*
X170715723Y-87830795D01*
X170649010Y-87991855D01*
X170615000Y-88162835D01*
X170615000Y-88337165D01*
X170649010Y-88508145D01*
X170715723Y-88669205D01*
X170812576Y-88814155D01*
X170935845Y-88937424D01*
X171080795Y-89034277D01*
X171241855Y-89100990D01*
X171412835Y-89135000D01*
X171587165Y-89135000D01*
X171758145Y-89100990D01*
X171919205Y-89034277D01*
X172064155Y-88937424D01*
X172187424Y-88814155D01*
X172284277Y-88669205D01*
X172350990Y-88508145D01*
X172359515Y-88465286D01*
X174261004Y-86563798D01*
X174290001Y-86540001D01*
X174384974Y-86424276D01*
X174455546Y-86292247D01*
X174499003Y-86148986D01*
X174510000Y-86037333D01*
X174510000Y-86037332D01*
X174513677Y-86000000D01*
X174510000Y-85962667D01*
X174510000Y-85515783D01*
X174887102Y-85138681D01*
X174935845Y-85187424D01*
X175080795Y-85284277D01*
X175241855Y-85350990D01*
X175284714Y-85359515D01*
X176186200Y-86261002D01*
X176209999Y-86290001D01*
X176238997Y-86313799D01*
X176325723Y-86384974D01*
X176449274Y-86451014D01*
X176457753Y-86455546D01*
X176601014Y-86499003D01*
X176712667Y-86510000D01*
X176712677Y-86510000D01*
X176750000Y-86513676D01*
X176787323Y-86510000D01*
X177435199Y-86510000D01*
X178440000Y-87514802D01*
X178440001Y-89844461D01*
X178415723Y-89880795D01*
X178349010Y-90041855D01*
X178315000Y-90212835D01*
X178315000Y-90387165D01*
X178349010Y-90558145D01*
X178415723Y-90719205D01*
X178512576Y-90864155D01*
X178635845Y-90987424D01*
X178780795Y-91084277D01*
X178941855Y-91150990D01*
X179112835Y-91185000D01*
X179287165Y-91185000D01*
X179458145Y-91150990D01*
X179619205Y-91084277D01*
X179764155Y-90987424D01*
X179850000Y-90901579D01*
X179935845Y-90987424D01*
X180080795Y-91084277D01*
X180241855Y-91150990D01*
X180412835Y-91185000D01*
X180587165Y-91185000D01*
X180758145Y-91150990D01*
X180919205Y-91084277D01*
X180955538Y-91060000D01*
X181297678Y-91060000D01*
X181335000Y-91063676D01*
X181372322Y-91060000D01*
X181372333Y-91060000D01*
X181483986Y-91049003D01*
X181627247Y-91005546D01*
X181759276Y-90934974D01*
X181875001Y-90840001D01*
X181898804Y-90810997D01*
X182646102Y-90063700D01*
X182701318Y-90063700D01*
X182900061Y-90024167D01*
X183087272Y-89946622D01*
X183235000Y-89847913D01*
X183382728Y-89946622D01*
X183569939Y-90024167D01*
X183768682Y-90063700D01*
X183971318Y-90063700D01*
X184170061Y-90024167D01*
X184183300Y-90018683D01*
X184262039Y-90136524D01*
X184419476Y-90293961D01*
X184604602Y-90417659D01*
X184810304Y-90502863D01*
X185028675Y-90546300D01*
X185251325Y-90546300D01*
X185469696Y-90502863D01*
X185675398Y-90417659D01*
X185860524Y-90293961D01*
X186017961Y-90136524D01*
X186141659Y-89951398D01*
X186226863Y-89745696D01*
X186270300Y-89527325D01*
X186270300Y-89304675D01*
X186226863Y-89086304D01*
X186141659Y-88880602D01*
X186017961Y-88695476D01*
X185860524Y-88538039D01*
X185675398Y-88414341D01*
X185640776Y-88400000D01*
X185675398Y-88385659D01*
X185860524Y-88261961D01*
X186017961Y-88104524D01*
X186141659Y-87919398D01*
X186226863Y-87713696D01*
X186270300Y-87495325D01*
X186270300Y-87272675D01*
X186226863Y-87054304D01*
X186141659Y-86848602D01*
X186017961Y-86663476D01*
X185860524Y-86506039D01*
X185675398Y-86382341D01*
X185469696Y-86297137D01*
X185251325Y-86253700D01*
X185028675Y-86253700D01*
X184810304Y-86297137D01*
X184604602Y-86382341D01*
X184419476Y-86506039D01*
X184262039Y-86663476D01*
X184184050Y-86780194D01*
X183985988Y-86737851D01*
X183783372Y-86734959D01*
X183584086Y-86771651D01*
X183395787Y-86846517D01*
X183369768Y-86860424D01*
X183360000Y-86950079D01*
X183360000Y-86387323D01*
X183363676Y-86350000D01*
X183360000Y-86312677D01*
X183360000Y-86312667D01*
X183349003Y-86201014D01*
X183305546Y-86057753D01*
X183274676Y-86000000D01*
X183234974Y-85925723D01*
X183163799Y-85838997D01*
X183140001Y-85809999D01*
X183111004Y-85786202D01*
X181988804Y-84664003D01*
X181965001Y-84634999D01*
X181849276Y-84540026D01*
X181717247Y-84469454D01*
X181573986Y-84425997D01*
X181462333Y-84415000D01*
X181462322Y-84415000D01*
X181425000Y-84411324D01*
X181387678Y-84415000D01*
X177948390Y-84415000D01*
X177912057Y-84390723D01*
X177750997Y-84324010D01*
X177680514Y-84309990D01*
X180512688Y-84309990D01*
X180550010Y-84313666D01*
X180587332Y-84309990D01*
X180587343Y-84309990D01*
X180698996Y-84298993D01*
X180842257Y-84255536D01*
X180974286Y-84184964D01*
X181090011Y-84089991D01*
X181113814Y-84060987D01*
X181260998Y-83913803D01*
X181290001Y-83890001D01*
X181384974Y-83774276D01*
X181404326Y-83738072D01*
X181600000Y-83738072D01*
X181724482Y-83725812D01*
X181844180Y-83689502D01*
X181954494Y-83630537D01*
X182051185Y-83551185D01*
X182130537Y-83454494D01*
X182189502Y-83344180D01*
X182225812Y-83224482D01*
X182238072Y-83100000D01*
X182238072Y-82329117D01*
X183515000Y-82329117D01*
X183515000Y-82670883D01*
X183581675Y-83006081D01*
X183712463Y-83321831D01*
X183902337Y-83605998D01*
X184144002Y-83847663D01*
X184428169Y-84037537D01*
X184743919Y-84168325D01*
X185079117Y-84235000D01*
X185420883Y-84235000D01*
X185756081Y-84168325D01*
X186071831Y-84037537D01*
X186355998Y-83847663D01*
X186597663Y-83605998D01*
X186787537Y-83321831D01*
X186918325Y-83006081D01*
X186985000Y-82670883D01*
X186985000Y-82329117D01*
X186918325Y-81993919D01*
X186787537Y-81678169D01*
X186597663Y-81394002D01*
X186355998Y-81152337D01*
X186071831Y-80962463D01*
X185756081Y-80831675D01*
X185420883Y-80765000D01*
X185079117Y-80765000D01*
X184743919Y-80831675D01*
X184428169Y-80962463D01*
X184144002Y-81152337D01*
X183902337Y-81394002D01*
X183712463Y-81678169D01*
X183581675Y-81993919D01*
X183515000Y-82329117D01*
X182238072Y-82329117D01*
X182238072Y-81400000D01*
X182225812Y-81275518D01*
X182189502Y-81155820D01*
X182130537Y-81045506D01*
X182051185Y-80948815D01*
X181954494Y-80869463D01*
X181844180Y-80810498D01*
X181724482Y-80774188D01*
X181600000Y-80761928D01*
X179900000Y-80761928D01*
X179775518Y-80774188D01*
X179655820Y-80810498D01*
X179545506Y-80869463D01*
X179448815Y-80948815D01*
X179369463Y-81045506D01*
X179310498Y-81155820D01*
X179288487Y-81228380D01*
X179156632Y-81096525D01*
X178913411Y-80934010D01*
X178643158Y-80822068D01*
X178356260Y-80765000D01*
X178063740Y-80765000D01*
X177776842Y-80822068D01*
X177506589Y-80934010D01*
X177263368Y-81096525D01*
X177056525Y-81303368D01*
X176934805Y-81485534D01*
X176865178Y-81368645D01*
X176670269Y-81152412D01*
X176436920Y-80978359D01*
X176174099Y-80853175D01*
X176026890Y-80808524D01*
X175797000Y-80929845D01*
X175797000Y-82123000D01*
X175817000Y-82123000D01*
X175817000Y-82377000D01*
X175797000Y-82377000D01*
X175797000Y-82397000D01*
X175543000Y-82397000D01*
X175543000Y-82377000D01*
X175523000Y-82377000D01*
X175523000Y-82123000D01*
X175543000Y-82123000D01*
X175543000Y-80929845D01*
X175313110Y-80808524D01*
X175165901Y-80853175D01*
X174903080Y-80978359D01*
X174669731Y-81152412D01*
X174474822Y-81368645D01*
X174405195Y-81485534D01*
X174283475Y-81303368D01*
X174076632Y-81096525D01*
X173833411Y-80934010D01*
X173563158Y-80822068D01*
X173276260Y-80765000D01*
X172983740Y-80765000D01*
X172696842Y-80822068D01*
X172426589Y-80934010D01*
X172183368Y-81096525D01*
X171976525Y-81303368D01*
X171860000Y-81477760D01*
X171743475Y-81303368D01*
X171536632Y-81096525D01*
X171293411Y-80934010D01*
X171023158Y-80822068D01*
X170736260Y-80765000D01*
X170443740Y-80765000D01*
X170156842Y-80822068D01*
X169886589Y-80934010D01*
X169643368Y-81096525D01*
X169436525Y-81303368D01*
X169320000Y-81477760D01*
X169203475Y-81303368D01*
X168996632Y-81096525D01*
X168753411Y-80934010D01*
X168483158Y-80822068D01*
X168196260Y-80765000D01*
X167903740Y-80765000D01*
X167616842Y-80822068D01*
X167346589Y-80934010D01*
X167103368Y-81096525D01*
X166896525Y-81303368D01*
X166780000Y-81477760D01*
X166663475Y-81303368D01*
X166456632Y-81096525D01*
X166213411Y-80934010D01*
X165943158Y-80822068D01*
X165656260Y-80765000D01*
X165363740Y-80765000D01*
X165076842Y-80822068D01*
X164806589Y-80934010D01*
X164563368Y-81096525D01*
X164356525Y-81303368D01*
X164194010Y-81546589D01*
X164082068Y-81816842D01*
X164025000Y-82103740D01*
X163190170Y-82103740D01*
X163168325Y-81993919D01*
X163037537Y-81678169D01*
X162847663Y-81394002D01*
X162605998Y-81152337D01*
X162321831Y-80962463D01*
X162006081Y-80831675D01*
X161670883Y-80765000D01*
X161329117Y-80765000D01*
X160993919Y-80831675D01*
X160678169Y-80962463D01*
X160394002Y-81152337D01*
X160152337Y-81394002D01*
X159962463Y-81678169D01*
X159831675Y-81993919D01*
X159765000Y-82329117D01*
X159679920Y-82329117D01*
X159698147Y-82143225D01*
X159801763Y-81800033D01*
X159970062Y-81483511D01*
X160196637Y-81205701D01*
X160472856Y-80977194D01*
X160788197Y-80806690D01*
X161130656Y-80700681D01*
X161517712Y-80660000D01*
X185217721Y-80660000D01*
X185606775Y-80698147D01*
G37*
X185606775Y-80698147D02*
X185949967Y-80801763D01*
X186266489Y-80970062D01*
X186544299Y-81196637D01*
X186772806Y-81472856D01*
X186943310Y-81788197D01*
X187049319Y-82130656D01*
X187090001Y-82517722D01*
X187090000Y-104123000D01*
X186554118Y-104123000D01*
X186571589Y-104090313D01*
X186584269Y-104048513D01*
X186600990Y-104008145D01*
X186609513Y-103965295D01*
X186622195Y-103923490D01*
X186626477Y-103880013D01*
X186635000Y-103837165D01*
X186635000Y-100293469D01*
X186639281Y-100250000D01*
X186635000Y-100206531D01*
X186635000Y-100206523D01*
X186622195Y-100076510D01*
X186609384Y-100034277D01*
X186571589Y-99909686D01*
X186489411Y-99755941D01*
X186406532Y-99654953D01*
X186406530Y-99654951D01*
X186378817Y-99621183D01*
X186345050Y-99593471D01*
X185406534Y-98654956D01*
X185378817Y-98621183D01*
X185244059Y-98510589D01*
X185090313Y-98428411D01*
X184923490Y-98377805D01*
X184793477Y-98365000D01*
X184793469Y-98365000D01*
X184750000Y-98360719D01*
X184706531Y-98365000D01*
X180412835Y-98365000D01*
X180369987Y-98373523D01*
X180326510Y-98377805D01*
X180284705Y-98390487D01*
X180241855Y-98399010D01*
X180201487Y-98415731D01*
X180159687Y-98428411D01*
X180121165Y-98449001D01*
X180080795Y-98465723D01*
X180044467Y-98489996D01*
X180005941Y-98510589D01*
X179972171Y-98538304D01*
X179935845Y-98562576D01*
X179904951Y-98593470D01*
X179871183Y-98621183D01*
X179843470Y-98654951D01*
X179812576Y-98685845D01*
X179788304Y-98722171D01*
X179760589Y-98755941D01*
X179739996Y-98794467D01*
X179715723Y-98830795D01*
X179699001Y-98871165D01*
X179678411Y-98909687D01*
X179665731Y-98951487D01*
X179649010Y-98991855D01*
X179640487Y-99034705D01*
X179627805Y-99076510D01*
X179623523Y-99119987D01*
X179615000Y-99162835D01*
X179615000Y-99206523D01*
X179610718Y-99250000D01*
X179615000Y-99293477D01*
X179615000Y-99337165D01*
X179623523Y-99380013D01*
X179627805Y-99423490D01*
X179640487Y-99465295D01*
X179649010Y-99508145D01*
X179665731Y-99548513D01*
X179678411Y-99590313D01*
X179699001Y-99628835D01*
X179715723Y-99669205D01*
X179739996Y-99705533D01*
X179760589Y-99744059D01*
X179788304Y-99777829D01*
X179812576Y-99814155D01*
X179843470Y-99845049D01*
X179871183Y-99878817D01*
X179904951Y-99906530D01*
X179935845Y-99937424D01*
X179972171Y-99961696D01*
X180005941Y-99989411D01*
X180044467Y-100010004D01*
X180080795Y-100034277D01*
X180121165Y-100050999D01*
X180159687Y-100071589D01*
X180201487Y-100084269D01*
X180241855Y-100100990D01*
X180284705Y-100109513D01*
X180326510Y-100122195D01*
X180369987Y-100126477D01*
X180412835Y-100135000D01*
X184383422Y-100135000D01*
X184865000Y-100616579D01*
X184865001Y-103662830D01*
X184865000Y-103662835D01*
X184865000Y-103837165D01*
X184873525Y-103880023D01*
X184877806Y-103923490D01*
X184890485Y-103965285D01*
X184899010Y-104008145D01*
X184915735Y-104048522D01*
X184928412Y-104090313D01*
X184945883Y-104123000D01*
X159660000Y-104123000D01*
X159660000Y-87850000D01*
X160911928Y-87850000D01*
X160924188Y-87974482D01*
X160960498Y-88094180D01*
X161019463Y-88204494D01*
X161098815Y-88301185D01*
X161195506Y-88380537D01*
X161305820Y-88439502D01*
X161378380Y-88461513D01*
X161246525Y-88593368D01*
X161084010Y-88836589D01*
X160972068Y-89106842D01*
X160915000Y-89393740D01*
X160915000Y-89686260D01*
X160972068Y-89973158D01*
X161084010Y-90243411D01*
X161246525Y-90486632D01*
X161453368Y-90693475D01*
X161627760Y-90810000D01*
X161453368Y-90926525D01*
X161246525Y-91133368D01*
X161084010Y-91376589D01*
X160972068Y-91646842D01*
X160915000Y-91933740D01*
X160915000Y-92226260D01*
X160972068Y-92513158D01*
X161084010Y-92783411D01*
X161246525Y-93026632D01*
X161453368Y-93233475D01*
X161627760Y-93350000D01*
X161453368Y-93466525D01*
X161246525Y-93673368D01*
X161084010Y-93916589D01*
X160972068Y-94186842D01*
X160915000Y-94473740D01*
X160915000Y-94766260D01*
X160972068Y-95053158D01*
X161084010Y-95323411D01*
X161246525Y-95566632D01*
X161453368Y-95773475D01*
X161696589Y-95935990D01*
X161966842Y-96047932D01*
X162253740Y-96105000D01*
X162546260Y-96105000D01*
X162833158Y-96047932D01*
X163103411Y-95935990D01*
X163346632Y-95773475D01*
X163553475Y-95566632D01*
X163715990Y-95323411D01*
X163827932Y-95053158D01*
X163885000Y-94766260D01*
X163885000Y-94473740D01*
X163827932Y-94186842D01*
X163715990Y-93916589D01*
X163553475Y-93673368D01*
X163346632Y-93466525D01*
X163172240Y-93350000D01*
X163346632Y-93233475D01*
X163553475Y-93026632D01*
X163715990Y-92783411D01*
X163827932Y-92513158D01*
X163885000Y-92226260D01*
X163885000Y-91933740D01*
X163827932Y-91646842D01*
X163715990Y-91376589D01*
X163553475Y-91133368D01*
X163346632Y-90926525D01*
X163172240Y-90810000D01*
X163346632Y-90693475D01*
X163553475Y-90486632D01*
X163715990Y-90243411D01*
X163827932Y-89973158D01*
X163885000Y-89686260D01*
X163885000Y-89393740D01*
X163827932Y-89106842D01*
X163715990Y-88836589D01*
X163553475Y-88593368D01*
X163421620Y-88461513D01*
X163494180Y-88439502D01*
X163604494Y-88380537D01*
X163701185Y-88301185D01*
X163780537Y-88204494D01*
X163839502Y-88094180D01*
X163875812Y-87974482D01*
X163888072Y-87850000D01*
X163885000Y-87285750D01*
X163726250Y-87127000D01*
X162527000Y-87127000D01*
X162527000Y-87147000D01*
X162273000Y-87147000D01*
X162273000Y-87127000D01*
X161073750Y-87127000D01*
X160915000Y-87285750D01*
X160911928Y-87850000D01*
X159660000Y-87850000D01*
X159660000Y-86150000D01*
X160911928Y-86150000D01*
X160915000Y-86714250D01*
X161073750Y-86873000D01*
X162273000Y-86873000D01*
X162273000Y-85673750D01*
X162527000Y-85673750D01*
X162527000Y-86873000D01*
X163726250Y-86873000D01*
X163885000Y-86714250D01*
X163888072Y-86150000D01*
X163875812Y-86025518D01*
X163839502Y-85905820D01*
X163780537Y-85795506D01*
X163701185Y-85698815D01*
X163604494Y-85619463D01*
X163494180Y-85560498D01*
X163374482Y-85524188D01*
X163250000Y-85511928D01*
X162685750Y-85515000D01*
X162527000Y-85673750D01*
X162273000Y-85673750D01*
X162114250Y-85515000D01*
X161550000Y-85511928D01*
X161425518Y-85524188D01*
X161305820Y-85560498D01*
X161195506Y-85619463D01*
X161098815Y-85698815D01*
X161019463Y-85795506D01*
X160960498Y-85905820D01*
X160924188Y-86025518D01*
X160911928Y-86150000D01*
X159660000Y-86150000D01*
X159660000Y-82532279D01*
X159679920Y-82329117D01*
X159765000Y-82329117D01*
X159765000Y-82670883D01*
X159831675Y-83006081D01*
X159962463Y-83321831D01*
X160152337Y-83605998D01*
X160394002Y-83847663D01*
X160678169Y-84037537D01*
X160993919Y-84168325D01*
X161329117Y-84235000D01*
X161670883Y-84235000D01*
X162006081Y-84168325D01*
X162321831Y-84037537D01*
X162605998Y-83847663D01*
X162847663Y-83605998D01*
X163037537Y-83321831D01*
X163168325Y-83006081D01*
X163235000Y-82670883D01*
X163235000Y-82329117D01*
X163190170Y-82103740D01*
X164025000Y-82103740D01*
X164025000Y-82396260D01*
X164082068Y-82683158D01*
X164194010Y-82953411D01*
X164356525Y-83196632D01*
X164563368Y-83403475D01*
X164806589Y-83565990D01*
X165076842Y-83677932D01*
X165363740Y-83735000D01*
X165656260Y-83735000D01*
X165943158Y-83677932D01*
X166213411Y-83565990D01*
X166456632Y-83403475D01*
X166663475Y-83196632D01*
X166780000Y-83022240D01*
X166896525Y-83196632D01*
X167103368Y-83403475D01*
X167346589Y-83565990D01*
X167616842Y-83677932D01*
X167903740Y-83735000D01*
X168196260Y-83735000D01*
X168483158Y-83677932D01*
X168753411Y-83565990D01*
X168996632Y-83403475D01*
X169203475Y-83196632D01*
X169320000Y-83022240D01*
X169436525Y-83196632D01*
X169643368Y-83403475D01*
X169844435Y-83537824D01*
X169815723Y-83580795D01*
X169749010Y-83741855D01*
X169740485Y-83784713D01*
X169485199Y-84040000D01*
X167655538Y-84040000D01*
X167619205Y-84015723D01*
X167458145Y-83949010D01*
X167287165Y-83915000D01*
X167112835Y-83915000D01*
X166941855Y-83949010D01*
X166780795Y-84015723D01*
X166635845Y-84112576D01*
X166512576Y-84235845D01*
X166415723Y-84380795D01*
X166349010Y-84541855D01*
X166315000Y-84712835D01*
X166315000Y-84887165D01*
X166349010Y-85058145D01*
X166415723Y-85219205D01*
X166512576Y-85364155D01*
X166635845Y-85487424D01*
X166780795Y-85584277D01*
X166941855Y-85650990D01*
X167112835Y-85685000D01*
X167287165Y-85685000D01*
X167458145Y-85650990D01*
X167619205Y-85584277D01*
X167655538Y-85560000D01*
X169762678Y-85560000D01*
X169800000Y-85563676D01*
X169837322Y-85560000D01*
X169837333Y-85560000D01*
X169948986Y-85549003D01*
X170092247Y-85505546D01*
X170224276Y-85434974D01*
X170340001Y-85340001D01*
X170363803Y-85310998D01*
X170815287Y-84859515D01*
X170858145Y-84850990D01*
X171019205Y-84784277D01*
X171164155Y-84687424D01*
X171287424Y-84564155D01*
X171384277Y-84419205D01*
X171450990Y-84258145D01*
X171485000Y-84087165D01*
X171485000Y-83912835D01*
X171450990Y-83741855D01*
X171384277Y-83580795D01*
X171349391Y-83528585D01*
X171536632Y-83403475D01*
X171743475Y-83196632D01*
X171860000Y-83022240D01*
X171976525Y-83196632D01*
X172183368Y-83403475D01*
X172426589Y-83565990D01*
X172696842Y-83677932D01*
X172983740Y-83735000D01*
X173276260Y-83735000D01*
X173563158Y-83677932D01*
X173833411Y-83565990D01*
X174076632Y-83403475D01*
X174283475Y-83196632D01*
X174405195Y-83014466D01*
X174474822Y-83131355D01*
X174602822Y-83273358D01*
X173238998Y-84637183D01*
X173210000Y-84660981D01*
X173186202Y-84689979D01*
X173186201Y-84689980D01*
X173115026Y-84776706D01*
X173044454Y-84908736D01*
X173032245Y-84948985D01*
X173000997Y-85051996D01*
X172990000Y-85163649D01*
X172990000Y-85163660D01*
X172986324Y-85200982D01*
X172990000Y-85238304D01*
X172990000Y-85685198D01*
X171284714Y-87390485D01*
X171241855Y-87399010D01*
X171080795Y-87465723D01*
X170935845Y-87562576D01*
X170812576Y-87685845D01*
X170715723Y-87830795D01*
X170649010Y-87991855D01*
X170615000Y-88162835D01*
X170615000Y-88337165D01*
X170649010Y-88508145D01*
X170715723Y-88669205D01*
X170812576Y-88814155D01*
X170935845Y-88937424D01*
X171080795Y-89034277D01*
X171241855Y-89100990D01*
X171412835Y-89135000D01*
X171587165Y-89135000D01*
X171758145Y-89100990D01*
X171919205Y-89034277D01*
X172064155Y-88937424D01*
X172187424Y-88814155D01*
X172284277Y-88669205D01*
X172350990Y-88508145D01*
X172359515Y-88465286D01*
X174261004Y-86563798D01*
X174290001Y-86540001D01*
X174384974Y-86424276D01*
X174455546Y-86292247D01*
X174499003Y-86148986D01*
X174510000Y-86037333D01*
X174510000Y-86037332D01*
X174513677Y-86000000D01*
X174510000Y-85962667D01*
X174510000Y-85515783D01*
X174887102Y-85138681D01*
X174935845Y-85187424D01*
X175080795Y-85284277D01*
X175241855Y-85350990D01*
X175284714Y-85359515D01*
X176186200Y-86261002D01*
X176209999Y-86290001D01*
X176238997Y-86313799D01*
X176325723Y-86384974D01*
X176449274Y-86451014D01*
X176457753Y-86455546D01*
X176601014Y-86499003D01*
X176712667Y-86510000D01*
X176712677Y-86510000D01*
X176750000Y-86513676D01*
X176787323Y-86510000D01*
X177435199Y-86510000D01*
X178440000Y-87514802D01*
X178440001Y-89844461D01*
X178415723Y-89880795D01*
X178349010Y-90041855D01*
X178315000Y-90212835D01*
X178315000Y-90387165D01*
X178349010Y-90558145D01*
X178415723Y-90719205D01*
X178512576Y-90864155D01*
X178635845Y-90987424D01*
X178780795Y-91084277D01*
X178941855Y-91150990D01*
X179112835Y-91185000D01*
X179287165Y-91185000D01*
X179458145Y-91150990D01*
X179619205Y-91084277D01*
X179764155Y-90987424D01*
X179850000Y-90901579D01*
X179935845Y-90987424D01*
X180080795Y-91084277D01*
X180241855Y-91150990D01*
X180412835Y-91185000D01*
X180587165Y-91185000D01*
X180758145Y-91150990D01*
X180919205Y-91084277D01*
X180955538Y-91060000D01*
X181297678Y-91060000D01*
X181335000Y-91063676D01*
X181372322Y-91060000D01*
X181372333Y-91060000D01*
X181483986Y-91049003D01*
X181627247Y-91005546D01*
X181759276Y-90934974D01*
X181875001Y-90840001D01*
X181898804Y-90810997D01*
X182646102Y-90063700D01*
X182701318Y-90063700D01*
X182900061Y-90024167D01*
X183087272Y-89946622D01*
X183235000Y-89847913D01*
X183382728Y-89946622D01*
X183569939Y-90024167D01*
X183768682Y-90063700D01*
X183971318Y-90063700D01*
X184170061Y-90024167D01*
X184183300Y-90018683D01*
X184262039Y-90136524D01*
X184419476Y-90293961D01*
X184604602Y-90417659D01*
X184810304Y-90502863D01*
X185028675Y-90546300D01*
X185251325Y-90546300D01*
X185469696Y-90502863D01*
X185675398Y-90417659D01*
X185860524Y-90293961D01*
X186017961Y-90136524D01*
X186141659Y-89951398D01*
X186226863Y-89745696D01*
X186270300Y-89527325D01*
X186270300Y-89304675D01*
X186226863Y-89086304D01*
X186141659Y-88880602D01*
X186017961Y-88695476D01*
X185860524Y-88538039D01*
X185675398Y-88414341D01*
X185640776Y-88400000D01*
X185675398Y-88385659D01*
X185860524Y-88261961D01*
X186017961Y-88104524D01*
X186141659Y-87919398D01*
X186226863Y-87713696D01*
X186270300Y-87495325D01*
X186270300Y-87272675D01*
X186226863Y-87054304D01*
X186141659Y-86848602D01*
X186017961Y-86663476D01*
X185860524Y-86506039D01*
X185675398Y-86382341D01*
X185469696Y-86297137D01*
X185251325Y-86253700D01*
X185028675Y-86253700D01*
X184810304Y-86297137D01*
X184604602Y-86382341D01*
X184419476Y-86506039D01*
X184262039Y-86663476D01*
X184184050Y-86780194D01*
X183985988Y-86737851D01*
X183783372Y-86734959D01*
X183584086Y-86771651D01*
X183395787Y-86846517D01*
X183369768Y-86860424D01*
X183360000Y-86950079D01*
X183360000Y-86387323D01*
X183363676Y-86350000D01*
X183360000Y-86312677D01*
X183360000Y-86312667D01*
X183349003Y-86201014D01*
X183305546Y-86057753D01*
X183274676Y-86000000D01*
X183234974Y-85925723D01*
X183163799Y-85838997D01*
X183140001Y-85809999D01*
X183111004Y-85786202D01*
X181988804Y-84664003D01*
X181965001Y-84634999D01*
X181849276Y-84540026D01*
X181717247Y-84469454D01*
X181573986Y-84425997D01*
X181462333Y-84415000D01*
X181462322Y-84415000D01*
X181425000Y-84411324D01*
X181387678Y-84415000D01*
X177948390Y-84415000D01*
X177912057Y-84390723D01*
X177750997Y-84324010D01*
X177680514Y-84309990D01*
X180512688Y-84309990D01*
X180550010Y-84313666D01*
X180587332Y-84309990D01*
X180587343Y-84309990D01*
X180698996Y-84298993D01*
X180842257Y-84255536D01*
X180974286Y-84184964D01*
X181090011Y-84089991D01*
X181113814Y-84060987D01*
X181260998Y-83913803D01*
X181290001Y-83890001D01*
X181384974Y-83774276D01*
X181404326Y-83738072D01*
X181600000Y-83738072D01*
X181724482Y-83725812D01*
X181844180Y-83689502D01*
X181954494Y-83630537D01*
X182051185Y-83551185D01*
X182130537Y-83454494D01*
X182189502Y-83344180D01*
X182225812Y-83224482D01*
X182238072Y-83100000D01*
X182238072Y-82329117D01*
X183515000Y-82329117D01*
X183515000Y-82670883D01*
X183581675Y-83006081D01*
X183712463Y-83321831D01*
X183902337Y-83605998D01*
X184144002Y-83847663D01*
X184428169Y-84037537D01*
X184743919Y-84168325D01*
X185079117Y-84235000D01*
X185420883Y-84235000D01*
X185756081Y-84168325D01*
X186071831Y-84037537D01*
X186355998Y-83847663D01*
X186597663Y-83605998D01*
X186787537Y-83321831D01*
X186918325Y-83006081D01*
X186985000Y-82670883D01*
X186985000Y-82329117D01*
X186918325Y-81993919D01*
X186787537Y-81678169D01*
X186597663Y-81394002D01*
X186355998Y-81152337D01*
X186071831Y-80962463D01*
X185756081Y-80831675D01*
X185420883Y-80765000D01*
X185079117Y-80765000D01*
X184743919Y-80831675D01*
X184428169Y-80962463D01*
X184144002Y-81152337D01*
X183902337Y-81394002D01*
X183712463Y-81678169D01*
X183581675Y-81993919D01*
X183515000Y-82329117D01*
X182238072Y-82329117D01*
X182238072Y-81400000D01*
X182225812Y-81275518D01*
X182189502Y-81155820D01*
X182130537Y-81045506D01*
X182051185Y-80948815D01*
X181954494Y-80869463D01*
X181844180Y-80810498D01*
X181724482Y-80774188D01*
X181600000Y-80761928D01*
X179900000Y-80761928D01*
X179775518Y-80774188D01*
X179655820Y-80810498D01*
X179545506Y-80869463D01*
X179448815Y-80948815D01*
X179369463Y-81045506D01*
X179310498Y-81155820D01*
X179288487Y-81228380D01*
X179156632Y-81096525D01*
X178913411Y-80934010D01*
X178643158Y-80822068D01*
X178356260Y-80765000D01*
X178063740Y-80765000D01*
X177776842Y-80822068D01*
X177506589Y-80934010D01*
X177263368Y-81096525D01*
X177056525Y-81303368D01*
X176934805Y-81485534D01*
X176865178Y-81368645D01*
X176670269Y-81152412D01*
X176436920Y-80978359D01*
X176174099Y-80853175D01*
X176026890Y-80808524D01*
X175797000Y-80929845D01*
X175797000Y-82123000D01*
X175817000Y-82123000D01*
X175817000Y-82377000D01*
X175797000Y-82377000D01*
X175797000Y-82397000D01*
X175543000Y-82397000D01*
X175543000Y-82377000D01*
X175523000Y-82377000D01*
X175523000Y-82123000D01*
X175543000Y-82123000D01*
X175543000Y-80929845D01*
X175313110Y-80808524D01*
X175165901Y-80853175D01*
X174903080Y-80978359D01*
X174669731Y-81152412D01*
X174474822Y-81368645D01*
X174405195Y-81485534D01*
X174283475Y-81303368D01*
X174076632Y-81096525D01*
X173833411Y-80934010D01*
X173563158Y-80822068D01*
X173276260Y-80765000D01*
X172983740Y-80765000D01*
X172696842Y-80822068D01*
X172426589Y-80934010D01*
X172183368Y-81096525D01*
X171976525Y-81303368D01*
X171860000Y-81477760D01*
X171743475Y-81303368D01*
X171536632Y-81096525D01*
X171293411Y-80934010D01*
X171023158Y-80822068D01*
X170736260Y-80765000D01*
X170443740Y-80765000D01*
X170156842Y-80822068D01*
X169886589Y-80934010D01*
X169643368Y-81096525D01*
X169436525Y-81303368D01*
X169320000Y-81477760D01*
X169203475Y-81303368D01*
X168996632Y-81096525D01*
X168753411Y-80934010D01*
X168483158Y-80822068D01*
X168196260Y-80765000D01*
X167903740Y-80765000D01*
X167616842Y-80822068D01*
X167346589Y-80934010D01*
X167103368Y-81096525D01*
X166896525Y-81303368D01*
X166780000Y-81477760D01*
X166663475Y-81303368D01*
X166456632Y-81096525D01*
X166213411Y-80934010D01*
X165943158Y-80822068D01*
X165656260Y-80765000D01*
X165363740Y-80765000D01*
X165076842Y-80822068D01*
X164806589Y-80934010D01*
X164563368Y-81096525D01*
X164356525Y-81303368D01*
X164194010Y-81546589D01*
X164082068Y-81816842D01*
X164025000Y-82103740D01*
X163190170Y-82103740D01*
X163168325Y-81993919D01*
X163037537Y-81678169D01*
X162847663Y-81394002D01*
X162605998Y-81152337D01*
X162321831Y-80962463D01*
X162006081Y-80831675D01*
X161670883Y-80765000D01*
X161329117Y-80765000D01*
X160993919Y-80831675D01*
X160678169Y-80962463D01*
X160394002Y-81152337D01*
X160152337Y-81394002D01*
X159962463Y-81678169D01*
X159831675Y-81993919D01*
X159765000Y-82329117D01*
X159679920Y-82329117D01*
X159698147Y-82143225D01*
X159801763Y-81800033D01*
X159970062Y-81483511D01*
X160196637Y-81205701D01*
X160472856Y-80977194D01*
X160788197Y-80806690D01*
X161130656Y-80700681D01*
X161517712Y-80660000D01*
X185217721Y-80660000D01*
X185606775Y-80698147D01*
G36*
X184063748Y-87750858D02*
G01*
X184049605Y-87765000D01*
X184063748Y-87779143D01*
X183884143Y-87958748D01*
X183870000Y-87944605D01*
X183855858Y-87958748D01*
X183676253Y-87779143D01*
X183690395Y-87765000D01*
X183676253Y-87750858D01*
X183855858Y-87571253D01*
X183870000Y-87585395D01*
X183884143Y-87571253D01*
X184063748Y-87750858D01*
G37*
X184063748Y-87750858D02*
X184049605Y-87765000D01*
X184063748Y-87779143D01*
X183884143Y-87958748D01*
X183870000Y-87944605D01*
X183855858Y-87958748D01*
X183676253Y-87779143D01*
X183690395Y-87765000D01*
X183676253Y-87750858D01*
X183855858Y-87571253D01*
X183870000Y-87585395D01*
X183884143Y-87571253D01*
X184063748Y-87750858D01*
G36*
X161627000Y-121373000D02*
G01*
X161647000Y-121373000D01*
X161647000Y-121627000D01*
X161627000Y-121627000D01*
X161627000Y-121647000D01*
X161373000Y-121647000D01*
X161373000Y-121627000D01*
X161353000Y-121627000D01*
X161353000Y-121373000D01*
X161373000Y-121373000D01*
X161373000Y-121353000D01*
X161627000Y-121353000D01*
X161627000Y-121373000D01*
G37*
X161627000Y-121373000D02*
X161647000Y-121373000D01*
X161647000Y-121627000D01*
X161627000Y-121627000D01*
X161627000Y-121647000D01*
X161373000Y-121647000D01*
X161373000Y-121627000D01*
X161353000Y-121627000D01*
X161353000Y-121373000D01*
X161373000Y-121373000D01*
X161373000Y-121353000D01*
X161627000Y-121353000D01*
X161627000Y-121373000D01*
M02*
