G04 #@! TF.GenerationSoftware,KiCad,Pcbnew,5.1.5+dfsg1-2build2*
G04 #@! TF.CreationDate,2022-01-15T14:27:05-08:00*
G04 #@! TF.ProjectId,pcb_v1,7063625f-7631-42e6-9b69-6361645f7063,rev?*
G04 #@! TF.SameCoordinates,Original*
G04 #@! TF.FileFunction,Soldermask,Bot*
G04 #@! TF.FilePolarity,Negative*
%FSLAX46Y46*%
G04 Gerber Fmt 4.6, Leading zero omitted, Abs format (unit mm)*
G04 Created by KiCad (PCBNEW 5.1.5+dfsg1-2build2) date 2022-01-15 14:27:05*
%MOMM*%
%LPD*%
G04 APERTURE LIST*
%ADD10C,0.300000*%
%ADD11C,0.010000*%
%ADD12C,0.100000*%
G04 APERTURE END LIST*
D10*
X167771428Y-92807142D02*
X167857142Y-93064285D01*
X167942857Y-93150000D01*
X168114285Y-93235714D01*
X168371428Y-93235714D01*
X168542857Y-93150000D01*
X168628571Y-93064285D01*
X168714285Y-92892857D01*
X168714285Y-92207142D01*
X166914285Y-92207142D01*
X166914285Y-92807142D01*
X167000000Y-92978571D01*
X167085714Y-93064285D01*
X167257142Y-93150000D01*
X167428571Y-93150000D01*
X167600000Y-93064285D01*
X167685714Y-92978571D01*
X167771428Y-92807142D01*
X167771428Y-92207142D01*
X168714285Y-94007142D02*
X167514285Y-94007142D01*
X166914285Y-94007142D02*
X167000000Y-93921428D01*
X167085714Y-94007142D01*
X167000000Y-94092857D01*
X166914285Y-94007142D01*
X167085714Y-94007142D01*
X168714285Y-95121428D02*
X168628571Y-94950000D01*
X168542857Y-94864285D01*
X168371428Y-94778571D01*
X167857142Y-94778571D01*
X167685714Y-94864285D01*
X167600000Y-94950000D01*
X167514285Y-95121428D01*
X167514285Y-95378571D01*
X167600000Y-95550000D01*
X167685714Y-95635714D01*
X167857142Y-95721428D01*
X168371428Y-95721428D01*
X168542857Y-95635714D01*
X168628571Y-95550000D01*
X168714285Y-95378571D01*
X168714285Y-95121428D01*
X168714285Y-96492857D02*
X166914285Y-96492857D01*
X168200000Y-97092857D01*
X166914285Y-97692857D01*
X168714285Y-97692857D01*
X167771428Y-98550000D02*
X167771428Y-99150000D01*
X168714285Y-99407142D02*
X168714285Y-98550000D01*
X166914285Y-98550000D01*
X166914285Y-99407142D01*
X168714285Y-100178571D02*
X166914285Y-100178571D01*
X168200000Y-100778571D01*
X166914285Y-101378571D01*
X168714285Y-101378571D01*
X168628571Y-102150000D02*
X168714285Y-102407142D01*
X168714285Y-102835714D01*
X168628571Y-103007142D01*
X168542857Y-103092857D01*
X168371428Y-103178571D01*
X168200000Y-103178571D01*
X168028571Y-103092857D01*
X167942857Y-103007142D01*
X167857142Y-102835714D01*
X167771428Y-102492857D01*
X167685714Y-102321428D01*
X167600000Y-102235714D01*
X167428571Y-102150000D01*
X167257142Y-102150000D01*
X167085714Y-102235714D01*
X167000000Y-102321428D01*
X166914285Y-102492857D01*
X166914285Y-102921428D01*
X167000000Y-103178571D01*
D11*
G36*
X162503050Y-101974784D02*
G01*
X162840948Y-101973095D01*
X163132067Y-101971486D01*
X163380427Y-101969822D01*
X163590050Y-101967966D01*
X163764954Y-101965784D01*
X163909162Y-101963138D01*
X164026693Y-101959894D01*
X164121567Y-101955916D01*
X164197806Y-101951067D01*
X164259429Y-101945213D01*
X164310458Y-101938216D01*
X164354912Y-101929942D01*
X164396812Y-101920255D01*
X164438693Y-101909413D01*
X164768705Y-101796892D01*
X165070944Y-101642284D01*
X165344204Y-101446803D01*
X165587278Y-101211662D01*
X165798960Y-100938074D01*
X165978044Y-100627253D01*
X166123325Y-100280411D01*
X166156192Y-100182025D01*
X166184719Y-100091921D01*
X166206096Y-100023970D01*
X166216721Y-99989638D01*
X166217277Y-99987607D01*
X166209494Y-99965155D01*
X166189014Y-99905089D01*
X166159415Y-99817919D01*
X166139921Y-99760389D01*
X165997162Y-99404286D01*
X165823453Y-99088388D01*
X165618350Y-98812283D01*
X165381413Y-98575559D01*
X165112197Y-98377803D01*
X164810262Y-98218600D01*
X164475164Y-98097540D01*
X164312800Y-98055250D01*
X164269615Y-98046278D01*
X164220266Y-98038505D01*
X164160752Y-98031811D01*
X164087070Y-98026080D01*
X163995218Y-98021192D01*
X163881194Y-98017030D01*
X163740996Y-98013474D01*
X163570621Y-98010409D01*
X163366068Y-98007714D01*
X163123335Y-98005272D01*
X162838420Y-98002964D01*
X162507320Y-98000673D01*
X162452250Y-98000316D01*
X160960000Y-97990708D01*
X160960000Y-98171200D01*
X162452250Y-98171302D01*
X162784370Y-98171558D01*
X163069845Y-98172340D01*
X163312828Y-98173738D01*
X163517474Y-98175843D01*
X163687934Y-98178747D01*
X163828362Y-98182542D01*
X163942911Y-98187317D01*
X164035735Y-98193166D01*
X164110986Y-98200177D01*
X164172819Y-98208444D01*
X164177585Y-98209207D01*
X164511079Y-98286717D01*
X164816301Y-98406370D01*
X165093035Y-98567961D01*
X165341065Y-98771282D01*
X165560177Y-99016127D01*
X165750153Y-99302291D01*
X165910780Y-99629568D01*
X166039350Y-99989455D01*
X166032418Y-100012646D01*
X166013610Y-100071434D01*
X165986971Y-100153174D01*
X165986518Y-100154555D01*
X165888278Y-100408166D01*
X165764055Y-100656339D01*
X165621266Y-100886676D01*
X165467328Y-101086777D01*
X165363613Y-101195889D01*
X165191325Y-101349890D01*
X165029987Y-101470310D01*
X164863891Y-101566814D01*
X164677328Y-101649065D01*
X164554100Y-101693860D01*
X164472509Y-101720457D01*
X164391404Y-101743328D01*
X164306370Y-101762752D01*
X164212996Y-101779004D01*
X164106868Y-101792363D01*
X163983574Y-101803106D01*
X163838700Y-101811510D01*
X163667834Y-101817853D01*
X163466563Y-101822411D01*
X163230475Y-101825462D01*
X162955155Y-101827283D01*
X162636192Y-101828152D01*
X162414150Y-101828334D01*
X160960000Y-101828800D01*
X160960000Y-98171200D01*
X160960000Y-97990708D01*
X160782200Y-97989563D01*
X160782200Y-101983205D01*
X162503050Y-101974784D01*
G37*
X162503050Y-101974784D02*
X162840948Y-101973095D01*
X163132067Y-101971486D01*
X163380427Y-101969822D01*
X163590050Y-101967966D01*
X163764954Y-101965784D01*
X163909162Y-101963138D01*
X164026693Y-101959894D01*
X164121567Y-101955916D01*
X164197806Y-101951067D01*
X164259429Y-101945213D01*
X164310458Y-101938216D01*
X164354912Y-101929942D01*
X164396812Y-101920255D01*
X164438693Y-101909413D01*
X164768705Y-101796892D01*
X165070944Y-101642284D01*
X165344204Y-101446803D01*
X165587278Y-101211662D01*
X165798960Y-100938074D01*
X165978044Y-100627253D01*
X166123325Y-100280411D01*
X166156192Y-100182025D01*
X166184719Y-100091921D01*
X166206096Y-100023970D01*
X166216721Y-99989638D01*
X166217277Y-99987607D01*
X166209494Y-99965155D01*
X166189014Y-99905089D01*
X166159415Y-99817919D01*
X166139921Y-99760389D01*
X165997162Y-99404286D01*
X165823453Y-99088388D01*
X165618350Y-98812283D01*
X165381413Y-98575559D01*
X165112197Y-98377803D01*
X164810262Y-98218600D01*
X164475164Y-98097540D01*
X164312800Y-98055250D01*
X164269615Y-98046278D01*
X164220266Y-98038505D01*
X164160752Y-98031811D01*
X164087070Y-98026080D01*
X163995218Y-98021192D01*
X163881194Y-98017030D01*
X163740996Y-98013474D01*
X163570621Y-98010409D01*
X163366068Y-98007714D01*
X163123335Y-98005272D01*
X162838420Y-98002964D01*
X162507320Y-98000673D01*
X162452250Y-98000316D01*
X160960000Y-97990708D01*
X160960000Y-98171200D01*
X162452250Y-98171302D01*
X162784370Y-98171558D01*
X163069845Y-98172340D01*
X163312828Y-98173738D01*
X163517474Y-98175843D01*
X163687934Y-98178747D01*
X163828362Y-98182542D01*
X163942911Y-98187317D01*
X164035735Y-98193166D01*
X164110986Y-98200177D01*
X164172819Y-98208444D01*
X164177585Y-98209207D01*
X164511079Y-98286717D01*
X164816301Y-98406370D01*
X165093035Y-98567961D01*
X165341065Y-98771282D01*
X165560177Y-99016127D01*
X165750153Y-99302291D01*
X165910780Y-99629568D01*
X166039350Y-99989455D01*
X166032418Y-100012646D01*
X166013610Y-100071434D01*
X165986971Y-100153174D01*
X165986518Y-100154555D01*
X165888278Y-100408166D01*
X165764055Y-100656339D01*
X165621266Y-100886676D01*
X165467328Y-101086777D01*
X165363613Y-101195889D01*
X165191325Y-101349890D01*
X165029987Y-101470310D01*
X164863891Y-101566814D01*
X164677328Y-101649065D01*
X164554100Y-101693860D01*
X164472509Y-101720457D01*
X164391404Y-101743328D01*
X164306370Y-101762752D01*
X164212996Y-101779004D01*
X164106868Y-101792363D01*
X163983574Y-101803106D01*
X163838700Y-101811510D01*
X163667834Y-101817853D01*
X163466563Y-101822411D01*
X163230475Y-101825462D01*
X162955155Y-101827283D01*
X162636192Y-101828152D01*
X162414150Y-101828334D01*
X160960000Y-101828800D01*
X160960000Y-98171200D01*
X160960000Y-97990708D01*
X160782200Y-97989563D01*
X160782200Y-101983205D01*
X162503050Y-101974784D01*
G36*
X162827541Y-100002784D02*
G01*
X162858443Y-100010922D01*
X162912888Y-100021205D01*
X162995740Y-100034433D01*
X163111863Y-100051407D01*
X163266122Y-100072928D01*
X163463379Y-100099798D01*
X163583678Y-100116031D01*
X163765168Y-100141160D01*
X163927970Y-100165029D01*
X164065952Y-100186630D01*
X164172984Y-100204958D01*
X164242934Y-100219004D01*
X164269672Y-100227762D01*
X164269478Y-100228653D01*
X164242925Y-100246084D01*
X164178923Y-100285827D01*
X164083629Y-100344129D01*
X163963197Y-100417237D01*
X163823782Y-100501397D01*
X163708443Y-100570728D01*
X163560481Y-100659957D01*
X163428553Y-100740382D01*
X163318421Y-100808417D01*
X163235848Y-100860478D01*
X163186597Y-100892982D01*
X163175043Y-100902480D01*
X163200793Y-100899039D01*
X163269145Y-100885511D01*
X163373234Y-100863376D01*
X163506196Y-100834114D01*
X163661165Y-100799206D01*
X163777494Y-100772565D01*
X163943743Y-100734678D01*
X164092817Y-100701532D01*
X164217834Y-100674590D01*
X164311910Y-100655314D01*
X164368160Y-100645168D01*
X164381320Y-100644254D01*
X164379406Y-100653574D01*
X164363127Y-100675999D01*
X164328885Y-100715428D01*
X164273079Y-100775762D01*
X164192108Y-100860898D01*
X164082372Y-100974735D01*
X163953443Y-101107623D01*
X163868580Y-101196118D01*
X163798378Y-101271586D01*
X163749566Y-101326624D01*
X163728874Y-101353831D01*
X163728600Y-101354902D01*
X163731368Y-101359364D01*
X163743267Y-101358746D01*
X163769687Y-101350984D01*
X163816018Y-101334009D01*
X163887650Y-101305755D01*
X163989973Y-101264154D01*
X164128378Y-101207141D01*
X164308253Y-101132647D01*
X164309133Y-101132282D01*
X164426535Y-101084956D01*
X164522997Y-101048680D01*
X164591084Y-101026040D01*
X164623358Y-101019617D01*
X164624097Y-101022864D01*
X164549786Y-101120045D01*
X164471398Y-101225126D01*
X164394641Y-101330131D01*
X164325219Y-101427085D01*
X164268839Y-101508012D01*
X164231205Y-101564938D01*
X164218023Y-101589886D01*
X164218182Y-101590249D01*
X164246737Y-101586987D01*
X164311684Y-101565184D01*
X164403807Y-101528670D01*
X164513891Y-101481279D01*
X164632720Y-101426843D01*
X164751080Y-101369194D01*
X164757300Y-101366053D01*
X164991410Y-101230122D01*
X165189440Y-101074534D01*
X165360817Y-100890097D01*
X165514970Y-100667616D01*
X165569159Y-100574479D01*
X165617716Y-100481137D01*
X165669321Y-100371700D01*
X165719134Y-100257788D01*
X165762318Y-100151021D01*
X165794033Y-100063019D01*
X165809440Y-100005402D01*
X165810158Y-99995768D01*
X165800824Y-99955552D01*
X165777747Y-99884559D01*
X165750145Y-99809333D01*
X165614993Y-99502065D01*
X165462895Y-99239993D01*
X165291324Y-99019601D01*
X165097752Y-98837373D01*
X164998600Y-98764010D01*
X164914959Y-98711719D01*
X164809850Y-98653179D01*
X164692229Y-98592535D01*
X164571053Y-98533930D01*
X164455277Y-98481509D01*
X164353858Y-98439416D01*
X164275752Y-98411795D01*
X164229916Y-98402789D01*
X164222857Y-98405075D01*
X164232859Y-98428526D01*
X164268589Y-98484478D01*
X164324783Y-98565182D01*
X164396175Y-98662889D01*
X164416405Y-98689894D01*
X164490962Y-98790614D01*
X164551868Y-98876145D01*
X164593818Y-98938783D01*
X164611505Y-98970823D01*
X164611482Y-98973184D01*
X164585910Y-98967181D01*
X164521157Y-98944188D01*
X164424781Y-98907110D01*
X164304343Y-98858851D01*
X164174158Y-98805141D01*
X164037778Y-98748968D01*
X163918192Y-98701281D01*
X163822976Y-98664971D01*
X163759704Y-98642932D01*
X163736076Y-98637856D01*
X163749392Y-98658621D01*
X163793100Y-98709792D01*
X163861943Y-98785590D01*
X163950662Y-98880230D01*
X164054000Y-98987932D01*
X164060681Y-98994818D01*
X164164776Y-99102993D01*
X164254678Y-99198258D01*
X164325114Y-99274874D01*
X164370812Y-99327099D01*
X164386501Y-99349192D01*
X164386365Y-99349441D01*
X164359863Y-99346415D01*
X164290891Y-99333177D01*
X164186412Y-99311213D01*
X164053391Y-99282012D01*
X163898791Y-99247063D01*
X163792100Y-99222449D01*
X163626707Y-99184428D01*
X163477839Y-99151018D01*
X163352608Y-99123746D01*
X163258125Y-99104144D01*
X163201504Y-99093742D01*
X163188486Y-99092596D01*
X163203925Y-99106622D01*
X163257509Y-99142983D01*
X163343656Y-99198154D01*
X163456788Y-99268608D01*
X163591323Y-99350820D01*
X163715536Y-99425634D01*
X163864917Y-99515703D01*
X163998728Y-99597641D01*
X164111116Y-99667759D01*
X164196225Y-99722372D01*
X164248204Y-99757790D01*
X164262000Y-99769873D01*
X164237863Y-99777533D01*
X164169667Y-99790720D01*
X164063729Y-99808430D01*
X163926369Y-99829659D01*
X163763904Y-99853404D01*
X163582653Y-99878662D01*
X163544450Y-99883841D01*
X163359603Y-99909044D01*
X163191712Y-99932434D01*
X163047210Y-99953075D01*
X162932528Y-99970031D01*
X162854099Y-99982366D01*
X162818357Y-99989144D01*
X162816914Y-99989733D01*
X162815320Y-99995988D01*
X162827541Y-100002784D01*
G37*
X162827541Y-100002784D02*
X162858443Y-100010922D01*
X162912888Y-100021205D01*
X162995740Y-100034433D01*
X163111863Y-100051407D01*
X163266122Y-100072928D01*
X163463379Y-100099798D01*
X163583678Y-100116031D01*
X163765168Y-100141160D01*
X163927970Y-100165029D01*
X164065952Y-100186630D01*
X164172984Y-100204958D01*
X164242934Y-100219004D01*
X164269672Y-100227762D01*
X164269478Y-100228653D01*
X164242925Y-100246084D01*
X164178923Y-100285827D01*
X164083629Y-100344129D01*
X163963197Y-100417237D01*
X163823782Y-100501397D01*
X163708443Y-100570728D01*
X163560481Y-100659957D01*
X163428553Y-100740382D01*
X163318421Y-100808417D01*
X163235848Y-100860478D01*
X163186597Y-100892982D01*
X163175043Y-100902480D01*
X163200793Y-100899039D01*
X163269145Y-100885511D01*
X163373234Y-100863376D01*
X163506196Y-100834114D01*
X163661165Y-100799206D01*
X163777494Y-100772565D01*
X163943743Y-100734678D01*
X164092817Y-100701532D01*
X164217834Y-100674590D01*
X164311910Y-100655314D01*
X164368160Y-100645168D01*
X164381320Y-100644254D01*
X164379406Y-100653574D01*
X164363127Y-100675999D01*
X164328885Y-100715428D01*
X164273079Y-100775762D01*
X164192108Y-100860898D01*
X164082372Y-100974735D01*
X163953443Y-101107623D01*
X163868580Y-101196118D01*
X163798378Y-101271586D01*
X163749566Y-101326624D01*
X163728874Y-101353831D01*
X163728600Y-101354902D01*
X163731368Y-101359364D01*
X163743267Y-101358746D01*
X163769687Y-101350984D01*
X163816018Y-101334009D01*
X163887650Y-101305755D01*
X163989973Y-101264154D01*
X164128378Y-101207141D01*
X164308253Y-101132647D01*
X164309133Y-101132282D01*
X164426535Y-101084956D01*
X164522997Y-101048680D01*
X164591084Y-101026040D01*
X164623358Y-101019617D01*
X164624097Y-101022864D01*
X164549786Y-101120045D01*
X164471398Y-101225126D01*
X164394641Y-101330131D01*
X164325219Y-101427085D01*
X164268839Y-101508012D01*
X164231205Y-101564938D01*
X164218023Y-101589886D01*
X164218182Y-101590249D01*
X164246737Y-101586987D01*
X164311684Y-101565184D01*
X164403807Y-101528670D01*
X164513891Y-101481279D01*
X164632720Y-101426843D01*
X164751080Y-101369194D01*
X164757300Y-101366053D01*
X164991410Y-101230122D01*
X165189440Y-101074534D01*
X165360817Y-100890097D01*
X165514970Y-100667616D01*
X165569159Y-100574479D01*
X165617716Y-100481137D01*
X165669321Y-100371700D01*
X165719134Y-100257788D01*
X165762318Y-100151021D01*
X165794033Y-100063019D01*
X165809440Y-100005402D01*
X165810158Y-99995768D01*
X165800824Y-99955552D01*
X165777747Y-99884559D01*
X165750145Y-99809333D01*
X165614993Y-99502065D01*
X165462895Y-99239993D01*
X165291324Y-99019601D01*
X165097752Y-98837373D01*
X164998600Y-98764010D01*
X164914959Y-98711719D01*
X164809850Y-98653179D01*
X164692229Y-98592535D01*
X164571053Y-98533930D01*
X164455277Y-98481509D01*
X164353858Y-98439416D01*
X164275752Y-98411795D01*
X164229916Y-98402789D01*
X164222857Y-98405075D01*
X164232859Y-98428526D01*
X164268589Y-98484478D01*
X164324783Y-98565182D01*
X164396175Y-98662889D01*
X164416405Y-98689894D01*
X164490962Y-98790614D01*
X164551868Y-98876145D01*
X164593818Y-98938783D01*
X164611505Y-98970823D01*
X164611482Y-98973184D01*
X164585910Y-98967181D01*
X164521157Y-98944188D01*
X164424781Y-98907110D01*
X164304343Y-98858851D01*
X164174158Y-98805141D01*
X164037778Y-98748968D01*
X163918192Y-98701281D01*
X163822976Y-98664971D01*
X163759704Y-98642932D01*
X163736076Y-98637856D01*
X163749392Y-98658621D01*
X163793100Y-98709792D01*
X163861943Y-98785590D01*
X163950662Y-98880230D01*
X164054000Y-98987932D01*
X164060681Y-98994818D01*
X164164776Y-99102993D01*
X164254678Y-99198258D01*
X164325114Y-99274874D01*
X164370812Y-99327099D01*
X164386501Y-99349192D01*
X164386365Y-99349441D01*
X164359863Y-99346415D01*
X164290891Y-99333177D01*
X164186412Y-99311213D01*
X164053391Y-99282012D01*
X163898791Y-99247063D01*
X163792100Y-99222449D01*
X163626707Y-99184428D01*
X163477839Y-99151018D01*
X163352608Y-99123746D01*
X163258125Y-99104144D01*
X163201504Y-99093742D01*
X163188486Y-99092596D01*
X163203925Y-99106622D01*
X163257509Y-99142983D01*
X163343656Y-99198154D01*
X163456788Y-99268608D01*
X163591323Y-99350820D01*
X163715536Y-99425634D01*
X163864917Y-99515703D01*
X163998728Y-99597641D01*
X164111116Y-99667759D01*
X164196225Y-99722372D01*
X164248204Y-99757790D01*
X164262000Y-99769873D01*
X164237863Y-99777533D01*
X164169667Y-99790720D01*
X164063729Y-99808430D01*
X163926369Y-99829659D01*
X163763904Y-99853404D01*
X163582653Y-99878662D01*
X163544450Y-99883841D01*
X163359603Y-99909044D01*
X163191712Y-99932434D01*
X163047210Y-99953075D01*
X162932528Y-99970031D01*
X162854099Y-99982366D01*
X162818357Y-99989144D01*
X162816914Y-99989733D01*
X162815320Y-99995988D01*
X162827541Y-100002784D01*
G36*
X163299911Y-98963545D02*
G01*
X163316568Y-98997596D01*
X163357755Y-99013566D01*
X163379350Y-99017788D01*
X163456809Y-99033836D01*
X163519050Y-99049473D01*
X163550738Y-99055560D01*
X163567835Y-99043181D01*
X163574827Y-99001761D01*
X163576198Y-98920722D01*
X163576200Y-98914738D01*
X163586267Y-98793656D01*
X163612143Y-98665146D01*
X163627000Y-98615700D01*
X163662599Y-98506763D01*
X163676983Y-98436742D01*
X163666994Y-98397070D01*
X163629476Y-98379180D01*
X163561274Y-98374507D01*
X163538100Y-98374400D01*
X163456923Y-98376816D01*
X163414650Y-98386736D01*
X163399504Y-98408161D01*
X163398400Y-98421891D01*
X163390915Y-98470056D01*
X163371413Y-98548279D01*
X163347600Y-98628400D01*
X163320159Y-98731469D01*
X163301714Y-98833638D01*
X163296800Y-98895085D01*
X163299911Y-98963545D01*
G37*
X163299911Y-98963545D02*
X163316568Y-98997596D01*
X163357755Y-99013566D01*
X163379350Y-99017788D01*
X163456809Y-99033836D01*
X163519050Y-99049473D01*
X163550738Y-99055560D01*
X163567835Y-99043181D01*
X163574827Y-99001761D01*
X163576198Y-98920722D01*
X163576200Y-98914738D01*
X163586267Y-98793656D01*
X163612143Y-98665146D01*
X163627000Y-98615700D01*
X163662599Y-98506763D01*
X163676983Y-98436742D01*
X163666994Y-98397070D01*
X163629476Y-98379180D01*
X163561274Y-98374507D01*
X163538100Y-98374400D01*
X163456923Y-98376816D01*
X163414650Y-98386736D01*
X163399504Y-98408161D01*
X163398400Y-98421891D01*
X163390915Y-98470056D01*
X163371413Y-98548279D01*
X163347600Y-98628400D01*
X163320159Y-98731469D01*
X163301714Y-98833638D01*
X163296800Y-98895085D01*
X163299911Y-98963545D01*
G36*
X163331663Y-99789330D02*
G01*
X163360369Y-99791975D01*
X163422847Y-99787792D01*
X163470105Y-99782298D01*
X163547908Y-99768910D01*
X163592523Y-99747292D01*
X163621414Y-99705380D01*
X163638170Y-99666216D01*
X163662879Y-99600349D01*
X163676724Y-99555464D01*
X163677800Y-99548451D01*
X163657870Y-99525925D01*
X163606707Y-99488228D01*
X163562464Y-99460065D01*
X163493040Y-99420720D01*
X163440236Y-99395461D01*
X163422764Y-99390400D01*
X163406423Y-99412673D01*
X163398531Y-99467188D01*
X163398400Y-99476106D01*
X163389548Y-99555795D01*
X163367542Y-99647612D01*
X163360028Y-99670568D01*
X163339103Y-99737526D01*
X163330429Y-99781452D01*
X163331663Y-99789330D01*
G37*
X163331663Y-99789330D02*
X163360369Y-99791975D01*
X163422847Y-99787792D01*
X163470105Y-99782298D01*
X163547908Y-99768910D01*
X163592523Y-99747292D01*
X163621414Y-99705380D01*
X163638170Y-99666216D01*
X163662879Y-99600349D01*
X163676724Y-99555464D01*
X163677800Y-99548451D01*
X163657870Y-99525925D01*
X163606707Y-99488228D01*
X163562464Y-99460065D01*
X163493040Y-99420720D01*
X163440236Y-99395461D01*
X163422764Y-99390400D01*
X163406423Y-99412673D01*
X163398531Y-99467188D01*
X163398400Y-99476106D01*
X163389548Y-99555795D01*
X163367542Y-99647612D01*
X163360028Y-99670568D01*
X163339103Y-99737526D01*
X163330429Y-99781452D01*
X163331663Y-99789330D01*
G36*
X163329888Y-100240208D02*
G01*
X163349307Y-100298639D01*
X163360300Y-100330200D01*
X163384712Y-100420061D01*
X163397734Y-100508270D01*
X163398400Y-100526610D01*
X163401226Y-100576814D01*
X163415286Y-100599499D01*
X163448949Y-100594442D01*
X163510588Y-100561419D01*
X163574266Y-100521920D01*
X163638736Y-100479541D01*
X163667493Y-100446874D01*
X163667149Y-100405541D01*
X163644319Y-100337159D01*
X163642525Y-100332201D01*
X163608489Y-100268663D01*
X163566846Y-100228323D01*
X163561907Y-100226036D01*
X163514605Y-100214933D01*
X163448811Y-100207319D01*
X163382859Y-100204214D01*
X163335080Y-100206637D01*
X163322200Y-100212706D01*
X163329888Y-100240208D01*
G37*
X163329888Y-100240208D02*
X163349307Y-100298639D01*
X163360300Y-100330200D01*
X163384712Y-100420061D01*
X163397734Y-100508270D01*
X163398400Y-100526610D01*
X163401226Y-100576814D01*
X163415286Y-100599499D01*
X163448949Y-100594442D01*
X163510588Y-100561419D01*
X163574266Y-100521920D01*
X163638736Y-100479541D01*
X163667493Y-100446874D01*
X163667149Y-100405541D01*
X163644319Y-100337159D01*
X163642525Y-100332201D01*
X163608489Y-100268663D01*
X163566846Y-100228323D01*
X163561907Y-100226036D01*
X163514605Y-100214933D01*
X163448811Y-100207319D01*
X163382859Y-100204214D01*
X163335080Y-100206637D01*
X163322200Y-100212706D01*
X163329888Y-100240208D01*
G36*
X163305758Y-101196918D02*
G01*
X163328710Y-101303125D01*
X163347600Y-101365004D01*
X163375309Y-101453301D01*
X163393761Y-101530214D01*
X163398400Y-101567569D01*
X163402861Y-101600883D01*
X163424466Y-101618235D01*
X163475549Y-101624747D01*
X163538100Y-101625600D01*
X163617923Y-101624215D01*
X163659197Y-101615901D01*
X163674168Y-101594418D01*
X163675166Y-101555750D01*
X163663839Y-101489488D01*
X163638428Y-101404925D01*
X163625747Y-101371600D01*
X163595789Y-101266479D01*
X163579222Y-101141846D01*
X163577581Y-101098550D01*
X163575197Y-101016286D01*
X163570346Y-100958913D01*
X163564750Y-100939800D01*
X163535446Y-100944690D01*
X163472919Y-100957210D01*
X163425050Y-100967304D01*
X163296800Y-100994809D01*
X163296800Y-101107639D01*
X163305758Y-101196918D01*
G37*
X163305758Y-101196918D02*
X163328710Y-101303125D01*
X163347600Y-101365004D01*
X163375309Y-101453301D01*
X163393761Y-101530214D01*
X163398400Y-101567569D01*
X163402861Y-101600883D01*
X163424466Y-101618235D01*
X163475549Y-101624747D01*
X163538100Y-101625600D01*
X163617923Y-101624215D01*
X163659197Y-101615901D01*
X163674168Y-101594418D01*
X163675166Y-101555750D01*
X163663839Y-101489488D01*
X163638428Y-101404925D01*
X163625747Y-101371600D01*
X163595789Y-101266479D01*
X163579222Y-101141846D01*
X163577581Y-101098550D01*
X163575197Y-101016286D01*
X163570346Y-100958913D01*
X163564750Y-100939800D01*
X163535446Y-100944690D01*
X163472919Y-100957210D01*
X163425050Y-100967304D01*
X163296800Y-100994809D01*
X163296800Y-101107639D01*
X163305758Y-101196918D01*
G36*
X162864439Y-99081903D02*
G01*
X162879002Y-99137214D01*
X162916078Y-99273146D01*
X162938488Y-99373705D01*
X162947410Y-99451780D01*
X162944021Y-99520265D01*
X162929500Y-99592051D01*
X162922863Y-99617207D01*
X162892020Y-99729598D01*
X162875297Y-99801025D01*
X162875387Y-99840019D01*
X162894981Y-99855113D01*
X162936769Y-99854840D01*
X162995805Y-99848485D01*
X163074727Y-99838415D01*
X163119956Y-99820584D01*
X163148408Y-99782858D01*
X163174140Y-99720600D01*
X163213685Y-99546908D01*
X163207425Y-99355131D01*
X163169472Y-99191287D01*
X163128391Y-99015265D01*
X163124512Y-98856176D01*
X163157845Y-98696348D01*
X163169800Y-98660395D01*
X163197735Y-98569179D01*
X163216187Y-98486438D01*
X163220600Y-98445130D01*
X163217315Y-98403174D01*
X163198727Y-98382286D01*
X163151737Y-98375143D01*
X163094083Y-98374400D01*
X163018053Y-98376809D01*
X162977981Y-98388892D01*
X162959083Y-98417928D01*
X162952250Y-98444250D01*
X162936098Y-98506476D01*
X162910271Y-98594710D01*
X162888266Y-98665081D01*
X162850603Y-98812438D01*
X162842819Y-98943299D01*
X162864439Y-99081903D01*
G37*
X162864439Y-99081903D02*
X162879002Y-99137214D01*
X162916078Y-99273146D01*
X162938488Y-99373705D01*
X162947410Y-99451780D01*
X162944021Y-99520265D01*
X162929500Y-99592051D01*
X162922863Y-99617207D01*
X162892020Y-99729598D01*
X162875297Y-99801025D01*
X162875387Y-99840019D01*
X162894981Y-99855113D01*
X162936769Y-99854840D01*
X162995805Y-99848485D01*
X163074727Y-99838415D01*
X163119956Y-99820584D01*
X163148408Y-99782858D01*
X163174140Y-99720600D01*
X163213685Y-99546908D01*
X163207425Y-99355131D01*
X163169472Y-99191287D01*
X163128391Y-99015265D01*
X163124512Y-98856176D01*
X163157845Y-98696348D01*
X163169800Y-98660395D01*
X163197735Y-98569179D01*
X163216187Y-98486438D01*
X163220600Y-98445130D01*
X163217315Y-98403174D01*
X163198727Y-98382286D01*
X163151737Y-98375143D01*
X163094083Y-98374400D01*
X163018053Y-98376809D01*
X162977981Y-98388892D01*
X162959083Y-98417928D01*
X162952250Y-98444250D01*
X162936098Y-98506476D01*
X162910271Y-98594710D01*
X162888266Y-98665081D01*
X162850603Y-98812438D01*
X162842819Y-98943299D01*
X162864439Y-99081903D01*
G36*
X162878517Y-101284898D02*
G01*
X162905959Y-101382819D01*
X162928991Y-101475757D01*
X162938999Y-101524000D01*
X162950758Y-101575938D01*
X162972040Y-101603258D01*
X163017185Y-101615279D01*
X163087571Y-101620577D01*
X163164937Y-101623709D01*
X163204381Y-101617276D01*
X163218676Y-101594955D01*
X163220600Y-101554703D01*
X163212303Y-101490432D01*
X163190889Y-101401476D01*
X163169800Y-101333500D01*
X163141229Y-101229705D01*
X163122801Y-101122915D01*
X163119000Y-101066800D01*
X163127855Y-100974106D01*
X163150569Y-100864903D01*
X163169800Y-100800100D01*
X163212372Y-100603709D01*
X163207561Y-100406693D01*
X163176582Y-100276174D01*
X163150852Y-100206555D01*
X163122675Y-100169862D01*
X163075023Y-100152605D01*
X163009055Y-100143446D01*
X162933540Y-100136999D01*
X162881363Y-100137200D01*
X162868303Y-100140629D01*
X162868748Y-100169462D01*
X162882475Y-100231747D01*
X162901664Y-100298144D01*
X162939788Y-100473929D01*
X162935892Y-100635311D01*
X162903920Y-100759673D01*
X162853799Y-100961645D01*
X162851190Y-101152028D01*
X162878517Y-101284898D01*
G37*
X162878517Y-101284898D02*
X162905959Y-101382819D01*
X162928991Y-101475757D01*
X162938999Y-101524000D01*
X162950758Y-101575938D01*
X162972040Y-101603258D01*
X163017185Y-101615279D01*
X163087571Y-101620577D01*
X163164937Y-101623709D01*
X163204381Y-101617276D01*
X163218676Y-101594955D01*
X163220600Y-101554703D01*
X163212303Y-101490432D01*
X163190889Y-101401476D01*
X163169800Y-101333500D01*
X163141229Y-101229705D01*
X163122801Y-101122915D01*
X163119000Y-101066800D01*
X163127855Y-100974106D01*
X163150569Y-100864903D01*
X163169800Y-100800100D01*
X163212372Y-100603709D01*
X163207561Y-100406693D01*
X163176582Y-100276174D01*
X163150852Y-100206555D01*
X163122675Y-100169862D01*
X163075023Y-100152605D01*
X163009055Y-100143446D01*
X162933540Y-100136999D01*
X162881363Y-100137200D01*
X162868303Y-100140629D01*
X162868748Y-100169462D01*
X162882475Y-100231747D01*
X162901664Y-100298144D01*
X162939788Y-100473929D01*
X162935892Y-100635311D01*
X162903920Y-100759673D01*
X162853799Y-100961645D01*
X162851190Y-101152028D01*
X162878517Y-101284898D01*
G36*
X162419126Y-99055753D02*
G01*
X162448528Y-99193322D01*
X162458600Y-99225300D01*
X162495965Y-99355877D01*
X162506203Y-99466707D01*
X162489249Y-99580330D01*
X162457289Y-99684873D01*
X162413109Y-99882725D01*
X162410717Y-100089634D01*
X162450097Y-100287702D01*
X162457803Y-100310515D01*
X162496419Y-100444969D01*
X162505056Y-100561413D01*
X162483754Y-100682819D01*
X162458600Y-100762000D01*
X162416942Y-100946909D01*
X162412215Y-101145997D01*
X162444420Y-101338561D01*
X162458600Y-101384300D01*
X162485875Y-101470948D01*
X162504314Y-101543634D01*
X162509400Y-101578776D01*
X162516755Y-101606022D01*
X162546625Y-101620208D01*
X162610716Y-101625259D01*
X162649100Y-101625600D01*
X162725847Y-101622898D01*
X162771095Y-101609160D01*
X162787830Y-101575933D01*
X162779039Y-101514767D01*
X162747706Y-101417209D01*
X162735195Y-101381926D01*
X162686121Y-101172131D01*
X162687038Y-100960863D01*
X162732592Y-100768248D01*
X162771165Y-100643185D01*
X162785322Y-100540832D01*
X162775117Y-100439745D01*
X162740605Y-100318482D01*
X162733794Y-100298551D01*
X162687818Y-100102385D01*
X162687279Y-99903949D01*
X162732187Y-99693197D01*
X162734363Y-99686174D01*
X162768390Y-99568425D01*
X162784020Y-99479040D01*
X162781254Y-99399032D01*
X162760091Y-99309412D01*
X162734351Y-99230848D01*
X162698800Y-99094526D01*
X162680882Y-98954979D01*
X162679902Y-98920500D01*
X162691762Y-98786592D01*
X162723048Y-98645682D01*
X162734351Y-98610151D01*
X162770103Y-98502525D01*
X162785561Y-98433939D01*
X162777545Y-98395601D01*
X162742878Y-98378721D01*
X162678379Y-98374508D01*
X162649100Y-98374400D01*
X162567810Y-98376865D01*
X162525484Y-98386876D01*
X162510417Y-98408358D01*
X162509400Y-98421223D01*
X162501402Y-98469608D01*
X162480689Y-98546808D01*
X162458600Y-98615700D01*
X162425519Y-98746887D01*
X162408674Y-98886803D01*
X162407800Y-98920500D01*
X162419126Y-99055753D01*
G37*
X162419126Y-99055753D02*
X162448528Y-99193322D01*
X162458600Y-99225300D01*
X162495965Y-99355877D01*
X162506203Y-99466707D01*
X162489249Y-99580330D01*
X162457289Y-99684873D01*
X162413109Y-99882725D01*
X162410717Y-100089634D01*
X162450097Y-100287702D01*
X162457803Y-100310515D01*
X162496419Y-100444969D01*
X162505056Y-100561413D01*
X162483754Y-100682819D01*
X162458600Y-100762000D01*
X162416942Y-100946909D01*
X162412215Y-101145997D01*
X162444420Y-101338561D01*
X162458600Y-101384300D01*
X162485875Y-101470948D01*
X162504314Y-101543634D01*
X162509400Y-101578776D01*
X162516755Y-101606022D01*
X162546625Y-101620208D01*
X162610716Y-101625259D01*
X162649100Y-101625600D01*
X162725847Y-101622898D01*
X162771095Y-101609160D01*
X162787830Y-101575933D01*
X162779039Y-101514767D01*
X162747706Y-101417209D01*
X162735195Y-101381926D01*
X162686121Y-101172131D01*
X162687038Y-100960863D01*
X162732592Y-100768248D01*
X162771165Y-100643185D01*
X162785322Y-100540832D01*
X162775117Y-100439745D01*
X162740605Y-100318482D01*
X162733794Y-100298551D01*
X162687818Y-100102385D01*
X162687279Y-99903949D01*
X162732187Y-99693197D01*
X162734363Y-99686174D01*
X162768390Y-99568425D01*
X162784020Y-99479040D01*
X162781254Y-99399032D01*
X162760091Y-99309412D01*
X162734351Y-99230848D01*
X162698800Y-99094526D01*
X162680882Y-98954979D01*
X162679902Y-98920500D01*
X162691762Y-98786592D01*
X162723048Y-98645682D01*
X162734351Y-98610151D01*
X162770103Y-98502525D01*
X162785561Y-98433939D01*
X162777545Y-98395601D01*
X162742878Y-98378721D01*
X162678379Y-98374508D01*
X162649100Y-98374400D01*
X162567810Y-98376865D01*
X162525484Y-98386876D01*
X162510417Y-98408358D01*
X162509400Y-98421223D01*
X162501402Y-98469608D01*
X162480689Y-98546808D01*
X162458600Y-98615700D01*
X162425519Y-98746887D01*
X162408674Y-98886803D01*
X162407800Y-98920500D01*
X162419126Y-99055753D01*
G36*
X161148372Y-101456941D02*
G01*
X161190580Y-101602130D01*
X161284840Y-101586486D01*
X161370933Y-101570936D01*
X161414660Y-101553854D01*
X161423685Y-101524906D01*
X161405673Y-101473757D01*
X161391602Y-101442536D01*
X161347816Y-101299375D01*
X161348936Y-101170659D01*
X161391531Y-101062125D01*
X161472168Y-100979509D01*
X161587412Y-100928548D01*
X161707669Y-100914400D01*
X161845942Y-100933383D01*
X161951375Y-100989736D01*
X162017746Y-101073579D01*
X162049702Y-101178471D01*
X162055174Y-101302653D01*
X162034421Y-101422226D01*
X162013414Y-101474525D01*
X161988883Y-101536117D01*
X161998501Y-101573870D01*
X162048499Y-101596568D01*
X162107916Y-101607762D01*
X162164582Y-101613896D01*
X162197028Y-101602673D01*
X162219216Y-101562945D01*
X162238971Y-101503120D01*
X162280429Y-101332420D01*
X162289135Y-101181847D01*
X162281175Y-101104900D01*
X162232386Y-100938357D01*
X162144776Y-100803787D01*
X162020840Y-100703824D01*
X161863075Y-100641105D01*
X161836087Y-100634955D01*
X161660172Y-100620655D01*
X161501472Y-100650358D01*
X161364275Y-100718936D01*
X161252869Y-100821266D01*
X161171543Y-100952220D01*
X161124585Y-101106673D01*
X161116283Y-101279499D01*
X161148372Y-101456941D01*
G37*
X161148372Y-101456941D02*
X161190580Y-101602130D01*
X161284840Y-101586486D01*
X161370933Y-101570936D01*
X161414660Y-101553854D01*
X161423685Y-101524906D01*
X161405673Y-101473757D01*
X161391602Y-101442536D01*
X161347816Y-101299375D01*
X161348936Y-101170659D01*
X161391531Y-101062125D01*
X161472168Y-100979509D01*
X161587412Y-100928548D01*
X161707669Y-100914400D01*
X161845942Y-100933383D01*
X161951375Y-100989736D01*
X162017746Y-101073579D01*
X162049702Y-101178471D01*
X162055174Y-101302653D01*
X162034421Y-101422226D01*
X162013414Y-101474525D01*
X161988883Y-101536117D01*
X161998501Y-101573870D01*
X162048499Y-101596568D01*
X162107916Y-101607762D01*
X162164582Y-101613896D01*
X162197028Y-101602673D01*
X162219216Y-101562945D01*
X162238971Y-101503120D01*
X162280429Y-101332420D01*
X162289135Y-101181847D01*
X162281175Y-101104900D01*
X162232386Y-100938357D01*
X162144776Y-100803787D01*
X162020840Y-100703824D01*
X161863075Y-100641105D01*
X161836087Y-100634955D01*
X161660172Y-100620655D01*
X161501472Y-100650358D01*
X161364275Y-100718936D01*
X161252869Y-100821266D01*
X161171543Y-100952220D01*
X161124585Y-101106673D01*
X161116283Y-101279499D01*
X161148372Y-101456941D01*
G36*
X161494215Y-98653800D02*
G01*
X161673492Y-98656180D01*
X161808769Y-98664577D01*
X161906677Y-98680873D01*
X161973848Y-98706953D01*
X162016912Y-98744700D01*
X162042502Y-98795997D01*
X162046840Y-98810756D01*
X162055671Y-98920781D01*
X162027501Y-99022089D01*
X161973536Y-99091950D01*
X161945977Y-99109306D01*
X161906720Y-99121561D01*
X161847374Y-99129553D01*
X161759545Y-99134120D01*
X161634842Y-99136101D01*
X161528686Y-99136400D01*
X161137800Y-99136400D01*
X161137800Y-99415800D01*
X161550550Y-99415382D01*
X161706835Y-99414712D01*
X161821598Y-99412381D01*
X161904111Y-99407356D01*
X161963650Y-99398605D01*
X162009486Y-99385094D01*
X162050895Y-99365793D01*
X162064900Y-99358127D01*
X162170061Y-99272798D01*
X162240035Y-99153322D01*
X162275609Y-98998007D01*
X162280800Y-98895100D01*
X162274716Y-98770150D01*
X162253641Y-98673129D01*
X162223650Y-98602031D01*
X162157376Y-98505037D01*
X162063991Y-98437144D01*
X162053168Y-98431550D01*
X162005699Y-98409681D01*
X161957617Y-98394195D01*
X161899167Y-98384009D01*
X161820595Y-98378038D01*
X161712148Y-98375199D01*
X161564070Y-98374408D01*
X161538818Y-98374400D01*
X161137800Y-98374400D01*
X161137800Y-98653800D01*
X161494215Y-98653800D01*
G37*
X161494215Y-98653800D02*
X161673492Y-98656180D01*
X161808769Y-98664577D01*
X161906677Y-98680873D01*
X161973848Y-98706953D01*
X162016912Y-98744700D01*
X162042502Y-98795997D01*
X162046840Y-98810756D01*
X162055671Y-98920781D01*
X162027501Y-99022089D01*
X161973536Y-99091950D01*
X161945977Y-99109306D01*
X161906720Y-99121561D01*
X161847374Y-99129553D01*
X161759545Y-99134120D01*
X161634842Y-99136101D01*
X161528686Y-99136400D01*
X161137800Y-99136400D01*
X161137800Y-99415800D01*
X161550550Y-99415382D01*
X161706835Y-99414712D01*
X161821598Y-99412381D01*
X161904111Y-99407356D01*
X161963650Y-99398605D01*
X162009486Y-99385094D01*
X162050895Y-99365793D01*
X162064900Y-99358127D01*
X162170061Y-99272798D01*
X162240035Y-99153322D01*
X162275609Y-98998007D01*
X162280800Y-98895100D01*
X162274716Y-98770150D01*
X162253641Y-98673129D01*
X162223650Y-98602031D01*
X162157376Y-98505037D01*
X162063991Y-98437144D01*
X162053168Y-98431550D01*
X162005699Y-98409681D01*
X161957617Y-98394195D01*
X161899167Y-98384009D01*
X161820595Y-98378038D01*
X161712148Y-98375199D01*
X161564070Y-98374408D01*
X161538818Y-98374400D01*
X161137800Y-98374400D01*
X161137800Y-98653800D01*
X161494215Y-98653800D01*
G36*
X161142272Y-100068509D02*
G01*
X161157121Y-100195494D01*
X161184489Y-100287989D01*
X161226523Y-100353813D01*
X161273306Y-100393287D01*
X161361909Y-100428539D01*
X161462776Y-100435570D01*
X161555342Y-100414926D01*
X161603973Y-100384500D01*
X161660740Y-100331171D01*
X161727178Y-100406885D01*
X161772522Y-100451442D01*
X161820034Y-100474106D01*
X161889277Y-100481984D01*
X161935608Y-100482600D01*
X162039060Y-100474430D01*
X162113200Y-100443595D01*
X162172818Y-100380604D01*
X162220456Y-100299800D01*
X162238065Y-100244581D01*
X162253844Y-100156761D01*
X162266935Y-100048677D01*
X162276479Y-99932664D01*
X162281617Y-99821059D01*
X162281489Y-99726195D01*
X162275237Y-99660409D01*
X162266540Y-99638050D01*
X162236429Y-99632475D01*
X162163144Y-99627544D01*
X162054309Y-99623509D01*
X161927287Y-99620831D01*
X161927287Y-99898400D01*
X162081775Y-99898400D01*
X162065706Y-100019050D01*
X162046252Y-100101991D01*
X162016055Y-100169640D01*
X162002429Y-100187483D01*
X161940938Y-100223901D01*
X161880674Y-100216019D01*
X161828228Y-100170055D01*
X161790187Y-100092225D01*
X161773139Y-99988745D01*
X161772800Y-99970809D01*
X161775044Y-99930929D01*
X161789704Y-99909285D01*
X161828670Y-99900306D01*
X161903833Y-99898417D01*
X161927287Y-99898400D01*
X161927287Y-99620831D01*
X161917548Y-99620625D01*
X161760487Y-99619143D01*
X161692366Y-99619000D01*
X161451066Y-99619000D01*
X161451066Y-99898400D01*
X161521760Y-99901539D01*
X161568483Y-99909424D01*
X161575949Y-99913215D01*
X161584579Y-99950412D01*
X161578878Y-100014408D01*
X161561924Y-100084280D01*
X161544609Y-100126233D01*
X161498519Y-100167779D01*
X161437242Y-100175514D01*
X161382583Y-100149140D01*
X161367293Y-100128669D01*
X161349146Y-100069582D01*
X161341030Y-99993376D01*
X161341000Y-99988969D01*
X161343540Y-99932578D01*
X161360554Y-99906394D01*
X161406130Y-99898827D01*
X161451066Y-99898400D01*
X161451066Y-99619000D01*
X161137800Y-99619000D01*
X161137800Y-99899215D01*
X161142272Y-100068509D01*
G37*
X161142272Y-100068509D02*
X161157121Y-100195494D01*
X161184489Y-100287989D01*
X161226523Y-100353813D01*
X161273306Y-100393287D01*
X161361909Y-100428539D01*
X161462776Y-100435570D01*
X161555342Y-100414926D01*
X161603973Y-100384500D01*
X161660740Y-100331171D01*
X161727178Y-100406885D01*
X161772522Y-100451442D01*
X161820034Y-100474106D01*
X161889277Y-100481984D01*
X161935608Y-100482600D01*
X162039060Y-100474430D01*
X162113200Y-100443595D01*
X162172818Y-100380604D01*
X162220456Y-100299800D01*
X162238065Y-100244581D01*
X162253844Y-100156761D01*
X162266935Y-100048677D01*
X162276479Y-99932664D01*
X162281617Y-99821059D01*
X162281489Y-99726195D01*
X162275237Y-99660409D01*
X162266540Y-99638050D01*
X162236429Y-99632475D01*
X162163144Y-99627544D01*
X162054309Y-99623509D01*
X161927287Y-99620831D01*
X161927287Y-99898400D01*
X162081775Y-99898400D01*
X162065706Y-100019050D01*
X162046252Y-100101991D01*
X162016055Y-100169640D01*
X162002429Y-100187483D01*
X161940938Y-100223901D01*
X161880674Y-100216019D01*
X161828228Y-100170055D01*
X161790187Y-100092225D01*
X161773139Y-99988745D01*
X161772800Y-99970809D01*
X161775044Y-99930929D01*
X161789704Y-99909285D01*
X161828670Y-99900306D01*
X161903833Y-99898417D01*
X161927287Y-99898400D01*
X161927287Y-99620831D01*
X161917548Y-99620625D01*
X161760487Y-99619143D01*
X161692366Y-99619000D01*
X161451066Y-99619000D01*
X161451066Y-99898400D01*
X161521760Y-99901539D01*
X161568483Y-99909424D01*
X161575949Y-99913215D01*
X161584579Y-99950412D01*
X161578878Y-100014408D01*
X161561924Y-100084280D01*
X161544609Y-100126233D01*
X161498519Y-100167779D01*
X161437242Y-100175514D01*
X161382583Y-100149140D01*
X161367293Y-100128669D01*
X161349146Y-100069582D01*
X161341030Y-99993376D01*
X161341000Y-99988969D01*
X161343540Y-99932578D01*
X161360554Y-99906394D01*
X161406130Y-99898827D01*
X161451066Y-99898400D01*
X161451066Y-99619000D01*
X161137800Y-99619000D01*
X161137800Y-99899215D01*
X161142272Y-100068509D01*
D12*
G36*
X184724549Y-129371116D02*
G01*
X184835734Y-129393232D01*
X185045203Y-129479997D01*
X185233720Y-129605960D01*
X185394040Y-129766280D01*
X185520003Y-129954797D01*
X185606768Y-130164266D01*
X185651000Y-130386636D01*
X185651000Y-130613364D01*
X185606768Y-130835734D01*
X185520003Y-131045203D01*
X185394040Y-131233720D01*
X185233720Y-131394040D01*
X185045203Y-131520003D01*
X184835734Y-131606768D01*
X184724549Y-131628884D01*
X184613365Y-131651000D01*
X184386635Y-131651000D01*
X184275451Y-131628884D01*
X184164266Y-131606768D01*
X183954797Y-131520003D01*
X183766280Y-131394040D01*
X183605960Y-131233720D01*
X183479997Y-131045203D01*
X183393232Y-130835734D01*
X183349000Y-130613364D01*
X183349000Y-130386636D01*
X183393232Y-130164266D01*
X183479997Y-129954797D01*
X183605960Y-129766280D01*
X183766280Y-129605960D01*
X183954797Y-129479997D01*
X184164266Y-129393232D01*
X184275451Y-129371116D01*
X184386635Y-129349000D01*
X184613365Y-129349000D01*
X184724549Y-129371116D01*
G37*
G36*
X161724549Y-129371116D02*
G01*
X161835734Y-129393232D01*
X162045203Y-129479997D01*
X162233720Y-129605960D01*
X162394040Y-129766280D01*
X162520003Y-129954797D01*
X162606768Y-130164266D01*
X162651000Y-130386636D01*
X162651000Y-130613364D01*
X162606768Y-130835734D01*
X162520003Y-131045203D01*
X162394040Y-131233720D01*
X162233720Y-131394040D01*
X162045203Y-131520003D01*
X161835734Y-131606768D01*
X161724549Y-131628884D01*
X161613365Y-131651000D01*
X161386635Y-131651000D01*
X161275451Y-131628884D01*
X161164266Y-131606768D01*
X160954797Y-131520003D01*
X160766280Y-131394040D01*
X160605960Y-131233720D01*
X160479997Y-131045203D01*
X160393232Y-130835734D01*
X160349000Y-130613364D01*
X160349000Y-130386636D01*
X160393232Y-130164266D01*
X160479997Y-129954797D01*
X160605960Y-129766280D01*
X160766280Y-129605960D01*
X160954797Y-129479997D01*
X161164266Y-129393232D01*
X161275451Y-129371116D01*
X161386635Y-129349000D01*
X161613365Y-129349000D01*
X161724549Y-129371116D01*
G37*
G36*
X175248228Y-123261703D02*
G01*
X175403100Y-123325853D01*
X175542481Y-123418985D01*
X175661015Y-123537519D01*
X175754147Y-123676900D01*
X175818297Y-123831772D01*
X175851000Y-123996184D01*
X175851000Y-124163816D01*
X175818297Y-124328228D01*
X175754147Y-124483100D01*
X175661015Y-124622481D01*
X175542481Y-124741015D01*
X175403100Y-124834147D01*
X175248228Y-124898297D01*
X175083816Y-124931000D01*
X174916184Y-124931000D01*
X174751772Y-124898297D01*
X174596900Y-124834147D01*
X174457519Y-124741015D01*
X174338985Y-124622481D01*
X174245853Y-124483100D01*
X174181703Y-124328228D01*
X174149000Y-124163816D01*
X174149000Y-123996184D01*
X174181703Y-123831772D01*
X174245853Y-123676900D01*
X174338985Y-123537519D01*
X174457519Y-123418985D01*
X174596900Y-123325853D01*
X174751772Y-123261703D01*
X174916184Y-123229000D01*
X175083816Y-123229000D01*
X175248228Y-123261703D01*
G37*
G36*
X180250000Y-122000000D02*
G01*
X178750000Y-122000000D01*
X178750000Y-121000000D01*
X180250000Y-121000000D01*
X180250000Y-122000000D01*
G37*
G36*
X175750000Y-122000000D02*
G01*
X174250000Y-122000000D01*
X174250000Y-121000000D01*
X175750000Y-121000000D01*
X175750000Y-122000000D01*
G37*
G36*
X171250000Y-122000000D02*
G01*
X169750000Y-122000000D01*
X169750000Y-121000000D01*
X171250000Y-121000000D01*
X171250000Y-122000000D01*
G37*
G36*
X166750000Y-122000000D02*
G01*
X165250000Y-122000000D01*
X165250000Y-121000000D01*
X166750000Y-121000000D01*
X166750000Y-122000000D01*
G37*
G36*
X175248228Y-118181703D02*
G01*
X175403100Y-118245853D01*
X175542481Y-118338985D01*
X175661015Y-118457519D01*
X175754147Y-118596900D01*
X175818297Y-118751772D01*
X175851000Y-118916184D01*
X175851000Y-119083816D01*
X175818297Y-119248228D01*
X175754147Y-119403100D01*
X175661015Y-119542481D01*
X175542481Y-119661015D01*
X175403100Y-119754147D01*
X175248228Y-119818297D01*
X175083816Y-119851000D01*
X174916184Y-119851000D01*
X174751772Y-119818297D01*
X174596900Y-119754147D01*
X174457519Y-119661015D01*
X174338985Y-119542481D01*
X174245853Y-119403100D01*
X174181703Y-119248228D01*
X174149000Y-119083816D01*
X174149000Y-118916184D01*
X174181703Y-118751772D01*
X174245853Y-118596900D01*
X174338985Y-118457519D01*
X174457519Y-118338985D01*
X174596900Y-118245853D01*
X174751772Y-118181703D01*
X174916184Y-118149000D01*
X175083816Y-118149000D01*
X175248228Y-118181703D01*
G37*
G36*
X162513512Y-93723927D02*
G01*
X162662812Y-93753624D01*
X162826784Y-93821544D01*
X162974354Y-93920147D01*
X163099853Y-94045646D01*
X163198456Y-94193216D01*
X163266376Y-94357188D01*
X163301000Y-94531259D01*
X163301000Y-94708741D01*
X163266376Y-94882812D01*
X163198456Y-95046784D01*
X163099853Y-95194354D01*
X162974354Y-95319853D01*
X162826784Y-95418456D01*
X162662812Y-95486376D01*
X162513512Y-95516073D01*
X162488742Y-95521000D01*
X162311258Y-95521000D01*
X162286488Y-95516073D01*
X162137188Y-95486376D01*
X161973216Y-95418456D01*
X161825646Y-95319853D01*
X161700147Y-95194354D01*
X161601544Y-95046784D01*
X161533624Y-94882812D01*
X161499000Y-94708741D01*
X161499000Y-94531259D01*
X161533624Y-94357188D01*
X161601544Y-94193216D01*
X161700147Y-94045646D01*
X161825646Y-93920147D01*
X161973216Y-93821544D01*
X162137188Y-93753624D01*
X162286488Y-93723927D01*
X162311258Y-93719000D01*
X162488742Y-93719000D01*
X162513512Y-93723927D01*
G37*
G36*
X162513512Y-91183927D02*
G01*
X162662812Y-91213624D01*
X162826784Y-91281544D01*
X162974354Y-91380147D01*
X163099853Y-91505646D01*
X163198456Y-91653216D01*
X163266376Y-91817188D01*
X163301000Y-91991259D01*
X163301000Y-92168741D01*
X163266376Y-92342812D01*
X163198456Y-92506784D01*
X163099853Y-92654354D01*
X162974354Y-92779853D01*
X162826784Y-92878456D01*
X162662812Y-92946376D01*
X162513512Y-92976073D01*
X162488742Y-92981000D01*
X162311258Y-92981000D01*
X162286488Y-92976073D01*
X162137188Y-92946376D01*
X161973216Y-92878456D01*
X161825646Y-92779853D01*
X161700147Y-92654354D01*
X161601544Y-92506784D01*
X161533624Y-92342812D01*
X161499000Y-92168741D01*
X161499000Y-91991259D01*
X161533624Y-91817188D01*
X161601544Y-91653216D01*
X161700147Y-91505646D01*
X161825646Y-91380147D01*
X161973216Y-91281544D01*
X162137188Y-91213624D01*
X162286488Y-91183927D01*
X162311258Y-91179000D01*
X162488742Y-91179000D01*
X162513512Y-91183927D01*
G37*
G36*
X162498354Y-88640912D02*
G01*
X162662812Y-88673624D01*
X162826784Y-88741544D01*
X162974354Y-88840147D01*
X163099853Y-88965646D01*
X163198456Y-89113216D01*
X163266376Y-89277188D01*
X163301000Y-89451259D01*
X163301000Y-89628741D01*
X163266376Y-89802812D01*
X163198456Y-89966784D01*
X163099853Y-90114354D01*
X162974354Y-90239853D01*
X162826784Y-90338456D01*
X162662812Y-90406376D01*
X162513512Y-90436073D01*
X162488742Y-90441000D01*
X162311258Y-90441000D01*
X162286488Y-90436073D01*
X162137188Y-90406376D01*
X161973216Y-90338456D01*
X161825646Y-90239853D01*
X161700147Y-90114354D01*
X161601544Y-89966784D01*
X161533624Y-89802812D01*
X161499000Y-89628741D01*
X161499000Y-89451259D01*
X161533624Y-89277188D01*
X161601544Y-89113216D01*
X161700147Y-88965646D01*
X161825646Y-88840147D01*
X161973216Y-88741544D01*
X162137188Y-88673624D01*
X162301646Y-88640912D01*
X162311258Y-88639000D01*
X162488742Y-88639000D01*
X162498354Y-88640912D01*
G37*
G36*
X185246578Y-88880197D02*
G01*
X185299350Y-88890694D01*
X185398770Y-88931875D01*
X185488246Y-88991661D01*
X185564339Y-89067754D01*
X185624125Y-89157230D01*
X185665306Y-89256650D01*
X185686300Y-89362194D01*
X185686300Y-89469806D01*
X185665306Y-89575350D01*
X185624125Y-89674770D01*
X185564339Y-89764246D01*
X185488246Y-89840339D01*
X185398770Y-89900125D01*
X185299350Y-89941306D01*
X185246578Y-89951803D01*
X185193807Y-89962300D01*
X185086193Y-89962300D01*
X185033422Y-89951803D01*
X184980650Y-89941306D01*
X184881230Y-89900125D01*
X184791754Y-89840339D01*
X184715661Y-89764246D01*
X184655875Y-89674770D01*
X184614694Y-89575350D01*
X184593700Y-89469806D01*
X184593700Y-89362194D01*
X184614694Y-89256650D01*
X184655875Y-89157230D01*
X184715661Y-89067754D01*
X184791754Y-88991661D01*
X184881230Y-88931875D01*
X184980650Y-88890694D01*
X185033422Y-88880197D01*
X185086193Y-88869700D01*
X185193807Y-88869700D01*
X185246578Y-88880197D01*
G37*
G36*
X181459714Y-88607389D02*
G01*
X181540645Y-88640912D01*
X181613480Y-88689579D01*
X181675421Y-88751520D01*
X181724088Y-88824355D01*
X181757611Y-88905286D01*
X181774700Y-88991201D01*
X181774700Y-89078799D01*
X181757611Y-89164714D01*
X181724088Y-89245645D01*
X181675421Y-89318480D01*
X181613480Y-89380421D01*
X181540645Y-89429088D01*
X181540644Y-89429089D01*
X181540643Y-89429089D01*
X181459714Y-89462611D01*
X181373801Y-89479700D01*
X181286199Y-89479700D01*
X181200286Y-89462611D01*
X181119357Y-89429089D01*
X181119356Y-89429089D01*
X181119355Y-89429088D01*
X181046520Y-89380421D01*
X180984579Y-89318480D01*
X180935912Y-89245645D01*
X180902389Y-89164714D01*
X180885300Y-89078799D01*
X180885300Y-88991201D01*
X180902389Y-88905286D01*
X180935912Y-88824355D01*
X180984579Y-88751520D01*
X181046520Y-88689579D01*
X181119355Y-88640912D01*
X181200286Y-88607389D01*
X181286199Y-88590300D01*
X181373801Y-88590300D01*
X181459714Y-88607389D01*
G37*
G36*
X182729714Y-88607389D02*
G01*
X182810645Y-88640912D01*
X182883480Y-88689579D01*
X182945421Y-88751520D01*
X182994088Y-88824355D01*
X183027611Y-88905286D01*
X183044700Y-88991201D01*
X183044700Y-89078799D01*
X183027611Y-89164714D01*
X182994088Y-89245645D01*
X182945421Y-89318480D01*
X182883480Y-89380421D01*
X182810645Y-89429088D01*
X182810644Y-89429089D01*
X182810643Y-89429089D01*
X182729714Y-89462611D01*
X182643801Y-89479700D01*
X182556199Y-89479700D01*
X182470286Y-89462611D01*
X182389357Y-89429089D01*
X182389356Y-89429089D01*
X182389355Y-89429088D01*
X182316520Y-89380421D01*
X182254579Y-89318480D01*
X182205912Y-89245645D01*
X182172389Y-89164714D01*
X182155300Y-89078799D01*
X182155300Y-88991201D01*
X182172389Y-88905286D01*
X182205912Y-88824355D01*
X182254579Y-88751520D01*
X182316520Y-88689579D01*
X182389355Y-88640912D01*
X182470286Y-88607389D01*
X182556199Y-88590300D01*
X182643801Y-88590300D01*
X182729714Y-88607389D01*
G37*
G36*
X183999714Y-88607389D02*
G01*
X184080645Y-88640912D01*
X184153480Y-88689579D01*
X184215421Y-88751520D01*
X184264088Y-88824355D01*
X184297611Y-88905286D01*
X184314700Y-88991201D01*
X184314700Y-89078799D01*
X184297611Y-89164714D01*
X184264088Y-89245645D01*
X184215421Y-89318480D01*
X184153480Y-89380421D01*
X184080645Y-89429088D01*
X184080644Y-89429089D01*
X184080643Y-89429089D01*
X183999714Y-89462611D01*
X183913801Y-89479700D01*
X183826199Y-89479700D01*
X183740286Y-89462611D01*
X183659357Y-89429089D01*
X183659356Y-89429089D01*
X183659355Y-89429088D01*
X183586520Y-89380421D01*
X183524579Y-89318480D01*
X183475912Y-89245645D01*
X183442389Y-89164714D01*
X183425300Y-89078799D01*
X183425300Y-88991201D01*
X183442389Y-88905286D01*
X183475912Y-88824355D01*
X183524579Y-88751520D01*
X183586520Y-88689579D01*
X183659355Y-88640912D01*
X183740286Y-88607389D01*
X183826199Y-88590300D01*
X183913801Y-88590300D01*
X183999714Y-88607389D01*
G37*
G36*
X180166578Y-87864197D02*
G01*
X180219350Y-87874694D01*
X180318770Y-87915875D01*
X180408246Y-87975661D01*
X180484339Y-88051754D01*
X180544125Y-88141230D01*
X180585306Y-88240650D01*
X180606300Y-88346194D01*
X180606300Y-88453806D01*
X180585306Y-88559350D01*
X180544125Y-88658770D01*
X180484339Y-88748246D01*
X180408246Y-88824339D01*
X180318770Y-88884125D01*
X180219350Y-88925306D01*
X180186325Y-88931875D01*
X180113807Y-88946300D01*
X180006193Y-88946300D01*
X179933675Y-88931875D01*
X179900650Y-88925306D01*
X179801230Y-88884125D01*
X179711754Y-88824339D01*
X179635661Y-88748246D01*
X179575875Y-88658770D01*
X179534694Y-88559350D01*
X179513700Y-88453806D01*
X179513700Y-88346194D01*
X179534694Y-88240650D01*
X179575875Y-88141230D01*
X179635661Y-88051754D01*
X179711754Y-87975661D01*
X179801230Y-87915875D01*
X179900650Y-87874694D01*
X179953422Y-87864197D01*
X180006193Y-87853700D01*
X180113807Y-87853700D01*
X180166578Y-87864197D01*
G37*
G36*
X183999714Y-87337389D02*
G01*
X184080645Y-87370912D01*
X184153480Y-87419579D01*
X184215421Y-87481520D01*
X184264088Y-87554355D01*
X184297611Y-87635286D01*
X184314700Y-87721201D01*
X184314700Y-87808799D01*
X184297611Y-87894714D01*
X184264088Y-87975645D01*
X184215421Y-88048480D01*
X184153480Y-88110421D01*
X184080645Y-88159088D01*
X184080644Y-88159089D01*
X184080643Y-88159089D01*
X183999714Y-88192611D01*
X183913801Y-88209700D01*
X183826199Y-88209700D01*
X183740286Y-88192611D01*
X183659357Y-88159089D01*
X183659356Y-88159089D01*
X183659355Y-88159088D01*
X183586520Y-88110421D01*
X183524579Y-88048480D01*
X183475912Y-87975645D01*
X183442389Y-87894714D01*
X183425300Y-87808799D01*
X183425300Y-87721201D01*
X183442389Y-87635286D01*
X183475912Y-87554355D01*
X183524579Y-87481520D01*
X183586520Y-87419579D01*
X183659355Y-87370912D01*
X183740286Y-87337389D01*
X183826199Y-87320300D01*
X183913801Y-87320300D01*
X183999714Y-87337389D01*
G37*
G36*
X182729714Y-87337389D02*
G01*
X182810645Y-87370912D01*
X182883480Y-87419579D01*
X182945421Y-87481520D01*
X182994088Y-87554355D01*
X183027611Y-87635286D01*
X183044700Y-87721201D01*
X183044700Y-87808799D01*
X183027611Y-87894714D01*
X182994088Y-87975645D01*
X182945421Y-88048480D01*
X182883480Y-88110421D01*
X182810645Y-88159088D01*
X182810644Y-88159089D01*
X182810643Y-88159089D01*
X182729714Y-88192611D01*
X182643801Y-88209700D01*
X182556199Y-88209700D01*
X182470286Y-88192611D01*
X182389357Y-88159089D01*
X182389356Y-88159089D01*
X182389355Y-88159088D01*
X182316520Y-88110421D01*
X182254579Y-88048480D01*
X182205912Y-87975645D01*
X182172389Y-87894714D01*
X182155300Y-87808799D01*
X182155300Y-87721201D01*
X182172389Y-87635286D01*
X182205912Y-87554355D01*
X182254579Y-87481520D01*
X182316520Y-87419579D01*
X182389355Y-87370912D01*
X182470286Y-87337389D01*
X182556199Y-87320300D01*
X182643801Y-87320300D01*
X182729714Y-87337389D01*
G37*
G36*
X181459714Y-87337389D02*
G01*
X181540645Y-87370912D01*
X181613480Y-87419579D01*
X181675421Y-87481520D01*
X181724088Y-87554355D01*
X181757611Y-87635286D01*
X181774700Y-87721201D01*
X181774700Y-87808799D01*
X181757611Y-87894714D01*
X181724088Y-87975645D01*
X181675421Y-88048480D01*
X181613480Y-88110421D01*
X181540645Y-88159088D01*
X181540644Y-88159089D01*
X181540643Y-88159089D01*
X181459714Y-88192611D01*
X181373801Y-88209700D01*
X181286199Y-88209700D01*
X181200286Y-88192611D01*
X181119357Y-88159089D01*
X181119356Y-88159089D01*
X181119355Y-88159088D01*
X181046520Y-88110421D01*
X180984579Y-88048480D01*
X180935912Y-87975645D01*
X180902389Y-87894714D01*
X180885300Y-87808799D01*
X180885300Y-87721201D01*
X180902389Y-87635286D01*
X180935912Y-87554355D01*
X180984579Y-87481520D01*
X181046520Y-87419579D01*
X181119355Y-87370912D01*
X181200286Y-87337389D01*
X181286199Y-87320300D01*
X181373801Y-87320300D01*
X181459714Y-87337389D01*
G37*
G36*
X185246578Y-86848197D02*
G01*
X185299350Y-86858694D01*
X185398770Y-86899875D01*
X185488246Y-86959661D01*
X185564339Y-87035754D01*
X185624125Y-87125230D01*
X185665306Y-87224650D01*
X185686300Y-87330194D01*
X185686300Y-87437806D01*
X185665306Y-87543350D01*
X185624125Y-87642770D01*
X185564339Y-87732246D01*
X185488246Y-87808339D01*
X185398770Y-87868125D01*
X185299350Y-87909306D01*
X185266325Y-87915875D01*
X185193807Y-87930300D01*
X185086193Y-87930300D01*
X185013675Y-87915875D01*
X184980650Y-87909306D01*
X184881230Y-87868125D01*
X184791754Y-87808339D01*
X184715661Y-87732246D01*
X184655875Y-87642770D01*
X184614694Y-87543350D01*
X184593700Y-87437806D01*
X184593700Y-87330194D01*
X184614694Y-87224650D01*
X184655875Y-87125230D01*
X184715661Y-87035754D01*
X184791754Y-86959661D01*
X184881230Y-86899875D01*
X184980650Y-86858694D01*
X185033422Y-86848197D01*
X185086193Y-86837700D01*
X185193807Y-86837700D01*
X185246578Y-86848197D01*
G37*
G36*
X163301000Y-87901000D02*
G01*
X161499000Y-87901000D01*
X161499000Y-86099000D01*
X163301000Y-86099000D01*
X163301000Y-87901000D01*
G37*
G36*
X184724549Y-81371116D02*
G01*
X184835734Y-81393232D01*
X185045203Y-81479997D01*
X185233720Y-81605960D01*
X185394040Y-81766280D01*
X185520003Y-81954797D01*
X185520004Y-81954799D01*
X185606768Y-82164267D01*
X185651000Y-82386635D01*
X185651000Y-82613365D01*
X185638385Y-82676784D01*
X185606768Y-82835734D01*
X185520003Y-83045203D01*
X185394040Y-83233720D01*
X185233720Y-83394040D01*
X185045203Y-83520003D01*
X184835734Y-83606768D01*
X184724549Y-83628884D01*
X184613365Y-83651000D01*
X184386635Y-83651000D01*
X184275451Y-83628884D01*
X184164266Y-83606768D01*
X183954797Y-83520003D01*
X183766280Y-83394040D01*
X183605960Y-83233720D01*
X183479997Y-83045203D01*
X183393232Y-82835734D01*
X183361615Y-82676784D01*
X183349000Y-82613365D01*
X183349000Y-82386635D01*
X183393232Y-82164267D01*
X183479996Y-81954799D01*
X183479997Y-81954797D01*
X183605960Y-81766280D01*
X183766280Y-81605960D01*
X183954797Y-81479997D01*
X184164266Y-81393232D01*
X184275451Y-81371116D01*
X184386635Y-81349000D01*
X184613365Y-81349000D01*
X184724549Y-81371116D01*
G37*
G36*
X161724549Y-81371116D02*
G01*
X161835734Y-81393232D01*
X162045203Y-81479997D01*
X162233720Y-81605960D01*
X162394040Y-81766280D01*
X162520003Y-81954797D01*
X162520004Y-81954799D01*
X162606768Y-82164267D01*
X162651000Y-82386635D01*
X162651000Y-82613365D01*
X162638385Y-82676784D01*
X162606768Y-82835734D01*
X162520003Y-83045203D01*
X162394040Y-83233720D01*
X162233720Y-83394040D01*
X162045203Y-83520003D01*
X161835734Y-83606768D01*
X161724549Y-83628884D01*
X161613365Y-83651000D01*
X161386635Y-83651000D01*
X161275451Y-83628884D01*
X161164266Y-83606768D01*
X160954797Y-83520003D01*
X160766280Y-83394040D01*
X160605960Y-83233720D01*
X160479997Y-83045203D01*
X160393232Y-82835734D01*
X160361615Y-82676784D01*
X160349000Y-82613365D01*
X160349000Y-82386635D01*
X160393232Y-82164267D01*
X160479996Y-81954799D01*
X160479997Y-81954797D01*
X160605960Y-81766280D01*
X160766280Y-81605960D01*
X160954797Y-81479997D01*
X161164266Y-81393232D01*
X161275451Y-81371116D01*
X161386635Y-81349000D01*
X161613365Y-81349000D01*
X161724549Y-81371116D01*
G37*
G36*
X181651000Y-83151000D02*
G01*
X179849000Y-83151000D01*
X179849000Y-81349000D01*
X181651000Y-81349000D01*
X181651000Y-83151000D01*
G37*
G36*
X165623512Y-81353927D02*
G01*
X165772812Y-81383624D01*
X165936784Y-81451544D01*
X166084354Y-81550147D01*
X166209853Y-81675646D01*
X166308456Y-81823216D01*
X166376376Y-81987188D01*
X166411000Y-82161259D01*
X166411000Y-82338741D01*
X166376376Y-82512812D01*
X166308456Y-82676784D01*
X166209853Y-82824354D01*
X166084354Y-82949853D01*
X165936784Y-83048456D01*
X165772812Y-83116376D01*
X165623512Y-83146073D01*
X165598742Y-83151000D01*
X165421258Y-83151000D01*
X165396488Y-83146073D01*
X165247188Y-83116376D01*
X165083216Y-83048456D01*
X164935646Y-82949853D01*
X164810147Y-82824354D01*
X164711544Y-82676784D01*
X164643624Y-82512812D01*
X164609000Y-82338741D01*
X164609000Y-82161259D01*
X164643624Y-81987188D01*
X164711544Y-81823216D01*
X164810147Y-81675646D01*
X164935646Y-81550147D01*
X165083216Y-81451544D01*
X165247188Y-81383624D01*
X165396488Y-81353927D01*
X165421258Y-81349000D01*
X165598742Y-81349000D01*
X165623512Y-81353927D01*
G37*
G36*
X178323512Y-81353927D02*
G01*
X178472812Y-81383624D01*
X178636784Y-81451544D01*
X178784354Y-81550147D01*
X178909853Y-81675646D01*
X179008456Y-81823216D01*
X179076376Y-81987188D01*
X179111000Y-82161259D01*
X179111000Y-82338741D01*
X179076376Y-82512812D01*
X179008456Y-82676784D01*
X178909853Y-82824354D01*
X178784354Y-82949853D01*
X178636784Y-83048456D01*
X178472812Y-83116376D01*
X178323512Y-83146073D01*
X178298742Y-83151000D01*
X178121258Y-83151000D01*
X178096488Y-83146073D01*
X177947188Y-83116376D01*
X177783216Y-83048456D01*
X177635646Y-82949853D01*
X177510147Y-82824354D01*
X177411544Y-82676784D01*
X177343624Y-82512812D01*
X177309000Y-82338741D01*
X177309000Y-82161259D01*
X177343624Y-81987188D01*
X177411544Y-81823216D01*
X177510147Y-81675646D01*
X177635646Y-81550147D01*
X177783216Y-81451544D01*
X177947188Y-81383624D01*
X178096488Y-81353927D01*
X178121258Y-81349000D01*
X178298742Y-81349000D01*
X178323512Y-81353927D01*
G37*
G36*
X175783512Y-81353927D02*
G01*
X175932812Y-81383624D01*
X176096784Y-81451544D01*
X176244354Y-81550147D01*
X176369853Y-81675646D01*
X176468456Y-81823216D01*
X176536376Y-81987188D01*
X176571000Y-82161259D01*
X176571000Y-82338741D01*
X176536376Y-82512812D01*
X176468456Y-82676784D01*
X176369853Y-82824354D01*
X176244354Y-82949853D01*
X176096784Y-83048456D01*
X175932812Y-83116376D01*
X175783512Y-83146073D01*
X175758742Y-83151000D01*
X175581258Y-83151000D01*
X175556488Y-83146073D01*
X175407188Y-83116376D01*
X175243216Y-83048456D01*
X175095646Y-82949853D01*
X174970147Y-82824354D01*
X174871544Y-82676784D01*
X174803624Y-82512812D01*
X174769000Y-82338741D01*
X174769000Y-82161259D01*
X174803624Y-81987188D01*
X174871544Y-81823216D01*
X174970147Y-81675646D01*
X175095646Y-81550147D01*
X175243216Y-81451544D01*
X175407188Y-81383624D01*
X175556488Y-81353927D01*
X175581258Y-81349000D01*
X175758742Y-81349000D01*
X175783512Y-81353927D01*
G37*
G36*
X173243512Y-81353927D02*
G01*
X173392812Y-81383624D01*
X173556784Y-81451544D01*
X173704354Y-81550147D01*
X173829853Y-81675646D01*
X173928456Y-81823216D01*
X173996376Y-81987188D01*
X174031000Y-82161259D01*
X174031000Y-82338741D01*
X173996376Y-82512812D01*
X173928456Y-82676784D01*
X173829853Y-82824354D01*
X173704354Y-82949853D01*
X173556784Y-83048456D01*
X173392812Y-83116376D01*
X173243512Y-83146073D01*
X173218742Y-83151000D01*
X173041258Y-83151000D01*
X173016488Y-83146073D01*
X172867188Y-83116376D01*
X172703216Y-83048456D01*
X172555646Y-82949853D01*
X172430147Y-82824354D01*
X172331544Y-82676784D01*
X172263624Y-82512812D01*
X172229000Y-82338741D01*
X172229000Y-82161259D01*
X172263624Y-81987188D01*
X172331544Y-81823216D01*
X172430147Y-81675646D01*
X172555646Y-81550147D01*
X172703216Y-81451544D01*
X172867188Y-81383624D01*
X173016488Y-81353927D01*
X173041258Y-81349000D01*
X173218742Y-81349000D01*
X173243512Y-81353927D01*
G37*
G36*
X170703512Y-81353927D02*
G01*
X170852812Y-81383624D01*
X171016784Y-81451544D01*
X171164354Y-81550147D01*
X171289853Y-81675646D01*
X171388456Y-81823216D01*
X171456376Y-81987188D01*
X171491000Y-82161259D01*
X171491000Y-82338741D01*
X171456376Y-82512812D01*
X171388456Y-82676784D01*
X171289853Y-82824354D01*
X171164354Y-82949853D01*
X171016784Y-83048456D01*
X170852812Y-83116376D01*
X170703512Y-83146073D01*
X170678742Y-83151000D01*
X170501258Y-83151000D01*
X170476488Y-83146073D01*
X170327188Y-83116376D01*
X170163216Y-83048456D01*
X170015646Y-82949853D01*
X169890147Y-82824354D01*
X169791544Y-82676784D01*
X169723624Y-82512812D01*
X169689000Y-82338741D01*
X169689000Y-82161259D01*
X169723624Y-81987188D01*
X169791544Y-81823216D01*
X169890147Y-81675646D01*
X170015646Y-81550147D01*
X170163216Y-81451544D01*
X170327188Y-81383624D01*
X170476488Y-81353927D01*
X170501258Y-81349000D01*
X170678742Y-81349000D01*
X170703512Y-81353927D01*
G37*
G36*
X168163512Y-81353927D02*
G01*
X168312812Y-81383624D01*
X168476784Y-81451544D01*
X168624354Y-81550147D01*
X168749853Y-81675646D01*
X168848456Y-81823216D01*
X168916376Y-81987188D01*
X168951000Y-82161259D01*
X168951000Y-82338741D01*
X168916376Y-82512812D01*
X168848456Y-82676784D01*
X168749853Y-82824354D01*
X168624354Y-82949853D01*
X168476784Y-83048456D01*
X168312812Y-83116376D01*
X168163512Y-83146073D01*
X168138742Y-83151000D01*
X167961258Y-83151000D01*
X167936488Y-83146073D01*
X167787188Y-83116376D01*
X167623216Y-83048456D01*
X167475646Y-82949853D01*
X167350147Y-82824354D01*
X167251544Y-82676784D01*
X167183624Y-82512812D01*
X167149000Y-82338741D01*
X167149000Y-82161259D01*
X167183624Y-81987188D01*
X167251544Y-81823216D01*
X167350147Y-81675646D01*
X167475646Y-81550147D01*
X167623216Y-81451544D01*
X167787188Y-81383624D01*
X167936488Y-81353927D01*
X167961258Y-81349000D01*
X168138742Y-81349000D01*
X168163512Y-81353927D01*
G37*
M02*
