G04 #@! TF.GenerationSoftware,KiCad,Pcbnew,5.1.5+dfsg1-2build2*
G04 #@! TF.CreationDate,2022-01-22T12:50:49-08:00*
G04 #@! TF.ProjectId,pcb_v1,7063625f-7631-42e6-9b69-6361645f7063,rev?*
G04 #@! TF.SameCoordinates,Original*
G04 #@! TF.FileFunction,Legend,Top*
G04 #@! TF.FilePolarity,Positive*
%FSLAX46Y46*%
G04 Gerber Fmt 4.6, Leading zero omitted, Abs format (unit mm)*
G04 Created by KiCad (PCBNEW 5.1.5+dfsg1-2build2) date 2022-01-22 12:50:49*
%MOMM*%
%LPD*%
G04 APERTURE LIST*
%ADD10C,0.120000*%
%ADD11C,0.150000*%
G04 APERTURE END LIST*
D10*
X160390000Y-120500000D02*
X160390000Y-122500000D01*
X162610000Y-121500000D02*
X162610000Y-122500000D01*
X164890000Y-120500000D02*
X164890000Y-122500000D01*
X167110000Y-121500000D02*
X167110000Y-122500000D01*
X169390000Y-120500000D02*
X169390000Y-122500000D01*
X171610000Y-121500000D02*
X171610000Y-122500000D01*
X173890000Y-120500000D02*
X173890000Y-122500000D01*
X176110000Y-121500000D02*
X176110000Y-122500000D01*
X183090000Y-120500000D02*
X183090000Y-122500000D01*
X185310000Y-121500000D02*
X185310000Y-122500000D01*
X164950000Y-130450000D02*
G75*
G02X165650000Y-129750000I700000J0D01*
G01*
X165650000Y-131750000D02*
G75*
G02X164950000Y-131050000I0J700000D01*
G01*
X169050000Y-131050000D02*
G75*
G02X168350000Y-131750000I-700000J0D01*
G01*
X168350000Y-129750000D02*
G75*
G02X169050000Y-130450000I0J-700000D01*
G01*
X165600000Y-129750000D02*
X168400000Y-129750000D01*
X169050000Y-130450000D02*
X169050000Y-131050000D01*
X168400000Y-131750000D02*
X165600000Y-131750000D01*
X164950000Y-131050000D02*
X164950000Y-130450000D01*
X170950000Y-130450000D02*
G75*
G02X171650000Y-129750000I700000J0D01*
G01*
X171650000Y-131750000D02*
G75*
G02X170950000Y-131050000I0J700000D01*
G01*
X175050000Y-131050000D02*
G75*
G02X174350000Y-131750000I-700000J0D01*
G01*
X174350000Y-129750000D02*
G75*
G02X175050000Y-130450000I0J-700000D01*
G01*
X171600000Y-129750000D02*
X174400000Y-129750000D01*
X175050000Y-130450000D02*
X175050000Y-131050000D01*
X174400000Y-131750000D02*
X171600000Y-131750000D01*
X170950000Y-131050000D02*
X170950000Y-130450000D01*
X176950000Y-130450000D02*
G75*
G02X177650000Y-129750000I700000J0D01*
G01*
X177650000Y-131750000D02*
G75*
G02X176950000Y-131050000I0J700000D01*
G01*
X181050000Y-131050000D02*
G75*
G02X180350000Y-131750000I-700000J0D01*
G01*
X180350000Y-129750000D02*
G75*
G02X181050000Y-130450000I0J-700000D01*
G01*
X177600000Y-129750000D02*
X180400000Y-129750000D01*
X181050000Y-130450000D02*
X181050000Y-131050000D01*
X180400000Y-131750000D02*
X177600000Y-131750000D01*
X176950000Y-131050000D02*
X176950000Y-130450000D01*
X175510000Y-102412779D02*
X175510000Y-102087221D01*
X174490000Y-102412779D02*
X174490000Y-102087221D01*
X162775279Y-123540000D02*
X162449721Y-123540000D01*
X162775279Y-124560000D02*
X162449721Y-124560000D01*
X172335000Y-101250000D02*
X172335000Y-103450000D01*
X166865000Y-101250000D02*
X166865000Y-103450000D01*
X166865000Y-101250000D02*
X166865000Y-99050000D01*
X172335000Y-101250000D02*
X172335000Y-97650000D01*
X172525000Y-88540000D02*
X172050000Y-88540000D01*
X177270000Y-93760000D02*
X177270000Y-93285000D01*
X176795000Y-93760000D02*
X177270000Y-93760000D01*
X172050000Y-93760000D02*
X172050000Y-93285000D01*
X172525000Y-93760000D02*
X172050000Y-93760000D01*
X177270000Y-88540000D02*
X177270000Y-89015000D01*
X176795000Y-88540000D02*
X177270000Y-88540000D01*
X172562779Y-86490000D02*
X172237221Y-86490000D01*
X172562779Y-87510000D02*
X172237221Y-87510000D01*
X177260000Y-101912779D02*
X177260000Y-101587221D01*
X176240000Y-101912779D02*
X176240000Y-101587221D01*
X178760000Y-101912779D02*
X178760000Y-101587221D01*
X177740000Y-101912779D02*
X177740000Y-101587221D01*
X180260000Y-101912779D02*
X180260000Y-101587221D01*
X179240000Y-101912779D02*
X179240000Y-101587221D01*
X181760000Y-101912779D02*
X181760000Y-101587221D01*
X180740000Y-101912779D02*
X180740000Y-101587221D01*
X166400000Y-99900000D02*
X161000000Y-99900000D01*
X166400000Y-96600000D02*
X161000000Y-96600000D01*
X166400000Y-99900000D02*
X166400000Y-96600000D01*
X167195522Y-89575727D02*
X167425727Y-89345522D01*
X166474273Y-88854478D02*
X166704478Y-88624273D01*
X168010000Y-93162779D02*
X168010000Y-92837221D01*
X166990000Y-93162779D02*
X166990000Y-92837221D01*
X168954478Y-86374273D02*
X168724273Y-86604478D01*
X169675727Y-87095522D02*
X169445522Y-87325727D01*
X169990000Y-92837221D02*
X169990000Y-93162779D01*
X171010000Y-92837221D02*
X171010000Y-93162779D01*
X172740000Y-98637221D02*
X172740000Y-98962779D01*
X173760000Y-98637221D02*
X173760000Y-98962779D01*
X168490000Y-92837221D02*
X168490000Y-93162779D01*
X169510000Y-92837221D02*
X169510000Y-93162779D01*
X174290000Y-98637221D02*
X174290000Y-98962779D01*
X175310000Y-98637221D02*
X175310000Y-98962779D01*
X181240000Y-94087221D02*
X181240000Y-94412779D01*
X182260000Y-94087221D02*
X182260000Y-94412779D01*
X179740000Y-94087221D02*
X179740000Y-94412779D01*
X180760000Y-94087221D02*
X180760000Y-94412779D01*
X178240000Y-94087221D02*
X178240000Y-94412779D01*
X179260000Y-94087221D02*
X179260000Y-94412779D01*
X166962779Y-123590000D02*
X166637221Y-123590000D01*
X166962779Y-124610000D02*
X166637221Y-124610000D01*
X171462779Y-123590000D02*
X171137221Y-123590000D01*
X171462779Y-124610000D02*
X171137221Y-124610000D01*
X175562779Y-126290000D02*
X175237221Y-126290000D01*
X175562779Y-127310000D02*
X175237221Y-127310000D01*
X180450279Y-123590000D02*
X180124721Y-123590000D01*
X180450279Y-124610000D02*
X180124721Y-124610000D01*
X184760000Y-101912779D02*
X184760000Y-101587221D01*
X183740000Y-101912779D02*
X183740000Y-101587221D01*
X183260000Y-101912779D02*
X183260000Y-101587221D01*
X182240000Y-101912779D02*
X182240000Y-101587221D01*
D11*
X162902380Y-122261904D02*
X163711904Y-122261904D01*
X163807142Y-122214285D01*
X163854761Y-122166666D01*
X163902380Y-122071428D01*
X163902380Y-121880952D01*
X163854761Y-121785714D01*
X163807142Y-121738095D01*
X163711904Y-121690476D01*
X162902380Y-121690476D01*
X162902380Y-121309523D02*
X162902380Y-120642857D01*
X163902380Y-121071428D01*
X167402380Y-122261904D02*
X168211904Y-122261904D01*
X168307142Y-122214285D01*
X168354761Y-122166666D01*
X168402380Y-122071428D01*
X168402380Y-121880952D01*
X168354761Y-121785714D01*
X168307142Y-121738095D01*
X168211904Y-121690476D01*
X167402380Y-121690476D01*
X167735714Y-120785714D02*
X168402380Y-120785714D01*
X167354761Y-121023809D02*
X168069047Y-121261904D01*
X168069047Y-120642857D01*
X171902380Y-122261904D02*
X172711904Y-122261904D01*
X172807142Y-122214285D01*
X172854761Y-122166666D01*
X172902380Y-122071428D01*
X172902380Y-121880952D01*
X172854761Y-121785714D01*
X172807142Y-121738095D01*
X172711904Y-121690476D01*
X171902380Y-121690476D01*
X171902380Y-121309523D02*
X171902380Y-120690476D01*
X172283333Y-121023809D01*
X172283333Y-120880952D01*
X172330952Y-120785714D01*
X172378571Y-120738095D01*
X172473809Y-120690476D01*
X172711904Y-120690476D01*
X172807142Y-120738095D01*
X172854761Y-120785714D01*
X172902380Y-120880952D01*
X172902380Y-121166666D01*
X172854761Y-121261904D01*
X172807142Y-121309523D01*
X176402380Y-122261904D02*
X177211904Y-122261904D01*
X177307142Y-122214285D01*
X177354761Y-122166666D01*
X177402380Y-122071428D01*
X177402380Y-121880952D01*
X177354761Y-121785714D01*
X177307142Y-121738095D01*
X177211904Y-121690476D01*
X176402380Y-121690476D01*
X176497619Y-121261904D02*
X176450000Y-121214285D01*
X176402380Y-121119047D01*
X176402380Y-120880952D01*
X176450000Y-120785714D01*
X176497619Y-120738095D01*
X176592857Y-120690476D01*
X176688095Y-120690476D01*
X176830952Y-120738095D01*
X177402380Y-121309523D01*
X177402380Y-120690476D01*
X185602380Y-122261904D02*
X186411904Y-122261904D01*
X186507142Y-122214285D01*
X186554761Y-122166666D01*
X186602380Y-122071428D01*
X186602380Y-121880952D01*
X186554761Y-121785714D01*
X186507142Y-121738095D01*
X186411904Y-121690476D01*
X185602380Y-121690476D01*
X186602380Y-120690476D02*
X186602380Y-121261904D01*
X186602380Y-120976190D02*
X185602380Y-120976190D01*
X185745238Y-121071428D01*
X185840476Y-121166666D01*
X185888095Y-121261904D01*
X166166666Y-128402380D02*
X166166666Y-129116666D01*
X166119047Y-129259523D01*
X166023809Y-129354761D01*
X165880952Y-129402380D01*
X165785714Y-129402380D01*
X166642857Y-129402380D02*
X166642857Y-128402380D01*
X167023809Y-128402380D01*
X167119047Y-128450000D01*
X167166666Y-128497619D01*
X167214285Y-128592857D01*
X167214285Y-128735714D01*
X167166666Y-128830952D01*
X167119047Y-128878571D01*
X167023809Y-128926190D01*
X166642857Y-128926190D01*
X167547619Y-128402380D02*
X168166666Y-128402380D01*
X167833333Y-128783333D01*
X167976190Y-128783333D01*
X168071428Y-128830952D01*
X168119047Y-128878571D01*
X168166666Y-128973809D01*
X168166666Y-129211904D01*
X168119047Y-129307142D01*
X168071428Y-129354761D01*
X167976190Y-129402380D01*
X167690476Y-129402380D01*
X167595238Y-129354761D01*
X167547619Y-129307142D01*
X164685714Y-131202380D02*
X164114285Y-131202380D01*
X164400000Y-131202380D02*
X164400000Y-130202380D01*
X164304761Y-130345238D01*
X164209523Y-130440476D01*
X164114285Y-130488095D01*
X169266666Y-130202380D02*
X169885714Y-130202380D01*
X169552380Y-130583333D01*
X169695238Y-130583333D01*
X169790476Y-130630952D01*
X169838095Y-130678571D01*
X169885714Y-130773809D01*
X169885714Y-131011904D01*
X169838095Y-131107142D01*
X169790476Y-131154761D01*
X169695238Y-131202380D01*
X169409523Y-131202380D01*
X169314285Y-131154761D01*
X169266666Y-131107142D01*
X172166666Y-128402380D02*
X172166666Y-129116666D01*
X172119047Y-129259523D01*
X172023809Y-129354761D01*
X171880952Y-129402380D01*
X171785714Y-129402380D01*
X172642857Y-129402380D02*
X172642857Y-128402380D01*
X173023809Y-128402380D01*
X173119047Y-128450000D01*
X173166666Y-128497619D01*
X173214285Y-128592857D01*
X173214285Y-128735714D01*
X173166666Y-128830952D01*
X173119047Y-128878571D01*
X173023809Y-128926190D01*
X172642857Y-128926190D01*
X173595238Y-128497619D02*
X173642857Y-128450000D01*
X173738095Y-128402380D01*
X173976190Y-128402380D01*
X174071428Y-128450000D01*
X174119047Y-128497619D01*
X174166666Y-128592857D01*
X174166666Y-128688095D01*
X174119047Y-128830952D01*
X173547619Y-129402380D01*
X174166666Y-129402380D01*
X170685714Y-131202380D02*
X170114285Y-131202380D01*
X170400000Y-131202380D02*
X170400000Y-130202380D01*
X170304761Y-130345238D01*
X170209523Y-130440476D01*
X170114285Y-130488095D01*
X175266666Y-130202380D02*
X175885714Y-130202380D01*
X175552380Y-130583333D01*
X175695238Y-130583333D01*
X175790476Y-130630952D01*
X175838095Y-130678571D01*
X175885714Y-130773809D01*
X175885714Y-131011904D01*
X175838095Y-131107142D01*
X175790476Y-131154761D01*
X175695238Y-131202380D01*
X175409523Y-131202380D01*
X175314285Y-131154761D01*
X175266666Y-131107142D01*
X178166666Y-128402380D02*
X178166666Y-129116666D01*
X178119047Y-129259523D01*
X178023809Y-129354761D01*
X177880952Y-129402380D01*
X177785714Y-129402380D01*
X178642857Y-129402380D02*
X178642857Y-128402380D01*
X179023809Y-128402380D01*
X179119047Y-128450000D01*
X179166666Y-128497619D01*
X179214285Y-128592857D01*
X179214285Y-128735714D01*
X179166666Y-128830952D01*
X179119047Y-128878571D01*
X179023809Y-128926190D01*
X178642857Y-128926190D01*
X180166666Y-129402380D02*
X179595238Y-129402380D01*
X179880952Y-129402380D02*
X179880952Y-128402380D01*
X179785714Y-128545238D01*
X179690476Y-128640476D01*
X179595238Y-128688095D01*
X176685714Y-131202380D02*
X176114285Y-131202380D01*
X176400000Y-131202380D02*
X176400000Y-130202380D01*
X176304761Y-130345238D01*
X176209523Y-130440476D01*
X176114285Y-130488095D01*
X181266666Y-130202380D02*
X181885714Y-130202380D01*
X181552380Y-130583333D01*
X181695238Y-130583333D01*
X181790476Y-130630952D01*
X181838095Y-130678571D01*
X181885714Y-130773809D01*
X181885714Y-131011904D01*
X181838095Y-131107142D01*
X181790476Y-131154761D01*
X181695238Y-131202380D01*
X181409523Y-131202380D01*
X181314285Y-131154761D01*
X181266666Y-131107142D01*
X174022380Y-102416666D02*
X173546190Y-102750000D01*
X174022380Y-102988095D02*
X173022380Y-102988095D01*
X173022380Y-102607142D01*
X173070000Y-102511904D01*
X173117619Y-102464285D01*
X173212857Y-102416666D01*
X173355714Y-102416666D01*
X173450952Y-102464285D01*
X173498571Y-102511904D01*
X173546190Y-102607142D01*
X173546190Y-102988095D01*
X173450952Y-101845238D02*
X173403333Y-101940476D01*
X173355714Y-101988095D01*
X173260476Y-102035714D01*
X173212857Y-102035714D01*
X173117619Y-101988095D01*
X173070000Y-101940476D01*
X173022380Y-101845238D01*
X173022380Y-101654761D01*
X173070000Y-101559523D01*
X173117619Y-101511904D01*
X173212857Y-101464285D01*
X173260476Y-101464285D01*
X173355714Y-101511904D01*
X173403333Y-101559523D01*
X173450952Y-101654761D01*
X173450952Y-101845238D01*
X173498571Y-101940476D01*
X173546190Y-101988095D01*
X173641428Y-102035714D01*
X173831904Y-102035714D01*
X173927142Y-101988095D01*
X173974761Y-101940476D01*
X174022380Y-101845238D01*
X174022380Y-101654761D01*
X173974761Y-101559523D01*
X173927142Y-101511904D01*
X173831904Y-101464285D01*
X173641428Y-101464285D01*
X173546190Y-101511904D01*
X173498571Y-101559523D01*
X173450952Y-101654761D01*
X162107142Y-127607142D02*
X162059523Y-127654761D01*
X161916666Y-127702380D01*
X161821428Y-127702380D01*
X161678571Y-127654761D01*
X161583333Y-127559523D01*
X161535714Y-127464285D01*
X161488095Y-127273809D01*
X161488095Y-127130952D01*
X161535714Y-126940476D01*
X161583333Y-126845238D01*
X161678571Y-126750000D01*
X161821428Y-126702380D01*
X161916666Y-126702380D01*
X162059523Y-126750000D01*
X162107142Y-126797619D01*
X163059523Y-127702380D02*
X162488095Y-127702380D01*
X162773809Y-127702380D02*
X162773809Y-126702380D01*
X162678571Y-126845238D01*
X162583333Y-126940476D01*
X162488095Y-126988095D01*
X163964285Y-126702380D02*
X163488095Y-126702380D01*
X163440476Y-127178571D01*
X163488095Y-127130952D01*
X163583333Y-127083333D01*
X163821428Y-127083333D01*
X163916666Y-127130952D01*
X163964285Y-127178571D01*
X164011904Y-127273809D01*
X164011904Y-127511904D01*
X163964285Y-127607142D01*
X163916666Y-127654761D01*
X163821428Y-127702380D01*
X163583333Y-127702380D01*
X163488095Y-127654761D01*
X163440476Y-127607142D01*
X159488095Y-127752380D02*
X159488095Y-126752380D01*
X159488095Y-127228571D02*
X160059523Y-127228571D01*
X160059523Y-127752380D02*
X160059523Y-126752380D01*
X160964285Y-127085714D02*
X160964285Y-127752380D01*
X160726190Y-126704761D02*
X160488095Y-127419047D01*
X161107142Y-127419047D01*
X184488095Y-127752380D02*
X184488095Y-126752380D01*
X184488095Y-127228571D02*
X185059523Y-127228571D01*
X185059523Y-127752380D02*
X185059523Y-126752380D01*
X185440476Y-126752380D02*
X186059523Y-126752380D01*
X185726190Y-127133333D01*
X185869047Y-127133333D01*
X185964285Y-127180952D01*
X186011904Y-127228571D01*
X186059523Y-127323809D01*
X186059523Y-127561904D01*
X186011904Y-127657142D01*
X185964285Y-127704761D01*
X185869047Y-127752380D01*
X185583333Y-127752380D01*
X185488095Y-127704761D01*
X185440476Y-127657142D01*
X181788095Y-85452380D02*
X181788095Y-84452380D01*
X181788095Y-84928571D02*
X182359523Y-84928571D01*
X182359523Y-85452380D02*
X182359523Y-84452380D01*
X182788095Y-84547619D02*
X182835714Y-84500000D01*
X182930952Y-84452380D01*
X183169047Y-84452380D01*
X183264285Y-84500000D01*
X183311904Y-84547619D01*
X183359523Y-84642857D01*
X183359523Y-84738095D01*
X183311904Y-84880952D01*
X182740476Y-85452380D01*
X183359523Y-85452380D01*
X164838095Y-85452380D02*
X164838095Y-84452380D01*
X164838095Y-84928571D02*
X165409523Y-84928571D01*
X165409523Y-85452380D02*
X165409523Y-84452380D01*
X166409523Y-85452380D02*
X165838095Y-85452380D01*
X166123809Y-85452380D02*
X166123809Y-84452380D01*
X166028571Y-84595238D01*
X165933333Y-84690476D01*
X165838095Y-84738095D01*
X164738095Y-103702380D02*
X164738095Y-104511904D01*
X164785714Y-104607142D01*
X164833333Y-104654761D01*
X164928571Y-104702380D01*
X165119047Y-104702380D01*
X165214285Y-104654761D01*
X165261904Y-104607142D01*
X165309523Y-104511904D01*
X165309523Y-103702380D01*
X166261904Y-103702380D02*
X165785714Y-103702380D01*
X165738095Y-104178571D01*
X165785714Y-104130952D01*
X165880952Y-104083333D01*
X166119047Y-104083333D01*
X166214285Y-104130952D01*
X166261904Y-104178571D01*
X166309523Y-104273809D01*
X166309523Y-104511904D01*
X166261904Y-104607142D01*
X166214285Y-104654761D01*
X166119047Y-104702380D01*
X165880952Y-104702380D01*
X165785714Y-104654761D01*
X165738095Y-104607142D01*
X169896446Y-90819881D02*
X170233164Y-91156599D01*
X169290355Y-90685194D02*
X169896446Y-90819881D01*
X169761759Y-90213790D01*
X171074957Y-90314805D02*
X170670896Y-90718866D01*
X170872927Y-90516835D02*
X170165820Y-89809729D01*
X170199492Y-89978087D01*
X170199492Y-90112774D01*
X170165820Y-90213790D01*
X174488095Y-86702380D02*
X174488095Y-87511904D01*
X174535714Y-87607142D01*
X174583333Y-87654761D01*
X174678571Y-87702380D01*
X174869047Y-87702380D01*
X174964285Y-87654761D01*
X175011904Y-87607142D01*
X175059523Y-87511904D01*
X175059523Y-86702380D01*
X175964285Y-86702380D02*
X175773809Y-86702380D01*
X175678571Y-86750000D01*
X175630952Y-86797619D01*
X175535714Y-86940476D01*
X175488095Y-87130952D01*
X175488095Y-87511904D01*
X175535714Y-87607142D01*
X175583333Y-87654761D01*
X175678571Y-87702380D01*
X175869047Y-87702380D01*
X175964285Y-87654761D01*
X176011904Y-87607142D01*
X176059523Y-87511904D01*
X176059523Y-87273809D01*
X176011904Y-87178571D01*
X175964285Y-87130952D01*
X175869047Y-87083333D01*
X175678571Y-87083333D01*
X175583333Y-87130952D01*
X175535714Y-87178571D01*
X175488095Y-87273809D01*
X172233333Y-85952380D02*
X171900000Y-85476190D01*
X171661904Y-85952380D02*
X171661904Y-84952380D01*
X172042857Y-84952380D01*
X172138095Y-85000000D01*
X172185714Y-85047619D01*
X172233333Y-85142857D01*
X172233333Y-85285714D01*
X172185714Y-85380952D01*
X172138095Y-85428571D01*
X172042857Y-85476190D01*
X171661904Y-85476190D01*
X172566666Y-84952380D02*
X173233333Y-84952380D01*
X172804761Y-85952380D01*
X176083333Y-104702380D02*
X175750000Y-104226190D01*
X175511904Y-104702380D02*
X175511904Y-103702380D01*
X175892857Y-103702380D01*
X175988095Y-103750000D01*
X176035714Y-103797619D01*
X176083333Y-103892857D01*
X176083333Y-104035714D01*
X176035714Y-104130952D01*
X175988095Y-104178571D01*
X175892857Y-104226190D01*
X175511904Y-104226190D01*
X176940476Y-103702380D02*
X176750000Y-103702380D01*
X176654761Y-103750000D01*
X176607142Y-103797619D01*
X176511904Y-103940476D01*
X176464285Y-104130952D01*
X176464285Y-104511904D01*
X176511904Y-104607142D01*
X176559523Y-104654761D01*
X176654761Y-104702380D01*
X176845238Y-104702380D01*
X176940476Y-104654761D01*
X176988095Y-104607142D01*
X177035714Y-104511904D01*
X177035714Y-104273809D01*
X176988095Y-104178571D01*
X176940476Y-104130952D01*
X176845238Y-104083333D01*
X176654761Y-104083333D01*
X176559523Y-104130952D01*
X176511904Y-104178571D01*
X176464285Y-104273809D01*
X177833333Y-104702380D02*
X177500000Y-104226190D01*
X177261904Y-104702380D02*
X177261904Y-103702380D01*
X177642857Y-103702380D01*
X177738095Y-103750000D01*
X177785714Y-103797619D01*
X177833333Y-103892857D01*
X177833333Y-104035714D01*
X177785714Y-104130952D01*
X177738095Y-104178571D01*
X177642857Y-104226190D01*
X177261904Y-104226190D01*
X178738095Y-103702380D02*
X178261904Y-103702380D01*
X178214285Y-104178571D01*
X178261904Y-104130952D01*
X178357142Y-104083333D01*
X178595238Y-104083333D01*
X178690476Y-104130952D01*
X178738095Y-104178571D01*
X178785714Y-104273809D01*
X178785714Y-104511904D01*
X178738095Y-104607142D01*
X178690476Y-104654761D01*
X178595238Y-104702380D01*
X178357142Y-104702380D01*
X178261904Y-104654761D01*
X178214285Y-104607142D01*
X179583333Y-104702380D02*
X179250000Y-104226190D01*
X179011904Y-104702380D02*
X179011904Y-103702380D01*
X179392857Y-103702380D01*
X179488095Y-103750000D01*
X179535714Y-103797619D01*
X179583333Y-103892857D01*
X179583333Y-104035714D01*
X179535714Y-104130952D01*
X179488095Y-104178571D01*
X179392857Y-104226190D01*
X179011904Y-104226190D01*
X180440476Y-104035714D02*
X180440476Y-104702380D01*
X180202380Y-103654761D02*
X179964285Y-104369047D01*
X180583333Y-104369047D01*
X181333333Y-104702380D02*
X181000000Y-104226190D01*
X180761904Y-104702380D02*
X180761904Y-103702380D01*
X181142857Y-103702380D01*
X181238095Y-103750000D01*
X181285714Y-103797619D01*
X181333333Y-103892857D01*
X181333333Y-104035714D01*
X181285714Y-104130952D01*
X181238095Y-104178571D01*
X181142857Y-104226190D01*
X180761904Y-104226190D01*
X181666666Y-103702380D02*
X182285714Y-103702380D01*
X181952380Y-104083333D01*
X182095238Y-104083333D01*
X182190476Y-104130952D01*
X182238095Y-104178571D01*
X182285714Y-104273809D01*
X182285714Y-104511904D01*
X182238095Y-104607142D01*
X182190476Y-104654761D01*
X182095238Y-104702380D01*
X181809523Y-104702380D01*
X181714285Y-104654761D01*
X181666666Y-104607142D01*
X162261904Y-101202380D02*
X162261904Y-100202380D01*
X162500000Y-100202380D01*
X162642857Y-100250000D01*
X162738095Y-100345238D01*
X162785714Y-100440476D01*
X162833333Y-100630952D01*
X162833333Y-100773809D01*
X162785714Y-100964285D01*
X162738095Y-101059523D01*
X162642857Y-101154761D01*
X162500000Y-101202380D01*
X162261904Y-101202380D01*
X163785714Y-101202380D02*
X163214285Y-101202380D01*
X163500000Y-101202380D02*
X163500000Y-100202380D01*
X163404761Y-100345238D01*
X163309523Y-100440476D01*
X163214285Y-100488095D01*
X165736806Y-88795943D02*
X165736806Y-88863287D01*
X165669462Y-88997974D01*
X165602119Y-89065317D01*
X165467432Y-89132661D01*
X165332745Y-89132661D01*
X165231730Y-89098989D01*
X165063371Y-88997974D01*
X164962356Y-88896959D01*
X164861340Y-88728600D01*
X164827669Y-88627585D01*
X164827669Y-88492898D01*
X164895012Y-88358211D01*
X164962356Y-88290867D01*
X165097043Y-88223524D01*
X165164386Y-88223524D01*
X166477585Y-88189852D02*
X166073524Y-88593913D01*
X166275554Y-88391882D02*
X165568447Y-87684775D01*
X165602119Y-87853134D01*
X165602119Y-87987821D01*
X165568447Y-88088837D01*
X166612272Y-87112356D02*
X167083676Y-87583760D01*
X166174539Y-87011340D02*
X166511256Y-87684775D01*
X166948989Y-87247043D01*
X165857142Y-95607142D02*
X165809523Y-95654761D01*
X165666666Y-95702380D01*
X165571428Y-95702380D01*
X165428571Y-95654761D01*
X165333333Y-95559523D01*
X165285714Y-95464285D01*
X165238095Y-95273809D01*
X165238095Y-95130952D01*
X165285714Y-94940476D01*
X165333333Y-94845238D01*
X165428571Y-94750000D01*
X165571428Y-94702380D01*
X165666666Y-94702380D01*
X165809523Y-94750000D01*
X165857142Y-94797619D01*
X166809523Y-95702380D02*
X166238095Y-95702380D01*
X166523809Y-95702380D02*
X166523809Y-94702380D01*
X166428571Y-94845238D01*
X166333333Y-94940476D01*
X166238095Y-94988095D01*
X167142857Y-94702380D02*
X167761904Y-94702380D01*
X167428571Y-95083333D01*
X167571428Y-95083333D01*
X167666666Y-95130952D01*
X167714285Y-95178571D01*
X167761904Y-95273809D01*
X167761904Y-95511904D01*
X167714285Y-95607142D01*
X167666666Y-95654761D01*
X167571428Y-95702380D01*
X167285714Y-95702380D01*
X167190476Y-95654761D01*
X167142857Y-95607142D01*
X167797969Y-86707106D02*
X167797969Y-86774450D01*
X167730625Y-86909137D01*
X167663282Y-86976480D01*
X167528595Y-87043824D01*
X167393908Y-87043824D01*
X167292893Y-87010152D01*
X167124534Y-86909137D01*
X167023519Y-86808122D01*
X166922503Y-86639763D01*
X166888832Y-86538748D01*
X166888832Y-86404061D01*
X166956175Y-86269374D01*
X167023519Y-86202030D01*
X167158206Y-86134687D01*
X167225549Y-86134687D01*
X168538748Y-86101015D02*
X168134687Y-86505076D01*
X168336717Y-86303045D02*
X167629610Y-85595938D01*
X167663282Y-85764297D01*
X167663282Y-85898984D01*
X167629610Y-86000000D01*
X168168358Y-85191877D02*
X168168358Y-85124534D01*
X168202030Y-85023519D01*
X168370389Y-84855160D01*
X168471404Y-84821488D01*
X168538748Y-84821488D01*
X168639763Y-84855160D01*
X168707106Y-84922503D01*
X168774450Y-85057190D01*
X168774450Y-85865312D01*
X169212183Y-85427580D01*
X170857142Y-95607142D02*
X170809523Y-95654761D01*
X170666666Y-95702380D01*
X170571428Y-95702380D01*
X170428571Y-95654761D01*
X170333333Y-95559523D01*
X170285714Y-95464285D01*
X170238095Y-95273809D01*
X170238095Y-95130952D01*
X170285714Y-94940476D01*
X170333333Y-94845238D01*
X170428571Y-94750000D01*
X170571428Y-94702380D01*
X170666666Y-94702380D01*
X170809523Y-94750000D01*
X170857142Y-94797619D01*
X171809523Y-95702380D02*
X171238095Y-95702380D01*
X171523809Y-95702380D02*
X171523809Y-94702380D01*
X171428571Y-94845238D01*
X171333333Y-94940476D01*
X171238095Y-94988095D01*
X172761904Y-95702380D02*
X172190476Y-95702380D01*
X172476190Y-95702380D02*
X172476190Y-94702380D01*
X172380952Y-94845238D01*
X172285714Y-94940476D01*
X172190476Y-94988095D01*
X171957142Y-96957142D02*
X171909523Y-97004761D01*
X171766666Y-97052380D01*
X171671428Y-97052380D01*
X171528571Y-97004761D01*
X171433333Y-96909523D01*
X171385714Y-96814285D01*
X171338095Y-96623809D01*
X171338095Y-96480952D01*
X171385714Y-96290476D01*
X171433333Y-96195238D01*
X171528571Y-96100000D01*
X171671428Y-96052380D01*
X171766666Y-96052380D01*
X171909523Y-96100000D01*
X171957142Y-96147619D01*
X172909523Y-97052380D02*
X172338095Y-97052380D01*
X172623809Y-97052380D02*
X172623809Y-96052380D01*
X172528571Y-96195238D01*
X172433333Y-96290476D01*
X172338095Y-96338095D01*
X173528571Y-96052380D02*
X173623809Y-96052380D01*
X173719047Y-96100000D01*
X173766666Y-96147619D01*
X173814285Y-96242857D01*
X173861904Y-96433333D01*
X173861904Y-96671428D01*
X173814285Y-96861904D01*
X173766666Y-96957142D01*
X173719047Y-97004761D01*
X173623809Y-97052380D01*
X173528571Y-97052380D01*
X173433333Y-97004761D01*
X173385714Y-96957142D01*
X173338095Y-96861904D01*
X173290476Y-96671428D01*
X173290476Y-96433333D01*
X173338095Y-96242857D01*
X173385714Y-96147619D01*
X173433333Y-96100000D01*
X173528571Y-96052380D01*
X168833333Y-95607142D02*
X168785714Y-95654761D01*
X168642857Y-95702380D01*
X168547619Y-95702380D01*
X168404761Y-95654761D01*
X168309523Y-95559523D01*
X168261904Y-95464285D01*
X168214285Y-95273809D01*
X168214285Y-95130952D01*
X168261904Y-94940476D01*
X168309523Y-94845238D01*
X168404761Y-94750000D01*
X168547619Y-94702380D01*
X168642857Y-94702380D01*
X168785714Y-94750000D01*
X168833333Y-94797619D01*
X169309523Y-95702380D02*
X169500000Y-95702380D01*
X169595238Y-95654761D01*
X169642857Y-95607142D01*
X169738095Y-95464285D01*
X169785714Y-95273809D01*
X169785714Y-94892857D01*
X169738095Y-94797619D01*
X169690476Y-94750000D01*
X169595238Y-94702380D01*
X169404761Y-94702380D01*
X169309523Y-94750000D01*
X169261904Y-94797619D01*
X169214285Y-94892857D01*
X169214285Y-95130952D01*
X169261904Y-95226190D01*
X169309523Y-95273809D01*
X169404761Y-95321428D01*
X169595238Y-95321428D01*
X169690476Y-95273809D01*
X169738095Y-95226190D01*
X169785714Y-95130952D01*
X174833333Y-96957142D02*
X174785714Y-97004761D01*
X174642857Y-97052380D01*
X174547619Y-97052380D01*
X174404761Y-97004761D01*
X174309523Y-96909523D01*
X174261904Y-96814285D01*
X174214285Y-96623809D01*
X174214285Y-96480952D01*
X174261904Y-96290476D01*
X174309523Y-96195238D01*
X174404761Y-96100000D01*
X174547619Y-96052380D01*
X174642857Y-96052380D01*
X174785714Y-96100000D01*
X174833333Y-96147619D01*
X175404761Y-96480952D02*
X175309523Y-96433333D01*
X175261904Y-96385714D01*
X175214285Y-96290476D01*
X175214285Y-96242857D01*
X175261904Y-96147619D01*
X175309523Y-96100000D01*
X175404761Y-96052380D01*
X175595238Y-96052380D01*
X175690476Y-96100000D01*
X175738095Y-96147619D01*
X175785714Y-96242857D01*
X175785714Y-96290476D01*
X175738095Y-96385714D01*
X175690476Y-96433333D01*
X175595238Y-96480952D01*
X175404761Y-96480952D01*
X175309523Y-96528571D01*
X175261904Y-96576190D01*
X175214285Y-96671428D01*
X175214285Y-96861904D01*
X175261904Y-96957142D01*
X175309523Y-97004761D01*
X175404761Y-97052380D01*
X175595238Y-97052380D01*
X175690476Y-97004761D01*
X175738095Y-96957142D01*
X175785714Y-96861904D01*
X175785714Y-96671428D01*
X175738095Y-96576190D01*
X175690476Y-96528571D01*
X175595238Y-96480952D01*
X182083333Y-96857142D02*
X182035714Y-96904761D01*
X181892857Y-96952380D01*
X181797619Y-96952380D01*
X181654761Y-96904761D01*
X181559523Y-96809523D01*
X181511904Y-96714285D01*
X181464285Y-96523809D01*
X181464285Y-96380952D01*
X181511904Y-96190476D01*
X181559523Y-96095238D01*
X181654761Y-96000000D01*
X181797619Y-95952380D01*
X181892857Y-95952380D01*
X182035714Y-96000000D01*
X182083333Y-96047619D01*
X182416666Y-95952380D02*
X183083333Y-95952380D01*
X182654761Y-96952380D01*
X180083333Y-96857142D02*
X180035714Y-96904761D01*
X179892857Y-96952380D01*
X179797619Y-96952380D01*
X179654761Y-96904761D01*
X179559523Y-96809523D01*
X179511904Y-96714285D01*
X179464285Y-96523809D01*
X179464285Y-96380952D01*
X179511904Y-96190476D01*
X179559523Y-96095238D01*
X179654761Y-96000000D01*
X179797619Y-95952380D01*
X179892857Y-95952380D01*
X180035714Y-96000000D01*
X180083333Y-96047619D01*
X180940476Y-95952380D02*
X180750000Y-95952380D01*
X180654761Y-96000000D01*
X180607142Y-96047619D01*
X180511904Y-96190476D01*
X180464285Y-96380952D01*
X180464285Y-96761904D01*
X180511904Y-96857142D01*
X180559523Y-96904761D01*
X180654761Y-96952380D01*
X180845238Y-96952380D01*
X180940476Y-96904761D01*
X180988095Y-96857142D01*
X181035714Y-96761904D01*
X181035714Y-96523809D01*
X180988095Y-96428571D01*
X180940476Y-96380952D01*
X180845238Y-96333333D01*
X180654761Y-96333333D01*
X180559523Y-96380952D01*
X180511904Y-96428571D01*
X180464285Y-96523809D01*
X178083333Y-96857142D02*
X178035714Y-96904761D01*
X177892857Y-96952380D01*
X177797619Y-96952380D01*
X177654761Y-96904761D01*
X177559523Y-96809523D01*
X177511904Y-96714285D01*
X177464285Y-96523809D01*
X177464285Y-96380952D01*
X177511904Y-96190476D01*
X177559523Y-96095238D01*
X177654761Y-96000000D01*
X177797619Y-95952380D01*
X177892857Y-95952380D01*
X178035714Y-96000000D01*
X178083333Y-96047619D01*
X178988095Y-95952380D02*
X178511904Y-95952380D01*
X178464285Y-96428571D01*
X178511904Y-96380952D01*
X178607142Y-96333333D01*
X178845238Y-96333333D01*
X178940476Y-96380952D01*
X178988095Y-96428571D01*
X179035714Y-96523809D01*
X179035714Y-96761904D01*
X178988095Y-96857142D01*
X178940476Y-96904761D01*
X178845238Y-96952380D01*
X178607142Y-96952380D01*
X178511904Y-96904761D01*
X178464285Y-96857142D01*
X166595833Y-127457142D02*
X166548214Y-127504761D01*
X166405357Y-127552380D01*
X166310119Y-127552380D01*
X166167261Y-127504761D01*
X166072023Y-127409523D01*
X166024404Y-127314285D01*
X165976785Y-127123809D01*
X165976785Y-126980952D01*
X166024404Y-126790476D01*
X166072023Y-126695238D01*
X166167261Y-126600000D01*
X166310119Y-126552380D01*
X166405357Y-126552380D01*
X166548214Y-126600000D01*
X166595833Y-126647619D01*
X167452976Y-126885714D02*
X167452976Y-127552380D01*
X167214880Y-126504761D02*
X166976785Y-127219047D01*
X167595833Y-127219047D01*
X171133333Y-127457142D02*
X171085714Y-127504761D01*
X170942857Y-127552380D01*
X170847619Y-127552380D01*
X170704761Y-127504761D01*
X170609523Y-127409523D01*
X170561904Y-127314285D01*
X170514285Y-127123809D01*
X170514285Y-126980952D01*
X170561904Y-126790476D01*
X170609523Y-126695238D01*
X170704761Y-126600000D01*
X170847619Y-126552380D01*
X170942857Y-126552380D01*
X171085714Y-126600000D01*
X171133333Y-126647619D01*
X171466666Y-126552380D02*
X172085714Y-126552380D01*
X171752380Y-126933333D01*
X171895238Y-126933333D01*
X171990476Y-126980952D01*
X172038095Y-127028571D01*
X172085714Y-127123809D01*
X172085714Y-127361904D01*
X172038095Y-127457142D01*
X171990476Y-127504761D01*
X171895238Y-127552380D01*
X171609523Y-127552380D01*
X171514285Y-127504761D01*
X171466666Y-127457142D01*
X175233333Y-128587142D02*
X175185714Y-128634761D01*
X175042857Y-128682380D01*
X174947619Y-128682380D01*
X174804761Y-128634761D01*
X174709523Y-128539523D01*
X174661904Y-128444285D01*
X174614285Y-128253809D01*
X174614285Y-128110952D01*
X174661904Y-127920476D01*
X174709523Y-127825238D01*
X174804761Y-127730000D01*
X174947619Y-127682380D01*
X175042857Y-127682380D01*
X175185714Y-127730000D01*
X175233333Y-127777619D01*
X175614285Y-127777619D02*
X175661904Y-127730000D01*
X175757142Y-127682380D01*
X175995238Y-127682380D01*
X176090476Y-127730000D01*
X176138095Y-127777619D01*
X176185714Y-127872857D01*
X176185714Y-127968095D01*
X176138095Y-128110952D01*
X175566666Y-128682380D01*
X176185714Y-128682380D01*
X180083333Y-127607142D02*
X180035714Y-127654761D01*
X179892857Y-127702380D01*
X179797619Y-127702380D01*
X179654761Y-127654761D01*
X179559523Y-127559523D01*
X179511904Y-127464285D01*
X179464285Y-127273809D01*
X179464285Y-127130952D01*
X179511904Y-126940476D01*
X179559523Y-126845238D01*
X179654761Y-126750000D01*
X179797619Y-126702380D01*
X179892857Y-126702380D01*
X180035714Y-126750000D01*
X180083333Y-126797619D01*
X181035714Y-127702380D02*
X180464285Y-127702380D01*
X180750000Y-127702380D02*
X180750000Y-126702380D01*
X180654761Y-126845238D01*
X180559523Y-126940476D01*
X180464285Y-126988095D01*
X184833333Y-104702380D02*
X184500000Y-104226190D01*
X184261904Y-104702380D02*
X184261904Y-103702380D01*
X184642857Y-103702380D01*
X184738095Y-103750000D01*
X184785714Y-103797619D01*
X184833333Y-103892857D01*
X184833333Y-104035714D01*
X184785714Y-104130952D01*
X184738095Y-104178571D01*
X184642857Y-104226190D01*
X184261904Y-104226190D01*
X185214285Y-103797619D02*
X185261904Y-103750000D01*
X185357142Y-103702380D01*
X185595238Y-103702380D01*
X185690476Y-103750000D01*
X185738095Y-103797619D01*
X185785714Y-103892857D01*
X185785714Y-103988095D01*
X185738095Y-104130952D01*
X185166666Y-104702380D01*
X185785714Y-104702380D01*
X183083333Y-104702380D02*
X182750000Y-104226190D01*
X182511904Y-104702380D02*
X182511904Y-103702380D01*
X182892857Y-103702380D01*
X182988095Y-103750000D01*
X183035714Y-103797619D01*
X183083333Y-103892857D01*
X183083333Y-104035714D01*
X183035714Y-104130952D01*
X182988095Y-104178571D01*
X182892857Y-104226190D01*
X182511904Y-104226190D01*
X184035714Y-104702380D02*
X183464285Y-104702380D01*
X183750000Y-104702380D02*
X183750000Y-103702380D01*
X183654761Y-103845238D01*
X183559523Y-103940476D01*
X183464285Y-103988095D01*
M02*
