G04 #@! TF.GenerationSoftware,KiCad,Pcbnew,5.1.5+dfsg1-2build2*
G04 #@! TF.CreationDate,2022-01-15T14:27:05-08:00*
G04 #@! TF.ProjectId,pcb_v1,7063625f-7631-42e6-9b69-6361645f7063,rev?*
G04 #@! TF.SameCoordinates,Original*
G04 #@! TF.FileFunction,Other,ECO2*
%FSLAX46Y46*%
G04 Gerber Fmt 4.6, Leading zero omitted, Abs format (unit mm)*
G04 Created by KiCad (PCBNEW 5.1.5+dfsg1-2build2) date 2022-01-15 14:27:05*
%MOMM*%
%LPD*%
G04 APERTURE LIST*
%ADD10C,0.254000*%
G04 APERTURE END LIST*
D10*
G36*
X166623000Y-121873000D02*
G01*
X165377000Y-121873000D01*
X165377000Y-121127000D01*
X166623000Y-121127000D01*
X166623000Y-121873000D01*
G37*
X166623000Y-121873000D02*
X165377000Y-121873000D01*
X165377000Y-121127000D01*
X166623000Y-121127000D01*
X166623000Y-121873000D01*
G36*
X171123000Y-121873000D02*
G01*
X169877000Y-121873000D01*
X169877000Y-121127000D01*
X171123000Y-121127000D01*
X171123000Y-121873000D01*
G37*
X171123000Y-121873000D02*
X169877000Y-121873000D01*
X169877000Y-121127000D01*
X171123000Y-121127000D01*
X171123000Y-121873000D01*
G36*
X175623000Y-121873000D02*
G01*
X174377000Y-121873000D01*
X174377000Y-121127000D01*
X175623000Y-121127000D01*
X175623000Y-121873000D01*
G37*
X175623000Y-121873000D02*
X174377000Y-121873000D01*
X174377000Y-121127000D01*
X175623000Y-121127000D01*
X175623000Y-121873000D01*
G36*
X180123000Y-121873000D02*
G01*
X178877000Y-121873000D01*
X178877000Y-121127000D01*
X180123000Y-121127000D01*
X180123000Y-121873000D01*
G37*
X180123000Y-121873000D02*
X178877000Y-121873000D01*
X178877000Y-121127000D01*
X180123000Y-121127000D01*
X180123000Y-121873000D01*
G36*
X169373000Y-103623000D02*
G01*
X166377000Y-103623000D01*
X166377000Y-102500000D01*
X166374560Y-102475224D01*
X166367333Y-102451399D01*
X166355597Y-102429443D01*
X166339803Y-102410197D01*
X166320557Y-102394403D01*
X166298601Y-102382667D01*
X166274776Y-102375440D01*
X166250000Y-102373000D01*
X160627000Y-102373000D01*
X160627000Y-97627000D01*
X166500000Y-97627000D01*
X166524776Y-97624560D01*
X166548601Y-97617333D01*
X166570557Y-97605597D01*
X166589803Y-97589803D01*
X166605597Y-97570557D01*
X166617333Y-97548601D01*
X166624560Y-97524776D01*
X166627000Y-97500000D01*
X166627000Y-91877000D01*
X169373000Y-91877000D01*
X169373000Y-103623000D01*
G37*
X169373000Y-103623000D02*
X166377000Y-103623000D01*
X166377000Y-102500000D01*
X166374560Y-102475224D01*
X166367333Y-102451399D01*
X166355597Y-102429443D01*
X166339803Y-102410197D01*
X166320557Y-102394403D01*
X166298601Y-102382667D01*
X166274776Y-102375440D01*
X166250000Y-102373000D01*
X160627000Y-102373000D01*
X160627000Y-97627000D01*
X166500000Y-97627000D01*
X166524776Y-97624560D01*
X166548601Y-97617333D01*
X166570557Y-97605597D01*
X166589803Y-97589803D01*
X166605597Y-97570557D01*
X166617333Y-97548601D01*
X166624560Y-97524776D01*
X166627000Y-97500000D01*
X166627000Y-91877000D01*
X169373000Y-91877000D01*
X169373000Y-103623000D01*
M02*
