G04 #@! TF.GenerationSoftware,KiCad,Pcbnew,5.1.5+dfsg1-2build2*
G04 #@! TF.CreationDate,2022-01-22T12:50:49-08:00*
G04 #@! TF.ProjectId,pcb_v1,7063625f-7631-42e6-9b69-6361645f7063,rev?*
G04 #@! TF.SameCoordinates,Original*
G04 #@! TF.FileFunction,Other,Comment*
%FSLAX46Y46*%
G04 Gerber Fmt 4.6, Leading zero omitted, Abs format (unit mm)*
G04 Created by KiCad (PCBNEW 5.1.5+dfsg1-2build2) date 2022-01-22 12:50:49*
%MOMM*%
%LPD*%
G04 APERTURE LIST*
%ADD10C,0.150000*%
%ADD11C,0.070000*%
G04 APERTURE END LIST*
D10*
X191585595Y-103202380D02*
X191585595Y-102202380D01*
X191918928Y-102916666D01*
X192252261Y-102202380D01*
X192252261Y-103202380D01*
X193157023Y-103202380D02*
X193157023Y-102678571D01*
X193109404Y-102583333D01*
X193014166Y-102535714D01*
X192823690Y-102535714D01*
X192728452Y-102583333D01*
X193157023Y-103154761D02*
X193061785Y-103202380D01*
X192823690Y-103202380D01*
X192728452Y-103154761D01*
X192680833Y-103059523D01*
X192680833Y-102964285D01*
X192728452Y-102869047D01*
X192823690Y-102821428D01*
X193061785Y-102821428D01*
X193157023Y-102773809D01*
X193633214Y-102535714D02*
X193633214Y-103202380D01*
X193633214Y-102630952D02*
X193680833Y-102583333D01*
X193776071Y-102535714D01*
X193918928Y-102535714D01*
X194014166Y-102583333D01*
X194061785Y-102678571D01*
X194061785Y-103202380D01*
X194966547Y-102535714D02*
X194966547Y-103202380D01*
X194537976Y-102535714D02*
X194537976Y-103059523D01*
X194585595Y-103154761D01*
X194680833Y-103202380D01*
X194823690Y-103202380D01*
X194918928Y-103154761D01*
X194966547Y-103107142D01*
X195299880Y-102535714D02*
X195680833Y-102535714D01*
X195442738Y-103202380D02*
X195442738Y-102345238D01*
X195490357Y-102250000D01*
X195585595Y-102202380D01*
X195680833Y-102202380D01*
X196442738Y-103202380D02*
X196442738Y-102678571D01*
X196395119Y-102583333D01*
X196299880Y-102535714D01*
X196109404Y-102535714D01*
X196014166Y-102583333D01*
X196442738Y-103154761D02*
X196347500Y-103202380D01*
X196109404Y-103202380D01*
X196014166Y-103154761D01*
X195966547Y-103059523D01*
X195966547Y-102964285D01*
X196014166Y-102869047D01*
X196109404Y-102821428D01*
X196347500Y-102821428D01*
X196442738Y-102773809D01*
X197347500Y-103154761D02*
X197252261Y-103202380D01*
X197061785Y-103202380D01*
X196966547Y-103154761D01*
X196918928Y-103107142D01*
X196871309Y-103011904D01*
X196871309Y-102726190D01*
X196918928Y-102630952D01*
X196966547Y-102583333D01*
X197061785Y-102535714D01*
X197252261Y-102535714D01*
X197347500Y-102583333D01*
X197633214Y-102535714D02*
X198014166Y-102535714D01*
X197776071Y-102202380D02*
X197776071Y-103059523D01*
X197823690Y-103154761D01*
X197918928Y-103202380D01*
X198014166Y-103202380D01*
X198776071Y-102535714D02*
X198776071Y-103202380D01*
X198347500Y-102535714D02*
X198347500Y-103059523D01*
X198395119Y-103154761D01*
X198490357Y-103202380D01*
X198633214Y-103202380D01*
X198728452Y-103154761D01*
X198776071Y-103107142D01*
X199252261Y-103202380D02*
X199252261Y-102535714D01*
X199252261Y-102726190D02*
X199299880Y-102630952D01*
X199347500Y-102583333D01*
X199442738Y-102535714D01*
X199537976Y-102535714D01*
X199871309Y-103202380D02*
X199871309Y-102535714D01*
X199871309Y-102202380D02*
X199823690Y-102250000D01*
X199871309Y-102297619D01*
X199918928Y-102250000D01*
X199871309Y-102202380D01*
X199871309Y-102297619D01*
X200347500Y-102535714D02*
X200347500Y-103202380D01*
X200347500Y-102630952D02*
X200395119Y-102583333D01*
X200490357Y-102535714D01*
X200633214Y-102535714D01*
X200728452Y-102583333D01*
X200776071Y-102678571D01*
X200776071Y-103202380D01*
X201680833Y-102535714D02*
X201680833Y-103345238D01*
X201633214Y-103440476D01*
X201585595Y-103488095D01*
X201490357Y-103535714D01*
X201347500Y-103535714D01*
X201252261Y-103488095D01*
X201680833Y-103154761D02*
X201585595Y-103202380D01*
X201395119Y-103202380D01*
X201299880Y-103154761D01*
X201252261Y-103107142D01*
X201204642Y-103011904D01*
X201204642Y-102726190D01*
X201252261Y-102630952D01*
X201299880Y-102583333D01*
X201395119Y-102535714D01*
X201585595Y-102535714D01*
X201680833Y-102583333D01*
X203490357Y-103202380D02*
X203157023Y-102726190D01*
X202918928Y-103202380D02*
X202918928Y-102202380D01*
X203299880Y-102202380D01*
X203395119Y-102250000D01*
X203442738Y-102297619D01*
X203490357Y-102392857D01*
X203490357Y-102535714D01*
X203442738Y-102630952D01*
X203395119Y-102678571D01*
X203299880Y-102726190D01*
X202918928Y-102726190D01*
X204299880Y-103154761D02*
X204204642Y-103202380D01*
X204014166Y-103202380D01*
X203918928Y-103154761D01*
X203871309Y-103059523D01*
X203871309Y-102678571D01*
X203918928Y-102583333D01*
X204014166Y-102535714D01*
X204204642Y-102535714D01*
X204299880Y-102583333D01*
X204347500Y-102678571D01*
X204347500Y-102773809D01*
X203871309Y-102869047D01*
X205204642Y-102535714D02*
X205204642Y-103535714D01*
X205204642Y-103154761D02*
X205109404Y-103202380D01*
X204918928Y-103202380D01*
X204823690Y-103154761D01*
X204776071Y-103107142D01*
X204728452Y-103011904D01*
X204728452Y-102726190D01*
X204776071Y-102630952D01*
X204823690Y-102583333D01*
X204918928Y-102535714D01*
X205109404Y-102535714D01*
X205204642Y-102583333D01*
X206109404Y-102535714D02*
X206109404Y-103202380D01*
X205680833Y-102535714D02*
X205680833Y-103059523D01*
X205728452Y-103154761D01*
X205823690Y-103202380D01*
X205966547Y-103202380D01*
X206061785Y-103154761D01*
X206109404Y-103107142D01*
X206585595Y-103202380D02*
X206585595Y-102535714D01*
X206585595Y-102202380D02*
X206537976Y-102250000D01*
X206585595Y-102297619D01*
X206633214Y-102250000D01*
X206585595Y-102202380D01*
X206585595Y-102297619D01*
X207061785Y-103202380D02*
X207061785Y-102535714D01*
X207061785Y-102726190D02*
X207109404Y-102630952D01*
X207157023Y-102583333D01*
X207252261Y-102535714D01*
X207347500Y-102535714D01*
X208061785Y-103154761D02*
X207966547Y-103202380D01*
X207776071Y-103202380D01*
X207680833Y-103154761D01*
X207633214Y-103059523D01*
X207633214Y-102678571D01*
X207680833Y-102583333D01*
X207776071Y-102535714D01*
X207966547Y-102535714D01*
X208061785Y-102583333D01*
X208109404Y-102678571D01*
X208109404Y-102773809D01*
X207633214Y-102869047D01*
X208537976Y-103202380D02*
X208537976Y-102535714D01*
X208537976Y-102630952D02*
X208585595Y-102583333D01*
X208680833Y-102535714D01*
X208823690Y-102535714D01*
X208918928Y-102583333D01*
X208966547Y-102678571D01*
X208966547Y-103202380D01*
X208966547Y-102678571D02*
X209014166Y-102583333D01*
X209109404Y-102535714D01*
X209252261Y-102535714D01*
X209347500Y-102583333D01*
X209395119Y-102678571D01*
X209395119Y-103202380D01*
X210252261Y-103154761D02*
X210157023Y-103202380D01*
X209966547Y-103202380D01*
X209871309Y-103154761D01*
X209823690Y-103059523D01*
X209823690Y-102678571D01*
X209871309Y-102583333D01*
X209966547Y-102535714D01*
X210157023Y-102535714D01*
X210252261Y-102583333D01*
X210299880Y-102678571D01*
X210299880Y-102773809D01*
X209823690Y-102869047D01*
X210728452Y-102535714D02*
X210728452Y-103202380D01*
X210728452Y-102630952D02*
X210776071Y-102583333D01*
X210871309Y-102535714D01*
X211014166Y-102535714D01*
X211109404Y-102583333D01*
X211157023Y-102678571D01*
X211157023Y-103202380D01*
X211490357Y-102535714D02*
X211871309Y-102535714D01*
X211633214Y-102202380D02*
X211633214Y-103059523D01*
X211680833Y-103154761D01*
X211776071Y-103202380D01*
X211871309Y-103202380D01*
X212157023Y-103154761D02*
X212252261Y-103202380D01*
X212442738Y-103202380D01*
X212537976Y-103154761D01*
X212585595Y-103059523D01*
X212585595Y-103011904D01*
X212537976Y-102916666D01*
X212442738Y-102869047D01*
X212299880Y-102869047D01*
X212204642Y-102821428D01*
X212157023Y-102726190D01*
X212157023Y-102678571D01*
X212204642Y-102583333D01*
X212299880Y-102535714D01*
X212442738Y-102535714D01*
X212537976Y-102583333D01*
X192109404Y-104852380D02*
X191537976Y-104852380D01*
X191823690Y-104852380D02*
X191823690Y-103852380D01*
X191728452Y-103995238D01*
X191633214Y-104090476D01*
X191537976Y-104138095D01*
X192537976Y-104757142D02*
X192585595Y-104804761D01*
X192537976Y-104852380D01*
X192490357Y-104804761D01*
X192537976Y-104757142D01*
X192537976Y-104852380D01*
X193633214Y-103852380D02*
X194204642Y-103852380D01*
X193918928Y-104852380D02*
X193918928Y-103852380D01*
X194537976Y-104852380D02*
X194537976Y-103852380D01*
X194966547Y-104852380D02*
X194966547Y-104328571D01*
X194918928Y-104233333D01*
X194823690Y-104185714D01*
X194680833Y-104185714D01*
X194585595Y-104233333D01*
X194537976Y-104280952D01*
X195442738Y-104852380D02*
X195442738Y-104185714D01*
X195442738Y-103852380D02*
X195395119Y-103900000D01*
X195442738Y-103947619D01*
X195490357Y-103900000D01*
X195442738Y-103852380D01*
X195442738Y-103947619D01*
X195918928Y-104185714D02*
X195918928Y-104852380D01*
X195918928Y-104280952D02*
X195966547Y-104233333D01*
X196061785Y-104185714D01*
X196204642Y-104185714D01*
X196299880Y-104233333D01*
X196347500Y-104328571D01*
X196347500Y-104852380D01*
X197585595Y-104852380D02*
X197585595Y-103852380D01*
X197966547Y-103852380D01*
X198061785Y-103900000D01*
X198109404Y-103947619D01*
X198157023Y-104042857D01*
X198157023Y-104185714D01*
X198109404Y-104280952D01*
X198061785Y-104328571D01*
X197966547Y-104376190D01*
X197585595Y-104376190D01*
X199157023Y-104757142D02*
X199109404Y-104804761D01*
X198966547Y-104852380D01*
X198871309Y-104852380D01*
X198728452Y-104804761D01*
X198633214Y-104709523D01*
X198585595Y-104614285D01*
X198537976Y-104423809D01*
X198537976Y-104280952D01*
X198585595Y-104090476D01*
X198633214Y-103995238D01*
X198728452Y-103900000D01*
X198871309Y-103852380D01*
X198966547Y-103852380D01*
X199109404Y-103900000D01*
X199157023Y-103947619D01*
X199918928Y-104328571D02*
X200061785Y-104376190D01*
X200109404Y-104423809D01*
X200157023Y-104519047D01*
X200157023Y-104661904D01*
X200109404Y-104757142D01*
X200061785Y-104804761D01*
X199966547Y-104852380D01*
X199585595Y-104852380D01*
X199585595Y-103852380D01*
X199918928Y-103852380D01*
X200014166Y-103900000D01*
X200061785Y-103947619D01*
X200109404Y-104042857D01*
X200109404Y-104138095D01*
X200061785Y-104233333D01*
X200014166Y-104280952D01*
X199918928Y-104328571D01*
X199585595Y-104328571D01*
X201204642Y-104185714D02*
X201585595Y-104185714D01*
X201347500Y-103852380D02*
X201347500Y-104709523D01*
X201395119Y-104804761D01*
X201490357Y-104852380D01*
X201585595Y-104852380D01*
X201918928Y-104852380D02*
X201918928Y-103852380D01*
X202347500Y-104852380D02*
X202347500Y-104328571D01*
X202299880Y-104233333D01*
X202204642Y-104185714D01*
X202061785Y-104185714D01*
X201966547Y-104233333D01*
X201918928Y-104280952D01*
X202823690Y-104852380D02*
X202823690Y-104185714D01*
X202823690Y-103852380D02*
X202776071Y-103900000D01*
X202823690Y-103947619D01*
X202871309Y-103900000D01*
X202823690Y-103852380D01*
X202823690Y-103947619D01*
X203728452Y-104804761D02*
X203633214Y-104852380D01*
X203442738Y-104852380D01*
X203347500Y-104804761D01*
X203299880Y-104757142D01*
X203252261Y-104661904D01*
X203252261Y-104376190D01*
X203299880Y-104280952D01*
X203347500Y-104233333D01*
X203442738Y-104185714D01*
X203633214Y-104185714D01*
X203728452Y-104233333D01*
X204157023Y-104852380D02*
X204157023Y-103852380D01*
X204252261Y-104471428D02*
X204537976Y-104852380D01*
X204537976Y-104185714D02*
X204157023Y-104566666D01*
X204966547Y-104185714D02*
X204966547Y-104852380D01*
X204966547Y-104280952D02*
X205014166Y-104233333D01*
X205109404Y-104185714D01*
X205252261Y-104185714D01*
X205347500Y-104233333D01*
X205395119Y-104328571D01*
X205395119Y-104852380D01*
X206252261Y-104804761D02*
X206157023Y-104852380D01*
X205966547Y-104852380D01*
X205871309Y-104804761D01*
X205823690Y-104709523D01*
X205823690Y-104328571D01*
X205871309Y-104233333D01*
X205966547Y-104185714D01*
X206157023Y-104185714D01*
X206252261Y-104233333D01*
X206299880Y-104328571D01*
X206299880Y-104423809D01*
X205823690Y-104519047D01*
X206680833Y-104804761D02*
X206776071Y-104852380D01*
X206966547Y-104852380D01*
X207061785Y-104804761D01*
X207109404Y-104709523D01*
X207109404Y-104661904D01*
X207061785Y-104566666D01*
X206966547Y-104519047D01*
X206823690Y-104519047D01*
X206728452Y-104471428D01*
X206680833Y-104376190D01*
X206680833Y-104328571D01*
X206728452Y-104233333D01*
X206823690Y-104185714D01*
X206966547Y-104185714D01*
X207061785Y-104233333D01*
X207490357Y-104804761D02*
X207585595Y-104852380D01*
X207776071Y-104852380D01*
X207871309Y-104804761D01*
X207918928Y-104709523D01*
X207918928Y-104661904D01*
X207871309Y-104566666D01*
X207776071Y-104519047D01*
X207633214Y-104519047D01*
X207537976Y-104471428D01*
X207490357Y-104376190D01*
X207490357Y-104328571D01*
X207537976Y-104233333D01*
X207633214Y-104185714D01*
X207776071Y-104185714D01*
X207871309Y-104233333D01*
X209395119Y-105233333D02*
X209347500Y-105185714D01*
X209252261Y-105042857D01*
X209204642Y-104947619D01*
X209157023Y-104804761D01*
X209109404Y-104566666D01*
X209109404Y-104376190D01*
X209157023Y-104138095D01*
X209204642Y-103995238D01*
X209252261Y-103900000D01*
X209347500Y-103757142D01*
X209395119Y-103709523D01*
X209966547Y-103852380D02*
X210061785Y-103852380D01*
X210157023Y-103900000D01*
X210204642Y-103947619D01*
X210252261Y-104042857D01*
X210299880Y-104233333D01*
X210299880Y-104471428D01*
X210252261Y-104661904D01*
X210204642Y-104757142D01*
X210157023Y-104804761D01*
X210061785Y-104852380D01*
X209966547Y-104852380D01*
X209871309Y-104804761D01*
X209823690Y-104757142D01*
X209776071Y-104661904D01*
X209728452Y-104471428D01*
X209728452Y-104233333D01*
X209776071Y-104042857D01*
X209823690Y-103947619D01*
X209871309Y-103900000D01*
X209966547Y-103852380D01*
X210728452Y-104757142D02*
X210776071Y-104804761D01*
X210728452Y-104852380D01*
X210680833Y-104804761D01*
X210728452Y-104757142D01*
X210728452Y-104852380D01*
X211109404Y-103852380D02*
X211728452Y-103852380D01*
X211395119Y-104233333D01*
X211537976Y-104233333D01*
X211633214Y-104280952D01*
X211680833Y-104328571D01*
X211728452Y-104423809D01*
X211728452Y-104661904D01*
X211680833Y-104757142D01*
X211633214Y-104804761D01*
X211537976Y-104852380D01*
X211252261Y-104852380D01*
X211157023Y-104804761D01*
X211109404Y-104757142D01*
X212157023Y-104852380D02*
X212157023Y-104185714D01*
X212157023Y-104280952D02*
X212204642Y-104233333D01*
X212299880Y-104185714D01*
X212442738Y-104185714D01*
X212537976Y-104233333D01*
X212585595Y-104328571D01*
X212585595Y-104852380D01*
X212585595Y-104328571D02*
X212633214Y-104233333D01*
X212728452Y-104185714D01*
X212871309Y-104185714D01*
X212966547Y-104233333D01*
X213014166Y-104328571D01*
X213014166Y-104852380D01*
X213490357Y-104852380D02*
X213490357Y-104185714D01*
X213490357Y-104280952D02*
X213537976Y-104233333D01*
X213633214Y-104185714D01*
X213776071Y-104185714D01*
X213871309Y-104233333D01*
X213918928Y-104328571D01*
X213918928Y-104852380D01*
X213918928Y-104328571D02*
X213966547Y-104233333D01*
X214061785Y-104185714D01*
X214204642Y-104185714D01*
X214299880Y-104233333D01*
X214347500Y-104328571D01*
X214347500Y-104852380D01*
X214728452Y-105233333D02*
X214776071Y-105185714D01*
X214871309Y-105042857D01*
X214918928Y-104947619D01*
X214966547Y-104804761D01*
X215014166Y-104566666D01*
X215014166Y-104376190D01*
X214966547Y-104138095D01*
X214918928Y-103995238D01*
X214871309Y-103900000D01*
X214776071Y-103757142D01*
X214728452Y-103709523D01*
X215537976Y-104804761D02*
X215537976Y-104852380D01*
X215490357Y-104947619D01*
X215442738Y-104995238D01*
X217252261Y-104852380D02*
X216680833Y-104852380D01*
X216966547Y-104852380D02*
X216966547Y-103852380D01*
X216871309Y-103995238D01*
X216776071Y-104090476D01*
X216680833Y-104138095D01*
X217871309Y-103852380D02*
X217966547Y-103852380D01*
X218061785Y-103900000D01*
X218109404Y-103947619D01*
X218157023Y-104042857D01*
X218204642Y-104233333D01*
X218204642Y-104471428D01*
X218157023Y-104661904D01*
X218109404Y-104757142D01*
X218061785Y-104804761D01*
X217966547Y-104852380D01*
X217871309Y-104852380D01*
X217776071Y-104804761D01*
X217728452Y-104757142D01*
X217680833Y-104661904D01*
X217633214Y-104471428D01*
X217633214Y-104233333D01*
X217680833Y-104042857D01*
X217728452Y-103947619D01*
X217776071Y-103900000D01*
X217871309Y-103852380D01*
X218585595Y-104852380D02*
X219347500Y-103852380D01*
X218728452Y-103852380D02*
X218823690Y-103900000D01*
X218871309Y-103995238D01*
X218823690Y-104090476D01*
X218728452Y-104138095D01*
X218633214Y-104090476D01*
X218585595Y-103995238D01*
X218633214Y-103900000D01*
X218728452Y-103852380D01*
X219299880Y-104804761D02*
X219347500Y-104709523D01*
X219299880Y-104614285D01*
X219204642Y-104566666D01*
X219109404Y-104614285D01*
X219061785Y-104709523D01*
X219109404Y-104804761D01*
X219204642Y-104852380D01*
X219299880Y-104804761D01*
X220395119Y-104185714D02*
X220776071Y-104185714D01*
X220537976Y-103852380D02*
X220537976Y-104709523D01*
X220585595Y-104804761D01*
X220680833Y-104852380D01*
X220776071Y-104852380D01*
X221252261Y-104852380D02*
X221157023Y-104804761D01*
X221109404Y-104757142D01*
X221061785Y-104661904D01*
X221061785Y-104376190D01*
X221109404Y-104280952D01*
X221157023Y-104233333D01*
X221252261Y-104185714D01*
X221395119Y-104185714D01*
X221490357Y-104233333D01*
X221537976Y-104280952D01*
X221585595Y-104376190D01*
X221585595Y-104661904D01*
X221537976Y-104757142D01*
X221490357Y-104804761D01*
X221395119Y-104852380D01*
X221252261Y-104852380D01*
X222157023Y-104852380D02*
X222061785Y-104804761D01*
X222014166Y-104709523D01*
X222014166Y-103852380D01*
X222918928Y-104804761D02*
X222823690Y-104852380D01*
X222633214Y-104852380D01*
X222537976Y-104804761D01*
X222490357Y-104709523D01*
X222490357Y-104328571D01*
X222537976Y-104233333D01*
X222633214Y-104185714D01*
X222823690Y-104185714D01*
X222918928Y-104233333D01*
X222966547Y-104328571D01*
X222966547Y-104423809D01*
X222490357Y-104519047D01*
X223395119Y-104852380D02*
X223395119Y-104185714D01*
X223395119Y-104376190D02*
X223442738Y-104280952D01*
X223490357Y-104233333D01*
X223585595Y-104185714D01*
X223680833Y-104185714D01*
X224442738Y-104852380D02*
X224442738Y-104328571D01*
X224395119Y-104233333D01*
X224299880Y-104185714D01*
X224109404Y-104185714D01*
X224014166Y-104233333D01*
X224442738Y-104804761D02*
X224347500Y-104852380D01*
X224109404Y-104852380D01*
X224014166Y-104804761D01*
X223966547Y-104709523D01*
X223966547Y-104614285D01*
X224014166Y-104519047D01*
X224109404Y-104471428D01*
X224347500Y-104471428D01*
X224442738Y-104423809D01*
X224918928Y-104185714D02*
X224918928Y-104852380D01*
X224918928Y-104280952D02*
X224966547Y-104233333D01*
X225061785Y-104185714D01*
X225204642Y-104185714D01*
X225299880Y-104233333D01*
X225347500Y-104328571D01*
X225347500Y-104852380D01*
X226252261Y-104804761D02*
X226157023Y-104852380D01*
X225966547Y-104852380D01*
X225871309Y-104804761D01*
X225823690Y-104757142D01*
X225776071Y-104661904D01*
X225776071Y-104376190D01*
X225823690Y-104280952D01*
X225871309Y-104233333D01*
X225966547Y-104185714D01*
X226157023Y-104185714D01*
X226252261Y-104233333D01*
X227061785Y-104804761D02*
X226966547Y-104852380D01*
X226776071Y-104852380D01*
X226680833Y-104804761D01*
X226633214Y-104709523D01*
X226633214Y-104328571D01*
X226680833Y-104233333D01*
X226776071Y-104185714D01*
X226966547Y-104185714D01*
X227061785Y-104233333D01*
X227109404Y-104328571D01*
X227109404Y-104423809D01*
X226633214Y-104519047D01*
X191537976Y-105597619D02*
X191585595Y-105550000D01*
X191680833Y-105502380D01*
X191918928Y-105502380D01*
X192014166Y-105550000D01*
X192061785Y-105597619D01*
X192109404Y-105692857D01*
X192109404Y-105788095D01*
X192061785Y-105930952D01*
X191490357Y-106502380D01*
X192109404Y-106502380D01*
X192537976Y-106407142D02*
X192585595Y-106454761D01*
X192537976Y-106502380D01*
X192490357Y-106454761D01*
X192537976Y-106407142D01*
X192537976Y-106502380D01*
X194109404Y-105978571D02*
X193776071Y-105978571D01*
X193776071Y-106502380D02*
X193776071Y-105502380D01*
X194252261Y-105502380D01*
X195204642Y-106502380D02*
X194871309Y-106026190D01*
X194633214Y-106502380D02*
X194633214Y-105502380D01*
X195014166Y-105502380D01*
X195109404Y-105550000D01*
X195157023Y-105597619D01*
X195204642Y-105692857D01*
X195204642Y-105835714D01*
X195157023Y-105930952D01*
X195109404Y-105978571D01*
X195014166Y-106026190D01*
X194633214Y-106026190D01*
X196061785Y-105835714D02*
X196061785Y-106502380D01*
X195823690Y-105454761D02*
X195585595Y-106169047D01*
X196204642Y-106169047D01*
X197871309Y-106502380D02*
X197299880Y-106502380D01*
X197585595Y-106502380D02*
X197585595Y-105502380D01*
X197490357Y-105645238D01*
X197395119Y-105740476D01*
X197299880Y-105788095D01*
X198204642Y-105502380D02*
X198823690Y-105502380D01*
X198490357Y-105883333D01*
X198633214Y-105883333D01*
X198728452Y-105930952D01*
X198776071Y-105978571D01*
X198823690Y-106073809D01*
X198823690Y-106311904D01*
X198776071Y-106407142D01*
X198728452Y-106454761D01*
X198633214Y-106502380D01*
X198347500Y-106502380D01*
X198252261Y-106454761D01*
X198204642Y-106407142D01*
X199728452Y-105502380D02*
X199252261Y-105502380D01*
X199204642Y-105978571D01*
X199252261Y-105930952D01*
X199347500Y-105883333D01*
X199585595Y-105883333D01*
X199680833Y-105930952D01*
X199728452Y-105978571D01*
X199776071Y-106073809D01*
X199776071Y-106311904D01*
X199728452Y-106407142D01*
X199680833Y-106454761D01*
X199585595Y-106502380D01*
X199347500Y-106502380D01*
X199252261Y-106454761D01*
X199204642Y-106407142D01*
X200061785Y-105835714D02*
X200442738Y-105835714D01*
X200204642Y-105502380D02*
X200204642Y-106359523D01*
X200252261Y-106454761D01*
X200347500Y-106502380D01*
X200442738Y-106502380D01*
X201204642Y-105835714D02*
X201204642Y-106645238D01*
X201157023Y-106740476D01*
X201109404Y-106788095D01*
X201014166Y-106835714D01*
X200871309Y-106835714D01*
X200776071Y-106788095D01*
X201204642Y-106454761D02*
X201109404Y-106502380D01*
X200918928Y-106502380D01*
X200823690Y-106454761D01*
X200776071Y-106407142D01*
X200728452Y-106311904D01*
X200728452Y-106026190D01*
X200776071Y-105930952D01*
X200823690Y-105883333D01*
X200918928Y-105835714D01*
X201109404Y-105835714D01*
X201204642Y-105883333D01*
X201680833Y-106121428D02*
X202442738Y-106121428D01*
X202823690Y-105502380D02*
X203442738Y-105502380D01*
X203109404Y-105883333D01*
X203252261Y-105883333D01*
X203347500Y-105930952D01*
X203395119Y-105978571D01*
X203442738Y-106073809D01*
X203442738Y-106311904D01*
X203395119Y-106407142D01*
X203347500Y-106454761D01*
X203252261Y-106502380D01*
X202966547Y-106502380D01*
X202871309Y-106454761D01*
X202823690Y-106407142D01*
X204395119Y-106502380D02*
X203823690Y-106502380D01*
X204109404Y-106502380D02*
X204109404Y-105502380D01*
X204014166Y-105645238D01*
X203918928Y-105740476D01*
X203823690Y-105788095D01*
X205014166Y-105502380D02*
X205109404Y-105502380D01*
X205204642Y-105550000D01*
X205252261Y-105597619D01*
X205299880Y-105692857D01*
X205347500Y-105883333D01*
X205347500Y-106121428D01*
X205299880Y-106311904D01*
X205252261Y-106407142D01*
X205204642Y-106454761D01*
X205109404Y-106502380D01*
X205014166Y-106502380D01*
X204918928Y-106454761D01*
X204871309Y-106407142D01*
X204823690Y-106311904D01*
X204776071Y-106121428D01*
X204776071Y-105883333D01*
X204823690Y-105692857D01*
X204871309Y-105597619D01*
X204918928Y-105550000D01*
X205014166Y-105502380D01*
X205633214Y-105835714D02*
X206014166Y-105835714D01*
X205776071Y-105502380D02*
X205776071Y-106359523D01*
X205823690Y-106454761D01*
X205918928Y-106502380D01*
X206014166Y-106502380D01*
X206776071Y-106502380D02*
X206776071Y-105502380D01*
X206776071Y-106454761D02*
X206680833Y-106502380D01*
X206490357Y-106502380D01*
X206395119Y-106454761D01*
X206347500Y-106407142D01*
X206299880Y-106311904D01*
X206299880Y-106026190D01*
X206347500Y-105930952D01*
X206395119Y-105883333D01*
X206490357Y-105835714D01*
X206680833Y-105835714D01*
X206776071Y-105883333D01*
X208157023Y-106502380D02*
X208061785Y-106454761D01*
X208014166Y-106359523D01*
X208014166Y-105502380D01*
X208966547Y-106502380D02*
X208966547Y-105978571D01*
X208918928Y-105883333D01*
X208823690Y-105835714D01*
X208633214Y-105835714D01*
X208537976Y-105883333D01*
X208966547Y-106454761D02*
X208871309Y-106502380D01*
X208633214Y-106502380D01*
X208537976Y-106454761D01*
X208490357Y-106359523D01*
X208490357Y-106264285D01*
X208537976Y-106169047D01*
X208633214Y-106121428D01*
X208871309Y-106121428D01*
X208966547Y-106073809D01*
X209442738Y-106502380D02*
X209442738Y-105835714D01*
X209442738Y-105930952D02*
X209490357Y-105883333D01*
X209585595Y-105835714D01*
X209728452Y-105835714D01*
X209823690Y-105883333D01*
X209871309Y-105978571D01*
X209871309Y-106502380D01*
X209871309Y-105978571D02*
X209918928Y-105883333D01*
X210014166Y-105835714D01*
X210157023Y-105835714D01*
X210252261Y-105883333D01*
X210299880Y-105978571D01*
X210299880Y-106502380D01*
X210776071Y-106502380D02*
X210776071Y-105835714D01*
X210776071Y-105502380D02*
X210728452Y-105550000D01*
X210776071Y-105597619D01*
X210823690Y-105550000D01*
X210776071Y-105502380D01*
X210776071Y-105597619D01*
X211252261Y-105835714D02*
X211252261Y-106502380D01*
X211252261Y-105930952D02*
X211299880Y-105883333D01*
X211395119Y-105835714D01*
X211537976Y-105835714D01*
X211633214Y-105883333D01*
X211680833Y-105978571D01*
X211680833Y-106502380D01*
X212585595Y-106502380D02*
X212585595Y-105978571D01*
X212537976Y-105883333D01*
X212442738Y-105835714D01*
X212252261Y-105835714D01*
X212157023Y-105883333D01*
X212585595Y-106454761D02*
X212490357Y-106502380D01*
X212252261Y-106502380D01*
X212157023Y-106454761D01*
X212109404Y-106359523D01*
X212109404Y-106264285D01*
X212157023Y-106169047D01*
X212252261Y-106121428D01*
X212490357Y-106121428D01*
X212585595Y-106073809D01*
X212918928Y-105835714D02*
X213299880Y-105835714D01*
X213061785Y-105502380D02*
X213061785Y-106359523D01*
X213109404Y-106454761D01*
X213204642Y-106502380D01*
X213299880Y-106502380D01*
X214014166Y-106454761D02*
X213918928Y-106502380D01*
X213728452Y-106502380D01*
X213633214Y-106454761D01*
X213585595Y-106359523D01*
X213585595Y-105978571D01*
X213633214Y-105883333D01*
X213728452Y-105835714D01*
X213918928Y-105835714D01*
X214014166Y-105883333D01*
X214061785Y-105978571D01*
X214061785Y-106073809D01*
X213585595Y-106169047D01*
X191490357Y-107152380D02*
X192109404Y-107152380D01*
X191776071Y-107533333D01*
X191918928Y-107533333D01*
X192014166Y-107580952D01*
X192061785Y-107628571D01*
X192109404Y-107723809D01*
X192109404Y-107961904D01*
X192061785Y-108057142D01*
X192014166Y-108104761D01*
X191918928Y-108152380D01*
X191633214Y-108152380D01*
X191537976Y-108104761D01*
X191490357Y-108057142D01*
X192537976Y-108057142D02*
X192585595Y-108104761D01*
X192537976Y-108152380D01*
X192490357Y-108104761D01*
X192537976Y-108057142D01*
X192537976Y-108152380D01*
X194347500Y-108057142D02*
X194299880Y-108104761D01*
X194157023Y-108152380D01*
X194061785Y-108152380D01*
X193918928Y-108104761D01*
X193823690Y-108009523D01*
X193776071Y-107914285D01*
X193728452Y-107723809D01*
X193728452Y-107580952D01*
X193776071Y-107390476D01*
X193823690Y-107295238D01*
X193918928Y-107200000D01*
X194061785Y-107152380D01*
X194157023Y-107152380D01*
X194299880Y-107200000D01*
X194347500Y-107247619D01*
X194918928Y-108152380D02*
X194823690Y-108104761D01*
X194776071Y-108057142D01*
X194728452Y-107961904D01*
X194728452Y-107676190D01*
X194776071Y-107580952D01*
X194823690Y-107533333D01*
X194918928Y-107485714D01*
X195061785Y-107485714D01*
X195157023Y-107533333D01*
X195204642Y-107580952D01*
X195252261Y-107676190D01*
X195252261Y-107961904D01*
X195204642Y-108057142D01*
X195157023Y-108104761D01*
X195061785Y-108152380D01*
X194918928Y-108152380D01*
X195680833Y-107485714D02*
X195680833Y-108485714D01*
X195680833Y-107533333D02*
X195776071Y-107485714D01*
X195966547Y-107485714D01*
X196061785Y-107533333D01*
X196109404Y-107580952D01*
X196157023Y-107676190D01*
X196157023Y-107961904D01*
X196109404Y-108057142D01*
X196061785Y-108104761D01*
X195966547Y-108152380D01*
X195776071Y-108152380D01*
X195680833Y-108104761D01*
X196585595Y-107485714D02*
X196585595Y-108485714D01*
X196585595Y-107533333D02*
X196680833Y-107485714D01*
X196871309Y-107485714D01*
X196966547Y-107533333D01*
X197014166Y-107580952D01*
X197061785Y-107676190D01*
X197061785Y-107961904D01*
X197014166Y-108057142D01*
X196966547Y-108104761D01*
X196871309Y-108152380D01*
X196680833Y-108152380D01*
X196585595Y-108104761D01*
X197871309Y-108104761D02*
X197776071Y-108152380D01*
X197585595Y-108152380D01*
X197490357Y-108104761D01*
X197442738Y-108009523D01*
X197442738Y-107628571D01*
X197490357Y-107533333D01*
X197585595Y-107485714D01*
X197776071Y-107485714D01*
X197871309Y-107533333D01*
X197918928Y-107628571D01*
X197918928Y-107723809D01*
X197442738Y-107819047D01*
X198347500Y-108152380D02*
X198347500Y-107485714D01*
X198347500Y-107676190D02*
X198395119Y-107580952D01*
X198442738Y-107533333D01*
X198537976Y-107485714D01*
X198633214Y-107485714D01*
X200252261Y-108152380D02*
X199680833Y-108152380D01*
X199966547Y-108152380D02*
X199966547Y-107152380D01*
X199871309Y-107295238D01*
X199776071Y-107390476D01*
X199680833Y-107438095D01*
X201395119Y-107104761D02*
X200537976Y-108390476D01*
X201680833Y-107247619D02*
X201728452Y-107200000D01*
X201823690Y-107152380D01*
X202061785Y-107152380D01*
X202157023Y-107200000D01*
X202204642Y-107247619D01*
X202252261Y-107342857D01*
X202252261Y-107438095D01*
X202204642Y-107580952D01*
X201633214Y-108152380D01*
X202252261Y-108152380D01*
X203585595Y-108152380D02*
X203490357Y-108104761D01*
X203442738Y-108057142D01*
X203395119Y-107961904D01*
X203395119Y-107676190D01*
X203442738Y-107580952D01*
X203490357Y-107533333D01*
X203585595Y-107485714D01*
X203728452Y-107485714D01*
X203823690Y-107533333D01*
X203871309Y-107580952D01*
X203918928Y-107676190D01*
X203918928Y-107961904D01*
X203871309Y-108057142D01*
X203823690Y-108104761D01*
X203728452Y-108152380D01*
X203585595Y-108152380D01*
X204252261Y-107485714D02*
X204776071Y-107485714D01*
X204252261Y-108152380D01*
X204776071Y-108152380D01*
X192014166Y-109135714D02*
X192014166Y-109802380D01*
X191776071Y-108754761D02*
X191537976Y-109469047D01*
X192157023Y-109469047D01*
X192537976Y-109707142D02*
X192585595Y-109754761D01*
X192537976Y-109802380D01*
X192490357Y-109754761D01*
X192537976Y-109707142D01*
X192537976Y-109802380D01*
X193776071Y-109278571D02*
X194109404Y-109278571D01*
X194252261Y-109802380D02*
X193776071Y-109802380D01*
X193776071Y-108802380D01*
X194252261Y-108802380D01*
X194680833Y-109802380D02*
X194680833Y-108802380D01*
X195252261Y-109802380D01*
X195252261Y-108802380D01*
X195728452Y-109802380D02*
X195728452Y-108802380D01*
X196728452Y-108850000D02*
X196633214Y-108802380D01*
X196490357Y-108802380D01*
X196347500Y-108850000D01*
X196252261Y-108945238D01*
X196204642Y-109040476D01*
X196157023Y-109230952D01*
X196157023Y-109373809D01*
X196204642Y-109564285D01*
X196252261Y-109659523D01*
X196347500Y-109754761D01*
X196490357Y-109802380D01*
X196585595Y-109802380D01*
X196728452Y-109754761D01*
X196776071Y-109707142D01*
X196776071Y-109373809D01*
X196585595Y-109373809D01*
X197204642Y-109421428D02*
X197966547Y-109421428D01*
X199014166Y-109802380D02*
X198680833Y-109326190D01*
X198442738Y-109802380D02*
X198442738Y-108802380D01*
X198823690Y-108802380D01*
X198918928Y-108850000D01*
X198966547Y-108897619D01*
X199014166Y-108992857D01*
X199014166Y-109135714D01*
X198966547Y-109230952D01*
X198918928Y-109278571D01*
X198823690Y-109326190D01*
X198442738Y-109326190D01*
X199585595Y-109802380D02*
X199490357Y-109754761D01*
X199442738Y-109707142D01*
X199395119Y-109611904D01*
X199395119Y-109326190D01*
X199442738Y-109230952D01*
X199490357Y-109183333D01*
X199585595Y-109135714D01*
X199728452Y-109135714D01*
X199823690Y-109183333D01*
X199871309Y-109230952D01*
X199918928Y-109326190D01*
X199918928Y-109611904D01*
X199871309Y-109707142D01*
X199823690Y-109754761D01*
X199728452Y-109802380D01*
X199585595Y-109802380D01*
X200347500Y-109802380D02*
X200347500Y-108802380D01*
X200347500Y-109278571D02*
X200918928Y-109278571D01*
X200918928Y-109802380D02*
X200918928Y-108802380D01*
X201347500Y-109754761D02*
X201490357Y-109802380D01*
X201728452Y-109802380D01*
X201823690Y-109754761D01*
X201871309Y-109707142D01*
X201918928Y-109611904D01*
X201918928Y-109516666D01*
X201871309Y-109421428D01*
X201823690Y-109373809D01*
X201728452Y-109326190D01*
X201537976Y-109278571D01*
X201442738Y-109230952D01*
X201395119Y-109183333D01*
X201347500Y-109088095D01*
X201347500Y-108992857D01*
X201395119Y-108897619D01*
X201442738Y-108850000D01*
X201537976Y-108802380D01*
X201776071Y-108802380D01*
X201918928Y-108850000D01*
X202966547Y-109135714D02*
X203347500Y-109135714D01*
X203109404Y-109802380D02*
X203109404Y-108945238D01*
X203157023Y-108850000D01*
X203252261Y-108802380D01*
X203347500Y-108802380D01*
X203680833Y-109802380D02*
X203680833Y-109135714D01*
X203680833Y-108802380D02*
X203633214Y-108850000D01*
X203680833Y-108897619D01*
X203728452Y-108850000D01*
X203680833Y-108802380D01*
X203680833Y-108897619D01*
X204157023Y-109135714D02*
X204157023Y-109802380D01*
X204157023Y-109230952D02*
X204204642Y-109183333D01*
X204299880Y-109135714D01*
X204442738Y-109135714D01*
X204537976Y-109183333D01*
X204585595Y-109278571D01*
X204585595Y-109802380D01*
X205061785Y-109802380D02*
X205061785Y-109135714D01*
X205061785Y-108802380D02*
X205014166Y-108850000D01*
X205061785Y-108897619D01*
X205109404Y-108850000D01*
X205061785Y-108802380D01*
X205061785Y-108897619D01*
X205490357Y-109754761D02*
X205585595Y-109802380D01*
X205776071Y-109802380D01*
X205871309Y-109754761D01*
X205918928Y-109659523D01*
X205918928Y-109611904D01*
X205871309Y-109516666D01*
X205776071Y-109469047D01*
X205633214Y-109469047D01*
X205537976Y-109421428D01*
X205490357Y-109326190D01*
X205490357Y-109278571D01*
X205537976Y-109183333D01*
X205633214Y-109135714D01*
X205776071Y-109135714D01*
X205871309Y-109183333D01*
X206347500Y-109802380D02*
X206347500Y-108802380D01*
X206776071Y-109802380D02*
X206776071Y-109278571D01*
X206728452Y-109183333D01*
X206633214Y-109135714D01*
X206490357Y-109135714D01*
X206395119Y-109183333D01*
X206347500Y-109230952D01*
X208442738Y-109802380D02*
X208442738Y-109278571D01*
X208395119Y-109183333D01*
X208299880Y-109135714D01*
X208109404Y-109135714D01*
X208014166Y-109183333D01*
X208442738Y-109754761D02*
X208347500Y-109802380D01*
X208109404Y-109802380D01*
X208014166Y-109754761D01*
X207966547Y-109659523D01*
X207966547Y-109564285D01*
X208014166Y-109469047D01*
X208109404Y-109421428D01*
X208347500Y-109421428D01*
X208442738Y-109373809D01*
X208871309Y-109754761D02*
X208966547Y-109802380D01*
X209157023Y-109802380D01*
X209252261Y-109754761D01*
X209299880Y-109659523D01*
X209299880Y-109611904D01*
X209252261Y-109516666D01*
X209157023Y-109469047D01*
X209014166Y-109469047D01*
X208918928Y-109421428D01*
X208871309Y-109326190D01*
X208871309Y-109278571D01*
X208918928Y-109183333D01*
X209014166Y-109135714D01*
X209157023Y-109135714D01*
X209252261Y-109183333D01*
X210490357Y-109135714D02*
X210490357Y-110135714D01*
X210490357Y-109183333D02*
X210585595Y-109135714D01*
X210776071Y-109135714D01*
X210871309Y-109183333D01*
X210918928Y-109230952D01*
X210966547Y-109326190D01*
X210966547Y-109611904D01*
X210918928Y-109707142D01*
X210871309Y-109754761D01*
X210776071Y-109802380D01*
X210585595Y-109802380D01*
X210490357Y-109754761D01*
X211776071Y-109754761D02*
X211680833Y-109802380D01*
X211490357Y-109802380D01*
X211395119Y-109754761D01*
X211347500Y-109659523D01*
X211347500Y-109278571D01*
X211395119Y-109183333D01*
X211490357Y-109135714D01*
X211680833Y-109135714D01*
X211776071Y-109183333D01*
X211823690Y-109278571D01*
X211823690Y-109373809D01*
X211347500Y-109469047D01*
X212252261Y-109802380D02*
X212252261Y-109135714D01*
X212252261Y-109326190D02*
X212299880Y-109230952D01*
X212347500Y-109183333D01*
X212442738Y-109135714D01*
X212537976Y-109135714D01*
X213633214Y-109802380D02*
X213633214Y-108802380D01*
X214109404Y-109802380D02*
X214109404Y-108802380D01*
X214490357Y-108802380D01*
X214585595Y-108850000D01*
X214633214Y-108897619D01*
X214680833Y-108992857D01*
X214680833Y-109135714D01*
X214633214Y-109230952D01*
X214585595Y-109278571D01*
X214490357Y-109326190D01*
X214109404Y-109326190D01*
X215680833Y-109707142D02*
X215633214Y-109754761D01*
X215490357Y-109802380D01*
X215395119Y-109802380D01*
X215252261Y-109754761D01*
X215157023Y-109659523D01*
X215109404Y-109564285D01*
X215061785Y-109373809D01*
X215061785Y-109230952D01*
X215109404Y-109040476D01*
X215157023Y-108945238D01*
X215252261Y-108850000D01*
X215395119Y-108802380D01*
X215490357Y-108802380D01*
X215633214Y-108850000D01*
X215680833Y-108897619D01*
X216109404Y-109421428D02*
X216871309Y-109421428D01*
X217776071Y-109135714D02*
X217776071Y-109802380D01*
X217537976Y-108754761D02*
X217299880Y-109469047D01*
X217918928Y-109469047D01*
X218776071Y-108802380D02*
X218299880Y-108802380D01*
X218252261Y-109278571D01*
X218299880Y-109230952D01*
X218395119Y-109183333D01*
X218633214Y-109183333D01*
X218728452Y-109230952D01*
X218776071Y-109278571D01*
X218823690Y-109373809D01*
X218823690Y-109611904D01*
X218776071Y-109707142D01*
X218728452Y-109754761D01*
X218633214Y-109802380D01*
X218395119Y-109802380D01*
X218299880Y-109754761D01*
X218252261Y-109707142D01*
X219728452Y-108802380D02*
X219252261Y-108802380D01*
X219204642Y-109278571D01*
X219252261Y-109230952D01*
X219347500Y-109183333D01*
X219585595Y-109183333D01*
X219680833Y-109230952D01*
X219728452Y-109278571D01*
X219776071Y-109373809D01*
X219776071Y-109611904D01*
X219728452Y-109707142D01*
X219680833Y-109754761D01*
X219585595Y-109802380D01*
X219347500Y-109802380D01*
X219252261Y-109754761D01*
X219204642Y-109707142D01*
X220157023Y-108897619D02*
X220204642Y-108850000D01*
X220299880Y-108802380D01*
X220537976Y-108802380D01*
X220633214Y-108850000D01*
X220680833Y-108897619D01*
X220728452Y-108992857D01*
X220728452Y-109088095D01*
X220680833Y-109230952D01*
X220109404Y-109802380D01*
X220728452Y-109802380D01*
X192061785Y-110452380D02*
X191585595Y-110452380D01*
X191537976Y-110928571D01*
X191585595Y-110880952D01*
X191680833Y-110833333D01*
X191918928Y-110833333D01*
X192014166Y-110880952D01*
X192061785Y-110928571D01*
X192109404Y-111023809D01*
X192109404Y-111261904D01*
X192061785Y-111357142D01*
X192014166Y-111404761D01*
X191918928Y-111452380D01*
X191680833Y-111452380D01*
X191585595Y-111404761D01*
X191537976Y-111357142D01*
X192537976Y-111357142D02*
X192585595Y-111404761D01*
X192537976Y-111452380D01*
X192490357Y-111404761D01*
X192537976Y-111357142D01*
X192537976Y-111452380D01*
X194299880Y-110500000D02*
X194204642Y-110452380D01*
X194061785Y-110452380D01*
X193918928Y-110500000D01*
X193823690Y-110595238D01*
X193776071Y-110690476D01*
X193728452Y-110880952D01*
X193728452Y-111023809D01*
X193776071Y-111214285D01*
X193823690Y-111309523D01*
X193918928Y-111404761D01*
X194061785Y-111452380D01*
X194157023Y-111452380D01*
X194299880Y-111404761D01*
X194347500Y-111357142D01*
X194347500Y-111023809D01*
X194157023Y-111023809D01*
X194776071Y-111452380D02*
X194776071Y-110785714D01*
X194776071Y-110976190D02*
X194823690Y-110880952D01*
X194871309Y-110833333D01*
X194966547Y-110785714D01*
X195061785Y-110785714D01*
X195776071Y-111404761D02*
X195680833Y-111452380D01*
X195490357Y-111452380D01*
X195395119Y-111404761D01*
X195347500Y-111309523D01*
X195347500Y-110928571D01*
X195395119Y-110833333D01*
X195490357Y-110785714D01*
X195680833Y-110785714D01*
X195776071Y-110833333D01*
X195823690Y-110928571D01*
X195823690Y-111023809D01*
X195347500Y-111119047D01*
X196633214Y-111404761D02*
X196537976Y-111452380D01*
X196347500Y-111452380D01*
X196252261Y-111404761D01*
X196204642Y-111309523D01*
X196204642Y-110928571D01*
X196252261Y-110833333D01*
X196347500Y-110785714D01*
X196537976Y-110785714D01*
X196633214Y-110833333D01*
X196680833Y-110928571D01*
X196680833Y-111023809D01*
X196204642Y-111119047D01*
X197109404Y-110785714D02*
X197109404Y-111452380D01*
X197109404Y-110880952D02*
X197157023Y-110833333D01*
X197252261Y-110785714D01*
X197395119Y-110785714D01*
X197490357Y-110833333D01*
X197537976Y-110928571D01*
X197537976Y-111452380D01*
X198728452Y-111404761D02*
X198823690Y-111452380D01*
X199014166Y-111452380D01*
X199109404Y-111404761D01*
X199157023Y-111309523D01*
X199157023Y-111261904D01*
X199109404Y-111166666D01*
X199014166Y-111119047D01*
X198871309Y-111119047D01*
X198776071Y-111071428D01*
X198728452Y-110976190D01*
X198728452Y-110928571D01*
X198776071Y-110833333D01*
X198871309Y-110785714D01*
X199014166Y-110785714D01*
X199109404Y-110833333D01*
X199728452Y-111452380D02*
X199633214Y-111404761D01*
X199585595Y-111357142D01*
X199537976Y-111261904D01*
X199537976Y-110976190D01*
X199585595Y-110880952D01*
X199633214Y-110833333D01*
X199728452Y-110785714D01*
X199871309Y-110785714D01*
X199966547Y-110833333D01*
X200014166Y-110880952D01*
X200061785Y-110976190D01*
X200061785Y-111261904D01*
X200014166Y-111357142D01*
X199966547Y-111404761D01*
X199871309Y-111452380D01*
X199728452Y-111452380D01*
X200633214Y-111452380D02*
X200537976Y-111404761D01*
X200490357Y-111309523D01*
X200490357Y-110452380D01*
X201442738Y-111452380D02*
X201442738Y-110452380D01*
X201442738Y-111404761D02*
X201347500Y-111452380D01*
X201157023Y-111452380D01*
X201061785Y-111404761D01*
X201014166Y-111357142D01*
X200966547Y-111261904D01*
X200966547Y-110976190D01*
X201014166Y-110880952D01*
X201061785Y-110833333D01*
X201157023Y-110785714D01*
X201347500Y-110785714D01*
X201442738Y-110833333D01*
X202299880Y-111404761D02*
X202204642Y-111452380D01*
X202014166Y-111452380D01*
X201918928Y-111404761D01*
X201871309Y-111309523D01*
X201871309Y-110928571D01*
X201918928Y-110833333D01*
X202014166Y-110785714D01*
X202204642Y-110785714D01*
X202299880Y-110833333D01*
X202347500Y-110928571D01*
X202347500Y-111023809D01*
X201871309Y-111119047D01*
X202776071Y-111452380D02*
X202776071Y-110785714D01*
X202776071Y-110976190D02*
X202823690Y-110880952D01*
X202871309Y-110833333D01*
X202966547Y-110785714D01*
X203061785Y-110785714D01*
X204157023Y-111452380D02*
X204157023Y-110785714D01*
X204157023Y-110880952D02*
X204204642Y-110833333D01*
X204299880Y-110785714D01*
X204442738Y-110785714D01*
X204537976Y-110833333D01*
X204585595Y-110928571D01*
X204585595Y-111452380D01*
X204585595Y-110928571D02*
X204633214Y-110833333D01*
X204728452Y-110785714D01*
X204871309Y-110785714D01*
X204966547Y-110833333D01*
X205014166Y-110928571D01*
X205014166Y-111452380D01*
X205918928Y-111452380D02*
X205918928Y-110928571D01*
X205871309Y-110833333D01*
X205776071Y-110785714D01*
X205585595Y-110785714D01*
X205490357Y-110833333D01*
X205918928Y-111404761D02*
X205823690Y-111452380D01*
X205585595Y-111452380D01*
X205490357Y-111404761D01*
X205442738Y-111309523D01*
X205442738Y-111214285D01*
X205490357Y-111119047D01*
X205585595Y-111071428D01*
X205823690Y-111071428D01*
X205918928Y-111023809D01*
X206347500Y-111404761D02*
X206442738Y-111452380D01*
X206633214Y-111452380D01*
X206728452Y-111404761D01*
X206776071Y-111309523D01*
X206776071Y-111261904D01*
X206728452Y-111166666D01*
X206633214Y-111119047D01*
X206490357Y-111119047D01*
X206395119Y-111071428D01*
X206347500Y-110976190D01*
X206347500Y-110928571D01*
X206395119Y-110833333D01*
X206490357Y-110785714D01*
X206633214Y-110785714D01*
X206728452Y-110833333D01*
X207204642Y-111452380D02*
X207204642Y-110452380D01*
X207299880Y-111071428D02*
X207585595Y-111452380D01*
X207585595Y-110785714D02*
X207204642Y-111166666D01*
X192014166Y-112102380D02*
X191823690Y-112102380D01*
X191728452Y-112150000D01*
X191680833Y-112197619D01*
X191585595Y-112340476D01*
X191537976Y-112530952D01*
X191537976Y-112911904D01*
X191585595Y-113007142D01*
X191633214Y-113054761D01*
X191728452Y-113102380D01*
X191918928Y-113102380D01*
X192014166Y-113054761D01*
X192061785Y-113007142D01*
X192109404Y-112911904D01*
X192109404Y-112673809D01*
X192061785Y-112578571D01*
X192014166Y-112530952D01*
X191918928Y-112483333D01*
X191728452Y-112483333D01*
X191633214Y-112530952D01*
X191585595Y-112578571D01*
X191537976Y-112673809D01*
X192537976Y-113007142D02*
X192585595Y-113054761D01*
X192537976Y-113102380D01*
X192490357Y-113054761D01*
X192537976Y-113007142D01*
X192537976Y-113102380D01*
X193680833Y-112102380D02*
X193918928Y-113102380D01*
X194109404Y-112388095D01*
X194299880Y-113102380D01*
X194537976Y-112102380D01*
X194918928Y-113102380D02*
X194918928Y-112102380D01*
X195347500Y-113102380D02*
X195347500Y-112578571D01*
X195299880Y-112483333D01*
X195204642Y-112435714D01*
X195061785Y-112435714D01*
X194966547Y-112483333D01*
X194918928Y-112530952D01*
X195823690Y-113102380D02*
X195823690Y-112435714D01*
X195823690Y-112102380D02*
X195776071Y-112150000D01*
X195823690Y-112197619D01*
X195871309Y-112150000D01*
X195823690Y-112102380D01*
X195823690Y-112197619D01*
X196157023Y-112435714D02*
X196537976Y-112435714D01*
X196299880Y-112102380D02*
X196299880Y-112959523D01*
X196347500Y-113054761D01*
X196442738Y-113102380D01*
X196537976Y-113102380D01*
X197252261Y-113054761D02*
X197157023Y-113102380D01*
X196966547Y-113102380D01*
X196871309Y-113054761D01*
X196823690Y-112959523D01*
X196823690Y-112578571D01*
X196871309Y-112483333D01*
X196966547Y-112435714D01*
X197157023Y-112435714D01*
X197252261Y-112483333D01*
X197299880Y-112578571D01*
X197299880Y-112673809D01*
X196823690Y-112769047D01*
X198442738Y-113054761D02*
X198537976Y-113102380D01*
X198728452Y-113102380D01*
X198823690Y-113054761D01*
X198871309Y-112959523D01*
X198871309Y-112911904D01*
X198823690Y-112816666D01*
X198728452Y-112769047D01*
X198585595Y-112769047D01*
X198490357Y-112721428D01*
X198442738Y-112626190D01*
X198442738Y-112578571D01*
X198490357Y-112483333D01*
X198585595Y-112435714D01*
X198728452Y-112435714D01*
X198823690Y-112483333D01*
X199299880Y-113102380D02*
X199299880Y-112435714D01*
X199299880Y-112102380D02*
X199252261Y-112150000D01*
X199299880Y-112197619D01*
X199347500Y-112150000D01*
X199299880Y-112102380D01*
X199299880Y-112197619D01*
X199918928Y-113102380D02*
X199823690Y-113054761D01*
X199776071Y-112959523D01*
X199776071Y-112102380D01*
X200299880Y-113102380D02*
X200299880Y-112102380D01*
X200395119Y-112721428D02*
X200680833Y-113102380D01*
X200680833Y-112435714D02*
X200299880Y-112816666D01*
X201061785Y-113054761D02*
X201157023Y-113102380D01*
X201347500Y-113102380D01*
X201442738Y-113054761D01*
X201490357Y-112959523D01*
X201490357Y-112911904D01*
X201442738Y-112816666D01*
X201347500Y-112769047D01*
X201204642Y-112769047D01*
X201109404Y-112721428D01*
X201061785Y-112626190D01*
X201061785Y-112578571D01*
X201109404Y-112483333D01*
X201204642Y-112435714D01*
X201347500Y-112435714D01*
X201442738Y-112483333D01*
X202347500Y-113054761D02*
X202252261Y-113102380D01*
X202061785Y-113102380D01*
X201966547Y-113054761D01*
X201918928Y-113007142D01*
X201871309Y-112911904D01*
X201871309Y-112626190D01*
X201918928Y-112530952D01*
X201966547Y-112483333D01*
X202061785Y-112435714D01*
X202252261Y-112435714D01*
X202347500Y-112483333D01*
X202776071Y-113102380D02*
X202776071Y-112435714D01*
X202776071Y-112626190D02*
X202823690Y-112530952D01*
X202871309Y-112483333D01*
X202966547Y-112435714D01*
X203061785Y-112435714D01*
X203776071Y-113054761D02*
X203680833Y-113102380D01*
X203490357Y-113102380D01*
X203395119Y-113054761D01*
X203347500Y-112959523D01*
X203347500Y-112578571D01*
X203395119Y-112483333D01*
X203490357Y-112435714D01*
X203680833Y-112435714D01*
X203776071Y-112483333D01*
X203823690Y-112578571D01*
X203823690Y-112673809D01*
X203347500Y-112769047D01*
X204633214Y-113054761D02*
X204537976Y-113102380D01*
X204347500Y-113102380D01*
X204252261Y-113054761D01*
X204204642Y-112959523D01*
X204204642Y-112578571D01*
X204252261Y-112483333D01*
X204347500Y-112435714D01*
X204537976Y-112435714D01*
X204633214Y-112483333D01*
X204680833Y-112578571D01*
X204680833Y-112673809D01*
X204204642Y-112769047D01*
X205109404Y-112435714D02*
X205109404Y-113102380D01*
X205109404Y-112530952D02*
X205157023Y-112483333D01*
X205252261Y-112435714D01*
X205395119Y-112435714D01*
X205490357Y-112483333D01*
X205537976Y-112578571D01*
X205537976Y-113102380D01*
X191490357Y-113752380D02*
X192157023Y-113752380D01*
X191728452Y-114752380D01*
X192537976Y-114657142D02*
X192585595Y-114704761D01*
X192537976Y-114752380D01*
X192490357Y-114704761D01*
X192537976Y-114657142D01*
X192537976Y-114752380D01*
X193776071Y-114752380D02*
X193776071Y-113752380D01*
X194347500Y-114752380D01*
X194347500Y-113752380D01*
X194966547Y-114752380D02*
X194871309Y-114704761D01*
X194823690Y-114657142D01*
X194776071Y-114561904D01*
X194776071Y-114276190D01*
X194823690Y-114180952D01*
X194871309Y-114133333D01*
X194966547Y-114085714D01*
X195109404Y-114085714D01*
X195204642Y-114133333D01*
X195252261Y-114180952D01*
X195299880Y-114276190D01*
X195299880Y-114561904D01*
X195252261Y-114657142D01*
X195204642Y-114704761D01*
X195109404Y-114752380D01*
X194966547Y-114752380D01*
X196442738Y-114704761D02*
X196537976Y-114752380D01*
X196728452Y-114752380D01*
X196823690Y-114704761D01*
X196871309Y-114609523D01*
X196871309Y-114561904D01*
X196823690Y-114466666D01*
X196728452Y-114419047D01*
X196585595Y-114419047D01*
X196490357Y-114371428D01*
X196442738Y-114276190D01*
X196442738Y-114228571D01*
X196490357Y-114133333D01*
X196585595Y-114085714D01*
X196728452Y-114085714D01*
X196823690Y-114133333D01*
X197299880Y-114752380D02*
X197299880Y-114085714D01*
X197299880Y-113752380D02*
X197252261Y-113800000D01*
X197299880Y-113847619D01*
X197347500Y-113800000D01*
X197299880Y-113752380D01*
X197299880Y-113847619D01*
X197918928Y-114752380D02*
X197823690Y-114704761D01*
X197776071Y-114609523D01*
X197776071Y-113752380D01*
X198299880Y-114752380D02*
X198299880Y-113752380D01*
X198395119Y-114371428D02*
X198680833Y-114752380D01*
X198680833Y-114085714D02*
X198299880Y-114466666D01*
X199061785Y-114704761D02*
X199157023Y-114752380D01*
X199347500Y-114752380D01*
X199442738Y-114704761D01*
X199490357Y-114609523D01*
X199490357Y-114561904D01*
X199442738Y-114466666D01*
X199347500Y-114419047D01*
X199204642Y-114419047D01*
X199109404Y-114371428D01*
X199061785Y-114276190D01*
X199061785Y-114228571D01*
X199109404Y-114133333D01*
X199204642Y-114085714D01*
X199347500Y-114085714D01*
X199442738Y-114133333D01*
X200347500Y-114704761D02*
X200252261Y-114752380D01*
X200061785Y-114752380D01*
X199966547Y-114704761D01*
X199918928Y-114657142D01*
X199871309Y-114561904D01*
X199871309Y-114276190D01*
X199918928Y-114180952D01*
X199966547Y-114133333D01*
X200061785Y-114085714D01*
X200252261Y-114085714D01*
X200347500Y-114133333D01*
X200776071Y-114752380D02*
X200776071Y-114085714D01*
X200776071Y-114276190D02*
X200823690Y-114180952D01*
X200871309Y-114133333D01*
X200966547Y-114085714D01*
X201061785Y-114085714D01*
X201776071Y-114704761D02*
X201680833Y-114752380D01*
X201490357Y-114752380D01*
X201395119Y-114704761D01*
X201347500Y-114609523D01*
X201347500Y-114228571D01*
X201395119Y-114133333D01*
X201490357Y-114085714D01*
X201680833Y-114085714D01*
X201776071Y-114133333D01*
X201823690Y-114228571D01*
X201823690Y-114323809D01*
X201347500Y-114419047D01*
X202633214Y-114704761D02*
X202537976Y-114752380D01*
X202347500Y-114752380D01*
X202252261Y-114704761D01*
X202204642Y-114609523D01*
X202204642Y-114228571D01*
X202252261Y-114133333D01*
X202347500Y-114085714D01*
X202537976Y-114085714D01*
X202633214Y-114133333D01*
X202680833Y-114228571D01*
X202680833Y-114323809D01*
X202204642Y-114419047D01*
X203109404Y-114085714D02*
X203109404Y-114752380D01*
X203109404Y-114180952D02*
X203157023Y-114133333D01*
X203252261Y-114085714D01*
X203395119Y-114085714D01*
X203490357Y-114133333D01*
X203537976Y-114228571D01*
X203537976Y-114752380D01*
X205204642Y-114752380D02*
X205204642Y-114228571D01*
X205157023Y-114133333D01*
X205061785Y-114085714D01*
X204871309Y-114085714D01*
X204776071Y-114133333D01*
X205204642Y-114704761D02*
X205109404Y-114752380D01*
X204871309Y-114752380D01*
X204776071Y-114704761D01*
X204728452Y-114609523D01*
X204728452Y-114514285D01*
X204776071Y-114419047D01*
X204871309Y-114371428D01*
X205109404Y-114371428D01*
X205204642Y-114323809D01*
X205823690Y-114752380D02*
X205728452Y-114704761D01*
X205680833Y-114609523D01*
X205680833Y-113752380D01*
X206347500Y-114752380D02*
X206252261Y-114704761D01*
X206204642Y-114609523D01*
X206204642Y-113752380D01*
X206871309Y-114752380D02*
X206776071Y-114704761D01*
X206728452Y-114657142D01*
X206680833Y-114561904D01*
X206680833Y-114276190D01*
X206728452Y-114180952D01*
X206776071Y-114133333D01*
X206871309Y-114085714D01*
X207014166Y-114085714D01*
X207109404Y-114133333D01*
X207157023Y-114180952D01*
X207204642Y-114276190D01*
X207204642Y-114561904D01*
X207157023Y-114657142D01*
X207109404Y-114704761D01*
X207014166Y-114752380D01*
X206871309Y-114752380D01*
X207537976Y-114085714D02*
X207728452Y-114752380D01*
X207918928Y-114276190D01*
X208109404Y-114752380D01*
X208299880Y-114085714D01*
X209061785Y-114704761D02*
X208966547Y-114752380D01*
X208776071Y-114752380D01*
X208680833Y-114704761D01*
X208633214Y-114609523D01*
X208633214Y-114228571D01*
X208680833Y-114133333D01*
X208776071Y-114085714D01*
X208966547Y-114085714D01*
X209061785Y-114133333D01*
X209109404Y-114228571D01*
X209109404Y-114323809D01*
X208633214Y-114419047D01*
X209966547Y-114752380D02*
X209966547Y-113752380D01*
X209966547Y-114704761D02*
X209871309Y-114752380D01*
X209680833Y-114752380D01*
X209585595Y-114704761D01*
X209537976Y-114657142D01*
X209490357Y-114561904D01*
X209490357Y-114276190D01*
X209537976Y-114180952D01*
X209585595Y-114133333D01*
X209680833Y-114085714D01*
X209871309Y-114085714D01*
X209966547Y-114133333D01*
X211347500Y-114752380D02*
X211252261Y-114704761D01*
X211204642Y-114657142D01*
X211157023Y-114561904D01*
X211157023Y-114276190D01*
X211204642Y-114180952D01*
X211252261Y-114133333D01*
X211347500Y-114085714D01*
X211490357Y-114085714D01*
X211585595Y-114133333D01*
X211633214Y-114180952D01*
X211680833Y-114276190D01*
X211680833Y-114561904D01*
X211633214Y-114657142D01*
X211585595Y-114704761D01*
X211490357Y-114752380D01*
X211347500Y-114752380D01*
X212109404Y-114085714D02*
X212109404Y-114752380D01*
X212109404Y-114180952D02*
X212157023Y-114133333D01*
X212252261Y-114085714D01*
X212395119Y-114085714D01*
X212490357Y-114133333D01*
X212537976Y-114228571D01*
X212537976Y-114752380D01*
X214204642Y-114704761D02*
X214109404Y-114752380D01*
X213918928Y-114752380D01*
X213823690Y-114704761D01*
X213776071Y-114657142D01*
X213728452Y-114561904D01*
X213728452Y-114276190D01*
X213776071Y-114180952D01*
X213823690Y-114133333D01*
X213918928Y-114085714D01*
X214109404Y-114085714D01*
X214204642Y-114133333D01*
X214776071Y-114752380D02*
X214680833Y-114704761D01*
X214633214Y-114657142D01*
X214585595Y-114561904D01*
X214585595Y-114276190D01*
X214633214Y-114180952D01*
X214680833Y-114133333D01*
X214776071Y-114085714D01*
X214918928Y-114085714D01*
X215014166Y-114133333D01*
X215061785Y-114180952D01*
X215109404Y-114276190D01*
X215109404Y-114561904D01*
X215061785Y-114657142D01*
X215014166Y-114704761D01*
X214918928Y-114752380D01*
X214776071Y-114752380D01*
X215537976Y-114752380D02*
X215537976Y-114085714D01*
X215537976Y-114180952D02*
X215585595Y-114133333D01*
X215680833Y-114085714D01*
X215823690Y-114085714D01*
X215918928Y-114133333D01*
X215966547Y-114228571D01*
X215966547Y-114752380D01*
X215966547Y-114228571D02*
X216014166Y-114133333D01*
X216109404Y-114085714D01*
X216252261Y-114085714D01*
X216347500Y-114133333D01*
X216395119Y-114228571D01*
X216395119Y-114752380D01*
X216871309Y-114085714D02*
X216871309Y-115085714D01*
X216871309Y-114133333D02*
X216966547Y-114085714D01*
X217157023Y-114085714D01*
X217252261Y-114133333D01*
X217299880Y-114180952D01*
X217347500Y-114276190D01*
X217347500Y-114561904D01*
X217299880Y-114657142D01*
X217252261Y-114704761D01*
X217157023Y-114752380D01*
X216966547Y-114752380D01*
X216871309Y-114704761D01*
X217918928Y-114752380D02*
X217823690Y-114704761D01*
X217776071Y-114657142D01*
X217728452Y-114561904D01*
X217728452Y-114276190D01*
X217776071Y-114180952D01*
X217823690Y-114133333D01*
X217918928Y-114085714D01*
X218061785Y-114085714D01*
X218157023Y-114133333D01*
X218204642Y-114180952D01*
X218252261Y-114276190D01*
X218252261Y-114561904D01*
X218204642Y-114657142D01*
X218157023Y-114704761D01*
X218061785Y-114752380D01*
X217918928Y-114752380D01*
X218680833Y-114085714D02*
X218680833Y-114752380D01*
X218680833Y-114180952D02*
X218728452Y-114133333D01*
X218823690Y-114085714D01*
X218966547Y-114085714D01*
X219061785Y-114133333D01*
X219109404Y-114228571D01*
X219109404Y-114752380D01*
X219966547Y-114704761D02*
X219871309Y-114752380D01*
X219680833Y-114752380D01*
X219585595Y-114704761D01*
X219537976Y-114609523D01*
X219537976Y-114228571D01*
X219585595Y-114133333D01*
X219680833Y-114085714D01*
X219871309Y-114085714D01*
X219966547Y-114133333D01*
X220014166Y-114228571D01*
X220014166Y-114323809D01*
X219537976Y-114419047D01*
X220442738Y-114085714D02*
X220442738Y-114752380D01*
X220442738Y-114180952D02*
X220490357Y-114133333D01*
X220585595Y-114085714D01*
X220728452Y-114085714D01*
X220823690Y-114133333D01*
X220871309Y-114228571D01*
X220871309Y-114752380D01*
X221204642Y-114085714D02*
X221585595Y-114085714D01*
X221347500Y-113752380D02*
X221347500Y-114609523D01*
X221395119Y-114704761D01*
X221490357Y-114752380D01*
X221585595Y-114752380D01*
X222680833Y-114085714D02*
X222680833Y-115085714D01*
X222680833Y-114133333D02*
X222776071Y-114085714D01*
X222966547Y-114085714D01*
X223061785Y-114133333D01*
X223109404Y-114180952D01*
X223157023Y-114276190D01*
X223157023Y-114561904D01*
X223109404Y-114657142D01*
X223061785Y-114704761D01*
X222966547Y-114752380D01*
X222776071Y-114752380D01*
X222680833Y-114704761D01*
X224014166Y-114752380D02*
X224014166Y-114228571D01*
X223966547Y-114133333D01*
X223871309Y-114085714D01*
X223680833Y-114085714D01*
X223585595Y-114133333D01*
X224014166Y-114704761D02*
X223918928Y-114752380D01*
X223680833Y-114752380D01*
X223585595Y-114704761D01*
X223537976Y-114609523D01*
X223537976Y-114514285D01*
X223585595Y-114419047D01*
X223680833Y-114371428D01*
X223918928Y-114371428D01*
X224014166Y-114323809D01*
X224918928Y-114752380D02*
X224918928Y-113752380D01*
X224918928Y-114704761D02*
X224823690Y-114752380D01*
X224633214Y-114752380D01*
X224537976Y-114704761D01*
X224490357Y-114657142D01*
X224442738Y-114561904D01*
X224442738Y-114276190D01*
X224490357Y-114180952D01*
X224537976Y-114133333D01*
X224633214Y-114085714D01*
X224823690Y-114085714D01*
X224918928Y-114133333D01*
X225347500Y-114704761D02*
X225442738Y-114752380D01*
X225633214Y-114752380D01*
X225728452Y-114704761D01*
X225776071Y-114609523D01*
X225776071Y-114561904D01*
X225728452Y-114466666D01*
X225633214Y-114419047D01*
X225490357Y-114419047D01*
X225395119Y-114371428D01*
X225347500Y-114276190D01*
X225347500Y-114228571D01*
X225395119Y-114133333D01*
X225490357Y-114085714D01*
X225633214Y-114085714D01*
X225728452Y-114133333D01*
X191728452Y-115830952D02*
X191633214Y-115783333D01*
X191585595Y-115735714D01*
X191537976Y-115640476D01*
X191537976Y-115592857D01*
X191585595Y-115497619D01*
X191633214Y-115450000D01*
X191728452Y-115402380D01*
X191918928Y-115402380D01*
X192014166Y-115450000D01*
X192061785Y-115497619D01*
X192109404Y-115592857D01*
X192109404Y-115640476D01*
X192061785Y-115735714D01*
X192014166Y-115783333D01*
X191918928Y-115830952D01*
X191728452Y-115830952D01*
X191633214Y-115878571D01*
X191585595Y-115926190D01*
X191537976Y-116021428D01*
X191537976Y-116211904D01*
X191585595Y-116307142D01*
X191633214Y-116354761D01*
X191728452Y-116402380D01*
X191918928Y-116402380D01*
X192014166Y-116354761D01*
X192061785Y-116307142D01*
X192109404Y-116211904D01*
X192109404Y-116021428D01*
X192061785Y-115926190D01*
X192014166Y-115878571D01*
X191918928Y-115830952D01*
X192537976Y-116307142D02*
X192585595Y-116354761D01*
X192537976Y-116402380D01*
X192490357Y-116354761D01*
X192537976Y-116307142D01*
X192537976Y-116402380D01*
X193776071Y-115878571D02*
X194109404Y-115878571D01*
X194252261Y-116402380D02*
X193776071Y-116402380D01*
X193776071Y-115402380D01*
X194252261Y-115402380D01*
X195109404Y-116354761D02*
X195014166Y-116402380D01*
X194823690Y-116402380D01*
X194728452Y-116354761D01*
X194680833Y-116307142D01*
X194633214Y-116211904D01*
X194633214Y-115926190D01*
X194680833Y-115830952D01*
X194728452Y-115783333D01*
X194823690Y-115735714D01*
X195014166Y-115735714D01*
X195109404Y-115783333D01*
X195680833Y-116402380D02*
X195585595Y-116354761D01*
X195537976Y-116307142D01*
X195490357Y-116211904D01*
X195490357Y-115926190D01*
X195537976Y-115830952D01*
X195585595Y-115783333D01*
X195680833Y-115735714D01*
X195823690Y-115735714D01*
X195918928Y-115783333D01*
X195966547Y-115830952D01*
X196014166Y-115926190D01*
X196014166Y-116211904D01*
X195966547Y-116307142D01*
X195918928Y-116354761D01*
X195823690Y-116402380D01*
X195680833Y-116402380D01*
X196966547Y-116402380D02*
X196395119Y-116402380D01*
X196680833Y-116402380D02*
X196680833Y-115402380D01*
X196585595Y-115545238D01*
X196490357Y-115640476D01*
X196395119Y-115688095D01*
X197395119Y-116307142D02*
X197442738Y-116354761D01*
X197395119Y-116402380D01*
X197347500Y-116354761D01*
X197395119Y-116307142D01*
X197395119Y-116402380D01*
X197871309Y-115402380D02*
X197871309Y-116211904D01*
X197918928Y-116307142D01*
X197966547Y-116354761D01*
X198061785Y-116402380D01*
X198252261Y-116402380D01*
X198347500Y-116354761D01*
X198395119Y-116307142D01*
X198442738Y-116211904D01*
X198442738Y-115402380D01*
X198871309Y-116354761D02*
X198966547Y-116402380D01*
X199157023Y-116402380D01*
X199252261Y-116354761D01*
X199299880Y-116259523D01*
X199299880Y-116211904D01*
X199252261Y-116116666D01*
X199157023Y-116069047D01*
X199014166Y-116069047D01*
X198918928Y-116021428D01*
X198871309Y-115926190D01*
X198871309Y-115878571D01*
X198918928Y-115783333D01*
X199014166Y-115735714D01*
X199157023Y-115735714D01*
X199252261Y-115783333D01*
X200109404Y-116354761D02*
X200014166Y-116402380D01*
X199823690Y-116402380D01*
X199728452Y-116354761D01*
X199680833Y-116259523D01*
X199680833Y-115878571D01*
X199728452Y-115783333D01*
X199823690Y-115735714D01*
X200014166Y-115735714D01*
X200109404Y-115783333D01*
X200157023Y-115878571D01*
X200157023Y-115973809D01*
X199680833Y-116069047D01*
X200585595Y-116402380D02*
X200585595Y-115735714D01*
X200585595Y-115926190D02*
X200633214Y-115830952D01*
X200680833Y-115783333D01*
X200776071Y-115735714D01*
X200871309Y-115735714D01*
X201966547Y-115735714D02*
X201966547Y-116735714D01*
X201966547Y-115783333D02*
X202061785Y-115735714D01*
X202252261Y-115735714D01*
X202347500Y-115783333D01*
X202395119Y-115830952D01*
X202442738Y-115926190D01*
X202442738Y-116211904D01*
X202395119Y-116307142D01*
X202347500Y-116354761D01*
X202252261Y-116402380D01*
X202061785Y-116402380D01*
X201966547Y-116354761D01*
X203014166Y-116402380D02*
X202918928Y-116354761D01*
X202871309Y-116307142D01*
X202823690Y-116211904D01*
X202823690Y-115926190D01*
X202871309Y-115830952D01*
X202918928Y-115783333D01*
X203014166Y-115735714D01*
X203157023Y-115735714D01*
X203252261Y-115783333D01*
X203299880Y-115830952D01*
X203347500Y-115926190D01*
X203347500Y-116211904D01*
X203299880Y-116307142D01*
X203252261Y-116354761D01*
X203157023Y-116402380D01*
X203014166Y-116402380D01*
X203918928Y-116402380D02*
X203823690Y-116354761D01*
X203776071Y-116259523D01*
X203776071Y-115402380D01*
X204204642Y-115735714D02*
X204442738Y-116402380D01*
X204680833Y-115735714D02*
X204442738Y-116402380D01*
X204347500Y-116640476D01*
X204299880Y-116688095D01*
X204204642Y-116735714D01*
X205490357Y-115735714D02*
X205490357Y-116545238D01*
X205442738Y-116640476D01*
X205395119Y-116688095D01*
X205299880Y-116735714D01*
X205157023Y-116735714D01*
X205061785Y-116688095D01*
X205490357Y-116354761D02*
X205395119Y-116402380D01*
X205204642Y-116402380D01*
X205109404Y-116354761D01*
X205061785Y-116307142D01*
X205014166Y-116211904D01*
X205014166Y-115926190D01*
X205061785Y-115830952D01*
X205109404Y-115783333D01*
X205204642Y-115735714D01*
X205395119Y-115735714D01*
X205490357Y-115783333D01*
X206109404Y-116402380D02*
X206014166Y-116354761D01*
X205966547Y-116307142D01*
X205918928Y-116211904D01*
X205918928Y-115926190D01*
X205966547Y-115830952D01*
X206014166Y-115783333D01*
X206109404Y-115735714D01*
X206252261Y-115735714D01*
X206347500Y-115783333D01*
X206395119Y-115830952D01*
X206442738Y-115926190D01*
X206442738Y-116211904D01*
X206395119Y-116307142D01*
X206347500Y-116354761D01*
X206252261Y-116402380D01*
X206109404Y-116402380D01*
X206871309Y-115735714D02*
X206871309Y-116402380D01*
X206871309Y-115830952D02*
X206918928Y-115783333D01*
X207014166Y-115735714D01*
X207157023Y-115735714D01*
X207252261Y-115783333D01*
X207299880Y-115878571D01*
X207299880Y-116402380D01*
X208966547Y-116354761D02*
X208871309Y-116402380D01*
X208680833Y-116402380D01*
X208585595Y-116354761D01*
X208537976Y-116307142D01*
X208490357Y-116211904D01*
X208490357Y-115926190D01*
X208537976Y-115830952D01*
X208585595Y-115783333D01*
X208680833Y-115735714D01*
X208871309Y-115735714D01*
X208966547Y-115783333D01*
X209537976Y-116402380D02*
X209442738Y-116354761D01*
X209395119Y-116307142D01*
X209347500Y-116211904D01*
X209347500Y-115926190D01*
X209395119Y-115830952D01*
X209442738Y-115783333D01*
X209537976Y-115735714D01*
X209680833Y-115735714D01*
X209776071Y-115783333D01*
X209823690Y-115830952D01*
X209871309Y-115926190D01*
X209871309Y-116211904D01*
X209823690Y-116307142D01*
X209776071Y-116354761D01*
X209680833Y-116402380D01*
X209537976Y-116402380D01*
X210204642Y-115735714D02*
X210442738Y-116402380D01*
X210680833Y-115735714D01*
X211442738Y-116354761D02*
X211347500Y-116402380D01*
X211157023Y-116402380D01*
X211061785Y-116354761D01*
X211014166Y-116259523D01*
X211014166Y-115878571D01*
X211061785Y-115783333D01*
X211157023Y-115735714D01*
X211347500Y-115735714D01*
X211442738Y-115783333D01*
X211490357Y-115878571D01*
X211490357Y-115973809D01*
X211014166Y-116069047D01*
X211918928Y-116402380D02*
X211918928Y-115735714D01*
X211918928Y-115926190D02*
X211966547Y-115830952D01*
X212014166Y-115783333D01*
X212109404Y-115735714D01*
X212204642Y-115735714D01*
X212490357Y-116354761D02*
X212585595Y-116402380D01*
X212776071Y-116402380D01*
X212871309Y-116354761D01*
X212918928Y-116259523D01*
X212918928Y-116211904D01*
X212871309Y-116116666D01*
X212776071Y-116069047D01*
X212633214Y-116069047D01*
X212537976Y-116021428D01*
X212490357Y-115926190D01*
X212490357Y-115878571D01*
X212537976Y-115783333D01*
X212633214Y-115735714D01*
X212776071Y-115735714D01*
X212871309Y-115783333D01*
X214014166Y-115735714D02*
X214252261Y-116402380D01*
X214490357Y-115735714D01*
X214871309Y-116402380D02*
X214871309Y-115735714D01*
X214871309Y-115402380D02*
X214823690Y-115450000D01*
X214871309Y-115497619D01*
X214918928Y-115450000D01*
X214871309Y-115402380D01*
X214871309Y-115497619D01*
X215776071Y-116402380D02*
X215776071Y-115878571D01*
X215728452Y-115783333D01*
X215633214Y-115735714D01*
X215442738Y-115735714D01*
X215347500Y-115783333D01*
X215776071Y-116354761D02*
X215680833Y-116402380D01*
X215442738Y-116402380D01*
X215347500Y-116354761D01*
X215299880Y-116259523D01*
X215299880Y-116164285D01*
X215347500Y-116069047D01*
X215442738Y-116021428D01*
X215680833Y-116021428D01*
X215776071Y-115973809D01*
X216204642Y-116354761D02*
X216299880Y-116402380D01*
X216490357Y-116402380D01*
X216585595Y-116354761D01*
X216633214Y-116259523D01*
X216633214Y-116211904D01*
X216585595Y-116116666D01*
X216490357Y-116069047D01*
X216347500Y-116069047D01*
X216252261Y-116021428D01*
X216204642Y-115926190D01*
X216204642Y-115878571D01*
X216252261Y-115783333D01*
X216347500Y-115735714D01*
X216490357Y-115735714D01*
X216585595Y-115783333D01*
X217728452Y-115735714D02*
X217918928Y-116402380D01*
X218109404Y-115926190D01*
X218299880Y-116402380D01*
X218490357Y-115735714D01*
X218871309Y-116402380D02*
X218871309Y-115402380D01*
X219299880Y-116402380D02*
X219299880Y-115878571D01*
X219252261Y-115783333D01*
X219157023Y-115735714D01*
X219014166Y-115735714D01*
X218918928Y-115783333D01*
X218871309Y-115830952D01*
X219776071Y-116402380D02*
X219776071Y-115735714D01*
X219776071Y-115402380D02*
X219728452Y-115450000D01*
X219776071Y-115497619D01*
X219823690Y-115450000D01*
X219776071Y-115402380D01*
X219776071Y-115497619D01*
X220680833Y-116354761D02*
X220585595Y-116402380D01*
X220395119Y-116402380D01*
X220299880Y-116354761D01*
X220252261Y-116307142D01*
X220204642Y-116211904D01*
X220204642Y-115926190D01*
X220252261Y-115830952D01*
X220299880Y-115783333D01*
X220395119Y-115735714D01*
X220585595Y-115735714D01*
X220680833Y-115783333D01*
X221109404Y-116402380D02*
X221109404Y-115402380D01*
X221537976Y-116402380D02*
X221537976Y-115878571D01*
X221490357Y-115783333D01*
X221395119Y-115735714D01*
X221252261Y-115735714D01*
X221157023Y-115783333D01*
X221109404Y-115830952D01*
X222728452Y-116354761D02*
X222823690Y-116402380D01*
X223014166Y-116402380D01*
X223109404Y-116354761D01*
X223157023Y-116259523D01*
X223157023Y-116211904D01*
X223109404Y-116116666D01*
X223014166Y-116069047D01*
X222871309Y-116069047D01*
X222776071Y-116021428D01*
X222728452Y-115926190D01*
X222728452Y-115878571D01*
X222776071Y-115783333D01*
X222871309Y-115735714D01*
X223014166Y-115735714D01*
X223109404Y-115783333D01*
X223585595Y-116402380D02*
X223585595Y-115402380D01*
X224014166Y-116402380D02*
X224014166Y-115878571D01*
X223966547Y-115783333D01*
X223871309Y-115735714D01*
X223728452Y-115735714D01*
X223633214Y-115783333D01*
X223585595Y-115830952D01*
X224633214Y-116402380D02*
X224537976Y-116354761D01*
X224490357Y-116307142D01*
X224442738Y-116211904D01*
X224442738Y-115926190D01*
X224490357Y-115830952D01*
X224537976Y-115783333D01*
X224633214Y-115735714D01*
X224776071Y-115735714D01*
X224871309Y-115783333D01*
X224918928Y-115830952D01*
X224966547Y-115926190D01*
X224966547Y-116211904D01*
X224918928Y-116307142D01*
X224871309Y-116354761D01*
X224776071Y-116402380D01*
X224633214Y-116402380D01*
X225823690Y-115735714D02*
X225823690Y-116402380D01*
X225395119Y-115735714D02*
X225395119Y-116259523D01*
X225442738Y-116354761D01*
X225537976Y-116402380D01*
X225680833Y-116402380D01*
X225776071Y-116354761D01*
X225823690Y-116307142D01*
X226442738Y-116402380D02*
X226347500Y-116354761D01*
X226299880Y-116259523D01*
X226299880Y-115402380D01*
X227252261Y-116402380D02*
X227252261Y-115402380D01*
X227252261Y-116354761D02*
X227157023Y-116402380D01*
X226966547Y-116402380D01*
X226871309Y-116354761D01*
X226823690Y-116307142D01*
X226776071Y-116211904D01*
X226776071Y-115926190D01*
X226823690Y-115830952D01*
X226871309Y-115783333D01*
X226966547Y-115735714D01*
X227157023Y-115735714D01*
X227252261Y-115783333D01*
X228490357Y-116402380D02*
X228490357Y-115402380D01*
X228490357Y-115783333D02*
X228585595Y-115735714D01*
X228776071Y-115735714D01*
X228871309Y-115783333D01*
X228918928Y-115830952D01*
X228966547Y-115926190D01*
X228966547Y-116211904D01*
X228918928Y-116307142D01*
X228871309Y-116354761D01*
X228776071Y-116402380D01*
X228585595Y-116402380D01*
X228490357Y-116354761D01*
X229776071Y-116354761D02*
X229680833Y-116402380D01*
X229490357Y-116402380D01*
X229395119Y-116354761D01*
X229347500Y-116259523D01*
X229347500Y-115878571D01*
X229395119Y-115783333D01*
X229490357Y-115735714D01*
X229680833Y-115735714D01*
X229776071Y-115783333D01*
X229823690Y-115878571D01*
X229823690Y-115973809D01*
X229347500Y-116069047D01*
X230871309Y-115735714D02*
X231252261Y-115735714D01*
X231014166Y-116402380D02*
X231014166Y-115545238D01*
X231061785Y-115450000D01*
X231157023Y-115402380D01*
X231252261Y-115402380D01*
X231585595Y-116402380D02*
X231585595Y-115735714D01*
X231585595Y-115402380D02*
X231537976Y-115450000D01*
X231585595Y-115497619D01*
X231633214Y-115450000D01*
X231585595Y-115402380D01*
X231585595Y-115497619D01*
X232204642Y-116402380D02*
X232109404Y-116354761D01*
X232061785Y-116259523D01*
X232061785Y-115402380D01*
X232728452Y-116402380D02*
X232633214Y-116354761D01*
X232585595Y-116259523D01*
X232585595Y-115402380D01*
X233490357Y-116354761D02*
X233395119Y-116402380D01*
X233204642Y-116402380D01*
X233109404Y-116354761D01*
X233061785Y-116259523D01*
X233061785Y-115878571D01*
X233109404Y-115783333D01*
X233204642Y-115735714D01*
X233395119Y-115735714D01*
X233490357Y-115783333D01*
X233537976Y-115878571D01*
X233537976Y-115973809D01*
X233061785Y-116069047D01*
X234395119Y-116402380D02*
X234395119Y-115402380D01*
X234395119Y-116354761D02*
X234299880Y-116402380D01*
X234109404Y-116402380D01*
X234014166Y-116354761D01*
X233966547Y-116307142D01*
X233918928Y-116211904D01*
X233918928Y-115926190D01*
X233966547Y-115830952D01*
X234014166Y-115783333D01*
X234109404Y-115735714D01*
X234299880Y-115735714D01*
X234395119Y-115783333D01*
X235537976Y-115735714D02*
X235728452Y-116402380D01*
X235918928Y-115926190D01*
X236109404Y-116402380D01*
X236299880Y-115735714D01*
X236680833Y-116402380D02*
X236680833Y-115735714D01*
X236680833Y-115402380D02*
X236633214Y-115450000D01*
X236680833Y-115497619D01*
X236728452Y-115450000D01*
X236680833Y-115402380D01*
X236680833Y-115497619D01*
X237014166Y-115735714D02*
X237395119Y-115735714D01*
X237157023Y-115402380D02*
X237157023Y-116259523D01*
X237204642Y-116354761D01*
X237299880Y-116402380D01*
X237395119Y-116402380D01*
X237728452Y-116402380D02*
X237728452Y-115402380D01*
X238157023Y-116402380D02*
X238157023Y-115878571D01*
X238109404Y-115783333D01*
X238014166Y-115735714D01*
X237871309Y-115735714D01*
X237776071Y-115783333D01*
X237728452Y-115830952D01*
X239252261Y-115735714D02*
X239633214Y-115735714D01*
X239395119Y-115402380D02*
X239395119Y-116259523D01*
X239442738Y-116354761D01*
X239537976Y-116402380D01*
X239633214Y-116402380D01*
X239966547Y-116402380D02*
X239966547Y-115402380D01*
X240395119Y-116402380D02*
X240395119Y-115878571D01*
X240347500Y-115783333D01*
X240252261Y-115735714D01*
X240109404Y-115735714D01*
X240014166Y-115783333D01*
X239966547Y-115830952D01*
X241252261Y-116354761D02*
X241157023Y-116402380D01*
X240966547Y-116402380D01*
X240871309Y-116354761D01*
X240823690Y-116259523D01*
X240823690Y-115878571D01*
X240871309Y-115783333D01*
X240966547Y-115735714D01*
X241157023Y-115735714D01*
X241252261Y-115783333D01*
X241299880Y-115878571D01*
X241299880Y-115973809D01*
X240823690Y-116069047D01*
X241728452Y-116402380D02*
X241728452Y-115735714D01*
X241728452Y-115926190D02*
X241776071Y-115830952D01*
X241823690Y-115783333D01*
X241918928Y-115735714D01*
X242014166Y-115735714D01*
X242347500Y-116402380D02*
X242347500Y-115735714D01*
X242347500Y-115830952D02*
X242395119Y-115783333D01*
X242490357Y-115735714D01*
X242633214Y-115735714D01*
X242728452Y-115783333D01*
X242776071Y-115878571D01*
X242776071Y-116402380D01*
X242776071Y-115878571D02*
X242823690Y-115783333D01*
X242918928Y-115735714D01*
X243061785Y-115735714D01*
X243157023Y-115783333D01*
X243204642Y-115878571D01*
X243204642Y-116402380D01*
X244109404Y-116402380D02*
X244109404Y-115878571D01*
X244061785Y-115783333D01*
X243966547Y-115735714D01*
X243776071Y-115735714D01*
X243680833Y-115783333D01*
X244109404Y-116354761D02*
X244014166Y-116402380D01*
X243776071Y-116402380D01*
X243680833Y-116354761D01*
X243633214Y-116259523D01*
X243633214Y-116164285D01*
X243680833Y-116069047D01*
X243776071Y-116021428D01*
X244014166Y-116021428D01*
X244109404Y-115973809D01*
X244728452Y-116402380D02*
X244633214Y-116354761D01*
X244585595Y-116259523D01*
X244585595Y-115402380D01*
X245252261Y-116402380D02*
X245157023Y-116354761D01*
X245109404Y-116259523D01*
X245109404Y-115402380D01*
X245537976Y-115735714D02*
X245776071Y-116402380D01*
X246014166Y-115735714D02*
X245776071Y-116402380D01*
X245680833Y-116640476D01*
X245633214Y-116688095D01*
X245537976Y-116735714D01*
X248347500Y-116354761D02*
X248252261Y-116402380D01*
X248061785Y-116402380D01*
X247966547Y-116354761D01*
X247918928Y-116307142D01*
X247871309Y-116211904D01*
X247871309Y-115926190D01*
X247918928Y-115830952D01*
X247966547Y-115783333D01*
X248061785Y-115735714D01*
X248252261Y-115735714D01*
X248347500Y-115783333D01*
X248918928Y-116402380D02*
X248823690Y-116354761D01*
X248776071Y-116307142D01*
X248728452Y-116211904D01*
X248728452Y-115926190D01*
X248776071Y-115830952D01*
X248823690Y-115783333D01*
X248918928Y-115735714D01*
X249061785Y-115735714D01*
X249157023Y-115783333D01*
X249204642Y-115830952D01*
X249252261Y-115926190D01*
X249252261Y-116211904D01*
X249204642Y-116307142D01*
X249157023Y-116354761D01*
X249061785Y-116402380D01*
X248918928Y-116402380D01*
X249680833Y-115735714D02*
X249680833Y-116402380D01*
X249680833Y-115830952D02*
X249728452Y-115783333D01*
X249823690Y-115735714D01*
X249966547Y-115735714D01*
X250061785Y-115783333D01*
X250109404Y-115878571D01*
X250109404Y-116402380D01*
X251014166Y-116402380D02*
X251014166Y-115402380D01*
X251014166Y-116354761D02*
X250918928Y-116402380D01*
X250728452Y-116402380D01*
X250633214Y-116354761D01*
X250585595Y-116307142D01*
X250537976Y-116211904D01*
X250537976Y-115926190D01*
X250585595Y-115830952D01*
X250633214Y-115783333D01*
X250728452Y-115735714D01*
X250918928Y-115735714D01*
X251014166Y-115783333D01*
X251918928Y-115735714D02*
X251918928Y-116402380D01*
X251490357Y-115735714D02*
X251490357Y-116259523D01*
X251537976Y-116354761D01*
X251633214Y-116402380D01*
X251776071Y-116402380D01*
X251871309Y-116354761D01*
X251918928Y-116307142D01*
X252823690Y-116354761D02*
X252728452Y-116402380D01*
X252537976Y-116402380D01*
X252442738Y-116354761D01*
X252395119Y-116307142D01*
X252347500Y-116211904D01*
X252347500Y-115926190D01*
X252395119Y-115830952D01*
X252442738Y-115783333D01*
X252537976Y-115735714D01*
X252728452Y-115735714D01*
X252823690Y-115783333D01*
X253109404Y-115735714D02*
X253490357Y-115735714D01*
X253252261Y-115402380D02*
X253252261Y-116259523D01*
X253299880Y-116354761D01*
X253395119Y-116402380D01*
X253490357Y-116402380D01*
X253823690Y-116402380D02*
X253823690Y-115735714D01*
X253823690Y-115402380D02*
X253776071Y-115450000D01*
X253823690Y-115497619D01*
X253871309Y-115450000D01*
X253823690Y-115402380D01*
X253823690Y-115497619D01*
X254204642Y-115735714D02*
X254442738Y-116402380D01*
X254680833Y-115735714D01*
X255442738Y-116354761D02*
X255347500Y-116402380D01*
X255157023Y-116402380D01*
X255061785Y-116354761D01*
X255014166Y-116259523D01*
X255014166Y-115878571D01*
X255061785Y-115783333D01*
X255157023Y-115735714D01*
X255347500Y-115735714D01*
X255442738Y-115783333D01*
X255490357Y-115878571D01*
X255490357Y-115973809D01*
X255014166Y-116069047D01*
X256680833Y-116402380D02*
X256680833Y-115735714D01*
X256680833Y-115830952D02*
X256728452Y-115783333D01*
X256823690Y-115735714D01*
X256966547Y-115735714D01*
X257061785Y-115783333D01*
X257109404Y-115878571D01*
X257109404Y-116402380D01*
X257109404Y-115878571D02*
X257157023Y-115783333D01*
X257252261Y-115735714D01*
X257395119Y-115735714D01*
X257490357Y-115783333D01*
X257537976Y-115878571D01*
X257537976Y-116402380D01*
X258442738Y-116402380D02*
X258442738Y-115878571D01*
X258395119Y-115783333D01*
X258299880Y-115735714D01*
X258109404Y-115735714D01*
X258014166Y-115783333D01*
X258442738Y-116354761D02*
X258347500Y-116402380D01*
X258109404Y-116402380D01*
X258014166Y-116354761D01*
X257966547Y-116259523D01*
X257966547Y-116164285D01*
X258014166Y-116069047D01*
X258109404Y-116021428D01*
X258347500Y-116021428D01*
X258442738Y-115973809D01*
X258776071Y-115735714D02*
X259157023Y-115735714D01*
X258918928Y-115402380D02*
X258918928Y-116259523D01*
X258966547Y-116354761D01*
X259061785Y-116402380D01*
X259157023Y-116402380D01*
X259871309Y-116354761D02*
X259776071Y-116402380D01*
X259585595Y-116402380D01*
X259490357Y-116354761D01*
X259442738Y-116259523D01*
X259442738Y-115878571D01*
X259490357Y-115783333D01*
X259585595Y-115735714D01*
X259776071Y-115735714D01*
X259871309Y-115783333D01*
X259918928Y-115878571D01*
X259918928Y-115973809D01*
X259442738Y-116069047D01*
X260347500Y-116402380D02*
X260347500Y-115735714D01*
X260347500Y-115926190D02*
X260395119Y-115830952D01*
X260442738Y-115783333D01*
X260537976Y-115735714D01*
X260633214Y-115735714D01*
X260966547Y-116402380D02*
X260966547Y-115735714D01*
X260966547Y-115402380D02*
X260918928Y-115450000D01*
X260966547Y-115497619D01*
X261014166Y-115450000D01*
X260966547Y-115402380D01*
X260966547Y-115497619D01*
X261871309Y-116402380D02*
X261871309Y-115878571D01*
X261823690Y-115783333D01*
X261728452Y-115735714D01*
X261537976Y-115735714D01*
X261442738Y-115783333D01*
X261871309Y-116354761D02*
X261776071Y-116402380D01*
X261537976Y-116402380D01*
X261442738Y-116354761D01*
X261395119Y-116259523D01*
X261395119Y-116164285D01*
X261442738Y-116069047D01*
X261537976Y-116021428D01*
X261776071Y-116021428D01*
X261871309Y-115973809D01*
X262490357Y-116402380D02*
X262395119Y-116354761D01*
X262347500Y-116259523D01*
X262347500Y-115402380D01*
X191633214Y-118052380D02*
X191823690Y-118052380D01*
X191918928Y-118004761D01*
X191966547Y-117957142D01*
X192061785Y-117814285D01*
X192109404Y-117623809D01*
X192109404Y-117242857D01*
X192061785Y-117147619D01*
X192014166Y-117100000D01*
X191918928Y-117052380D01*
X191728452Y-117052380D01*
X191633214Y-117100000D01*
X191585595Y-117147619D01*
X191537976Y-117242857D01*
X191537976Y-117480952D01*
X191585595Y-117576190D01*
X191633214Y-117623809D01*
X191728452Y-117671428D01*
X191918928Y-117671428D01*
X192014166Y-117623809D01*
X192061785Y-117576190D01*
X192109404Y-117480952D01*
X192537976Y-117957142D02*
X192585595Y-118004761D01*
X192537976Y-118052380D01*
X192490357Y-118004761D01*
X192537976Y-117957142D01*
X192537976Y-118052380D01*
X193776071Y-117528571D02*
X194109404Y-117528571D01*
X194252261Y-118052380D02*
X193776071Y-118052380D01*
X193776071Y-117052380D01*
X194252261Y-117052380D01*
X195109404Y-118004761D02*
X195014166Y-118052380D01*
X194823690Y-118052380D01*
X194728452Y-118004761D01*
X194680833Y-117957142D01*
X194633214Y-117861904D01*
X194633214Y-117576190D01*
X194680833Y-117480952D01*
X194728452Y-117433333D01*
X194823690Y-117385714D01*
X195014166Y-117385714D01*
X195109404Y-117433333D01*
X195680833Y-118052380D02*
X195585595Y-118004761D01*
X195537976Y-117957142D01*
X195490357Y-117861904D01*
X195490357Y-117576190D01*
X195537976Y-117480952D01*
X195585595Y-117433333D01*
X195680833Y-117385714D01*
X195823690Y-117385714D01*
X195918928Y-117433333D01*
X195966547Y-117480952D01*
X196014166Y-117576190D01*
X196014166Y-117861904D01*
X195966547Y-117957142D01*
X195918928Y-118004761D01*
X195823690Y-118052380D01*
X195680833Y-118052380D01*
X196395119Y-117147619D02*
X196442738Y-117100000D01*
X196537976Y-117052380D01*
X196776071Y-117052380D01*
X196871309Y-117100000D01*
X196918928Y-117147619D01*
X196966547Y-117242857D01*
X196966547Y-117338095D01*
X196918928Y-117480952D01*
X196347500Y-118052380D01*
X196966547Y-118052380D01*
X197395119Y-117957142D02*
X197442738Y-118004761D01*
X197395119Y-118052380D01*
X197347500Y-118004761D01*
X197395119Y-117957142D01*
X197395119Y-118052380D01*
X197871309Y-117052380D02*
X197871309Y-117861904D01*
X197918928Y-117957142D01*
X197966547Y-118004761D01*
X198061785Y-118052380D01*
X198252261Y-118052380D01*
X198347500Y-118004761D01*
X198395119Y-117957142D01*
X198442738Y-117861904D01*
X198442738Y-117052380D01*
X198871309Y-118004761D02*
X198966547Y-118052380D01*
X199157023Y-118052380D01*
X199252261Y-118004761D01*
X199299880Y-117909523D01*
X199299880Y-117861904D01*
X199252261Y-117766666D01*
X199157023Y-117719047D01*
X199014166Y-117719047D01*
X198918928Y-117671428D01*
X198871309Y-117576190D01*
X198871309Y-117528571D01*
X198918928Y-117433333D01*
X199014166Y-117385714D01*
X199157023Y-117385714D01*
X199252261Y-117433333D01*
X200109404Y-118004761D02*
X200014166Y-118052380D01*
X199823690Y-118052380D01*
X199728452Y-118004761D01*
X199680833Y-117909523D01*
X199680833Y-117528571D01*
X199728452Y-117433333D01*
X199823690Y-117385714D01*
X200014166Y-117385714D01*
X200109404Y-117433333D01*
X200157023Y-117528571D01*
X200157023Y-117623809D01*
X199680833Y-117719047D01*
X200585595Y-118052380D02*
X200585595Y-117385714D01*
X200585595Y-117576190D02*
X200633214Y-117480952D01*
X200680833Y-117433333D01*
X200776071Y-117385714D01*
X200871309Y-117385714D01*
X201966547Y-117385714D02*
X201966547Y-118385714D01*
X201966547Y-117433333D02*
X202061785Y-117385714D01*
X202252261Y-117385714D01*
X202347500Y-117433333D01*
X202395119Y-117480952D01*
X202442738Y-117576190D01*
X202442738Y-117861904D01*
X202395119Y-117957142D01*
X202347500Y-118004761D01*
X202252261Y-118052380D01*
X202061785Y-118052380D01*
X201966547Y-118004761D01*
X203014166Y-118052380D02*
X202918928Y-118004761D01*
X202871309Y-117957142D01*
X202823690Y-117861904D01*
X202823690Y-117576190D01*
X202871309Y-117480952D01*
X202918928Y-117433333D01*
X203014166Y-117385714D01*
X203157023Y-117385714D01*
X203252261Y-117433333D01*
X203299880Y-117480952D01*
X203347500Y-117576190D01*
X203347500Y-117861904D01*
X203299880Y-117957142D01*
X203252261Y-118004761D01*
X203157023Y-118052380D01*
X203014166Y-118052380D01*
X203918928Y-118052380D02*
X203823690Y-118004761D01*
X203776071Y-117909523D01*
X203776071Y-117052380D01*
X204204642Y-117385714D02*
X204442738Y-118052380D01*
X204680833Y-117385714D02*
X204442738Y-118052380D01*
X204347500Y-118290476D01*
X204299880Y-118338095D01*
X204204642Y-118385714D01*
X205490357Y-117385714D02*
X205490357Y-118195238D01*
X205442738Y-118290476D01*
X205395119Y-118338095D01*
X205299880Y-118385714D01*
X205157023Y-118385714D01*
X205061785Y-118338095D01*
X205490357Y-118004761D02*
X205395119Y-118052380D01*
X205204642Y-118052380D01*
X205109404Y-118004761D01*
X205061785Y-117957142D01*
X205014166Y-117861904D01*
X205014166Y-117576190D01*
X205061785Y-117480952D01*
X205109404Y-117433333D01*
X205204642Y-117385714D01*
X205395119Y-117385714D01*
X205490357Y-117433333D01*
X206109404Y-118052380D02*
X206014166Y-118004761D01*
X205966547Y-117957142D01*
X205918928Y-117861904D01*
X205918928Y-117576190D01*
X205966547Y-117480952D01*
X206014166Y-117433333D01*
X206109404Y-117385714D01*
X206252261Y-117385714D01*
X206347500Y-117433333D01*
X206395119Y-117480952D01*
X206442738Y-117576190D01*
X206442738Y-117861904D01*
X206395119Y-117957142D01*
X206347500Y-118004761D01*
X206252261Y-118052380D01*
X206109404Y-118052380D01*
X206871309Y-117385714D02*
X206871309Y-118052380D01*
X206871309Y-117480952D02*
X206918928Y-117433333D01*
X207014166Y-117385714D01*
X207157023Y-117385714D01*
X207252261Y-117433333D01*
X207299880Y-117528571D01*
X207299880Y-118052380D01*
X208966547Y-118052380D02*
X208966547Y-117052380D01*
X208966547Y-118004761D02*
X208871309Y-118052380D01*
X208680833Y-118052380D01*
X208585595Y-118004761D01*
X208537976Y-117957142D01*
X208490357Y-117861904D01*
X208490357Y-117576190D01*
X208537976Y-117480952D01*
X208585595Y-117433333D01*
X208680833Y-117385714D01*
X208871309Y-117385714D01*
X208966547Y-117433333D01*
X209823690Y-118004761D02*
X209728452Y-118052380D01*
X209537976Y-118052380D01*
X209442738Y-118004761D01*
X209395119Y-117909523D01*
X209395119Y-117528571D01*
X209442738Y-117433333D01*
X209537976Y-117385714D01*
X209728452Y-117385714D01*
X209823690Y-117433333D01*
X209871309Y-117528571D01*
X209871309Y-117623809D01*
X209395119Y-117719047D01*
X210299880Y-117385714D02*
X210299880Y-118052380D01*
X210299880Y-117480952D02*
X210347500Y-117433333D01*
X210442738Y-117385714D01*
X210585595Y-117385714D01*
X210680833Y-117433333D01*
X210728452Y-117528571D01*
X210728452Y-118052380D01*
X211347500Y-118052380D02*
X211252261Y-118004761D01*
X211204642Y-117957142D01*
X211157023Y-117861904D01*
X211157023Y-117576190D01*
X211204642Y-117480952D01*
X211252261Y-117433333D01*
X211347500Y-117385714D01*
X211490357Y-117385714D01*
X211585595Y-117433333D01*
X211633214Y-117480952D01*
X211680833Y-117576190D01*
X211680833Y-117861904D01*
X211633214Y-117957142D01*
X211585595Y-118004761D01*
X211490357Y-118052380D01*
X211347500Y-118052380D01*
X211966547Y-117385714D02*
X212347500Y-117385714D01*
X212109404Y-117052380D02*
X212109404Y-117909523D01*
X212157023Y-118004761D01*
X212252261Y-118052380D01*
X212347500Y-118052380D01*
X213061785Y-118004761D02*
X212966547Y-118052380D01*
X212776071Y-118052380D01*
X212680833Y-118004761D01*
X212633214Y-117909523D01*
X212633214Y-117528571D01*
X212680833Y-117433333D01*
X212776071Y-117385714D01*
X212966547Y-117385714D01*
X213061785Y-117433333D01*
X213109404Y-117528571D01*
X213109404Y-117623809D01*
X212633214Y-117719047D01*
X213490357Y-118004761D02*
X213585595Y-118052380D01*
X213776071Y-118052380D01*
X213871309Y-118004761D01*
X213918928Y-117909523D01*
X213918928Y-117861904D01*
X213871309Y-117766666D01*
X213776071Y-117719047D01*
X213633214Y-117719047D01*
X213537976Y-117671428D01*
X213490357Y-117576190D01*
X213490357Y-117528571D01*
X213537976Y-117433333D01*
X213633214Y-117385714D01*
X213776071Y-117385714D01*
X213871309Y-117433333D01*
X215014166Y-117385714D02*
X215204642Y-118052380D01*
X215395119Y-117576190D01*
X215585595Y-118052380D01*
X215776071Y-117385714D01*
X216157023Y-118052380D02*
X216157023Y-117052380D01*
X216585595Y-118052380D02*
X216585595Y-117528571D01*
X216537976Y-117433333D01*
X216442738Y-117385714D01*
X216299880Y-117385714D01*
X216204642Y-117433333D01*
X216157023Y-117480952D01*
X217442738Y-118004761D02*
X217347500Y-118052380D01*
X217157023Y-118052380D01*
X217061785Y-118004761D01*
X217014166Y-117909523D01*
X217014166Y-117528571D01*
X217061785Y-117433333D01*
X217157023Y-117385714D01*
X217347500Y-117385714D01*
X217442738Y-117433333D01*
X217490357Y-117528571D01*
X217490357Y-117623809D01*
X217014166Y-117719047D01*
X217918928Y-118052380D02*
X217918928Y-117385714D01*
X217918928Y-117576190D02*
X217966547Y-117480952D01*
X218014166Y-117433333D01*
X218109404Y-117385714D01*
X218204642Y-117385714D01*
X218918928Y-118004761D02*
X218823690Y-118052380D01*
X218633214Y-118052380D01*
X218537976Y-118004761D01*
X218490357Y-117909523D01*
X218490357Y-117528571D01*
X218537976Y-117433333D01*
X218633214Y-117385714D01*
X218823690Y-117385714D01*
X218918928Y-117433333D01*
X218966547Y-117528571D01*
X218966547Y-117623809D01*
X218490357Y-117719047D01*
X220157023Y-118052380D02*
X220157023Y-117052380D01*
X220633214Y-118052380D02*
X220633214Y-117052380D01*
X221014166Y-117052380D01*
X221109404Y-117100000D01*
X221157023Y-117147619D01*
X221204642Y-117242857D01*
X221204642Y-117385714D01*
X221157023Y-117480952D01*
X221109404Y-117528571D01*
X221014166Y-117576190D01*
X220633214Y-117576190D01*
X222204642Y-117957142D02*
X222157023Y-118004761D01*
X222014166Y-118052380D01*
X221918928Y-118052380D01*
X221776071Y-118004761D01*
X221680833Y-117909523D01*
X221633214Y-117814285D01*
X221585595Y-117623809D01*
X221585595Y-117480952D01*
X221633214Y-117290476D01*
X221680833Y-117195238D01*
X221776071Y-117100000D01*
X221918928Y-117052380D01*
X222014166Y-117052380D01*
X222157023Y-117100000D01*
X222204642Y-117147619D01*
X223347500Y-118004761D02*
X223490357Y-118052380D01*
X223728452Y-118052380D01*
X223823690Y-118004761D01*
X223871309Y-117957142D01*
X223918928Y-117861904D01*
X223918928Y-117766666D01*
X223871309Y-117671428D01*
X223823690Y-117623809D01*
X223728452Y-117576190D01*
X223537976Y-117528571D01*
X223442738Y-117480952D01*
X223395119Y-117433333D01*
X223347500Y-117338095D01*
X223347500Y-117242857D01*
X223395119Y-117147619D01*
X223442738Y-117100000D01*
X223537976Y-117052380D01*
X223776071Y-117052380D01*
X223918928Y-117100000D01*
X224204642Y-117385714D02*
X224585595Y-117385714D01*
X224347500Y-117052380D02*
X224347500Y-117909523D01*
X224395119Y-118004761D01*
X224490357Y-118052380D01*
X224585595Y-118052380D01*
X225347500Y-118052380D02*
X225347500Y-117528571D01*
X225299880Y-117433333D01*
X225204642Y-117385714D01*
X225014166Y-117385714D01*
X224918928Y-117433333D01*
X225347500Y-118004761D02*
X225252261Y-118052380D01*
X225014166Y-118052380D01*
X224918928Y-118004761D01*
X224871309Y-117909523D01*
X224871309Y-117814285D01*
X224918928Y-117719047D01*
X225014166Y-117671428D01*
X225252261Y-117671428D01*
X225347500Y-117623809D01*
X225823690Y-117385714D02*
X225823690Y-118052380D01*
X225823690Y-117480952D02*
X225871309Y-117433333D01*
X225966547Y-117385714D01*
X226109404Y-117385714D01*
X226204642Y-117433333D01*
X226252261Y-117528571D01*
X226252261Y-118052380D01*
X227157023Y-118052380D02*
X227157023Y-117052380D01*
X227157023Y-118004761D02*
X227061785Y-118052380D01*
X226871309Y-118052380D01*
X226776071Y-118004761D01*
X226728452Y-117957142D01*
X226680833Y-117861904D01*
X226680833Y-117576190D01*
X226728452Y-117480952D01*
X226776071Y-117433333D01*
X226871309Y-117385714D01*
X227061785Y-117385714D01*
X227157023Y-117433333D01*
X228061785Y-118052380D02*
X228061785Y-117528571D01*
X228014166Y-117433333D01*
X227918928Y-117385714D01*
X227728452Y-117385714D01*
X227633214Y-117433333D01*
X228061785Y-118004761D02*
X227966547Y-118052380D01*
X227728452Y-118052380D01*
X227633214Y-118004761D01*
X227585595Y-117909523D01*
X227585595Y-117814285D01*
X227633214Y-117719047D01*
X227728452Y-117671428D01*
X227966547Y-117671428D01*
X228061785Y-117623809D01*
X228537976Y-118052380D02*
X228537976Y-117385714D01*
X228537976Y-117576190D02*
X228585595Y-117480952D01*
X228633214Y-117433333D01*
X228728452Y-117385714D01*
X228823690Y-117385714D01*
X229585595Y-118052380D02*
X229585595Y-117052380D01*
X229585595Y-118004761D02*
X229490357Y-118052380D01*
X229299880Y-118052380D01*
X229204642Y-118004761D01*
X229157023Y-117957142D01*
X229109404Y-117861904D01*
X229109404Y-117576190D01*
X229157023Y-117480952D01*
X229204642Y-117433333D01*
X229299880Y-117385714D01*
X229490357Y-117385714D01*
X229585595Y-117433333D01*
X230823690Y-118052380D02*
X230823690Y-117052380D01*
X230823690Y-117528571D02*
X231395119Y-117528571D01*
X231395119Y-118052380D02*
X231395119Y-117052380D01*
X232299880Y-118052380D02*
X232299880Y-117528571D01*
X232252261Y-117433333D01*
X232157023Y-117385714D01*
X231966547Y-117385714D01*
X231871309Y-117433333D01*
X232299880Y-118004761D02*
X232204642Y-118052380D01*
X231966547Y-118052380D01*
X231871309Y-118004761D01*
X231823690Y-117909523D01*
X231823690Y-117814285D01*
X231871309Y-117719047D01*
X231966547Y-117671428D01*
X232204642Y-117671428D01*
X232299880Y-117623809D01*
X232776071Y-118052380D02*
X232776071Y-117385714D01*
X232776071Y-117576190D02*
X232823690Y-117480952D01*
X232871309Y-117433333D01*
X232966547Y-117385714D01*
X233061785Y-117385714D01*
X233823690Y-118052380D02*
X233823690Y-117052380D01*
X233823690Y-118004761D02*
X233728452Y-118052380D01*
X233537976Y-118052380D01*
X233442738Y-118004761D01*
X233395119Y-117957142D01*
X233347500Y-117861904D01*
X233347500Y-117576190D01*
X233395119Y-117480952D01*
X233442738Y-117433333D01*
X233537976Y-117385714D01*
X233728452Y-117385714D01*
X233823690Y-117433333D01*
X235585595Y-117100000D02*
X235490357Y-117052380D01*
X235347499Y-117052380D01*
X235204642Y-117100000D01*
X235109404Y-117195238D01*
X235061785Y-117290476D01*
X235014166Y-117480952D01*
X235014166Y-117623809D01*
X235061785Y-117814285D01*
X235109404Y-117909523D01*
X235204642Y-118004761D01*
X235347499Y-118052380D01*
X235442738Y-118052380D01*
X235585595Y-118004761D01*
X235633214Y-117957142D01*
X235633214Y-117623809D01*
X235442738Y-117623809D01*
X236204642Y-118052380D02*
X236109404Y-118004761D01*
X236061785Y-117957142D01*
X236014166Y-117861904D01*
X236014166Y-117576190D01*
X236061785Y-117480952D01*
X236109404Y-117433333D01*
X236204642Y-117385714D01*
X236347499Y-117385714D01*
X236442738Y-117433333D01*
X236490357Y-117480952D01*
X236537976Y-117576190D01*
X236537976Y-117861904D01*
X236490357Y-117957142D01*
X236442738Y-118004761D01*
X236347499Y-118052380D01*
X236204642Y-118052380D01*
X237109404Y-118052380D02*
X237014166Y-118004761D01*
X236966547Y-117909523D01*
X236966547Y-117052380D01*
X237918928Y-118052380D02*
X237918928Y-117052380D01*
X237918928Y-118004761D02*
X237823690Y-118052380D01*
X237633214Y-118052380D01*
X237537976Y-118004761D01*
X237490357Y-117957142D01*
X237442738Y-117861904D01*
X237442738Y-117576190D01*
X237490357Y-117480952D01*
X237537976Y-117433333D01*
X237633214Y-117385714D01*
X237823690Y-117385714D01*
X237918928Y-117433333D01*
X239490357Y-117528571D02*
X239157023Y-117528571D01*
X239157023Y-118052380D02*
X239157023Y-117052380D01*
X239633214Y-117052380D01*
X240014166Y-118052380D02*
X240014166Y-117385714D01*
X240014166Y-117052380D02*
X239966547Y-117100000D01*
X240014166Y-117147619D01*
X240061785Y-117100000D01*
X240014166Y-117052380D01*
X240014166Y-117147619D01*
X240490357Y-117385714D02*
X240490357Y-118052380D01*
X240490357Y-117480952D02*
X240537976Y-117433333D01*
X240633214Y-117385714D01*
X240776071Y-117385714D01*
X240871309Y-117433333D01*
X240918928Y-117528571D01*
X240918928Y-118052380D01*
X241395119Y-118052380D02*
X241395119Y-117385714D01*
X241395119Y-117052380D02*
X241347499Y-117100000D01*
X241395119Y-117147619D01*
X241442738Y-117100000D01*
X241395119Y-117052380D01*
X241395119Y-117147619D01*
X241823690Y-118004761D02*
X241918928Y-118052380D01*
X242109404Y-118052380D01*
X242204642Y-118004761D01*
X242252261Y-117909523D01*
X242252261Y-117861904D01*
X242204642Y-117766666D01*
X242109404Y-117719047D01*
X241966547Y-117719047D01*
X241871309Y-117671428D01*
X241823690Y-117576190D01*
X241823690Y-117528571D01*
X241871309Y-117433333D01*
X241966547Y-117385714D01*
X242109404Y-117385714D01*
X242204642Y-117433333D01*
X242680833Y-118052380D02*
X242680833Y-117052380D01*
X243109404Y-118052380D02*
X243109404Y-117528571D01*
X243061785Y-117433333D01*
X242966547Y-117385714D01*
X242823690Y-117385714D01*
X242728452Y-117433333D01*
X242680833Y-117480952D01*
X244347499Y-118052380D02*
X244347499Y-117385714D01*
X244347499Y-117052380D02*
X244299880Y-117100000D01*
X244347499Y-117147619D01*
X244395119Y-117100000D01*
X244347499Y-117052380D01*
X244347499Y-117147619D01*
X244776071Y-118004761D02*
X244871309Y-118052380D01*
X245061785Y-118052380D01*
X245157023Y-118004761D01*
X245204642Y-117909523D01*
X245204642Y-117861904D01*
X245157023Y-117766666D01*
X245061785Y-117719047D01*
X244918928Y-117719047D01*
X244823690Y-117671428D01*
X244776071Y-117576190D01*
X244776071Y-117528571D01*
X244823690Y-117433333D01*
X244918928Y-117385714D01*
X245061785Y-117385714D01*
X245157023Y-117433333D01*
X246823690Y-118052380D02*
X246823690Y-117528571D01*
X246776071Y-117433333D01*
X246680833Y-117385714D01*
X246490357Y-117385714D01*
X246395119Y-117433333D01*
X246823690Y-118004761D02*
X246728452Y-118052380D01*
X246490357Y-118052380D01*
X246395119Y-118004761D01*
X246347499Y-117909523D01*
X246347499Y-117814285D01*
X246395119Y-117719047D01*
X246490357Y-117671428D01*
X246728452Y-117671428D01*
X246823690Y-117623809D01*
X247299880Y-117385714D02*
X247299880Y-118385714D01*
X247299880Y-117433333D02*
X247395119Y-117385714D01*
X247585595Y-117385714D01*
X247680833Y-117433333D01*
X247728452Y-117480952D01*
X247776071Y-117576190D01*
X247776071Y-117861904D01*
X247728452Y-117957142D01*
X247680833Y-118004761D01*
X247585595Y-118052380D01*
X247395119Y-118052380D01*
X247299880Y-118004761D01*
X248204642Y-117385714D02*
X248204642Y-118385714D01*
X248204642Y-117433333D02*
X248299880Y-117385714D01*
X248490357Y-117385714D01*
X248585595Y-117433333D01*
X248633214Y-117480952D01*
X248680833Y-117576190D01*
X248680833Y-117861904D01*
X248633214Y-117957142D01*
X248585595Y-118004761D01*
X248490357Y-118052380D01*
X248299880Y-118052380D01*
X248204642Y-118004761D01*
X249252261Y-118052380D02*
X249157023Y-118004761D01*
X249109404Y-117909523D01*
X249109404Y-117052380D01*
X249633214Y-118052380D02*
X249633214Y-117385714D01*
X249633214Y-117052380D02*
X249585595Y-117100000D01*
X249633214Y-117147619D01*
X249680833Y-117100000D01*
X249633214Y-117052380D01*
X249633214Y-117147619D01*
X250490357Y-118004761D02*
X250395119Y-118052380D01*
X250204642Y-118052380D01*
X250109404Y-118004761D01*
X250061785Y-117909523D01*
X250061785Y-117528571D01*
X250109404Y-117433333D01*
X250204642Y-117385714D01*
X250395119Y-117385714D01*
X250490357Y-117433333D01*
X250537976Y-117528571D01*
X250537976Y-117623809D01*
X250061785Y-117719047D01*
X251395119Y-118052380D02*
X251395119Y-117052380D01*
X251395119Y-118004761D02*
X251299880Y-118052380D01*
X251109404Y-118052380D01*
X251014166Y-118004761D01*
X250966547Y-117957142D01*
X250918928Y-117861904D01*
X250918928Y-117576190D01*
X250966547Y-117480952D01*
X251014166Y-117433333D01*
X251109404Y-117385714D01*
X251299880Y-117385714D01*
X251395119Y-117433333D01*
X252918928Y-118433333D02*
X252871309Y-118385714D01*
X252776071Y-118242857D01*
X252728452Y-118147619D01*
X252680833Y-118004761D01*
X252633214Y-117766666D01*
X252633214Y-117576190D01*
X252680833Y-117338095D01*
X252728452Y-117195238D01*
X252776071Y-117100000D01*
X252871309Y-116957142D01*
X252918928Y-116909523D01*
X253442738Y-118052380D02*
X253347499Y-118004761D01*
X253299880Y-117957142D01*
X253252261Y-117861904D01*
X253252261Y-117576190D01*
X253299880Y-117480952D01*
X253347499Y-117433333D01*
X253442738Y-117385714D01*
X253585595Y-117385714D01*
X253680833Y-117433333D01*
X253728452Y-117480952D01*
X253776071Y-117576190D01*
X253776071Y-117861904D01*
X253728452Y-117957142D01*
X253680833Y-118004761D01*
X253585595Y-118052380D01*
X253442738Y-118052380D01*
X254204642Y-117385714D02*
X254204642Y-118052380D01*
X254204642Y-117480952D02*
X254252261Y-117433333D01*
X254347499Y-117385714D01*
X254490357Y-117385714D01*
X254585595Y-117433333D01*
X254633214Y-117528571D01*
X254633214Y-118052380D01*
X255728452Y-117385714D02*
X256109404Y-117385714D01*
X255871309Y-117052380D02*
X255871309Y-117909523D01*
X255918928Y-118004761D01*
X256014166Y-118052380D01*
X256109404Y-118052380D01*
X256442738Y-118052380D02*
X256442738Y-117052380D01*
X256871309Y-118052380D02*
X256871309Y-117528571D01*
X256823690Y-117433333D01*
X256728452Y-117385714D01*
X256585595Y-117385714D01*
X256490357Y-117433333D01*
X256442738Y-117480952D01*
X257728452Y-118004761D02*
X257633214Y-118052380D01*
X257442738Y-118052380D01*
X257347499Y-118004761D01*
X257299880Y-117909523D01*
X257299880Y-117528571D01*
X257347499Y-117433333D01*
X257442738Y-117385714D01*
X257633214Y-117385714D01*
X257728452Y-117433333D01*
X257776071Y-117528571D01*
X257776071Y-117623809D01*
X257299880Y-117719047D01*
X258823690Y-117385714D02*
X259204642Y-117385714D01*
X258966547Y-118052380D02*
X258966547Y-117195238D01*
X259014166Y-117100000D01*
X259109404Y-117052380D01*
X259204642Y-117052380D01*
X259537976Y-118052380D02*
X259537976Y-117385714D01*
X259537976Y-117576190D02*
X259585595Y-117480952D01*
X259633214Y-117433333D01*
X259728452Y-117385714D01*
X259823690Y-117385714D01*
X260299880Y-118052380D02*
X260204642Y-118004761D01*
X260157023Y-117957142D01*
X260109404Y-117861904D01*
X260109404Y-117576190D01*
X260157023Y-117480952D01*
X260204642Y-117433333D01*
X260299880Y-117385714D01*
X260442738Y-117385714D01*
X260537976Y-117433333D01*
X260585595Y-117480952D01*
X260633214Y-117576190D01*
X260633214Y-117861904D01*
X260585595Y-117957142D01*
X260537976Y-118004761D01*
X260442738Y-118052380D01*
X260299880Y-118052380D01*
X261061785Y-117385714D02*
X261061785Y-118052380D01*
X261061785Y-117480952D02*
X261109404Y-117433333D01*
X261204642Y-117385714D01*
X261347499Y-117385714D01*
X261442738Y-117433333D01*
X261490357Y-117528571D01*
X261490357Y-118052380D01*
X261823690Y-117385714D02*
X262204642Y-117385714D01*
X261966547Y-117052380D02*
X261966547Y-117909523D01*
X262014166Y-118004761D01*
X262109404Y-118052380D01*
X262204642Y-118052380D01*
X263728452Y-118052380D02*
X263728452Y-117528571D01*
X263680833Y-117433333D01*
X263585595Y-117385714D01*
X263395119Y-117385714D01*
X263299880Y-117433333D01*
X263728452Y-118004761D02*
X263633214Y-118052380D01*
X263395119Y-118052380D01*
X263299880Y-118004761D01*
X263252261Y-117909523D01*
X263252261Y-117814285D01*
X263299880Y-117719047D01*
X263395119Y-117671428D01*
X263633214Y-117671428D01*
X263728452Y-117623809D01*
X264204642Y-117385714D02*
X264204642Y-118052380D01*
X264204642Y-117480952D02*
X264252261Y-117433333D01*
X264347499Y-117385714D01*
X264490357Y-117385714D01*
X264585595Y-117433333D01*
X264633214Y-117528571D01*
X264633214Y-118052380D01*
X265537976Y-118052380D02*
X265537976Y-117052380D01*
X265537976Y-118004761D02*
X265442738Y-118052380D01*
X265252261Y-118052380D01*
X265157023Y-118004761D01*
X265109404Y-117957142D01*
X265061785Y-117861904D01*
X265061785Y-117576190D01*
X265109404Y-117480952D01*
X265157023Y-117433333D01*
X265252261Y-117385714D01*
X265442738Y-117385714D01*
X265537976Y-117433333D01*
X266776071Y-118052380D02*
X266776071Y-117052380D01*
X266776071Y-117433333D02*
X266871309Y-117385714D01*
X267061785Y-117385714D01*
X267157023Y-117433333D01*
X267204642Y-117480952D01*
X267252261Y-117576190D01*
X267252261Y-117861904D01*
X267204642Y-117957142D01*
X267157023Y-118004761D01*
X267061785Y-118052380D01*
X266871309Y-118052380D01*
X266776071Y-118004761D01*
X268109404Y-118052380D02*
X268109404Y-117528571D01*
X268061785Y-117433333D01*
X267966547Y-117385714D01*
X267776071Y-117385714D01*
X267680833Y-117433333D01*
X268109404Y-118004761D02*
X268014166Y-118052380D01*
X267776071Y-118052380D01*
X267680833Y-118004761D01*
X267633214Y-117909523D01*
X267633214Y-117814285D01*
X267680833Y-117719047D01*
X267776071Y-117671428D01*
X268014166Y-117671428D01*
X268109404Y-117623809D01*
X269014166Y-118004761D02*
X268918928Y-118052380D01*
X268728452Y-118052380D01*
X268633214Y-118004761D01*
X268585595Y-117957142D01*
X268537976Y-117861904D01*
X268537976Y-117576190D01*
X268585595Y-117480952D01*
X268633214Y-117433333D01*
X268728452Y-117385714D01*
X268918928Y-117385714D01*
X269014166Y-117433333D01*
X269442738Y-118052380D02*
X269442738Y-117052380D01*
X269537976Y-117671428D02*
X269823690Y-118052380D01*
X269823690Y-117385714D02*
X269442738Y-117766666D01*
X271442738Y-118004761D02*
X271347500Y-118052380D01*
X271157023Y-118052380D01*
X271061785Y-118004761D01*
X271014166Y-117957142D01*
X270966547Y-117861904D01*
X270966547Y-117576190D01*
X271014166Y-117480952D01*
X271061785Y-117433333D01*
X271157023Y-117385714D01*
X271347500Y-117385714D01*
X271442738Y-117433333D01*
X272014166Y-118052380D02*
X271918928Y-118004761D01*
X271871309Y-117957142D01*
X271823690Y-117861904D01*
X271823690Y-117576190D01*
X271871309Y-117480952D01*
X271918928Y-117433333D01*
X272014166Y-117385714D01*
X272157023Y-117385714D01*
X272252261Y-117433333D01*
X272299880Y-117480952D01*
X272347500Y-117576190D01*
X272347500Y-117861904D01*
X272299880Y-117957142D01*
X272252261Y-118004761D01*
X272157023Y-118052380D01*
X272014166Y-118052380D01*
X272776071Y-117385714D02*
X272776071Y-118385714D01*
X272776071Y-117433333D02*
X272871309Y-117385714D01*
X273061785Y-117385714D01*
X273157023Y-117433333D01*
X273204642Y-117480952D01*
X273252261Y-117576190D01*
X273252261Y-117861904D01*
X273204642Y-117957142D01*
X273157023Y-118004761D01*
X273061785Y-118052380D01*
X272871309Y-118052380D01*
X272776071Y-118004761D01*
X273680833Y-117385714D02*
X273680833Y-118385714D01*
X273680833Y-117433333D02*
X273776071Y-117385714D01*
X273966547Y-117385714D01*
X274061785Y-117433333D01*
X274109404Y-117480952D01*
X274157023Y-117576190D01*
X274157023Y-117861904D01*
X274109404Y-117957142D01*
X274061785Y-118004761D01*
X273966547Y-118052380D01*
X273776071Y-118052380D01*
X273680833Y-118004761D01*
X274966547Y-118004761D02*
X274871309Y-118052380D01*
X274680833Y-118052380D01*
X274585595Y-118004761D01*
X274537976Y-117909523D01*
X274537976Y-117528571D01*
X274585595Y-117433333D01*
X274680833Y-117385714D01*
X274871309Y-117385714D01*
X274966547Y-117433333D01*
X275014166Y-117528571D01*
X275014166Y-117623809D01*
X274537976Y-117719047D01*
X275442738Y-118052380D02*
X275442738Y-117385714D01*
X275442738Y-117576190D02*
X275490357Y-117480952D01*
X275537976Y-117433333D01*
X275633214Y-117385714D01*
X275728452Y-117385714D01*
X276966547Y-118052380D02*
X276871309Y-118004761D01*
X276823690Y-117909523D01*
X276823690Y-117052380D01*
X277776071Y-118052380D02*
X277776071Y-117528571D01*
X277728452Y-117433333D01*
X277633214Y-117385714D01*
X277442738Y-117385714D01*
X277347500Y-117433333D01*
X277776071Y-118004761D02*
X277680833Y-118052380D01*
X277442738Y-118052380D01*
X277347500Y-118004761D01*
X277299880Y-117909523D01*
X277299880Y-117814285D01*
X277347500Y-117719047D01*
X277442738Y-117671428D01*
X277680833Y-117671428D01*
X277776071Y-117623809D01*
X278157023Y-117385714D02*
X278395119Y-118052380D01*
X278633214Y-117385714D02*
X278395119Y-118052380D01*
X278299880Y-118290476D01*
X278252261Y-118338095D01*
X278157023Y-118385714D01*
X279395119Y-118004761D02*
X279299880Y-118052380D01*
X279109404Y-118052380D01*
X279014166Y-118004761D01*
X278966547Y-117909523D01*
X278966547Y-117528571D01*
X279014166Y-117433333D01*
X279109404Y-117385714D01*
X279299880Y-117385714D01*
X279395119Y-117433333D01*
X279442738Y-117528571D01*
X279442738Y-117623809D01*
X278966547Y-117719047D01*
X279871309Y-118052380D02*
X279871309Y-117385714D01*
X279871309Y-117576190D02*
X279918928Y-117480952D01*
X279966547Y-117433333D01*
X280061785Y-117385714D01*
X280157023Y-117385714D01*
X280395119Y-118433333D02*
X280442738Y-118385714D01*
X280537976Y-118242857D01*
X280585595Y-118147619D01*
X280633214Y-118004761D01*
X280680833Y-117766666D01*
X280680833Y-117576190D01*
X280633214Y-117338095D01*
X280585595Y-117195238D01*
X280537976Y-117100000D01*
X280442738Y-116957142D01*
X280395119Y-116909523D01*
X192109404Y-119702380D02*
X191537976Y-119702380D01*
X191823690Y-119702380D02*
X191823690Y-118702380D01*
X191728452Y-118845238D01*
X191633214Y-118940476D01*
X191537976Y-118988095D01*
X192728452Y-118702380D02*
X192823690Y-118702380D01*
X192918928Y-118750000D01*
X192966547Y-118797619D01*
X193014166Y-118892857D01*
X193061785Y-119083333D01*
X193061785Y-119321428D01*
X193014166Y-119511904D01*
X192966547Y-119607142D01*
X192918928Y-119654761D01*
X192823690Y-119702380D01*
X192728452Y-119702380D01*
X192633214Y-119654761D01*
X192585595Y-119607142D01*
X192537976Y-119511904D01*
X192490357Y-119321428D01*
X192490357Y-119083333D01*
X192537976Y-118892857D01*
X192585595Y-118797619D01*
X192633214Y-118750000D01*
X192728452Y-118702380D01*
X193490357Y-119607142D02*
X193537976Y-119654761D01*
X193490357Y-119702380D01*
X193442738Y-119654761D01*
X193490357Y-119607142D01*
X193490357Y-119702380D01*
X195299880Y-119607142D02*
X195252261Y-119654761D01*
X195109404Y-119702380D01*
X195014166Y-119702380D01*
X194871309Y-119654761D01*
X194776071Y-119559523D01*
X194728452Y-119464285D01*
X194680833Y-119273809D01*
X194680833Y-119130952D01*
X194728452Y-118940476D01*
X194776071Y-118845238D01*
X194871309Y-118750000D01*
X195014166Y-118702380D01*
X195109404Y-118702380D01*
X195252261Y-118750000D01*
X195299880Y-118797619D01*
X196157023Y-119035714D02*
X196157023Y-119702380D01*
X195728452Y-119035714D02*
X195728452Y-119559523D01*
X195776071Y-119654761D01*
X195871309Y-119702380D01*
X196014166Y-119702380D01*
X196109404Y-119654761D01*
X196157023Y-119607142D01*
X197252261Y-119035714D02*
X197633214Y-119035714D01*
X197395119Y-118702380D02*
X197395119Y-119559523D01*
X197442738Y-119654761D01*
X197537976Y-119702380D01*
X197633214Y-119702380D01*
X198109404Y-119702380D02*
X198014166Y-119654761D01*
X197966547Y-119607142D01*
X197918928Y-119511904D01*
X197918928Y-119226190D01*
X197966547Y-119130952D01*
X198014166Y-119083333D01*
X198109404Y-119035714D01*
X198252261Y-119035714D01*
X198347500Y-119083333D01*
X198395119Y-119130952D01*
X198442738Y-119226190D01*
X198442738Y-119511904D01*
X198395119Y-119607142D01*
X198347500Y-119654761D01*
X198252261Y-119702380D01*
X198109404Y-119702380D01*
X199966547Y-119178571D02*
X200109404Y-119226190D01*
X200157023Y-119273809D01*
X200204642Y-119369047D01*
X200204642Y-119511904D01*
X200157023Y-119607142D01*
X200109404Y-119654761D01*
X200014166Y-119702380D01*
X199633214Y-119702380D01*
X199633214Y-118702380D01*
X199966547Y-118702380D01*
X200061785Y-118750000D01*
X200109404Y-118797619D01*
X200157023Y-118892857D01*
X200157023Y-118988095D01*
X200109404Y-119083333D01*
X200061785Y-119130952D01*
X199966547Y-119178571D01*
X199633214Y-119178571D01*
X200776071Y-119702380D02*
X200680833Y-119654761D01*
X200633214Y-119607142D01*
X200585595Y-119511904D01*
X200585595Y-119226190D01*
X200633214Y-119130952D01*
X200680833Y-119083333D01*
X200776071Y-119035714D01*
X200918928Y-119035714D01*
X201014166Y-119083333D01*
X201061785Y-119130952D01*
X201109404Y-119226190D01*
X201109404Y-119511904D01*
X201061785Y-119607142D01*
X201014166Y-119654761D01*
X200918928Y-119702380D01*
X200776071Y-119702380D01*
X201966547Y-119702380D02*
X201966547Y-119178571D01*
X201918928Y-119083333D01*
X201823690Y-119035714D01*
X201633214Y-119035714D01*
X201537976Y-119083333D01*
X201966547Y-119654761D02*
X201871309Y-119702380D01*
X201633214Y-119702380D01*
X201537976Y-119654761D01*
X201490357Y-119559523D01*
X201490357Y-119464285D01*
X201537976Y-119369047D01*
X201633214Y-119321428D01*
X201871309Y-119321428D01*
X201966547Y-119273809D01*
X202442738Y-119702380D02*
X202442738Y-119035714D01*
X202442738Y-119226190D02*
X202490357Y-119130952D01*
X202537976Y-119083333D01*
X202633214Y-119035714D01*
X202728452Y-119035714D01*
X203490357Y-119702380D02*
X203490357Y-118702380D01*
X203490357Y-119654761D02*
X203395119Y-119702380D01*
X203204642Y-119702380D01*
X203109404Y-119654761D01*
X203061785Y-119607142D01*
X203014166Y-119511904D01*
X203014166Y-119226190D01*
X203061785Y-119130952D01*
X203109404Y-119083333D01*
X203204642Y-119035714D01*
X203395119Y-119035714D01*
X203490357Y-119083333D01*
X204728452Y-119178571D02*
X205061785Y-119178571D01*
X205204642Y-119702380D02*
X204728452Y-119702380D01*
X204728452Y-118702380D01*
X205204642Y-118702380D01*
X206061785Y-119702380D02*
X206061785Y-118702380D01*
X206061785Y-119654761D02*
X205966547Y-119702380D01*
X205776071Y-119702380D01*
X205680833Y-119654761D01*
X205633214Y-119607142D01*
X205585595Y-119511904D01*
X205585595Y-119226190D01*
X205633214Y-119130952D01*
X205680833Y-119083333D01*
X205776071Y-119035714D01*
X205966547Y-119035714D01*
X206061785Y-119083333D01*
X206966547Y-119035714D02*
X206966547Y-119845238D01*
X206918928Y-119940476D01*
X206871309Y-119988095D01*
X206776071Y-120035714D01*
X206633214Y-120035714D01*
X206537976Y-119988095D01*
X206966547Y-119654761D02*
X206871309Y-119702380D01*
X206680833Y-119702380D01*
X206585595Y-119654761D01*
X206537976Y-119607142D01*
X206490357Y-119511904D01*
X206490357Y-119226190D01*
X206537976Y-119130952D01*
X206585595Y-119083333D01*
X206680833Y-119035714D01*
X206871309Y-119035714D01*
X206966547Y-119083333D01*
X207823690Y-119654761D02*
X207728452Y-119702380D01*
X207537976Y-119702380D01*
X207442738Y-119654761D01*
X207395119Y-119559523D01*
X207395119Y-119178571D01*
X207442738Y-119083333D01*
X207537976Y-119035714D01*
X207728452Y-119035714D01*
X207823690Y-119083333D01*
X207871309Y-119178571D01*
X207871309Y-119273809D01*
X207395119Y-119369047D01*
X209061785Y-119321428D02*
X209823690Y-119321428D01*
X211633214Y-119702380D02*
X211299880Y-119226190D01*
X211061785Y-119702380D02*
X211061785Y-118702380D01*
X211442738Y-118702380D01*
X211537976Y-118750000D01*
X211585595Y-118797619D01*
X211633214Y-118892857D01*
X211633214Y-119035714D01*
X211585595Y-119130952D01*
X211537976Y-119178571D01*
X211442738Y-119226190D01*
X211061785Y-119226190D01*
X212204642Y-119702380D02*
X212109404Y-119654761D01*
X212061785Y-119607142D01*
X212014166Y-119511904D01*
X212014166Y-119226190D01*
X212061785Y-119130952D01*
X212109404Y-119083333D01*
X212204642Y-119035714D01*
X212347500Y-119035714D01*
X212442738Y-119083333D01*
X212490357Y-119130952D01*
X212537976Y-119226190D01*
X212537976Y-119511904D01*
X212490357Y-119607142D01*
X212442738Y-119654761D01*
X212347500Y-119702380D01*
X212204642Y-119702380D01*
X213395119Y-119035714D02*
X213395119Y-119702380D01*
X212966547Y-119035714D02*
X212966547Y-119559523D01*
X213014166Y-119654761D01*
X213109404Y-119702380D01*
X213252261Y-119702380D01*
X213347500Y-119654761D01*
X213395119Y-119607142D01*
X213728452Y-119035714D02*
X214109404Y-119035714D01*
X213871309Y-118702380D02*
X213871309Y-119559523D01*
X213918928Y-119654761D01*
X214014166Y-119702380D01*
X214109404Y-119702380D01*
X214823690Y-119654761D02*
X214728452Y-119702380D01*
X214537976Y-119702380D01*
X214442738Y-119654761D01*
X214395119Y-119559523D01*
X214395119Y-119178571D01*
X214442738Y-119083333D01*
X214537976Y-119035714D01*
X214728452Y-119035714D01*
X214823690Y-119083333D01*
X214871309Y-119178571D01*
X214871309Y-119273809D01*
X214395119Y-119369047D01*
X215728452Y-119702380D02*
X215728452Y-118702380D01*
X215728452Y-119654761D02*
X215633214Y-119702380D01*
X215442738Y-119702380D01*
X215347500Y-119654761D01*
X215299880Y-119607142D01*
X215252261Y-119511904D01*
X215252261Y-119226190D01*
X215299880Y-119130952D01*
X215347500Y-119083333D01*
X215442738Y-119035714D01*
X215633214Y-119035714D01*
X215728452Y-119083333D01*
X216252261Y-119654761D02*
X216252261Y-119702380D01*
X216204642Y-119797619D01*
X216157023Y-119845238D01*
X217633214Y-118702380D02*
X217728452Y-118702380D01*
X217823690Y-118750000D01*
X217871309Y-118797619D01*
X217918928Y-118892857D01*
X217966547Y-119083333D01*
X217966547Y-119321428D01*
X217918928Y-119511904D01*
X217871309Y-119607142D01*
X217823690Y-119654761D01*
X217728452Y-119702380D01*
X217633214Y-119702380D01*
X217537976Y-119654761D01*
X217490357Y-119607142D01*
X217442738Y-119511904D01*
X217395119Y-119321428D01*
X217395119Y-119083333D01*
X217442738Y-118892857D01*
X217490357Y-118797619D01*
X217537976Y-118750000D01*
X217633214Y-118702380D01*
X218395119Y-119607142D02*
X218442738Y-119654761D01*
X218395119Y-119702380D01*
X218347500Y-119654761D01*
X218395119Y-119607142D01*
X218395119Y-119702380D01*
X219395119Y-119702380D02*
X218823690Y-119702380D01*
X219109404Y-119702380D02*
X219109404Y-118702380D01*
X219014166Y-118845238D01*
X218918928Y-118940476D01*
X218823690Y-118988095D01*
X220299880Y-118702380D02*
X219823690Y-118702380D01*
X219776071Y-119178571D01*
X219823690Y-119130952D01*
X219918928Y-119083333D01*
X220157023Y-119083333D01*
X220252261Y-119130952D01*
X220299880Y-119178571D01*
X220347500Y-119273809D01*
X220347500Y-119511904D01*
X220299880Y-119607142D01*
X220252261Y-119654761D01*
X220157023Y-119702380D01*
X219918928Y-119702380D01*
X219823690Y-119654761D01*
X219776071Y-119607142D01*
X220776071Y-119702380D02*
X220776071Y-119035714D01*
X220776071Y-119130952D02*
X220823690Y-119083333D01*
X220918928Y-119035714D01*
X221061785Y-119035714D01*
X221157023Y-119083333D01*
X221204642Y-119178571D01*
X221204642Y-119702380D01*
X221204642Y-119178571D02*
X221252261Y-119083333D01*
X221347500Y-119035714D01*
X221490357Y-119035714D01*
X221585595Y-119083333D01*
X221633214Y-119178571D01*
X221633214Y-119702380D01*
X222109404Y-119702380D02*
X222109404Y-119035714D01*
X222109404Y-119130952D02*
X222157023Y-119083333D01*
X222252261Y-119035714D01*
X222395119Y-119035714D01*
X222490357Y-119083333D01*
X222537976Y-119178571D01*
X222537976Y-119702380D01*
X222537976Y-119178571D02*
X222585595Y-119083333D01*
X222680833Y-119035714D01*
X222823690Y-119035714D01*
X222918928Y-119083333D01*
X222966547Y-119178571D01*
X222966547Y-119702380D01*
X163700000Y-130500000D02*
G75*
G03X163700000Y-130500000I-2200000J0D01*
G01*
X187450000Y-130500000D02*
G75*
G03X187450000Y-130500000I-2200000J0D01*
G01*
X187450000Y-82500000D02*
G75*
G03X187450000Y-82500000I-2200000J0D01*
G01*
X163700000Y-82500000D02*
G75*
G03X163700000Y-82500000I-2200000J0D01*
G01*
D11*
X181361904Y-88580952D02*
X181361904Y-88180952D01*
X181590476Y-88580952D02*
X181419047Y-88352380D01*
X181590476Y-88180952D02*
X181361904Y-88409523D01*
X181761904Y-88371428D02*
X181895238Y-88371428D01*
X181952380Y-88580952D02*
X181761904Y-88580952D01*
X181761904Y-88180952D01*
X181952380Y-88180952D01*
X182123809Y-88371428D02*
X182257142Y-88371428D01*
X182314285Y-88580952D02*
X182123809Y-88580952D01*
X182123809Y-88180952D01*
X182314285Y-88180952D01*
X182485714Y-88580952D02*
X182485714Y-88180952D01*
X182638095Y-88180952D01*
X182676190Y-88200000D01*
X182695238Y-88219047D01*
X182714285Y-88257142D01*
X182714285Y-88314285D01*
X182695238Y-88352380D01*
X182676190Y-88371428D01*
X182638095Y-88390476D01*
X182485714Y-88390476D01*
X182961904Y-88180952D02*
X183038095Y-88180952D01*
X183076190Y-88200000D01*
X183114285Y-88238095D01*
X183133333Y-88314285D01*
X183133333Y-88447619D01*
X183114285Y-88523809D01*
X183076190Y-88561904D01*
X183038095Y-88580952D01*
X182961904Y-88580952D01*
X182923809Y-88561904D01*
X182885714Y-88523809D01*
X182866666Y-88447619D01*
X182866666Y-88314285D01*
X182885714Y-88238095D01*
X182923809Y-88200000D01*
X182961904Y-88180952D01*
X183304761Y-88180952D02*
X183304761Y-88504761D01*
X183323809Y-88542857D01*
X183342857Y-88561904D01*
X183380952Y-88580952D01*
X183457142Y-88580952D01*
X183495238Y-88561904D01*
X183514285Y-88542857D01*
X183533333Y-88504761D01*
X183533333Y-88180952D01*
X183666666Y-88180952D02*
X183895238Y-88180952D01*
X183780952Y-88580952D02*
X183780952Y-88180952D01*
M02*
